<svg xmlns="http://www.w3.org/2000/svg" viewBox="0 0 364.29 146.08"><defs><style>.cls-1{fill:#fff;}.cls-2{fill:#f57f8a;}</style></defs><g id="Layer_2" data-name="Layer 2"><g id="Layer_1-2" data-name="Layer 1"><path class="cls-1" d="M31.36,17.6a7,7,0,0,1-1.53,2.16,6.75,6.75,0,0,1-2.35,1.42,9.24,9.24,0,0,1-3.21.51A9.05,9.05,0,0,1,20.7,21a7.09,7.09,0,0,1-2.69-2,9.15,9.15,0,0,1-1.7-3.15,13.65,13.65,0,0,1-.61-4.26,13.26,13.26,0,0,1,.65-4.3,9.15,9.15,0,0,1,1.8-3.17,7.73,7.73,0,0,1,2.72-2,8.7,8.7,0,0,1,3.4-.67A9,9,0,0,1,27.33,2,6.11,6.11,0,0,1,29.52,3.3a6.46,6.46,0,0,1,1.45,2,11.4,11.4,0,0,1,.85,2.55l-2.42.4a9.52,9.52,0,0,0-.63-1.89,4.57,4.57,0,0,0-1-1.44A4,4,0,0,0,26.32,4a5.86,5.86,0,0,0-2.05-.31,5.3,5.3,0,0,0-4.42,2.19,7.31,7.31,0,0,0-1.16,2.5,12,12,0,0,0-.41,3.23,12.17,12.17,0,0,0,.41,3.24,7.45,7.45,0,0,0,1.16,2.51A5.18,5.18,0,0,0,21.73,19a5.59,5.59,0,0,0,2.57.57,6.72,6.72,0,0,0,2.24-.34,3.94,3.94,0,0,0,1.53-.95A4.64,4.64,0,0,0,29,16.78a7.74,7.74,0,0,0,.51-1.88h2.56A8.83,8.83,0,0,1,31.36,17.6Z"/><path class="cls-1" d="M43.34,2l7.44,19.17H48.09l-2-5.34H37.86l-2,5.34H33.27L40.73,2Zm-1.4,2.79-3.33,8.89h6.72Z"/><path class="cls-1" d="M59.61,2a11.52,11.52,0,0,1,3.51.45,5.51,5.51,0,0,1,2.17,1.24A4.22,4.22,0,0,1,66.4,5.54a7.83,7.83,0,0,1,.3,2.19A8.06,8.06,0,0,1,66.38,10,4.51,4.51,0,0,1,65.25,12a5.4,5.4,0,0,1-2.17,1.32,10.63,10.63,0,0,1-3.47.48h-4v7.44H53.19V2Zm2.29,9.37a3.27,3.27,0,0,0,1.42-.78A2.74,2.74,0,0,0,64,9.41a5.7,5.7,0,0,0,.2-1.6A5.56,5.56,0,0,0,64,6.2,2.54,2.54,0,0,0,63.27,5a3.58,3.58,0,0,0-1.44-.68,9.56,9.56,0,0,0-2.27-.23H55.64v7.55h4A8.31,8.31,0,0,0,61.9,11.41Z"/><path class="cls-1" d="M70.79,2l5.82,16L82.55,2h2.66L77.85,21.21h-2.5L68,2Z"/><path class="cls-1" d="M93.61,2l7.44,19.17H98.37l-2-5.34H88.14l-2,5.34H83.54L91,2ZM92.22,4.83l-3.33,8.89H95.6Z"/><path class="cls-1" d="M102.72,2h2.9l4.83,7.27L115.37,2H118l-6.2,9.15,6.93,10h-2.87l-5.56-8.16-5.4,8.16h-2.71L109,11.09Z"/><path class="cls-1" d="M123.64,2V21.21h-2.47V2Z"/><path class="cls-1" d="M128.9,2l5.83,16,5.94-16h2.65L136,21.21h-2.5L126.11,2Z"/><path class="cls-1" d="M158.18,2V4.21h-9.94v6h9.4v2.2h-9.4V19h10.45l-.41,2.17H145.77V2Z"/><path class="cls-1" d="M160.05,3.65V2H169V3.65h-3.54v9.13H163.6V3.65ZM172.78,2l3.47,8.64L179.77,2H182V12.78h-1.64V4.69L177,12.78h-1.53l-3.3-8.06v8.06h-1.64V2Z"/><path class="cls-1" d="M194.05,2V9.39a6.39,6.39,0,0,1,2.25-1.9,5.78,5.78,0,0,1,2.59-.59,4.44,4.44,0,0,1,3.5,1.29A5.55,5.55,0,0,1,203.53,12v9.24h-2.36V12.43a4.26,4.26,0,0,0-.68-2.73,2.68,2.68,0,0,0-2.14-.79,4.58,4.58,0,0,0-1.54.27,3.84,3.84,0,0,0-1.39.86,4.68,4.68,0,0,0-1,1.25,3.64,3.64,0,0,0-.35,1.7v8.22h-2.33V2Z"/><path class="cls-1" d="M217.24,20.49a6.42,6.42,0,0,1-4.12,1.15,6.14,6.14,0,0,1-4.86-1.92,7.83,7.83,0,0,1-1.69-5.36,9.77,9.77,0,0,1,.48-3.19,6.72,6.72,0,0,1,1.36-2.34,5.81,5.81,0,0,1,2.08-1.44,7.54,7.54,0,0,1,5.4,0,5,5,0,0,1,1.89,1.41,6,6,0,0,1,1.1,2.13,9.7,9.7,0,0,1,.37,2.71v1.19H208.93a6.41,6.41,0,0,0,.29,1.94,4.61,4.61,0,0,0,.8,1.56,3.65,3.65,0,0,0,1.3,1,4.9,4.9,0,0,0,4.35-.28,3.25,3.25,0,0,0,1.1-1.78H219A5,5,0,0,1,217.24,20.49Zm-.55-9.19A3.56,3.56,0,0,0,216,9.92a3,3,0,0,0-1.18-.9,4.16,4.16,0,0,0-1.74-.32,3.72,3.72,0,0,0-2.89,1.12A5.42,5.42,0,0,0,209,13.1h7.92A6.73,6.73,0,0,0,216.69,11.3Z"/><path class="cls-1" d="M224.72,2V21.21h-2.33V2Z"/><path class="cls-1" d="M230.69,7.33v2a6.18,6.18,0,0,1,2-1.8,5.54,5.54,0,0,1,2.67-.61,6,6,0,0,1,2.59.53,5,5,0,0,1,1.85,1.51,6.42,6.42,0,0,1,1.1,2.29,10.86,10.86,0,0,1,.37,2.94,10.72,10.72,0,0,1-.43,3.11,6.84,6.84,0,0,1-1.24,2.35,5.49,5.49,0,0,1-1.95,1.49,6.26,6.26,0,0,1-4.88.05,5,5,0,0,1-2.06-1.68v6.93h-2.33V7.33ZM231,17a4.57,4.57,0,0,0,.85,1.58,3.1,3.1,0,0,0,1.29.89,4.59,4.59,0,0,0,1.64.29,4.26,4.26,0,0,0,1.6-.3,3.15,3.15,0,0,0,1.27-.95,4.89,4.89,0,0,0,.85-1.71,9.35,9.35,0,0,0,.31-2.55,8.49,8.49,0,0,0-.34-2.56,4.58,4.58,0,0,0-.87-1.65,3.12,3.12,0,0,0-1.22-.89A3.84,3.84,0,0,0,235,8.83a4.51,4.51,0,0,0-1.7.31,3.67,3.67,0,0,0-1.35.91,4.06,4.06,0,0,0-.9,1.53,6.38,6.38,0,0,0-.32,2.14v.94A7.66,7.66,0,0,0,231,17Z"/><path class="cls-1" d="M247.14,19.18a5.19,5.19,0,0,0,2.67.58,4,4,0,0,0,2.51-.6,2,2,0,0,0,.74-1.6,3.18,3.18,0,0,0-.1-.77,1.42,1.42,0,0,0-.36-.64,2.28,2.28,0,0,0-.75-.5,5.56,5.56,0,0,0-1.26-.35L248.81,15a12.3,12.3,0,0,1-2.06-.48,5.21,5.21,0,0,1-1.51-.76,3.07,3.07,0,0,1-.93-1.16A4.12,4.12,0,0,1,244,11a3.56,3.56,0,0,1,.41-1.72A3.93,3.93,0,0,1,245.58,8a5.81,5.81,0,0,1,1.74-.8,8,8,0,0,1,2.19-.28,9.36,9.36,0,0,1,2.51.29,4.89,4.89,0,0,1,1.65.81,3.51,3.51,0,0,1,1,1.21,6.6,6.6,0,0,1,.53,1.47l-2.12.35a5.67,5.67,0,0,0-.43-1,2.08,2.08,0,0,0-.64-.71,3,3,0,0,0-1-.43,5.84,5.84,0,0,0-1.44-.15,6.62,6.62,0,0,0-1.61.17,3.19,3.19,0,0,0-1,.47,1.68,1.68,0,0,0-.55.66,1.83,1.83,0,0,0-.16.77,2.54,2.54,0,0,0,.1.76,1.25,1.25,0,0,0,.41.59,2.59,2.59,0,0,0,.8.45,8,8,0,0,0,1.32.32l2,.32a6.77,6.77,0,0,1,3.51,1.4,3.81,3.81,0,0,1,1.06,2.9,3.77,3.77,0,0,1-.35,1.62,3.51,3.51,0,0,1-1,1.29,5,5,0,0,1-1.75.86,8.46,8.46,0,0,1-2.44.31,10.94,10.94,0,0,1-2.35-.24,6.09,6.09,0,0,1-1.92-.77,4.12,4.12,0,0,1-1.34-1.38,4.58,4.58,0,0,1-.59-2.09h2.25A2.68,2.68,0,0,0,247.14,19.18Z"/><path class="cls-1" d="M266.73,7.33v2a6.18,6.18,0,0,1,2-1.8,5.54,5.54,0,0,1,2.67-.61,6,6,0,0,1,2.59.53,5,5,0,0,1,1.85,1.51,6.42,6.42,0,0,1,1.1,2.29,10.86,10.86,0,0,1,.37,2.94,10.72,10.72,0,0,1-.43,3.11,6.84,6.84,0,0,1-1.24,2.35,5.41,5.41,0,0,1-1.95,1.49,6.26,6.26,0,0,1-4.88.05,5,5,0,0,1-2.06-1.68v6.93h-2.33V7.33ZM267,17a4.57,4.57,0,0,0,.85,1.58,3.1,3.1,0,0,0,1.29.89,4.59,4.59,0,0,0,1.64.29,4.26,4.26,0,0,0,1.6-.3,3.15,3.15,0,0,0,1.27-.95,4.89,4.89,0,0,0,.85-1.71,9.35,9.35,0,0,0,.31-2.55,8.49,8.49,0,0,0-.34-2.56,4.58,4.58,0,0,0-.87-1.65,3.12,3.12,0,0,0-1.22-.89A3.84,3.84,0,0,0,271,8.83a4.51,4.51,0,0,0-1.7.31,3.67,3.67,0,0,0-1.35.91,4.06,4.06,0,0,0-.9,1.53,6.38,6.38,0,0,0-.32,2.14v.94A7.66,7.66,0,0,0,267,17Z"/><path class="cls-1" d="M282.76,7.33V9.47a5.69,5.69,0,0,1,1.83-1.77,4.3,4.3,0,0,1,2.22-.62,6.19,6.19,0,0,1,1.24.11l-.3,2.18-.53-.1a5.3,5.3,0,0,0-.59,0,4.17,4.17,0,0,0-1.32.23,3.49,3.49,0,0,0-1.26.77,3.77,3.77,0,0,0-.93,1.18,3.51,3.51,0,0,0-.33,1.56v8.24h-2.34V7.33Z"/><path class="cls-1" d="M292.94,21.13a5.77,5.77,0,0,1-2.1-1.45,6.37,6.37,0,0,1-1.31-2.31,9.46,9.46,0,0,1-.46-3.06,9.18,9.18,0,0,1,.48-3.06,6.86,6.86,0,0,1,1.37-2.34,6.11,6.11,0,0,1,2.14-1.49,7.1,7.1,0,0,1,2.78-.52,7.23,7.23,0,0,1,2.79.51,5.92,5.92,0,0,1,2.11,1.46,6.53,6.53,0,0,1,1.33,2.3,9.46,9.46,0,0,1,.45,3,9.29,9.29,0,0,1-.47,3.09,6.73,6.73,0,0,1-1.34,2.34,5.9,5.9,0,0,1-2.13,1.49,8,8,0,0,1-5.64,0Zm4.78-1.83a3.6,3.6,0,0,0,1.33-1.12,4.84,4.84,0,0,0,.76-1.74,9.54,9.54,0,0,0,.24-2.21,9.33,9.33,0,0,0-.24-2.18,4.65,4.65,0,0,0-.76-1.7,3.7,3.7,0,0,0-1.33-1.12,4.28,4.28,0,0,0-1.94-.4,4.19,4.19,0,0,0-1.92.4,3.72,3.72,0,0,0-1.31,1.12,4.66,4.66,0,0,0-.77,1.7,9.47,9.47,0,0,0-.24,2.21,9.45,9.45,0,0,0,.24,2.2,5.08,5.08,0,0,0,.75,1.72,3.42,3.42,0,0,0,1.32,1.12,4.77,4.77,0,0,0,3.87,0Z"/><path class="cls-1" d="M304.08,9.18V7.33h2.15V3.54h2.34V7.33h3.68V9.18h-3.68v8.14A2.69,2.69,0,0,0,309,19a1.61,1.61,0,0,0,1.4.62,5.25,5.25,0,0,0,1-.08,4.67,4.67,0,0,0,.82-.21l.41,1.8a11,11,0,0,1-1.17.31,8.09,8.09,0,0,1-1.49.12,4.49,4.49,0,0,1-1.91-.35,2.87,2.87,0,0,1-1.15-1,3.85,3.85,0,0,1-.58-1.53,11.54,11.54,0,0,1-.15-1.93V9.18Z"/><path class="cls-1" d="M324.48,20.49a6.44,6.44,0,0,1-4.12,1.15,6.13,6.13,0,0,1-4.86-1.92,7.83,7.83,0,0,1-1.69-5.36,9.77,9.77,0,0,1,.48-3.19,6.42,6.42,0,0,1,1.36-2.34,5.72,5.72,0,0,1,2.08-1.44,7.51,7.51,0,0,1,5.39,0A5.11,5.11,0,0,1,325,8.82a6,6,0,0,1,1.1,2.13,9.71,9.71,0,0,1,.36,2.71v1.19H316.17a6.41,6.41,0,0,0,.28,1.94,4.81,4.81,0,0,0,.81,1.56,3.65,3.65,0,0,0,1.3,1,4,4,0,0,0,1.8.38,4,4,0,0,0,2.55-.66,3.31,3.31,0,0,0,1.1-1.78h2.26A5,5,0,0,1,324.48,20.49Zm-.55-9.19a3.7,3.7,0,0,0-.67-1.38,3,3,0,0,0-1.18-.9,4.24,4.24,0,0,0-1.75-.32,3.74,3.74,0,0,0-2.89,1.12,5.48,5.48,0,0,0-1.22,3.28h7.92A7.17,7.17,0,0,0,323.93,11.3Z"/><path class="cls-1" d="M339.77,20.27a5.89,5.89,0,0,1-4.16,1.37,7.21,7.21,0,0,1-2.8-.51,5.45,5.45,0,0,1-2.05-1.46,6.55,6.55,0,0,1-1.23-2.31,10.32,10.32,0,0,1-.42-3,9.74,9.74,0,0,1,.46-3,6.41,6.41,0,0,1,1.32-2.33A5.88,5.88,0,0,1,333,7.43a7,7,0,0,1,2.79-.53,5.58,5.58,0,0,1,3.87,1.22,5.67,5.67,0,0,1,1.75,3.37l-2.34.43a7.21,7.21,0,0,0-.36-1.24,3.43,3.43,0,0,0-.63-1,2.87,2.87,0,0,0-1-.64,3.85,3.85,0,0,0-1.39-.23,3.92,3.92,0,0,0-1.88.42,3.42,3.42,0,0,0-1.27,1.15,5.1,5.1,0,0,0-.73,1.73,10.15,10.15,0,0,0,0,4.25,4.88,4.88,0,0,0,.7,1.73,3.54,3.54,0,0,0,1.26,1.17,4,4,0,0,0,1.91.43,3.35,3.35,0,0,0,2.51-.86,4.35,4.35,0,0,0,1.06-2.34h2.36A6.11,6.11,0,0,1,339.77,20.27Z"/><path class="cls-1" d="M343.24,9.18V7.33h2.15V3.54h2.33V7.33h3.68V9.18h-3.68v8.14a2.69,2.69,0,0,0,.46,1.63,1.6,1.6,0,0,0,1.4.62,5.32,5.32,0,0,0,1-.08,4.67,4.67,0,0,0,.82-.21l.4,1.8a11,11,0,0,1-1.17.31,8,8,0,0,1-1.49.12,4.45,4.45,0,0,1-1.9-.35,2.9,2.9,0,0,1-1.16-1,4,4,0,0,1-.58-1.53,12.77,12.77,0,0,1-.14-1.93V9.18Z"/><path class="cls-1" d="M17.5,54.27a1.83,1.83,0,0,0,1.33-.44,4.53,4.53,0,0,0,.93-1.65l.56-1.48L14.44,37.17h2.71l4.38,10.9,4-10.9h2.58L22,52.37q-.37.93-.75,1.65a6.35,6.35,0,0,1-.83,1.22,3,3,0,0,1-1.09.77,4.14,4.14,0,0,1-1.54.25,8,8,0,0,1-1.16-.08,5.78,5.78,0,0,1-1.13-.3L16,54A4.64,4.64,0,0,0,17.5,54.27Z"/><path class="cls-1" d="M33.24,51a5.73,5.73,0,0,1-2.09-1.45,6.24,6.24,0,0,1-1.32-2.31,9.74,9.74,0,0,1-.46-3.06,8.93,8.93,0,0,1,.49-3.06,6.7,6.7,0,0,1,1.37-2.34,6.07,6.07,0,0,1,2.13-1.49,7.1,7.1,0,0,1,2.78-.52,7.23,7.23,0,0,1,2.79.51A5.83,5.83,0,0,1,41,38.71,6.38,6.38,0,0,1,42.37,41a9.19,9.19,0,0,1,.46,3,9.55,9.55,0,0,1-.47,3.09A6.89,6.89,0,0,1,41,49.47,6,6,0,0,1,38.88,51a8,8,0,0,1-5.64,0ZM38,49.14A3.52,3.52,0,0,0,39.35,48a5,5,0,0,0,.77-1.74,9.54,9.54,0,0,0,.24-2.21,9.33,9.33,0,0,0-.24-2.18,4.83,4.83,0,0,0-.77-1.7A3.61,3.61,0,0,0,38,39.07a4.26,4.26,0,0,0-1.93-.4,4.19,4.19,0,0,0-1.92.4,3.66,3.66,0,0,0-1.32,1.12,4.65,4.65,0,0,0-.76,1.7,9.85,9.85,0,0,0,0,4.41A5.08,5.08,0,0,0,32.84,48a3.46,3.46,0,0,0,1.31,1.12,4.31,4.31,0,0,0,1.94.41A4.26,4.26,0,0,0,38,49.14Z"/><path class="cls-1" d="M48.23,37.17v8.75a4.55,4.55,0,0,0,.63,2.74,2.43,2.43,0,0,0,2,.81,4.13,4.13,0,0,0,2.82-1.13,4.46,4.46,0,0,0,1-1.25,3.68,3.68,0,0,0,.35-1.71V37.17h2.34V51.05H55.13V48.9a6.75,6.75,0,0,1-2.2,2,5.47,5.47,0,0,1-2.56.62A4.18,4.18,0,0,1,47,50.2a5.84,5.84,0,0,1-1.06-3.82V37.17Z"/><path class="cls-1" d="M63.35,37.17v2.15a5.7,5.7,0,0,1,1.82-1.78,4.34,4.34,0,0,1,2.23-.62,6.19,6.19,0,0,1,1.24.11l-.3,2.18-.54-.1a5,5,0,0,0-.59,0,4.11,4.11,0,0,0-1.31.23,3.49,3.49,0,0,0-1.26.77,3.63,3.63,0,0,0-.93,1.18,3.51,3.51,0,0,0-.34,1.56v8.24H61V37.17Z"/><path class="cls-1" d="M83.6,50.72a5.84,5.84,0,0,1-2.88.65,6.81,6.81,0,0,1-1.92-.25,4.12,4.12,0,0,1-1.5-.78,3.52,3.52,0,0,1-1-1.3A4.33,4.33,0,0,1,76,47.21a4,4,0,0,1,.6-2.31,4.29,4.29,0,0,1,1.61-1.4,8,8,0,0,1,2.27-.72,21.74,21.74,0,0,1,2.61-.27l2.39-.08v-.54a3.6,3.6,0,0,0-.75-2.55,3.3,3.3,0,0,0-2.45-.78,4.33,4.33,0,0,0-2.44.55,2.57,2.57,0,0,0-1,1.52l-2.12-.24a4,4,0,0,1,1.8-2.78,7.33,7.33,0,0,1,3.86-.87,7.77,7.77,0,0,1,2.54.36,4.27,4.27,0,0,1,1.68,1,4,4,0,0,1,.93,1.67A8.45,8.45,0,0,1,87.76,42v9H85.5V49.14A6.91,6.91,0,0,1,83.6,50.72Zm-.38-6.54a12.82,12.82,0,0,0-2.36.26,4.67,4.67,0,0,0-1.49.58,2,2,0,0,0-.78.9,3,3,0,0,0-.23,1.24A2.29,2.29,0,0,0,79,48.84a2.86,2.86,0,0,0,2.08.63,4.69,4.69,0,0,0,3.22-1,3.56,3.56,0,0,0,1.16-2.8V44.1Z"/><path class="cls-1" d="M99.41,50.85a5.33,5.33,0,0,1-2.65.63,5.86,5.86,0,0,1-2.65-.56,5.13,5.13,0,0,1-1.84-1.55,6.7,6.7,0,0,1-1.07-2.32,11.07,11.07,0,0,1-.35-2.87,10.39,10.39,0,0,1,.43-3.11,6.81,6.81,0,0,1,1.22-2.35,5.26,5.26,0,0,1,1.93-1.47A6.3,6.3,0,0,1,97,36.74a5.94,5.94,0,0,1,2.23.44,5.15,5.15,0,0,1,2.1,1.68v-7h2.33V51.05H101.4v-2A6.23,6.23,0,0,1,99.41,50.85Zm1.66-9.75a3.67,3.67,0,0,0-1.2-1.57,3.49,3.49,0,0,0-1.19-.67,4.36,4.36,0,0,0-1.33-.19,4.18,4.18,0,0,0-1.6.3,3.19,3.19,0,0,0-1.29,1,4.71,4.71,0,0,0-.86,1.69,8.73,8.73,0,0,0-.31,2.51,8.36,8.36,0,0,0,.34,2.58,4.69,4.69,0,0,0,.88,1.67,3.26,3.26,0,0,0,1.24.88,3.8,3.8,0,0,0,1.41.27,4.58,4.58,0,0,0,1.39-.19,4,4,0,0,0,1.24-.64A4.13,4.13,0,0,0,101,47.08a6.19,6.19,0,0,0,.42-2.45v-.94A7.4,7.4,0,0,0,101.07,41.1Z"/><path class="cls-1" d="M109.57,37.17v8.75a4.55,4.55,0,0,0,.63,2.74,2.43,2.43,0,0,0,2,.81,4.13,4.13,0,0,0,2.82-1.13,4.46,4.46,0,0,0,1-1.25,3.68,3.68,0,0,0,.35-1.71V37.17h2.34V51.05h-2.31V48.9a6.75,6.75,0,0,1-2.2,2,5.47,5.47,0,0,1-2.56.62,4.18,4.18,0,0,1-3.42-1.28,5.84,5.84,0,0,1-1.06-3.82V37.17Z"/><path class="cls-1" d="M124.77,31.88V51.05h-2.34V31.88Z"/><path class="cls-1" d="M127.08,39V37.17h2.14V33.38h2.34v3.79h3.68V39h-3.68v8.14A2.68,2.68,0,0,0,132,48.8a1.61,1.61,0,0,0,1.39.61,5.36,5.36,0,0,0,1-.08,4.91,4.91,0,0,0,.82-.21l.4,1.8a11,11,0,0,1-1.17.31,8.09,8.09,0,0,1-1.49.12A4.49,4.49,0,0,1,131.1,51,2.87,2.87,0,0,1,130,50a3.85,3.85,0,0,1-.58-1.53,11.54,11.54,0,0,1-.15-1.93V39Z"/><path class="cls-1" d="M146,37.17v2a6.21,6.21,0,0,1,2-1.8,5.54,5.54,0,0,1,2.67-.61,6,6,0,0,1,2.59.53,5,5,0,0,1,1.85,1.51,6.42,6.42,0,0,1,1.1,2.29,10.86,10.86,0,0,1,.37,2.94,10.72,10.72,0,0,1-.43,3.11A6.84,6.84,0,0,1,155,49.47,5.49,5.49,0,0,1,153,51a6.26,6.26,0,0,1-4.88,0,5,5,0,0,1-2.06-1.68v6.93h-2.33V37.17Zm.31,9.62a4.57,4.57,0,0,0,.85,1.58,3.21,3.21,0,0,0,1.29.9,4.82,4.82,0,0,0,1.64.28,4.26,4.26,0,0,0,1.6-.3,3.15,3.15,0,0,0,1.27-1,4.89,4.89,0,0,0,.85-1.71,9.35,9.35,0,0,0,.31-2.55,8.49,8.49,0,0,0-.34-2.56,4.58,4.58,0,0,0-.87-1.65,3.12,3.12,0,0,0-1.22-.89,3.84,3.84,0,0,0-1.41-.27,4.51,4.51,0,0,0-1.7.31,3.79,3.79,0,0,0-1.35.91,4.14,4.14,0,0,0-.9,1.53,6.37,6.37,0,0,0-.33,2.14v.94A7.64,7.64,0,0,0,146.34,46.79Z"/><path class="cls-1" d="M166.5,50.72a5.84,5.84,0,0,1-2.88.65,6.91,6.91,0,0,1-1.92-.25,4.12,4.12,0,0,1-1.5-.78,3.52,3.52,0,0,1-1-1.3,4.49,4.49,0,0,1-.35-1.83,4,4,0,0,1,.61-2.31,4.22,4.22,0,0,1,1.61-1.4,7.85,7.85,0,0,1,2.27-.72,21.79,21.79,0,0,1,2.6-.27l2.39-.08v-.54a3.6,3.6,0,0,0-.75-2.55,3.28,3.28,0,0,0-2.44-.78,4.37,4.37,0,0,0-2.45.55,2.57,2.57,0,0,0-1,1.52l-2.12-.24a4,4,0,0,1,1.8-2.78,7.4,7.4,0,0,1,3.87-.87,7.74,7.74,0,0,1,2.53.36,4.27,4.27,0,0,1,1.68,1,4,4,0,0,1,.93,1.67,8.05,8.05,0,0,1,.28,2.23v9h-2.25V49.14A7,7,0,0,1,166.5,50.72Zm-.38-6.54a12.92,12.92,0,0,0-2.36.26,4.77,4.77,0,0,0-1.49.58,2,2,0,0,0-.78.9,3.19,3.19,0,0,0-.23,1.24,2.29,2.29,0,0,0,.63,1.68,2.88,2.88,0,0,0,2.08.63,4.72,4.72,0,0,0,3.23-1,3.55,3.55,0,0,0,1.15-2.8V44.1Z"/><path class="cls-1" d="M172.86,39V37.17H175V33.38h2.34v3.79H181V39h-3.68v8.14a2.68,2.68,0,0,0,.46,1.64,1.61,1.61,0,0,0,1.39.61,5.36,5.36,0,0,0,1-.08,5.18,5.18,0,0,0,.82-.21l.4,1.8a11,11,0,0,1-1.17.31,8.09,8.09,0,0,1-1.49.12,4.49,4.49,0,0,1-1.91-.35,2.87,2.87,0,0,1-1.15-1,3.85,3.85,0,0,1-.58-1.53,11.54,11.54,0,0,1-.15-1.93V39Z"/><path class="cls-1" d="M186,31.88v2.71h-2.5V31.88Zm-.08,5.29V51.05h-2.34V37.17Z"/><path class="cls-1" d="M199.79,50.33a6.47,6.47,0,0,1-4.13,1.15,6.14,6.14,0,0,1-4.86-1.92,7.88,7.88,0,0,1-1.69-5.36,9.77,9.77,0,0,1,.48-3.19A6.72,6.72,0,0,1,191,38.67,5.93,5.93,0,0,1,193,37.23a7.54,7.54,0,0,1,5.4,0,5,5,0,0,1,1.89,1.41,6,6,0,0,1,1.1,2.13,9.35,9.35,0,0,1,.37,2.71v1.19H191.47a6.41,6.41,0,0,0,.29,1.94,4.61,4.61,0,0,0,.8,1.56,3.74,3.74,0,0,0,1.3,1,4.9,4.9,0,0,0,4.35-.28,3.32,3.32,0,0,0,1.11-1.78h2.25A5,5,0,0,1,199.79,50.33Zm-.55-9.19a3.72,3.72,0,0,0-.68-1.38,2.89,2.89,0,0,0-1.18-.9,4.16,4.16,0,0,0-1.74-.32,3.72,3.72,0,0,0-2.89,1.12,5.42,5.42,0,0,0-1.22,3.28h7.92A7.17,7.17,0,0,0,199.24,41.14Z"/><path class="cls-1" d="M207.19,37.17v2.12a6.2,6.2,0,0,1,2.25-2,5.9,5.9,0,0,1,2.61-.59,4.44,4.44,0,0,1,3.5,1.29,5.55,5.55,0,0,1,1.14,3.78v9.24h-2.33V42.27a4.18,4.18,0,0,0-.7-2.73,2.75,2.75,0,0,0-2.15-.79A4.58,4.58,0,0,0,210,39a3.81,3.81,0,0,0-1.39.86,4.32,4.32,0,0,0-1,1.25,3.64,3.64,0,0,0-.35,1.7v8.22h-2.33V37.17Z"/><path class="cls-1" d="M218.84,39V37.17H221V33.38h2.34v3.79H227V39h-3.68v8.14a2.74,2.74,0,0,0,.45,1.64,1.63,1.63,0,0,0,1.4.61,5.25,5.25,0,0,0,1-.08,4.67,4.67,0,0,0,.82-.21l.41,1.8a11,11,0,0,1-1.17.31,8.09,8.09,0,0,1-1.49.12,4.46,4.46,0,0,1-1.91-.35,3,3,0,0,1-1.16-1,4,4,0,0,1-.57-1.53,11.54,11.54,0,0,1-.15-1.93V39Z"/><path class="cls-1" d="M232.23,49a5.19,5.19,0,0,0,2.67.58,4,4,0,0,0,2.51-.6,2,2,0,0,0,.74-1.6,3.19,3.19,0,0,0-.09-.77,1.54,1.54,0,0,0-.37-.64,2.45,2.45,0,0,0-.75-.5,5.56,5.56,0,0,0-1.26-.35l-1.77-.27a12.2,12.2,0,0,1-2.07-.48,5.47,5.47,0,0,1-1.51-.76,3,3,0,0,1-.92-1.16,4,4,0,0,1-.31-1.65,3.45,3.45,0,0,1,.42-1.72,3.79,3.79,0,0,1,1.15-1.28,5.76,5.76,0,0,1,1.75-.8,8,8,0,0,1,2.19-.28,9.41,9.41,0,0,1,2.51.29,4.89,4.89,0,0,1,1.65.81,3.48,3.48,0,0,1,1,1.21,7.16,7.16,0,0,1,.54,1.47l-2.12.35a6.54,6.54,0,0,0-.43-1,2.11,2.11,0,0,0-.65-.71,2.94,2.94,0,0,0-1-.43,5.75,5.75,0,0,0-1.43-.15,6.65,6.65,0,0,0-1.62.17,3.19,3.19,0,0,0-1,.47,1.77,1.77,0,0,0-.55.66,1.83,1.83,0,0,0-.16.77,2.25,2.25,0,0,0,.11.76,1.22,1.22,0,0,0,.4.59,2.71,2.71,0,0,0,.8.45,8,8,0,0,0,1.32.32l2,.32a6.77,6.77,0,0,1,3.51,1.4,4.28,4.28,0,0,1,.71,4.52,3.41,3.41,0,0,1-1.05,1.29,4.89,4.89,0,0,1-1.74.86,8.58,8.58,0,0,1-2.45.31,10.94,10.94,0,0,1-2.35-.24,6.09,6.09,0,0,1-1.92-.77,4.12,4.12,0,0,1-1.34-1.38,4.58,4.58,0,0,1-.59-2.09H231A2.67,2.67,0,0,0,232.23,49Z"/><path class="cls-1" d="M256.25,50.72a5.83,5.83,0,0,1-2.87.65,6.81,6.81,0,0,1-1.92-.25,4.09,4.09,0,0,1-1.51-.78,3.64,3.64,0,0,1-1-1.3,4.49,4.49,0,0,1-.35-1.83,4,4,0,0,1,.61-2.31,4.22,4.22,0,0,1,1.61-1.4,7.85,7.85,0,0,1,2.27-.72,21.79,21.79,0,0,1,2.6-.27l2.39-.08v-.54a3.6,3.6,0,0,0-.75-2.55,3.26,3.26,0,0,0-2.44-.78,4.37,4.37,0,0,0-2.45.55,2.61,2.61,0,0,0-1,1.52l-2.12-.24a4,4,0,0,1,1.8-2.78,7.4,7.4,0,0,1,3.87-.87,7.81,7.81,0,0,1,2.54.36,4.23,4.23,0,0,1,1.67,1,4,4,0,0,1,.93,1.67,8.05,8.05,0,0,1,.28,2.23v9h-2.25V49.14A6.81,6.81,0,0,1,256.25,50.72Zm-.38-6.54a13,13,0,0,0-2.36.26A4.77,4.77,0,0,0,252,45a2,2,0,0,0-.78.9,3.19,3.19,0,0,0-.23,1.24,2.25,2.25,0,0,0,.64,1.68,2.86,2.86,0,0,0,2.08.63,4.69,4.69,0,0,0,3.22-1,3.55,3.55,0,0,0,1.15-2.8V44.1Z"/><path class="cls-1" d="M267.46,54.14a5.07,5.07,0,0,0,2.65.54,3.45,3.45,0,0,0,3.05-1.23A6.25,6.25,0,0,0,274,49.9V48.42a5.73,5.73,0,0,1-1.94,1.74,5.5,5.5,0,0,1-2.68.62,5.84,5.84,0,0,1-2.62-.55,5.17,5.17,0,0,1-1.83-1.5,6.58,6.58,0,0,1-1.09-2.22,9.81,9.81,0,0,1-.37-2.71,9.38,9.38,0,0,1,.43-2.89,6.44,6.44,0,0,1,1.24-2.23,5.67,5.67,0,0,1,1.95-1.43,6.19,6.19,0,0,1,2.56-.51,5.88,5.88,0,0,1,2.3.47A5,5,0,0,1,274,38.94V37.17h2.31V48.8a18.62,18.62,0,0,1-.26,3.23,6.24,6.24,0,0,1-.94,2.45A4.32,4.32,0,0,1,273.25,56a7.7,7.7,0,0,1-3.12.54,8.06,8.06,0,0,1-4.29-1A4.18,4.18,0,0,1,264,52.34h2.31A2.79,2.79,0,0,0,267.46,54.14Zm6.27-12.85a4.17,4.17,0,0,0-.88-1.52,3.28,3.28,0,0,0-1.31-.84,4.65,4.65,0,0,0-1.54-.26,4.45,4.45,0,0,0-1.6.28,3.36,3.36,0,0,0-1.29.9,4.46,4.46,0,0,0-.86,1.59,7.87,7.87,0,0,0-.31,2.33,7.42,7.42,0,0,0,.34,2.37,4.49,4.49,0,0,0,.87,1.55,3.19,3.19,0,0,0,1.25.86,4.08,4.08,0,0,0,1.44.27,4.78,4.78,0,0,0,1.68-.29,3.75,3.75,0,0,0,1.33-.89,4.12,4.12,0,0,0,.88-1.49,6.11,6.11,0,0,0,.33-2.11v-.45A6.91,6.91,0,0,0,273.73,41.29Z"/><path class="cls-1" d="M286.68,50.72a5.84,5.84,0,0,1-2.88.65,6.91,6.91,0,0,1-1.92-.25,4.12,4.12,0,0,1-1.5-.78,3.52,3.52,0,0,1-1-1.3,4.49,4.49,0,0,1-.35-1.83,4,4,0,0,1,.61-2.31,4.22,4.22,0,0,1,1.61-1.4,7.75,7.75,0,0,1,2.27-.72,21.79,21.79,0,0,1,2.6-.27l2.39-.08v-.54a3.6,3.6,0,0,0-.75-2.55,3.28,3.28,0,0,0-2.44-.78,4.37,4.37,0,0,0-2.45.55,2.57,2.57,0,0,0-1,1.52l-2.12-.24a4,4,0,0,1,1.8-2.78,7.4,7.4,0,0,1,3.87-.87,7.74,7.74,0,0,1,2.53.36,4.27,4.27,0,0,1,1.68,1,4,4,0,0,1,.93,1.67,8.05,8.05,0,0,1,.28,2.23v9h-2.25V49.14A7,7,0,0,1,286.68,50.72Zm-.38-6.54a12.92,12.92,0,0,0-2.36.26,4.77,4.77,0,0,0-1.49.58,2,2,0,0,0-.78.9,3.19,3.19,0,0,0-.23,1.24,2.29,2.29,0,0,0,.63,1.68,2.88,2.88,0,0,0,2.08.63,4.72,4.72,0,0,0,3.23-1,3.55,3.55,0,0,0,1.15-2.8V44.1Z"/><path class="cls-1" d="M296.86,31.88v2.71h-2.5V31.88Zm-.08,5.29V51.05h-2.34V37.17Z"/><path class="cls-1" d="M302.74,37.17v2.12a6.2,6.2,0,0,1,2.25-2,5.93,5.93,0,0,1,2.61-.59A4.44,4.44,0,0,1,311.1,38a5.55,5.55,0,0,1,1.15,3.78v9.24h-2.34V42.27a4.13,4.13,0,0,0-.7-2.73,2.75,2.75,0,0,0-2.15-.79,4.58,4.58,0,0,0-1.54.27,4,4,0,0,0-1.39.86,4.68,4.68,0,0,0-1,1.25,3.65,3.65,0,0,0-.34,1.7v8.22h-2.34V37.17Z"/><path class="cls-1" d="M318.46,49a5.24,5.24,0,0,0,2.67.58,4.07,4.07,0,0,0,2.52-.6,2,2,0,0,0,.73-1.6,3.19,3.19,0,0,0-.09-.77,1.42,1.42,0,0,0-.36-.64,2.45,2.45,0,0,0-.75-.5,5.83,5.83,0,0,0-1.27-.35l-1.77-.27a12.2,12.2,0,0,1-2.07-.48,5.27,5.27,0,0,1-1.5-.76,3.07,3.07,0,0,1-.93-1.16,4.12,4.12,0,0,1-.31-1.65,3.45,3.45,0,0,1,.42-1.72,3.9,3.9,0,0,1,1.15-1.28,6,6,0,0,1,1.75-.8,8,8,0,0,1,2.19-.28,9.36,9.36,0,0,1,2.51.29,4.89,4.89,0,0,1,1.65.81,3.63,3.63,0,0,1,1,1.21,6.6,6.6,0,0,1,.53,1.47l-2.12.35a5.67,5.67,0,0,0-.43-1,2.08,2.08,0,0,0-.64-.71,3,3,0,0,0-1-.43,5.89,5.89,0,0,0-1.44-.15,6.56,6.56,0,0,0-1.61.17,3.25,3.25,0,0,0-1,.47,1.77,1.77,0,0,0-.55.66,2,2,0,0,0-.16.77,2.53,2.53,0,0,0,.11.76,1.3,1.3,0,0,0,.4.59,2.78,2.78,0,0,0,.81.45,8.1,8.1,0,0,0,1.31.32l2,.32a6.7,6.7,0,0,1,3.5,1.4,4.33,4.33,0,0,1,.72,4.52,3.61,3.61,0,0,1-1.05,1.29,5,5,0,0,1-1.75.86,8.51,8.51,0,0,1-2.44.31,10.87,10.87,0,0,1-2.35-.24,5.9,5.9,0,0,1-1.92-.77,4,4,0,0,1-1.34-1.38A4.58,4.58,0,0,1,315,47h2.26A2.7,2.7,0,0,0,318.46,49Z"/><path class="cls-1" d="M328.41,39V37.17h2.15V33.38h2.34v3.79h3.68V39H332.9v8.14a2.74,2.74,0,0,0,.45,1.64,1.63,1.63,0,0,0,1.4.61,5.25,5.25,0,0,0,1-.08,4.67,4.67,0,0,0,.82-.21l.41,1.8a11,11,0,0,1-1.17.31,8.09,8.09,0,0,1-1.49.12,4.46,4.46,0,0,1-1.91-.35,2.87,2.87,0,0,1-1.15-1,3.85,3.85,0,0,1-.58-1.53,11.54,11.54,0,0,1-.15-1.93V39Z"/><path class="cls-1" d="M14.71,68.86V67h2.15V63.22h2.33V67h3.68v1.85H19.19V77a2.75,2.75,0,0,0,.46,1.64,1.63,1.63,0,0,0,1.4.61,5.25,5.25,0,0,0,1-.08A4.67,4.67,0,0,0,22.9,79l.4,1.8a8.47,8.47,0,0,1-1.16.31,8.17,8.17,0,0,1-1.49.12,4.46,4.46,0,0,1-1.91-.35,3,3,0,0,1-1.16-1A4,4,0,0,1,17,78.31a11.54,11.54,0,0,1-.15-1.93V68.86Z"/><path class="cls-1" d="M27.71,61.72v7.35A6.46,6.46,0,0,1,30,67.17a5.78,5.78,0,0,1,2.59-.59,4.45,4.45,0,0,1,3.51,1.29,5.55,5.55,0,0,1,1.14,3.78v9.24H34.82V72.11a4.2,4.2,0,0,0-.68-2.73A2.71,2.71,0,0,0,32,68.59a4.58,4.58,0,0,0-1.54.27,3.86,3.86,0,0,0-1.38.86,4.32,4.32,0,0,0-1,1.25,3.55,3.55,0,0,0-.35,1.7v8.22H25.37V61.72Z"/><path class="cls-1" d="M50.9,80.17a6.44,6.44,0,0,1-4.12,1.15,6.11,6.11,0,0,1-4.86-1.92A7.83,7.83,0,0,1,40.22,74a9.5,9.5,0,0,1,.49-3.19,6.55,6.55,0,0,1,1.35-2.34,6,6,0,0,1,2.08-1.44,6.93,6.93,0,0,1,2.64-.49,6.8,6.8,0,0,1,2.76.51,5.11,5.11,0,0,1,1.9,1.41,6.15,6.15,0,0,1,1.1,2.13,9.71,9.71,0,0,1,.36,2.71v1.19H42.59a6.41,6.41,0,0,0,.28,1.94,4.79,4.79,0,0,0,.8,1.56,3.83,3.83,0,0,0,1.31,1,4.11,4.11,0,0,0,1.8.37,4,4,0,0,0,2.55-.66A3.37,3.37,0,0,0,50.43,77h2.25A5,5,0,0,1,50.9,80.17ZM50.35,71a3.86,3.86,0,0,0-.67-1.38,3,3,0,0,0-1.19-.9,4.16,4.16,0,0,0-1.74-.32,3.72,3.72,0,0,0-2.89,1.12,5.48,5.48,0,0,0-1.22,3.28h7.92A7.17,7.17,0,0,0,50.35,71Z"/><path class="cls-1" d="M64.7,78.86a5.24,5.24,0,0,0,2.67.58,4,4,0,0,0,2.51-.6,2,2,0,0,0,.74-1.6,3.25,3.25,0,0,0-.09-.77,1.42,1.42,0,0,0-.36-.64,2.39,2.39,0,0,0-.76-.5A5.56,5.56,0,0,0,68.15,75l-1.77-.27a12.2,12.2,0,0,1-2.07-.48,5.27,5.27,0,0,1-1.5-.76,3.07,3.07,0,0,1-.93-1.16,4.12,4.12,0,0,1-.31-1.65A3.45,3.45,0,0,1,62,68.94a3.9,3.9,0,0,1,1.15-1.28,6,6,0,0,1,1.75-.8,8,8,0,0,1,2.19-.28,9.36,9.36,0,0,1,2.51.29,4.89,4.89,0,0,1,1.65.81,3.48,3.48,0,0,1,1,1.21,6.16,6.16,0,0,1,.54,1.47l-2.12.35a6.54,6.54,0,0,0-.43-1,2.18,2.18,0,0,0-.64-.71,3,3,0,0,0-1-.43,5.89,5.89,0,0,0-1.44-.15,6.56,6.56,0,0,0-1.61.17,3.25,3.25,0,0,0-1,.47,1.77,1.77,0,0,0-.55.66,2,2,0,0,0-.16.77,2.53,2.53,0,0,0,.11.76,1.22,1.22,0,0,0,.4.59,2.78,2.78,0,0,0,.81.45,8.1,8.1,0,0,0,1.31.32l2,.32a6.7,6.7,0,0,1,3.5,1.4A3.77,3.77,0,0,1,73,77.24a3.63,3.63,0,0,1-.35,1.62,3.48,3.48,0,0,1-1,1.29,5,5,0,0,1-1.75.86,8.51,8.51,0,0,1-2.44.31,10.87,10.87,0,0,1-2.35-.24,5.9,5.9,0,0,1-1.92-.77,4.05,4.05,0,0,1-1.35-1.38,4.71,4.71,0,0,1-.59-2.09h2.26A2.7,2.7,0,0,0,64.7,78.86Z"/><path class="cls-1" d="M86.21,80.17a6.44,6.44,0,0,1-4.12,1.15,6.14,6.14,0,0,1-4.86-1.92A7.83,7.83,0,0,1,75.54,74,9.77,9.77,0,0,1,76,70.85a6.56,6.56,0,0,1,1.36-2.34,5.84,5.84,0,0,1,2.08-1.44,7.54,7.54,0,0,1,5.4,0,5,5,0,0,1,1.89,1.41,6,6,0,0,1,1.1,2.13,9.71,9.71,0,0,1,.36,2.71v1.19H77.9a6.41,6.41,0,0,0,.28,1.94A4.81,4.81,0,0,0,79,78a3.79,3.79,0,0,0,1.3,1,4.11,4.11,0,0,0,1.8.37,4,4,0,0,0,2.55-.66A3.25,3.25,0,0,0,85.74,77H88A5,5,0,0,1,86.21,80.17ZM85.66,71A3.56,3.56,0,0,0,85,69.6a3,3,0,0,0-1.18-.9,4.21,4.21,0,0,0-1.75-.32,3.71,3.71,0,0,0-2.88,1.12A5.48,5.48,0,0,0,78,72.78h7.93A6.73,6.73,0,0,0,85.66,71Z"/><path class="cls-1" d="M93.61,67v2.15a5.73,5.73,0,0,1,1.83-1.78,4.33,4.33,0,0,1,2.23-.61,6.23,6.23,0,0,1,1.23.1l-.29,2.18-.54-.1a5.3,5.3,0,0,0-.59,0,4.17,4.17,0,0,0-1.32.23,3.67,3.67,0,0,0-1.26.77A3.74,3.74,0,0,0,94,71.09a3.38,3.38,0,0,0-.34,1.56v8.24H91.3V67Z"/><path class="cls-1" d="M103.79,80.81a5.73,5.73,0,0,1-2.09-1.45,6.24,6.24,0,0,1-1.32-2.31A9.74,9.74,0,0,1,99.92,74a8.93,8.93,0,0,1,.49-3.06,6.7,6.7,0,0,1,1.37-2.34,6.07,6.07,0,0,1,2.13-1.49,7.1,7.1,0,0,1,2.78-.52,7.23,7.23,0,0,1,2.79.51,5.83,5.83,0,0,1,2.11,1.46,6.38,6.38,0,0,1,1.33,2.3,9.19,9.19,0,0,1,.46,3,9.55,9.55,0,0,1-.47,3.09,6.75,6.75,0,0,1-1.35,2.34,5.9,5.9,0,0,1-2.13,1.49,8,8,0,0,1-5.64,0ZM108.57,79a3.52,3.52,0,0,0,1.33-1.12,5,5,0,0,0,.77-1.74,9.54,9.54,0,0,0,.24-2.21,9.33,9.33,0,0,0-.24-2.18,4.83,4.83,0,0,0-.77-1.7,3.61,3.61,0,0,0-1.33-1.12,4.4,4.4,0,0,0-1.93-.4,4.32,4.32,0,0,0-1.92.4A3.66,3.66,0,0,0,103.4,70a4.65,4.65,0,0,0-.76,1.7,9.85,9.85,0,0,0,0,4.41,5.08,5.08,0,0,0,.75,1.72A3.46,3.46,0,0,0,104.7,79a4.31,4.31,0,0,0,1.94.41A4.26,4.26,0,0,0,108.57,79Z"/><path class="cls-1" d="M114.94,68.86V67h2.15V63.22h2.33V67h3.68v1.85h-3.68V77a2.68,2.68,0,0,0,.46,1.64,1.61,1.61,0,0,0,1.39.61,5.36,5.36,0,0,0,1-.08,4.91,4.91,0,0,0,.82-.21l.4,1.8a9,9,0,0,1-1.17.31,8.09,8.09,0,0,1-1.49.12,4.49,4.49,0,0,1-1.91-.35,2.94,2.94,0,0,1-1.15-1,3.85,3.85,0,0,1-.58-1.53,11.59,11.59,0,0,1-.14-1.93V68.86Z"/><path class="cls-1" d="M127.53,84.11a1.84,1.84,0,0,0,1.33-.44,4.68,4.68,0,0,0,.93-1.65l.56-1.48L124.47,67h2.71l4.38,10.9,4-10.9h2.58l-6.07,15.2q-.37.93-.75,1.65a6.35,6.35,0,0,1-.83,1.22,3,3,0,0,1-1.09.77,4.16,4.16,0,0,1-1.55.25A7.88,7.88,0,0,1,126.7,86a6.49,6.49,0,0,1-1.13-.29l.46-1.88A4.64,4.64,0,0,0,127.53,84.11Z"/><path class="cls-1" d="M142.44,67v2a6.18,6.18,0,0,1,2-1.8,5.54,5.54,0,0,1,2.67-.61,6,6,0,0,1,2.59.53,5,5,0,0,1,1.85,1.51,6.42,6.42,0,0,1,1.1,2.29,10.88,10.88,0,0,1,.37,3,10.7,10.7,0,0,1-.43,3.1,6.84,6.84,0,0,1-1.24,2.35,5.46,5.46,0,0,1-1.94,1.49,6.29,6.29,0,0,1-4.89,0,5,5,0,0,1-2.06-1.68V86.1h-2.33V67Zm.31,9.62a4.4,4.4,0,0,0,.84,1.58,3.21,3.21,0,0,0,1.29.9,4.82,4.82,0,0,0,1.64.28,4.26,4.26,0,0,0,1.6-.3,3.15,3.15,0,0,0,1.27-1,4.89,4.89,0,0,0,.85-1.71,9.3,9.3,0,0,0,.31-2.55,8.18,8.18,0,0,0-.34-2.56,4.58,4.58,0,0,0-.87-1.65,3.12,3.12,0,0,0-1.22-.89,3.84,3.84,0,0,0-1.41-.27,4.42,4.42,0,0,0-1.69.31,3.83,3.83,0,0,0-1.36.91,4.14,4.14,0,0,0-.9,1.53,6.38,6.38,0,0,0-.32,2.14v.94A7.33,7.33,0,0,0,142.75,76.63Z"/><path class="cls-1" d="M166.38,80.17a6.44,6.44,0,0,1-4.12,1.15,6.15,6.15,0,0,1-4.87-1.92A7.88,7.88,0,0,1,155.7,74a9.5,9.5,0,0,1,.49-3.19,6.55,6.55,0,0,1,1.35-2.34,5.93,5.93,0,0,1,2.08-1.44,6.93,6.93,0,0,1,2.64-.49,6.8,6.8,0,0,1,2.76.51,5,5,0,0,1,1.89,1.41A6,6,0,0,1,168,70.63a9.71,9.71,0,0,1,.36,2.71v1.19H158.07a6.41,6.41,0,0,0,.28,1.94,4.79,4.79,0,0,0,.8,1.56,3.83,3.83,0,0,0,1.31,1,4.08,4.08,0,0,0,1.8.37,4,4,0,0,0,2.55-.66,3.37,3.37,0,0,0,1.1-1.78h2.25A5,5,0,0,1,166.38,80.17ZM165.83,71a3.86,3.86,0,0,0-.67-1.38,3,3,0,0,0-1.19-.9,4.16,4.16,0,0,0-1.74-.32,3.72,3.72,0,0,0-2.89,1.12,5.42,5.42,0,0,0-1.22,3.28H166A7.17,7.17,0,0,0,165.83,71Z"/><path class="cls-1" d="M174.19,78.86a5.24,5.24,0,0,0,2.67.58,4.07,4.07,0,0,0,2.52-.6,2,2,0,0,0,.73-1.6,3.25,3.25,0,0,0-.09-.77,1.42,1.42,0,0,0-.36-.64,2.45,2.45,0,0,0-.75-.5,5.83,5.83,0,0,0-1.27-.35l-1.77-.27a12.2,12.2,0,0,1-2.07-.48,5.27,5.27,0,0,1-1.5-.76,3.07,3.07,0,0,1-.93-1.16,4.12,4.12,0,0,1-.31-1.65,3.45,3.45,0,0,1,.42-1.72,3.82,3.82,0,0,1,1.16-1.28,5.81,5.81,0,0,1,1.74-.8,8,8,0,0,1,2.19-.28,9.36,9.36,0,0,1,2.51.29,4.89,4.89,0,0,1,1.65.81,3.63,3.63,0,0,1,1,1.21,6.6,6.6,0,0,1,.53,1.47l-2.12.35a5.67,5.67,0,0,0-.43-1,2.08,2.08,0,0,0-.64-.71,3,3,0,0,0-1-.43,5.89,5.89,0,0,0-1.44-.15,6.62,6.62,0,0,0-1.61.17,3.25,3.25,0,0,0-1,.47,1.77,1.77,0,0,0-.55.66,2,2,0,0,0-.16.77,2.53,2.53,0,0,0,.11.76,1.3,1.3,0,0,0,.4.59,2.78,2.78,0,0,0,.81.45,8,8,0,0,0,1.32.32l2,.32a6.7,6.7,0,0,1,3.5,1.4,4.33,4.33,0,0,1,.72,4.52,3.61,3.61,0,0,1-1,1.29,5,5,0,0,1-1.75.86,8.51,8.51,0,0,1-2.44.31,10.87,10.87,0,0,1-2.35-.24,5.9,5.9,0,0,1-1.92-.77,4,4,0,0,1-1.34-1.38,4.71,4.71,0,0,1-.6-2.09H173A2.7,2.7,0,0,0,174.19,78.86Z"/><path class="cls-1" d="M190.13,68.86V67h2.15V63.22h2.34V67h3.68v1.85h-3.68V77a2.74,2.74,0,0,0,.45,1.64,1.63,1.63,0,0,0,1.4.61,5.25,5.25,0,0,0,1-.08,4.67,4.67,0,0,0,.82-.21l.41,1.8a9,9,0,0,1-1.17.31,8.09,8.09,0,0,1-1.49.12,4.46,4.46,0,0,1-1.91-.35,2.87,2.87,0,0,1-1.15-1,3.85,3.85,0,0,1-.58-1.53,11.54,11.54,0,0,1-.15-1.93V68.86Z"/><path class="cls-1" d="M203.13,61.72v7.35a6.46,6.46,0,0,1,2.24-1.9,5.81,5.81,0,0,1,2.59-.59,4.45,4.45,0,0,1,3.51,1.29,5.55,5.55,0,0,1,1.14,3.78v9.24h-2.36V72.11a4.19,4.19,0,0,0-.69-2.73,2.69,2.69,0,0,0-2.13-.79,4.64,4.64,0,0,0-1.55.27,3.86,3.86,0,0,0-1.38.86,4.32,4.32,0,0,0-1,1.25,3.67,3.67,0,0,0-.35,1.7v8.22h-2.34V61.72Z"/><path class="cls-1" d="M222.84,80.56a5.83,5.83,0,0,1-2.87.65,6.81,6.81,0,0,1-1.92-.25,4.25,4.25,0,0,1-1.51-.78,3.64,3.64,0,0,1-1-1.3,4.49,4.49,0,0,1-.34-1.83,4,4,0,0,1,.6-2.31,4.22,4.22,0,0,1,1.61-1.4,7.85,7.85,0,0,1,2.27-.72,21.74,21.74,0,0,1,2.61-.27l2.38-.08v-.54a3.6,3.6,0,0,0-.75-2.55,3.26,3.26,0,0,0-2.44-.78,4.31,4.31,0,0,0-2.44.55,2.63,2.63,0,0,0-1,1.52l-2.12-.24a4,4,0,0,1,1.8-2.78,7.4,7.4,0,0,1,3.87-.87,7.81,7.81,0,0,1,2.54.36,4.27,4.27,0,0,1,1.68,1,4,4,0,0,1,.92,1.67,8,8,0,0,1,.29,2.23v9h-2.26V79A6.81,6.81,0,0,1,222.84,80.56ZM222.47,74a13,13,0,0,0-2.37.26,4.87,4.87,0,0,0-1.49.58,2.1,2.1,0,0,0-.78.9,3.19,3.19,0,0,0-.22,1.24,2.27,2.27,0,0,0,.63,1.68,2.86,2.86,0,0,0,2.08.63,4.69,4.69,0,0,0,3.22-1,3.55,3.55,0,0,0,1.15-2.8V73.94Z"/><path class="cls-1" d="M229.21,68.86V67h2.15V63.22h2.33V67h3.68v1.85h-3.68V77a2.68,2.68,0,0,0,.46,1.64,1.61,1.61,0,0,0,1.39.61,5.36,5.36,0,0,0,1-.08,4.91,4.91,0,0,0,.82-.21l.4,1.8a9,9,0,0,1-1.17.31,8,8,0,0,1-1.49.12,4.41,4.41,0,0,1-1.9-.35,2.9,2.9,0,0,1-1.16-1,3.85,3.85,0,0,1-.58-1.53,11.59,11.59,0,0,1-.14-1.93V68.86Z"/><path class="cls-1" d="M256.06,80a5.89,5.89,0,0,1-4.16,1.37,7.26,7.26,0,0,1-2.81-.51,5.49,5.49,0,0,1-2-1.46A6.39,6.39,0,0,1,245.82,77,10.32,10.32,0,0,1,245.4,74a9.46,9.46,0,0,1,.46-3,6.54,6.54,0,0,1,1.31-2.33,5.92,5.92,0,0,1,2.1-1.51,7,7,0,0,1,2.79-.53,5.58,5.58,0,0,1,3.87,1.22,5.66,5.66,0,0,1,1.74,3.37l-2.33.43a7.21,7.21,0,0,0-.36-1.24,3.26,3.26,0,0,0-.64-1,2.69,2.69,0,0,0-1-.64,3.76,3.76,0,0,0-1.38-.23,3.92,3.92,0,0,0-1.88.42,3.53,3.53,0,0,0-1.28,1.15,5.09,5.09,0,0,0-.72,1.73,10.15,10.15,0,0,0,0,4.25,5.06,5.06,0,0,0,.69,1.73A3.66,3.66,0,0,0,250.05,79a4,4,0,0,0,1.9.43,3.32,3.32,0,0,0,2.51-.86,4.28,4.28,0,0,0,1.06-2.34h2.37A6.09,6.09,0,0,1,256.06,80Z"/><path class="cls-1" d="M267.61,80.56a5.83,5.83,0,0,1-2.87.65,6.81,6.81,0,0,1-1.92-.25,4.09,4.09,0,0,1-1.51-.78,3.52,3.52,0,0,1-1-1.3,4.49,4.49,0,0,1-.35-1.83,4,4,0,0,1,.61-2.31,4.22,4.22,0,0,1,1.61-1.4,7.85,7.85,0,0,1,2.27-.72,21.79,21.79,0,0,1,2.6-.27l2.39-.08v-.54a3.6,3.6,0,0,0-.75-2.55,3.26,3.26,0,0,0-2.44-.78,4.37,4.37,0,0,0-2.45.55,2.57,2.57,0,0,0-1,1.52l-2.12-.24a4,4,0,0,1,1.8-2.78,7.4,7.4,0,0,1,3.87-.87,7.81,7.81,0,0,1,2.54.36,4.31,4.31,0,0,1,1.67,1,4,4,0,0,1,.93,1.67,8.05,8.05,0,0,1,.28,2.23v9h-2.25V79A6.81,6.81,0,0,1,267.61,80.56ZM267.23,74a12.92,12.92,0,0,0-2.36.26,4.77,4.77,0,0,0-1.49.58,2,2,0,0,0-.78.9,3.19,3.19,0,0,0-.23,1.24,2.27,2.27,0,0,0,.63,1.68,2.9,2.9,0,0,0,2.09.63,4.71,4.71,0,0,0,3.22-1,3.55,3.55,0,0,0,1.15-2.8V73.94Z"/><path class="cls-1" d="M277.57,67v8.75a4.47,4.47,0,0,0,.64,2.74,2.43,2.43,0,0,0,2.05.81,4.13,4.13,0,0,0,2.82-1.13,4.32,4.32,0,0,0,1-1.25,3.68,3.68,0,0,0,.35-1.71V67h2.34V80.89h-2.31V78.74a6.67,6.67,0,0,1-2.21,2,5.29,5.29,0,0,1-2.55.62,4.21,4.21,0,0,1-3.42-1.27,5.89,5.89,0,0,1-1.06-3.83V67Z"/><path class="cls-1" d="M293.11,78.86a5.19,5.19,0,0,0,2.67.58,4,4,0,0,0,2.51-.6,2,2,0,0,0,.74-1.6,3.25,3.25,0,0,0-.09-.77,1.54,1.54,0,0,0-.37-.64,2.22,2.22,0,0,0-.75-.5,5.56,5.56,0,0,0-1.26-.35l-1.77-.27a12.2,12.2,0,0,1-2.07-.48,5.27,5.27,0,0,1-1.5-.76,3,3,0,0,1-.93-1.16,4,4,0,0,1-.31-1.65,3.45,3.45,0,0,1,.42-1.72,3.79,3.79,0,0,1,1.15-1.28,5.87,5.87,0,0,1,1.75-.8,8,8,0,0,1,2.19-.28,9.36,9.36,0,0,1,2.51.29,4.89,4.89,0,0,1,1.65.81,3.48,3.48,0,0,1,1,1.21,6.62,6.62,0,0,1,.54,1.47l-2.12.35a6.54,6.54,0,0,0-.43-1A2.11,2.11,0,0,0,298,69a2.85,2.85,0,0,0-1-.43,5.75,5.75,0,0,0-1.43-.15,6.56,6.56,0,0,0-1.61.17,3.25,3.25,0,0,0-1,.47,1.77,1.77,0,0,0-.55.66,1.83,1.83,0,0,0-.16.77,2.53,2.53,0,0,0,.11.76,1.22,1.22,0,0,0,.4.59,2.78,2.78,0,0,0,.81.45,7.84,7.84,0,0,0,1.31.32l2,.32a6.77,6.77,0,0,1,3.5,1.4,3.77,3.77,0,0,1,1.06,2.9,3.63,3.63,0,0,1-.35,1.62A3.41,3.41,0,0,1,300,80.15a4.89,4.89,0,0,1-1.74.86,8.51,8.51,0,0,1-2.44.31,10.81,10.81,0,0,1-2.35-.24,5.9,5.9,0,0,1-1.92-.77,4.05,4.05,0,0,1-1.35-1.38,4.71,4.71,0,0,1-.59-2.09h2.26A2.7,2.7,0,0,0,293.11,78.86Z"/><path class="cls-1" d="M314.62,80.17a6.44,6.44,0,0,1-4.12,1.15,6.14,6.14,0,0,1-4.86-1.92A7.83,7.83,0,0,1,304,74a9.77,9.77,0,0,1,.48-3.19,6.42,6.42,0,0,1,1.36-2.34,5.84,5.84,0,0,1,2.08-1.44,7.54,7.54,0,0,1,5.4,0,5,5,0,0,1,1.89,1.41,6,6,0,0,1,1.1,2.13,9.71,9.71,0,0,1,.36,2.71v1.19H306.31a6.41,6.41,0,0,0,.28,1.94A4.81,4.81,0,0,0,307.4,78a3.79,3.79,0,0,0,1.3,1,4.11,4.11,0,0,0,1.8.37,4,4,0,0,0,2.55-.66,3.31,3.31,0,0,0,1.1-1.78h2.26A5,5,0,0,1,314.62,80.17ZM314.07,71a3.7,3.7,0,0,0-.67-1.38,3,3,0,0,0-1.18-.9,4.24,4.24,0,0,0-1.75-.32,3.7,3.7,0,0,0-2.88,1.12,5.48,5.48,0,0,0-1.23,3.28h7.93A7.16,7.16,0,0,0,314.07,71Z"/><path class="cls-2" d="M16.11,100.37A3.93,3.93,0,0,1,19.44,99a3.86,3.86,0,0,1,1.55.31,13.36,13.36,0,0,1,1.31.67l1.12.66a2.14,2.14,0,0,0,1.07.3c1,0,1.47-.63,1.47-1.88h3.36a7.08,7.08,0,0,1-1,4.28A3.93,3.93,0,0,1,25,104.72a4,4,0,0,1-1.56-.31,11.39,11.39,0,0,1-1.3-.69c-.4-.25-.78-.48-1.14-.68a2.07,2.07,0,0,0-1-.31c-1,0-1.48.64-1.48,1.93H15.06A7,7,0,0,1,16.11,100.37Z"/><path class="cls-2" d="M31.49,96.9a5.12,5.12,0,0,1,.42-2.08,4.44,4.44,0,0,1,1.24-1.65,5.89,5.89,0,0,1,2.05-1.1,9.11,9.11,0,0,1,2.85-.41,10.09,10.09,0,0,1,3,.39,5.79,5.79,0,0,1,2,1.09,4.15,4.15,0,0,1,1.18,1.67,5.79,5.79,0,0,1,.38,2.12,4.47,4.47,0,0,1-2.34,4.19,5.21,5.21,0,0,1,2.07,1.72,4.42,4.42,0,0,1,.78,2.63,5.26,5.26,0,0,1-1.78,4.2,7.88,7.88,0,0,1-5.31,1.54,7.77,7.77,0,0,1-5.27-1.54,5.33,5.33,0,0,1-1.74-4.2,4.35,4.35,0,0,1,.79-2.58,5.52,5.52,0,0,1,2-1.75A4.49,4.49,0,0,1,31.49,96.9Zm4,10.58a3.69,3.69,0,0,0,2.59.75,3.64,3.64,0,0,0,2.59-.77,2.73,2.73,0,0,0,.79-2,2.62,2.62,0,0,0-.73-1.92,3.75,3.75,0,0,0-2.65-.73,5.31,5.31,0,0,0-1.61.2,2.6,2.6,0,0,0-1,.56,2.16,2.16,0,0,0-.57.86,3.41,3.41,0,0,0-.17,1.09A2.63,2.63,0,0,0,35.51,107.48Zm.24-8.39a3.48,3.48,0,0,0,2.32.63,3.26,3.26,0,0,0,2.3-.66,2.55,2.55,0,0,0,.69-1.94,2.63,2.63,0,0,0-.66-1.8,3,3,0,0,0-2.33-.76,4.17,4.17,0,0,0-1.41.22,2.68,2.68,0,0,0-.94.58,2.2,2.2,0,0,0-.52.83,2.92,2.92,0,0,0-.16,1A2.45,2.45,0,0,0,35.75,99.09Z"/><path class="cls-2" d="M49.62,106c.75-.61,1.52-1.26,2.29-1.94s1.41-1.26,2-1.8a13.79,13.79,0,0,0,1.41-1.56,6.15,6.15,0,0,0,.85-1.49,4.67,4.67,0,0,0,.28-1.62,2.75,2.75,0,0,0-.66-1.9A2.28,2.28,0,0,0,54,94.91a3.32,3.32,0,0,0-2.1.61,4,4,0,0,0-1.15,2.29l-3.65-.43a10.89,10.89,0,0,1,.7-2.18A5.9,5.9,0,0,1,49,93.37a5.59,5.59,0,0,1,2-1.25,8.6,8.6,0,0,1,3-.46,6.63,6.63,0,0,1,4.73,1.53,5.51,5.51,0,0,1,1.61,4.17,7.63,7.63,0,0,1-.28,2.08,7.79,7.79,0,0,1-.85,1.87,11.39,11.39,0,0,1-1.44,1.83c-.58.62-1.27,1.29-2.08,2l-1.3,1.07c-.44.36-.91.77-1.41,1.24h7.63l-.41,3.27H47.34v-2.82Q48.5,106.89,49.62,106Z"/><path class="cls-2" d="M65.76,103.12a4.19,4.19,0,0,1-1.58-1,4.7,4.7,0,0,1-1.05-1.81,8.29,8.29,0,0,1-.37-2.64A8,8,0,0,1,63.15,95a5,5,0,0,1,1.06-1.84,4.11,4.11,0,0,1,1.57-1.07,5.15,5.15,0,0,1,1.94-.35,5.37,5.37,0,0,1,2,.35,4,4,0,0,1,1.57,1.07,5.27,5.27,0,0,1,1,1.84,8.35,8.35,0,0,1,.37,2.65,8.6,8.6,0,0,1-.36,2.64,4.68,4.68,0,0,1-1,1.81,4.23,4.23,0,0,1-1.59,1,5.81,5.81,0,0,1-2,.33A5.72,5.72,0,0,1,65.76,103.12Zm3.35-3a4.58,4.58,0,0,0,.49-2.51,4.7,4.7,0,0,0-.49-2.54,1.59,1.59,0,0,0-1.39-.71,1.55,1.55,0,0,0-1.35.71,4.68,4.68,0,0,0-.5,2.54,4.56,4.56,0,0,0,.5,2.51,1.59,1.59,0,0,0,1.35.68A1.64,1.64,0,0,0,69.11,100.14Zm-.63,10.59,9.34-18.56h3.63L72.1,110.73Zm11.79.1a4.23,4.23,0,0,1-1.59-1A4.7,4.7,0,0,1,77.63,108a8.35,8.35,0,0,1-.37-2.65,8,8,0,0,1,.39-2.64,5.15,5.15,0,0,1,1.06-1.84,4.25,4.25,0,0,1,1.57-1.08,5.4,5.4,0,0,1,2-.34,5.57,5.57,0,0,1,2,.34,4.09,4.09,0,0,1,1.57,1.08,5.12,5.12,0,0,1,1,1.84,8.29,8.29,0,0,1,.37,2.64,8.66,8.66,0,0,1-.36,2.65,4.68,4.68,0,0,1-1,1.81,4.23,4.23,0,0,1-1.59,1,5.79,5.79,0,0,1-2,.33A5.68,5.68,0,0,1,80.27,110.83Zm3.34-3a4.51,4.51,0,0,0,.5-2.51,4.66,4.66,0,0,0-.5-2.53,1.58,1.58,0,0,0-1.38-.72,1.56,1.56,0,0,0-1.36.72,4.66,4.66,0,0,0-.5,2.53,4.51,4.51,0,0,0,.5,2.51,1.58,1.58,0,0,0,1.36.69A1.6,1.6,0,0,0,83.61,107.84Z"/><path class="cls-1" d="M99.23,110.65a5.69,5.69,0,0,1-2.1-1.45,6.37,6.37,0,0,1-1.31-2.31,9.46,9.46,0,0,1-.46-3.06,9.18,9.18,0,0,1,.48-3.06,6.79,6.79,0,0,1,1.37-2.34,6,6,0,0,1,2.14-1.49,7.1,7.1,0,0,1,2.78-.52,7.26,7.26,0,0,1,2.79.51A5.92,5.92,0,0,1,107,98.39a6.53,6.53,0,0,1,1.33,2.3,9.46,9.46,0,0,1,.45,3,9.29,9.29,0,0,1-.47,3.09,6.73,6.73,0,0,1-1.34,2.34,5.9,5.9,0,0,1-2.13,1.49,8,8,0,0,1-5.64,0Zm4.78-1.83a3.6,3.6,0,0,0,1.33-1.12,4.84,4.84,0,0,0,.76-1.74,9.54,9.54,0,0,0,.24-2.21,9.33,9.33,0,0,0-.24-2.18,4.65,4.65,0,0,0-.76-1.7A3.7,3.7,0,0,0,104,98.75a4.44,4.44,0,0,0-1.94-.4,4.32,4.32,0,0,0-1.92.4,3.63,3.63,0,0,0-1.31,1.12,4.66,4.66,0,0,0-.77,1.7,10.25,10.25,0,0,0,0,4.41,5.08,5.08,0,0,0,.75,1.72,3.42,3.42,0,0,0,1.32,1.12,4.26,4.26,0,0,0,1.93.41A4.31,4.31,0,0,0,104,108.82Z"/><path class="cls-1" d="M110.4,98.7V96.85h2.17V95.64a5,5,0,0,1,.34-1.93,3.66,3.66,0,0,1,.91-1.33,3.71,3.71,0,0,1,1.35-.78,5.09,5.09,0,0,1,1.62-.26,8.91,8.91,0,0,1,1.18.07,6.74,6.74,0,0,1,1.18.25l-.37,1.83a3.75,3.75,0,0,0-.82-.17,6.74,6.74,0,0,0-.77,0,2.65,2.65,0,0,0-1.61.49,2.13,2.13,0,0,0-.67,1.82v1.26h3.52V98.7h-3.52v12h-2.34v-12Z"/><path class="cls-1" d="M133.44,110.4a5.83,5.83,0,0,1-2.87.65,6.81,6.81,0,0,1-1.92-.25,4.09,4.09,0,0,1-1.51-.78,3.64,3.64,0,0,1-1-1.3,4.49,4.49,0,0,1-.35-1.83,4,4,0,0,1,.61-2.31,4.19,4.19,0,0,1,1.61-1.39,7.86,7.86,0,0,1,2.27-.73,21.79,21.79,0,0,1,2.6-.27l2.39-.08v-.54a3.6,3.6,0,0,0-.75-2.55,3.26,3.26,0,0,0-2.44-.78,4.37,4.37,0,0,0-2.45.55,2.57,2.57,0,0,0-1,1.52l-2.12-.24a4,4,0,0,1,1.8-2.78,7.4,7.4,0,0,1,3.87-.87,7.81,7.81,0,0,1,2.54.36,4.31,4.31,0,0,1,1.67,1,4,4,0,0,1,.93,1.67,8.05,8.05,0,0,1,.28,2.23v9h-2.25v-1.91A6.81,6.81,0,0,1,133.44,110.4Zm-.38-6.54a12,12,0,0,0-2.36.27,4.55,4.55,0,0,0-1.49.57,2,2,0,0,0-.78.9,3.19,3.19,0,0,0-.23,1.24,2.27,2.27,0,0,0,.63,1.68,2.9,2.9,0,0,0,2.09.63,4.71,4.71,0,0,0,3.22-1,3.53,3.53,0,0,0,1.15-2.8v-1.55Z"/><path class="cls-1" d="M149.26,110.53a5.37,5.37,0,0,1-2.66.63,5.92,5.92,0,0,1-2.65-.56,5.21,5.21,0,0,1-1.84-1.55,6.61,6.61,0,0,1-1.07-2.32,11.51,11.51,0,0,1-.35-2.87,10.72,10.72,0,0,1,.43-3.11,7,7,0,0,1,1.22-2.35,5.3,5.3,0,0,1,1.94-1.47,6.27,6.27,0,0,1,2.59-.51,6.19,6.19,0,0,1,2.23.44,5.12,5.12,0,0,1,2.09,1.68v-7h2.34v19.17h-2.28v-2A6.45,6.45,0,0,1,149.26,110.53Zm1.65-9.75a4.08,4.08,0,0,0-2.39-2.24,4.32,4.32,0,0,0-1.33-.19,4.26,4.26,0,0,0-1.6.3,3.19,3.19,0,0,0-1.29.95,4.88,4.88,0,0,0-.86,1.69,9.13,9.13,0,0,0-.3,2.51,8.7,8.7,0,0,0,.33,2.58,4.55,4.55,0,0,0,.89,1.67,3.3,3.3,0,0,0,1.23.88,3.84,3.84,0,0,0,1.41.27,4.65,4.65,0,0,0,1.4-.19,4,4,0,0,0,1.23-.64,4.16,4.16,0,0,0,1.23-1.61,6.39,6.39,0,0,0,.41-2.45v-.94A7.4,7.4,0,0,0,150.91,100.78Z"/><path class="cls-1" d="M159.41,96.85v8.75a4.55,4.55,0,0,0,.63,2.74,2.45,2.45,0,0,0,2.06.81,4.17,4.17,0,0,0,2.82-1.13,4.68,4.68,0,0,0,1-1.25,3.67,3.67,0,0,0,.34-1.7V96.85h2.34v13.88h-2.31v-2.15a6.65,6.65,0,0,1-2.2,2,5.34,5.34,0,0,1-2.55.62,4.22,4.22,0,0,1-3.43-1.27,5.93,5.93,0,0,1-1.06-3.83V96.85Z"/><path class="cls-1" d="M174.61,91.56v19.17h-2.34V91.56Z"/><path class="cls-1" d="M176.92,98.7V96.85h2.15V93.06h2.33v3.79h3.68V98.7H181.4v8.14a2.75,2.75,0,0,0,.46,1.64,1.63,1.63,0,0,0,1.4.61,5.25,5.25,0,0,0,1-.08,4.67,4.67,0,0,0,.82-.21l.4,1.8a8.47,8.47,0,0,1-1.16.31,8.17,8.17,0,0,1-1.49.12,4.46,4.46,0,0,1-1.91-.35,2.82,2.82,0,0,1-1.16-1,3.84,3.84,0,0,1-.57-1.53,11.54,11.54,0,0,1-.15-1.93V98.7Z"/><path class="cls-1" d="M196.36,91.56v19.17h-2.47V91.56Z"/><path class="cls-1" d="M207,91.56a11.52,11.52,0,0,1,3.51.45,5.51,5.51,0,0,1,2.17,1.24,4.22,4.22,0,0,1,1.11,1.81,7.83,7.83,0,0,1,.3,2.19,8,8,0,0,1-.32,2.31,4.51,4.51,0,0,1-1.13,1.93,5.4,5.4,0,0,1-2.17,1.32,10.63,10.63,0,0,1-3.47.48h-4v7.44h-2.44V91.56Zm2.29,9.37a3.27,3.27,0,0,0,1.42-.78,2.74,2.74,0,0,0,.71-1.22,5.7,5.7,0,0,0,.2-1.6,5.56,5.56,0,0,0-.21-1.61,2.39,2.39,0,0,0-.75-1.16,3.58,3.58,0,0,0-1.44-.68,9.56,9.56,0,0,0-2.27-.23h-3.92v7.55H207A8.31,8.31,0,0,0,209.31,100.93Z"/><path class="cls-1" d="M223.86,91.56a11.45,11.45,0,0,1,3.75.57,7.19,7.19,0,0,1,2.79,1.76,8,8,0,0,1,1.76,3,12.7,12.7,0,0,1,.62,4.16,12.42,12.42,0,0,1-.66,4.24,7.61,7.61,0,0,1-4.9,4.86,11.81,11.81,0,0,1-4,.62h-6.1V91.56Zm4.7,15a8.41,8.41,0,0,0,1.64-5.52,12.25,12.25,0,0,0-.36-3.11,6.14,6.14,0,0,0-1.13-2.32,4.81,4.81,0,0,0-2-1.45,7.42,7.42,0,0,0-2.88-.5h-4.24v14.9h3.73C225.73,108.58,227.47,107.92,228.56,106.58Z"/><path class="cls-1" d="M252.2,109.79a5.94,5.94,0,0,1-4.17,1.37,7.21,7.21,0,0,1-2.8-.51,5.33,5.33,0,0,1-2-1.46,6.41,6.41,0,0,1-1.24-2.31,10.32,10.32,0,0,1-.42-3,9.63,9.63,0,0,1,.46-3,6.52,6.52,0,0,1,1.32-2.34A5.88,5.88,0,0,1,245.4,97a7.12,7.12,0,0,1,2.79-.53,5.13,5.13,0,0,1,5.62,4.59l-2.34.43a7.21,7.21,0,0,0-.36-1.24,3.05,3.05,0,0,0-.63-1,2.87,2.87,0,0,0-1-.64,3.85,3.85,0,0,0-1.39-.23,3.92,3.92,0,0,0-1.88.42A3.59,3.59,0,0,0,245,99.92a5.31,5.31,0,0,0-.73,1.73,9.67,9.67,0,0,0-.22,2.13,10.23,10.23,0,0,0,.21,2.12,5.07,5.07,0,0,0,.7,1.73,3.54,3.54,0,0,0,1.26,1.17,4,4,0,0,0,1.91.43,3.33,3.33,0,0,0,2.51-.86,4.31,4.31,0,0,0,1.06-2.34H254A6.13,6.13,0,0,1,252.2,109.79Z"/><path class="cls-1" d="M263.74,110.4a5.78,5.78,0,0,1-2.87.65,6.81,6.81,0,0,1-1.92-.25,4.12,4.12,0,0,1-1.5-.78,3.52,3.52,0,0,1-1-1.3,4.33,4.33,0,0,1-.35-1.83,4,4,0,0,1,.6-2.31,4.19,4.19,0,0,1,1.61-1.39,7.86,7.86,0,0,1,2.27-.73,21.74,21.74,0,0,1,2.61-.27l2.39-.08v-.54a3.6,3.6,0,0,0-.75-2.55,3.3,3.3,0,0,0-2.45-.78,4.33,4.33,0,0,0-2.44.55,2.57,2.57,0,0,0-1,1.52l-2.12-.24a4,4,0,0,1,1.79-2.78,7.4,7.4,0,0,1,3.87-.87,7.81,7.81,0,0,1,2.54.36,4.27,4.27,0,0,1,1.68,1,4,4,0,0,1,.93,1.67,8.45,8.45,0,0,1,.28,2.23v9h-2.26v-1.91A6.81,6.81,0,0,1,263.74,110.4Zm-.37-6.54a11.91,11.91,0,0,0-2.36.27,4.46,4.46,0,0,0-1.49.57,2,2,0,0,0-.78.9,3,3,0,0,0-.23,1.24,2.27,2.27,0,0,0,.63,1.68,2.86,2.86,0,0,0,2.08.63,4.69,4.69,0,0,0,3.22-1,3.54,3.54,0,0,0,1.16-2.8v-1.55Z"/><path class="cls-1" d="M274.18,108.7a5.19,5.19,0,0,0,2.67.58,4,4,0,0,0,2.51-.6,2,2,0,0,0,.74-1.6,3.25,3.25,0,0,0-.09-.77,1.54,1.54,0,0,0-.37-.64,2.45,2.45,0,0,0-.75-.5,5.56,5.56,0,0,0-1.26-.35l-1.77-.27a12.2,12.2,0,0,1-2.07-.48,5.47,5.47,0,0,1-1.51-.76,3,3,0,0,1-.92-1.16,4,4,0,0,1-.31-1.65,3.48,3.48,0,0,1,.42-1.72,3.67,3.67,0,0,1,1.15-1.27,5.54,5.54,0,0,1,1.75-.81,8,8,0,0,1,2.18-.28,9.44,9.44,0,0,1,2.52.29,4.89,4.89,0,0,1,1.65.81,3.48,3.48,0,0,1,1,1.21,7.16,7.16,0,0,1,.54,1.47l-2.12.35a6.54,6.54,0,0,0-.43-1,2.11,2.11,0,0,0-.65-.71,2.94,2.94,0,0,0-1-.43,5.75,5.75,0,0,0-1.43-.15,6.14,6.14,0,0,0-1.62.18,2.81,2.81,0,0,0-1,.47,1.67,1.67,0,0,0-.55.65,1.83,1.83,0,0,0-.16.77,2.25,2.25,0,0,0,.11.76,1.22,1.22,0,0,0,.4.59,2.71,2.71,0,0,0,.8.45,8,8,0,0,0,1.32.32l2,.32a6.77,6.77,0,0,1,3.51,1.4,4.28,4.28,0,0,1,.71,4.52,3.41,3.41,0,0,1-1.05,1.29,4.89,4.89,0,0,1-1.74.86,8.58,8.58,0,0,1-2.45.31,10.94,10.94,0,0,1-2.35-.24,6.09,6.09,0,0,1-1.92-.77,4,4,0,0,1-1.34-1.38,4.58,4.58,0,0,1-.59-2.09H273A2.67,2.67,0,0,0,274.18,108.7Z"/><path class="cls-1" d="M295.69,110a6.44,6.44,0,0,1-4.12,1.15,6.11,6.11,0,0,1-4.86-1.92,7.82,7.82,0,0,1-1.7-5.36,9.76,9.76,0,0,1,.49-3.19,6.55,6.55,0,0,1,1.35-2.34,6,6,0,0,1,2.09-1.44,7.51,7.51,0,0,1,5.39,0,5.11,5.11,0,0,1,1.9,1.41,6,6,0,0,1,1.1,2.13,9.73,9.73,0,0,1,.36,2.72v1.18H287.38a6.36,6.36,0,0,0,.28,1.94,4.81,4.81,0,0,0,.81,1.56,3.7,3.7,0,0,0,1.3,1,4.11,4.11,0,0,0,1.8.37,4,4,0,0,0,2.55-.66,3.31,3.31,0,0,0,1.1-1.78h2.26A5,5,0,0,1,295.69,110Zm-.55-9.19a3.7,3.7,0,0,0-.67-1.38,3,3,0,0,0-1.18-.9,4.24,4.24,0,0,0-1.75-.32,3.72,3.72,0,0,0-2.89,1.12,5.48,5.48,0,0,0-1.22,3.28h7.92A7.17,7.17,0,0,0,295.14,100.82Z"/><path class="cls-1" d="M303.51,108.7a5.19,5.19,0,0,0,2.67.58,4,4,0,0,0,2.51-.6,2,2,0,0,0,.74-1.6,2.8,2.8,0,0,0-.1-.77,1.42,1.42,0,0,0-.36-.64,2.45,2.45,0,0,0-.75-.5,5.56,5.56,0,0,0-1.26-.35l-1.78-.27a12.3,12.3,0,0,1-2.06-.48,5.21,5.21,0,0,1-1.51-.76,3,3,0,0,1-.92-1.16,4,4,0,0,1-.31-1.65,3.58,3.58,0,0,1,.41-1.72A3.8,3.8,0,0,1,302,97.51a5.59,5.59,0,0,1,1.74-.81,8,8,0,0,1,2.19-.28,9.36,9.36,0,0,1,2.51.29,4.89,4.89,0,0,1,1.65.81,3.51,3.51,0,0,1,1,1.21,7.16,7.16,0,0,1,.54,1.47l-2.13.35a5,5,0,0,0-.43-1,2.08,2.08,0,0,0-.64-.71,3,3,0,0,0-1-.43,5.84,5.84,0,0,0-1.44-.15,6.11,6.11,0,0,0-1.61.18,2.81,2.81,0,0,0-1,.47,1.59,1.59,0,0,0-.55.65,1.83,1.83,0,0,0-.16.77,2.54,2.54,0,0,0,.1.76,1.25,1.25,0,0,0,.41.59,2.59,2.59,0,0,0,.8.45,8,8,0,0,0,1.32.32l2,.32a6.77,6.77,0,0,1,3.51,1.4,3.81,3.81,0,0,1,1.06,2.9,3.77,3.77,0,0,1-.35,1.62,3.51,3.51,0,0,1-1.05,1.29,5.06,5.06,0,0,1-1.74.86,8.58,8.58,0,0,1-2.45.31,10.94,10.94,0,0,1-2.35-.24,6.09,6.09,0,0,1-1.92-.77,4,4,0,0,1-1.34-1.38,4.58,4.58,0,0,1-.59-2.09h2.25A2.68,2.68,0,0,0,303.51,108.7Z"/><path class="cls-1" d="M339.61,101.74V104H312.76v-2.28Z"/><path class="cls-1" d="M348.15,110.4a5.8,5.8,0,0,1-2.87.65,6.81,6.81,0,0,1-1.92-.25,4.12,4.12,0,0,1-1.5-.78,3.55,3.55,0,0,1-1-1.3,4.49,4.49,0,0,1-.34-1.83,4,4,0,0,1,.6-2.31,4.19,4.19,0,0,1,1.61-1.39,7.86,7.86,0,0,1,2.27-.73,21.74,21.74,0,0,1,2.61-.27l2.39-.08v-.54a3.55,3.55,0,0,0-.76-2.55,3.26,3.26,0,0,0-2.44-.78,4.33,4.33,0,0,0-2.44.55,2.57,2.57,0,0,0-1,1.52l-2.13-.24a4,4,0,0,1,1.8-2.78,7.4,7.4,0,0,1,3.87-.87,7.81,7.81,0,0,1,2.54.36,4.27,4.27,0,0,1,1.68,1,3.84,3.84,0,0,1,.92,1.67,8,8,0,0,1,.29,2.23v9h-2.26v-1.91A6.81,6.81,0,0,1,348.15,110.4Zm-.37-6.54a12.12,12.12,0,0,0-2.37.27,4.64,4.64,0,0,0-1.49.57,2.1,2.1,0,0,0-.78.9,3.19,3.19,0,0,0-.22,1.24,2.27,2.27,0,0,0,.63,1.68,2.86,2.86,0,0,0,2.08.63,4.69,4.69,0,0,0,3.22-1,3.54,3.54,0,0,0,1.16-2.8v-1.55Z"/><path class="cls-1" d="M358.25,91.56v19.17h-2.33V91.56Z"/><path class="cls-1" d="M364.29,91.56v19.17H362V91.56Z"/><path class="cls-1" d="M18.52,121.4v2.71H16V121.4Zm-.08,5.29v13.88H16.11V126.69Z"/><path class="cls-1" d="M24.4,126.69v2.12a6.23,6.23,0,0,1,2.26-2,5.87,5.87,0,0,1,2.61-.59,4.44,4.44,0,0,1,3.5,1.29,5.55,5.55,0,0,1,1.14,3.78v9.24H31.57v-8.78a4.19,4.19,0,0,0-.69-2.73,2.76,2.76,0,0,0-2.15-.79,4.64,4.64,0,0,0-1.55.27,3.86,3.86,0,0,0-1.38.86,4.32,4.32,0,0,0-1,1.25,3.67,3.67,0,0,0-.35,1.7v8.22H22.1V126.69Z"/><path class="cls-1" d="M50.13,140.24a5.83,5.83,0,0,1-2.87.65,6.81,6.81,0,0,1-1.92-.25,4.25,4.25,0,0,1-1.51-.78,3.5,3.5,0,0,1-1-1.3,4.33,4.33,0,0,1-.35-1.83,4,4,0,0,1,.6-2.31A4.19,4.19,0,0,1,44.72,133,7.86,7.86,0,0,1,47,132.3,21.74,21.74,0,0,1,49.6,132L52,132v-.54a3.6,3.6,0,0,0-.76-2.55,3.26,3.26,0,0,0-2.44-.78,4.31,4.31,0,0,0-2.44.55,2.57,2.57,0,0,0-1,1.52l-2.13-.24a4,4,0,0,1,1.8-2.78,7.4,7.4,0,0,1,3.87-.87,7.81,7.81,0,0,1,2.54.36,4.27,4.27,0,0,1,1.68,1,4,4,0,0,1,.92,1.67,8.1,8.1,0,0,1,.28,2.23v9H52v-1.9A7,7,0,0,1,50.13,140.24Zm-.37-6.54a12.12,12.12,0,0,0-2.37.27,4.64,4.64,0,0,0-1.49.57,2.1,2.1,0,0,0-.78.9,3.19,3.19,0,0,0-.22,1.24,2.27,2.27,0,0,0,.63,1.68,2.86,2.86,0,0,0,2.08.63,4.69,4.69,0,0,0,3.22-1,3.54,3.54,0,0,0,1.16-2.8v-1.55Z"/><path class="cls-1" d="M66.56,138.54a5.19,5.19,0,0,0,2.67.58,4,4,0,0,0,2.51-.6,2,2,0,0,0,.74-1.6,3.25,3.25,0,0,0-.1-.77,1.42,1.42,0,0,0-.36-.64,2.45,2.45,0,0,0-.75-.5,5.72,5.72,0,0,0-1.26-.35l-1.78-.26a13.31,13.31,0,0,1-2.06-.49,5.21,5.21,0,0,1-1.51-.76,3.07,3.07,0,0,1-.93-1.16,4.09,4.09,0,0,1-.3-1.65,3.47,3.47,0,0,1,.41-1.72A3.8,3.8,0,0,1,65,127.35a5.59,5.59,0,0,1,1.74-.81,8,8,0,0,1,2.19-.28,9.36,9.36,0,0,1,2.51.29,4.89,4.89,0,0,1,1.65.81,3.51,3.51,0,0,1,1,1.21,6.78,6.78,0,0,1,.53,1.47l-2.12.35a5.67,5.67,0,0,0-.43-1,2.08,2.08,0,0,0-.64-.71,3,3,0,0,0-1-.43,5.84,5.84,0,0,0-1.44-.15,6.11,6.11,0,0,0-1.61.18,2.81,2.81,0,0,0-1,.47,1.59,1.59,0,0,0-.55.65,1.87,1.87,0,0,0-.16.77,2.5,2.5,0,0,0,.1.76,1.32,1.32,0,0,0,.41.6,2.59,2.59,0,0,0,.8.44,8,8,0,0,0,1.32.32l2,.32a6.77,6.77,0,0,1,3.51,1.4,3.81,3.81,0,0,1,1.06,2.9,3.77,3.77,0,0,1-.35,1.62,3.51,3.51,0,0,1-1,1.29,5,5,0,0,1-1.75.86,8.46,8.46,0,0,1-2.44.31,10.94,10.94,0,0,1-2.35-.24A6.09,6.09,0,0,1,65,140a4,4,0,0,1-1.34-1.38,4.58,4.58,0,0,1-.59-2.09h2.25A2.68,2.68,0,0,0,66.56,138.54Z"/><path class="cls-1" d="M80.32,121.4v2.71h-2.5V121.4Zm-.08,5.29v13.88H77.9V126.69Z"/><path class="cls-1" d="M86.2,126.69v2.12a6.2,6.2,0,0,1,2.25-2,5.93,5.93,0,0,1,2.61-.59,4.42,4.42,0,0,1,3.5,1.29,5.5,5.5,0,0,1,1.15,3.78v9.24H93.37v-8.78a4.13,4.13,0,0,0-.7-2.73,2.74,2.74,0,0,0-2.15-.79,4.58,4.58,0,0,0-1.54.27,3.86,3.86,0,0,0-1.38.86,4.32,4.32,0,0,0-1,1.25,3.55,3.55,0,0,0-.35,1.7v8.22H83.89V126.69Z"/><path class="cls-1" d="M102.7,143.66a5.07,5.07,0,0,0,2.65.54A3.47,3.47,0,0,0,108.4,143a6.31,6.31,0,0,0,.84-3.56v-1.48a5.87,5.87,0,0,1-1.94,1.75,5.61,5.61,0,0,1-2.68.61,5.84,5.84,0,0,1-2.62-.55,5.06,5.06,0,0,1-1.83-1.5A6.58,6.58,0,0,1,99.08,136a9.81,9.81,0,0,1-.37-2.71,9.38,9.38,0,0,1,.43-2.89,6.53,6.53,0,0,1,1.24-2.23,5.67,5.67,0,0,1,2-1.43,6.19,6.19,0,0,1,2.56-.51,5.88,5.88,0,0,1,2.3.47,5,5,0,0,1,2.08,1.73v-1.77h2.31v11.63a18.53,18.53,0,0,1-.26,3.23,6.24,6.24,0,0,1-.94,2.45,4.32,4.32,0,0,1-1.89,1.54,7.67,7.67,0,0,1-3.12.54,8.06,8.06,0,0,1-4.29-1,4.18,4.18,0,0,1-1.83-3.24h2.31A2.79,2.79,0,0,0,102.7,143.66ZM109,130.81a4.17,4.17,0,0,0-.88-1.52,3.28,3.28,0,0,0-1.31-.84,4.7,4.7,0,0,0-3.14,0,3.36,3.36,0,0,0-1.29.9,4.55,4.55,0,0,0-.86,1.59,7.9,7.9,0,0,0-.3,2.33,7.4,7.4,0,0,0,.33,2.37,4.49,4.49,0,0,0,.87,1.55,3.09,3.09,0,0,0,1.25.86,4.08,4.08,0,0,0,1.44.27,4.78,4.78,0,0,0,1.68-.29,3.62,3.62,0,0,0,1.33-.89,4.12,4.12,0,0,0,.88-1.49,6.11,6.11,0,0,0,.33-2.11v-.45A6.91,6.91,0,0,0,109,130.81Z"/><path class="cls-1" d="M117.57,121.4v19.17h-2.34V121.4Z"/><path class="cls-1" d="M131.44,139.85a6.44,6.44,0,0,1-4.12,1.15,6.15,6.15,0,0,1-4.87-1.92,7.86,7.86,0,0,1-1.69-5.36,9.5,9.5,0,0,1,.49-3.19,6.55,6.55,0,0,1,1.35-2.34,6,6,0,0,1,2.08-1.44,6.93,6.93,0,0,1,2.64-.49,6.8,6.8,0,0,1,2.76.51,5.11,5.11,0,0,1,1.9,1.41,6.15,6.15,0,0,1,1.1,2.13,9.73,9.73,0,0,1,.36,2.72v1.18H123.13a6.36,6.36,0,0,0,.28,1.94,4.79,4.79,0,0,0,.8,1.56,3.71,3.71,0,0,0,1.31,1,4.11,4.11,0,0,0,1.8.37,4,4,0,0,0,2.55-.66,3.33,3.33,0,0,0,1.1-1.78h2.25A5,5,0,0,1,131.44,139.85Zm-.55-9.19a4,4,0,0,0-.67-1.38,3,3,0,0,0-1.19-.9,4.16,4.16,0,0,0-1.74-.32,3.69,3.69,0,0,0-2.89,1.13,5.42,5.42,0,0,0-1.22,3.27h7.92A7.17,7.17,0,0,0,130.89,130.66Z"/><path class="cls-1" d="M150.63,140.37A5.39,5.39,0,0,1,148,141a5.89,5.89,0,0,1-2.65-.56,5.21,5.21,0,0,1-1.84-1.55,6.61,6.61,0,0,1-1.07-2.32,11.46,11.46,0,0,1-.35-2.87,10.28,10.28,0,0,1,.43-3.1,6.63,6.63,0,0,1,1.22-2.35,5.18,5.18,0,0,1,1.93-1.48,6.32,6.32,0,0,1,2.6-.51,6.13,6.13,0,0,1,2.22.44,5.08,5.08,0,0,1,2.1,1.68v-7h2.34v19.17h-2.29v-2A6.31,6.31,0,0,1,150.63,140.37Zm1.65-9.75a3.59,3.59,0,0,0-1.2-1.57,3.49,3.49,0,0,0-1.19-.67,4.36,4.36,0,0,0-1.33-.19,4.18,4.18,0,0,0-1.6.3,3.19,3.19,0,0,0-1.29.95,4.71,4.71,0,0,0-.86,1.69,9.1,9.1,0,0,0-.31,2.51,8.36,8.36,0,0,0,.34,2.58,4.55,4.55,0,0,0,.89,1.67,3.15,3.15,0,0,0,1.23.88,3.84,3.84,0,0,0,1.41.27,4.65,4.65,0,0,0,1.4-.19,3.88,3.88,0,0,0,2.45-2.25,6.19,6.19,0,0,0,.42-2.45v-.94A7.4,7.4,0,0,0,152.28,130.62Z"/><path class="cls-1" d="M161.93,140.49a5.73,5.73,0,0,1-2.09-1.45,6.53,6.53,0,0,1-1.32-2.31,9.74,9.74,0,0,1-.45-3.06,9.18,9.18,0,0,1,.48-3.06,6.79,6.79,0,0,1,1.37-2.34,6.07,6.07,0,0,1,2.13-1.49,7.13,7.13,0,0,1,2.78-.52,7.31,7.31,0,0,1,2.8.51,5.88,5.88,0,0,1,2.1,1.46,6.24,6.24,0,0,1,1.33,2.3,9.19,9.19,0,0,1,.46,3,9.55,9.55,0,0,1-.47,3.09,6.73,6.73,0,0,1-1.34,2.34,5.93,5.93,0,0,1-2.14,1.49,7.27,7.27,0,0,1-2.82.52A7.38,7.38,0,0,1,161.93,140.49Zm4.78-1.82a3.64,3.64,0,0,0,1.33-1.13,4.88,4.88,0,0,0,.77-1.73,9.62,9.62,0,0,0,.24-2.22,9.33,9.33,0,0,0-.24-2.18,4.66,4.66,0,0,0-.77-1.7,3.61,3.61,0,0,0-1.33-1.12,4.37,4.37,0,0,0-1.93-.4,4.32,4.32,0,0,0-1.92.4,3.66,3.66,0,0,0-1.32,1.12,4.65,4.65,0,0,0-.76,1.7,10.25,10.25,0,0,0,0,4.41,5.08,5.08,0,0,0,.75,1.72,3.53,3.53,0,0,0,1.32,1.13,4.86,4.86,0,0,0,3.86,0Z"/><path class="cls-1" d="M177.39,138.54a5.19,5.19,0,0,0,2.67.58,4,4,0,0,0,2.51-.6,2,2,0,0,0,.74-1.6,3.25,3.25,0,0,0-.09-.77,1.54,1.54,0,0,0-.37-.64,2.33,2.33,0,0,0-.75-.5,5.56,5.56,0,0,0-1.26-.35l-1.77-.26a13.18,13.18,0,0,1-2.07-.49,5.27,5.27,0,0,1-1.5-.76,2.89,2.89,0,0,1-.93-1.16,3.92,3.92,0,0,1-.31-1.65,3.48,3.48,0,0,1,.42-1.72,3.67,3.67,0,0,1,1.15-1.27,5.65,5.65,0,0,1,1.75-.81,8,8,0,0,1,2.19-.28,9.36,9.36,0,0,1,2.51.29,4.89,4.89,0,0,1,1.65.81,3.48,3.48,0,0,1,1,1.21,7.38,7.38,0,0,1,.54,1.47l-2.12.35a6.54,6.54,0,0,0-.43-1,2.11,2.11,0,0,0-.65-.71,2.94,2.94,0,0,0-1-.43,5.75,5.75,0,0,0-1.43-.15,6.14,6.14,0,0,0-1.62.18,2.89,2.89,0,0,0-1,.47,1.67,1.67,0,0,0-.55.65,1.87,1.87,0,0,0-.16.77,2.21,2.21,0,0,0,.11.76,1.3,1.3,0,0,0,.4.6,2.78,2.78,0,0,0,.81.44,7.84,7.84,0,0,0,1.31.32l2,.32a6.77,6.77,0,0,1,3.5,1.4,4.28,4.28,0,0,1,.71,4.52,3.41,3.41,0,0,1-1,1.29,4.89,4.89,0,0,1-1.74.86,8.53,8.53,0,0,1-2.45.31,10.78,10.78,0,0,1-2.34-.24,5.9,5.9,0,0,1-1.92-.77,4,4,0,0,1-1.35-1.38,4.58,4.58,0,0,1-.59-2.09h2.26A2.7,2.7,0,0,0,177.39,138.54Z"/><path class="cls-1" d="M198.9,139.85a6.44,6.44,0,0,1-4.12,1.15,6.13,6.13,0,0,1-4.86-1.92,7.81,7.81,0,0,1-1.69-5.36,9.77,9.77,0,0,1,.48-3.19,6.55,6.55,0,0,1,1.35-2.34,6,6,0,0,1,2.09-1.44,7.51,7.51,0,0,1,5.39,0,5.11,5.11,0,0,1,1.9,1.41,6,6,0,0,1,1.1,2.13,9.73,9.73,0,0,1,.36,2.72v1.18H190.59a6.36,6.36,0,0,0,.28,1.94,4.81,4.81,0,0,0,.81,1.56,3.59,3.59,0,0,0,1.3,1,4.11,4.11,0,0,0,1.8.37,4,4,0,0,0,2.55-.66,3.27,3.27,0,0,0,1.1-1.78h2.26A5,5,0,0,1,198.9,139.85Zm-.55-9.19a3.78,3.78,0,0,0-.67-1.38,3,3,0,0,0-1.18-.9,4.24,4.24,0,0,0-1.75-.32,3.71,3.71,0,0,0-2.89,1.13,5.42,5.42,0,0,0-1.22,3.27h7.92A7.17,7.17,0,0,0,198.35,130.66Z"/><path class="cls-1" d="M208,120.81h1.33v7h1.49l-.19,1.12h-1.3v2.69H208v-2.69H202.8v-1Zm0,1.8-3.74,5.21H208Z"/><path class="cls-1" d="M216.81,126.37v1.36h-4.6v-1.36Z"/><path class="cls-1" d="M224.29,122.53a1.74,1.74,0,0,0-.38-.47,1.52,1.52,0,0,0-.54-.27,2.88,2.88,0,0,0-.78-.09,2.47,2.47,0,0,0-1.07.23,2.08,2.08,0,0,0-.83.74,4.42,4.42,0,0,0-.57,1.36,10.27,10.27,0,0,0-.25,2.07,3,3,0,0,1,1.2-1.09,3.86,3.86,0,0,1,1.65-.33,3.71,3.71,0,0,1,1.49.27,2.77,2.77,0,0,1,1,.75,3.11,3.11,0,0,1,.58,1.13,4.84,4.84,0,0,1,.19,1.4,4,4,0,0,1-.26,1.5,3.25,3.25,0,0,1-.74,1.16,3.1,3.1,0,0,1-1.17.75,4.18,4.18,0,0,1-1.54.27,3.52,3.52,0,0,1-1.87-.45,3.33,3.33,0,0,1-1.15-1.15,4.94,4.94,0,0,1-.59-1.6,9.66,9.66,0,0,1-.16-1.78,12,12,0,0,1,.34-3.13,5.77,5.77,0,0,1,.91-2,3.15,3.15,0,0,1,1.3-1,4,4,0,0,1,1.54-.3,3.29,3.29,0,0,1,2.22.64,3.13,3.13,0,0,1,1,1.82l-1.25.22A4.11,4.11,0,0,0,224.29,122.53Zm-.27,7.58a2.55,2.55,0,0,0,.64-1.83,3.74,3.74,0,0,0-.12-1,2.07,2.07,0,0,0-.38-.79,1.72,1.72,0,0,0-.68-.53,2.59,2.59,0,0,0-1-.19,2.91,2.91,0,0,0-.92.15,2,2,0,0,0-.8.45,2.2,2.2,0,0,0-.53.8,2.79,2.79,0,0,0-.16,1.17,2.93,2.93,0,0,0,.17.9,2.3,2.3,0,0,0,.44.76,2.12,2.12,0,0,0,.69.53,2,2,0,0,0,.95.21A2.31,2.31,0,0,0,224,130.11Z"/><rect class="cls-2" width="2.72" height="144.35"/></g></g></svg>