<svg xmlns="http://www.w3.org/2000/svg" viewBox="0 0 373.4 95.01"><defs><style>.cls-1{fill:#fff;}.cls-2{fill:#dfdf1d;}</style></defs><g id="Layer_2" data-name="Layer 2"><g id="Layer_1-2" data-name="Layer 1"><path class="cls-1" d="M188.56,5.37v7.82a6.77,6.77,0,0,1,2.39-2,6.2,6.2,0,0,1,2.75-.63,4.71,4.71,0,0,1,3.73,1.37,5.87,5.87,0,0,1,1.21,4v9.82h-2.51V16.42a4.44,4.44,0,0,0-.73-2.9,2.84,2.84,0,0,0-2.27-.84,4.92,4.92,0,0,0-1.64.28,4.09,4.09,0,0,0-1.47.92,4.62,4.62,0,0,0-1.08,1.32,3.87,3.87,0,0,0-.38,1.82v8.73h-2.48V5.37Z"/><path class="cls-1" d="M213.21,25a6.82,6.82,0,0,1-4.38,1.23,6.54,6.54,0,0,1-5.17-2,8.37,8.37,0,0,1-1.79-5.7,10.41,10.41,0,0,1,.51-3.39,6.92,6.92,0,0,1,1.44-2.49A6.29,6.29,0,0,1,206,11.07a7.16,7.16,0,0,1,2.8-.53,7.28,7.28,0,0,1,2.94.54,5.27,5.27,0,0,1,2,1.5A6.29,6.29,0,0,1,215,14.85a10.4,10.4,0,0,1,.38,2.88V19h-11a6.91,6.91,0,0,0,.3,2.07,5.05,5.05,0,0,0,.85,1.65,3.84,3.84,0,0,0,1.39,1.1,4.29,4.29,0,0,0,1.91.4,4.23,4.23,0,0,0,2.71-.7,3.51,3.51,0,0,0,1.17-1.9h2.4A5.32,5.32,0,0,1,213.21,25Zm-.58-9.76a3.89,3.89,0,0,0-.72-1.47,3.25,3.25,0,0,0-1.25-1,4.51,4.51,0,0,0-1.86-.34,4,4,0,0,0-3.07,1.2,5.75,5.75,0,0,0-1.29,3.48h8.42A7.52,7.52,0,0,0,212.63,15.22Z"/><path class="cls-1" d="M221.16,5.37V25.75h-2.48V5.37Z"/><path class="cls-1" d="M227.5,11v2.12a6.43,6.43,0,0,1,2.13-1.92,6,6,0,0,1,2.84-.65,6.25,6.25,0,0,1,2.75.57,5.3,5.3,0,0,1,2,1.6,6.75,6.75,0,0,1,1.17,2.44,11.69,11.69,0,0,1,.39,3.12,10.92,10.92,0,0,1-.46,3.3,7.17,7.17,0,0,1-1.31,2.5,5.84,5.84,0,0,1-2.07,1.58,6.64,6.64,0,0,1-5.2.06,5.32,5.32,0,0,1-2.18-1.78v7.36h-2.48V11Zm.33,10.24a4.83,4.83,0,0,0,.9,1.67,3.29,3.29,0,0,0,1.37,1,5.12,5.12,0,0,0,1.74.29,4.51,4.51,0,0,0,1.7-.31,3.49,3.49,0,0,0,1.36-1,5.33,5.33,0,0,0,.89-1.82,9.6,9.6,0,0,0,.33-2.71,9.17,9.17,0,0,0-.35-2.72,5,5,0,0,0-.93-1.76,3.33,3.33,0,0,0-1.3-.94,4.12,4.12,0,0,0-1.5-.29,4.8,4.8,0,0,0-1.8.33,4,4,0,0,0-1.44,1,4.43,4.43,0,0,0-1,1.63,6.86,6.86,0,0,0-.34,2.27v1A8,8,0,0,0,227.83,21.23Z"/><path class="cls-1" d="M245,23.6a5.62,5.62,0,0,0,2.84.61,4.25,4.25,0,0,0,2.67-.64,2.07,2.07,0,0,0,.79-1.7,3,3,0,0,0-.1-.81,1.59,1.59,0,0,0-.39-.69,2.53,2.53,0,0,0-.8-.53,6.14,6.14,0,0,0-1.34-.37l-1.88-.28a14.6,14.6,0,0,1-2.2-.52,5.58,5.58,0,0,1-1.6-.81,3.08,3.08,0,0,1-1-1.23,4.2,4.2,0,0,1-.33-1.75,3.75,3.75,0,0,1,.44-1.83,4.08,4.08,0,0,1,1.23-1.36,6,6,0,0,1,1.85-.85,8.64,8.64,0,0,1,2.33-.3,9.59,9.59,0,0,1,2.67.31,5.26,5.26,0,0,1,1.76.86A3.9,3.9,0,0,1,253,13a7.19,7.19,0,0,1,.57,1.57l-2.25.37a6.47,6.47,0,0,0-.46-1,2.26,2.26,0,0,0-.68-.76,3.37,3.37,0,0,0-1-.46,6.49,6.49,0,0,0-1.52-.15,6.92,6.92,0,0,0-1.72.18,3.41,3.41,0,0,0-1.1.5,1.8,1.8,0,0,0-.58.7,1.91,1.91,0,0,0-.17.82,2.88,2.88,0,0,0,.11.81,1.4,1.4,0,0,0,.43.63,2.86,2.86,0,0,0,.86.47,7.55,7.55,0,0,0,1.4.34l2.14.34a7.1,7.1,0,0,1,3.72,1.49,4,4,0,0,1,1.13,3.08,4,4,0,0,1-.37,1.73A3.91,3.91,0,0,1,252.34,25a5.57,5.57,0,0,1-1.86.91,9.18,9.18,0,0,1-2.6.33,11.63,11.63,0,0,1-2.5-.26,6.41,6.41,0,0,1-2-.81,4.37,4.37,0,0,1-1.43-1.47,4.87,4.87,0,0,1-.62-2.23h2.4A2.89,2.89,0,0,0,245,23.6Z"/><path class="cls-1" d="M265.81,11v2.12a6.43,6.43,0,0,1,2.13-1.92,5.93,5.93,0,0,1,2.84-.65,6.29,6.29,0,0,1,2.75.57,5.3,5.3,0,0,1,2,1.6,7.09,7.09,0,0,1,1.17,2.44,11.69,11.69,0,0,1,.39,3.12,11.25,11.25,0,0,1-.46,3.3,7.17,7.17,0,0,1-1.31,2.5,5.93,5.93,0,0,1-2.07,1.58,6.64,6.64,0,0,1-5.2.06,5.26,5.26,0,0,1-2.18-1.78v7.36h-2.49V11Zm.33,10.24a4.67,4.67,0,0,0,.9,1.67,3.29,3.29,0,0,0,1.37,1,5.12,5.12,0,0,0,1.74.29,4.55,4.55,0,0,0,1.7-.31,3.39,3.39,0,0,0,1.35-1,5.16,5.16,0,0,0,.9-1.82,9.6,9.6,0,0,0,.33-2.71,8.83,8.83,0,0,0-.36-2.72,4.86,4.86,0,0,0-.92-1.76,3.4,3.4,0,0,0-1.3-.94,4.12,4.12,0,0,0-1.5-.29,4.8,4.8,0,0,0-1.8.33,4,4,0,0,0-1.44,1,4.43,4.43,0,0,0-1,1.63,6.86,6.86,0,0,0-.34,2.27v1A8,8,0,0,0,266.14,21.23Z"/><path class="cls-1" d="M282.85,11v2.29a6.11,6.11,0,0,1,1.94-1.89,4.65,4.65,0,0,1,2.37-.65,6.22,6.22,0,0,1,1.31.11l-.31,2.31-.57-.1a4.09,4.09,0,0,0-.63,0,4.38,4.38,0,0,0-1.4.24,4,4,0,0,0-1.34.82,3.91,3.91,0,0,0-1,1.25,3.65,3.65,0,0,0-.36,1.66v8.76H280.4V11Z"/><path class="cls-1" d="M300.91,25a6.85,6.85,0,0,1-4.39,1.23,6.52,6.52,0,0,1-5.16-2,8.33,8.33,0,0,1-1.8-5.7,10.41,10.41,0,0,1,.51-3.39,7.07,7.07,0,0,1,1.44-2.49,6.24,6.24,0,0,1,2.22-1.52,7.11,7.11,0,0,1,2.79-.53,7.21,7.21,0,0,1,2.94.54,5.38,5.38,0,0,1,2,1.5,6.43,6.43,0,0,1,1.17,2.27,10.4,10.4,0,0,1,.38,2.88V19h-11a6.91,6.91,0,0,0,.3,2.07,5.07,5.07,0,0,0,.86,1.65,3.81,3.81,0,0,0,1.38,1.1,5.24,5.24,0,0,0,4.63-.3,3.51,3.51,0,0,0,1.17-1.9h2.39A5.31,5.31,0,0,1,300.91,25Zm-.59-9.76a4,4,0,0,0-.71-1.47,3.36,3.36,0,0,0-1.26-1,4.5,4.5,0,0,0-1.85-.34,3.94,3.94,0,0,0-3.07,1.2,5.7,5.7,0,0,0-1.3,3.48h8.42A7.52,7.52,0,0,0,300.32,15.22Z"/><path class="cls-1" d="M307.48,11l4.4,12,4.48-12h2.75l-5.94,14.76h-2.66L304.6,11Z"/><path class="cls-1" d="M331.76,25a6.8,6.8,0,0,1-4.38,1.23,6.54,6.54,0,0,1-5.17-2,8.37,8.37,0,0,1-1.79-5.7,10.41,10.41,0,0,1,.51-3.39,6.92,6.92,0,0,1,1.44-2.49,6.29,6.29,0,0,1,2.21-1.52,7.16,7.16,0,0,1,2.8-.53,7.28,7.28,0,0,1,2.94.54,5.38,5.38,0,0,1,2,1.5,6.43,6.43,0,0,1,1.17,2.27,10.4,10.4,0,0,1,.38,2.88V19h-11a6.91,6.91,0,0,0,.3,2.07,5.05,5.05,0,0,0,.85,1.65,3.93,3.93,0,0,0,1.39,1.1,4.29,4.29,0,0,0,1.91.4,4.23,4.23,0,0,0,2.71-.7,3.47,3.47,0,0,0,1.18-1.9h2.39A5.28,5.28,0,0,1,331.76,25Zm-.58-9.76a4,4,0,0,0-.71-1.47,3.36,3.36,0,0,0-1.26-1,4.51,4.51,0,0,0-1.86-.34,4,4,0,0,0-3.07,1.2A5.75,5.75,0,0,0,323,17.13h8.42A7.52,7.52,0,0,0,331.18,15.22Z"/><path class="cls-1" d="M339.63,11v2.26a6.45,6.45,0,0,1,2.4-2.08,6.27,6.27,0,0,1,2.76-.63,4.71,4.71,0,0,1,3.73,1.37,5.87,5.87,0,0,1,1.21,4v9.82h-2.48V16.42a4.43,4.43,0,0,0-.74-2.9,2.91,2.91,0,0,0-2.29-.84,4.92,4.92,0,0,0-1.64.28,4.09,4.09,0,0,0-1.47.92A4.79,4.79,0,0,0,340,15.2a3.88,3.88,0,0,0-.37,1.82v8.73h-2.49V11Z"/><path class="cls-1" d="M352,13V11h2.28V7h2.48v4h3.91v2h-3.91v8.65a2.9,2.9,0,0,0,.49,1.75,1.74,1.74,0,0,0,1.48.65,7,7,0,0,0,1.1-.08,6.09,6.09,0,0,0,.87-.23l.43,1.91a9.69,9.69,0,0,1-1.24.33,9.08,9.08,0,0,1-1.58.13,4.81,4.81,0,0,1-2-.37,3,3,0,0,1-1.23-1.06,4.13,4.13,0,0,1-.61-1.63A11.93,11.93,0,0,1,354.3,21V13Z"/><path class="cls-1" d="M25.06,56.47a6.28,6.28,0,0,1-4.43,1.46,7.73,7.73,0,0,1-3-.54,5.73,5.73,0,0,1-2.17-1.56,6.67,6.67,0,0,1-1.31-2.46,10.84,10.84,0,0,1-.45-3.24,10.21,10.21,0,0,1,.49-3.22,7,7,0,0,1,1.4-2.49,6.36,6.36,0,0,1,2.22-1.59,7.42,7.42,0,0,1,3-.58,6,6,0,0,1,4.12,1.3,6,6,0,0,1,1.85,3.59l-2.48.45a8,8,0,0,0-.39-1.31,3.05,3.05,0,0,0-.67-1,2.87,2.87,0,0,0-1-.69,4,4,0,0,0-1.47-.24,4.25,4.25,0,0,0-2,.44A3.91,3.91,0,0,0,17.36,46a5.46,5.46,0,0,0-.77,1.84,10.24,10.24,0,0,0-.24,2.26,10.72,10.72,0,0,0,.23,2.25,5.34,5.34,0,0,0,.74,1.84,3.74,3.74,0,0,0,1.34,1.25,4.2,4.2,0,0,0,2,.45A3.52,3.52,0,0,0,23.36,55a4.58,4.58,0,0,0,1.13-2.48H27A6.52,6.52,0,0,1,25.06,56.47Z"/><path class="cls-1" d="M40.77,56.7a6.84,6.84,0,0,1-4.38,1.23,6.52,6.52,0,0,1-5.17-2,8.33,8.33,0,0,1-1.8-5.7,10.47,10.47,0,0,1,.52-3.4,6.87,6.87,0,0,1,1.44-2.48,6.31,6.31,0,0,1,2.21-1.53,7.9,7.9,0,0,1,5.74,0,5.27,5.27,0,0,1,2,1.5,6,6,0,0,1,1.17,2.27,10,10,0,0,1,.39,2.88v1.26h-11a6.91,6.91,0,0,0,.3,2.07,5.16,5.16,0,0,0,.85,1.65,4,4,0,0,0,1.39,1.1,4.29,4.29,0,0,0,1.91.4,4.23,4.23,0,0,0,2.71-.7,3.55,3.55,0,0,0,1.17-1.9h2.4A5.32,5.32,0,0,1,40.77,56.7Zm-.58-9.76a4,4,0,0,0-.72-1.47,3.25,3.25,0,0,0-1.25-1,4.58,4.58,0,0,0-1.86-.34,4,4,0,0,0-3.07,1.2A5.82,5.82,0,0,0,32,48.85h8.43A7.52,7.52,0,0,0,40.19,46.94Z"/><path class="cls-1" d="M48.64,42.71V45a6.11,6.11,0,0,1,1.94-1.89A4.56,4.56,0,0,1,53,42.45a6.16,6.16,0,0,1,1.31.12L54,44.88l-.57-.1a4.09,4.09,0,0,0-.63,0,4.34,4.34,0,0,0-1.4.24A3.65,3.65,0,0,0,50,45.8a4.09,4.09,0,0,0-1,1.25,3.65,3.65,0,0,0-.36,1.66v8.76H46.18V42.71Z"/><path class="cls-1" d="M55.83,44.68v-2h2.28v-4H60.6v4h3.91v2H60.6v8.65a2.85,2.85,0,0,0,.48,1.74,1.72,1.72,0,0,0,1.49.66,6,6,0,0,0,1.1-.09,5.53,5.53,0,0,0,.87-.22L65,57.33a9.69,9.69,0,0,1-1.24.33,9,9,0,0,1-1.58.13,4.65,4.65,0,0,1-2-.38,3.06,3.06,0,0,1-1.23-1,4.13,4.13,0,0,1-.61-1.63,11.93,11.93,0,0,1-.16-2v-8Z"/><path class="cls-1" d="M74.33,57.11a6.08,6.08,0,0,1-3.06.7,7.3,7.3,0,0,1-2-.27,4.41,4.41,0,0,1-1.6-.82,4,4,0,0,1-1-1.39,4.66,4.66,0,0,1-.37-1.94,4.28,4.28,0,0,1,.64-2.46,4.56,4.56,0,0,1,1.71-1.48A8.48,8.48,0,0,1,71,48.68a22.17,22.17,0,0,1,2.77-.29l2.54-.08v-.57A3.86,3.86,0,0,0,75.5,45a3.51,3.51,0,0,0-2.6-.82,4.57,4.57,0,0,0-2.6.58,2.71,2.71,0,0,0-1.08,1.61L67,46.14a4.28,4.28,0,0,1,1.91-3A7.83,7.83,0,0,1,73,42.25a8.09,8.09,0,0,1,2.69.39,4.46,4.46,0,0,1,1.79,1.1,4.25,4.25,0,0,1,1,1.77,8.63,8.63,0,0,1,.3,2.37v9.59h-2.4v-2A7,7,0,0,1,74.33,57.11Zm-.4-7a14.13,14.13,0,0,0-2.51.29,5,5,0,0,0-1.59.61A2.17,2.17,0,0,0,69,52a3.36,3.36,0,0,0-.24,1.31,2.42,2.42,0,0,0,.67,1.79,3.09,3.09,0,0,0,2.21.67,5,5,0,0,0,3.43-1.09,3.75,3.75,0,0,0,1.23-3V50.08Z"/><path class="cls-1" d="M85.15,37.09V40H82.49V37.09Zm-.09,5.62V57.47H82.58V42.71Z"/><path class="cls-1" d="M91.4,42.71V45a6.57,6.57,0,0,1,2.4-2.09,6.27,6.27,0,0,1,2.76-.63,4.71,4.71,0,0,1,3.73,1.38,5.87,5.87,0,0,1,1.21,4v9.82H99V48.14a4.43,4.43,0,0,0-.74-2.9A2.91,2.91,0,0,0,96,44.4a4.92,4.92,0,0,0-1.64.28,4.09,4.09,0,0,0-1.47.92,4.65,4.65,0,0,0-1.08,1.32,3.85,3.85,0,0,0-.37,1.82v8.73H88.94V42.71Z"/><path class="cls-1" d="M110.15,44.68v-2h2.29v-4h2.48v4h3.91v2h-3.91v8.65a2.85,2.85,0,0,0,.48,1.74,1.74,1.74,0,0,0,1.49.66,6,6,0,0,0,1.1-.09,5.53,5.53,0,0,0,.87-.22l.43,1.91a9.85,9.85,0,0,1-1.25.33,8.91,8.91,0,0,1-1.58.13,4.68,4.68,0,0,1-2-.38,3,3,0,0,1-1.22-1,4.14,4.14,0,0,1-.62-1.63,13.07,13.07,0,0,1-.15-2v-8Z"/><path class="cls-1" d="M123.54,60.9a2,2,0,0,0,1.41-.47,4.88,4.88,0,0,0,1-1.76l.6-1.57-6.26-14.39h2.89l4.65,11.59,4.25-11.59h2.75l-6.46,16.16a16.51,16.51,0,0,1-.8,1.76,6.72,6.72,0,0,1-.88,1.3,3,3,0,0,1-1.16.81,4.36,4.36,0,0,1-1.64.27,7.63,7.63,0,0,1-1.23-.09,6.65,6.65,0,0,1-1.2-.31l.49-2A4.75,4.75,0,0,0,123.54,60.9Z"/><path class="cls-1" d="M139.38,42.71v2.11a6.51,6.51,0,0,1,2.13-1.91,5.87,5.87,0,0,1,2.84-.66,6.33,6.33,0,0,1,2.76.58,5.34,5.34,0,0,1,2,1.59,7,7,0,0,1,1.18,2.45,12.12,12.12,0,0,1,.38,3.12,10.92,10.92,0,0,1-.46,3.3,7.17,7.17,0,0,1-1.31,2.5,5.84,5.84,0,0,1-2.07,1.58,6.62,6.62,0,0,1-5.19.06,5.29,5.29,0,0,1-2.19-1.79V63h-2.48V42.71ZM139.71,53a4.83,4.83,0,0,0,.9,1.67,3.43,3.43,0,0,0,1.37,1,4.89,4.89,0,0,0,1.74.3,4.51,4.51,0,0,0,1.7-.31,3.42,3.42,0,0,0,1.36-1,5.25,5.25,0,0,0,.9-1.82A9.63,9.63,0,0,0,148,50a9,9,0,0,0-.35-2.73,5.06,5.06,0,0,0-.93-1.75,3.26,3.26,0,0,0-1.3-.94,4,4,0,0,0-1.5-.29,4.84,4.84,0,0,0-1.8.33,4,4,0,0,0-1.44,1,4.28,4.28,0,0,0-1,1.63,6.81,6.81,0,0,0-.35,2.27v1A8,8,0,0,0,139.71,53Z"/><path class="cls-1" d="M164.83,56.7a6.84,6.84,0,0,1-4.38,1.23,6.52,6.52,0,0,1-5.17-2,8.33,8.33,0,0,1-1.8-5.7,10.2,10.2,0,0,1,.52-3.4,6.87,6.87,0,0,1,1.44-2.48,6.22,6.22,0,0,1,2.21-1.53,7.9,7.9,0,0,1,5.74,0,5.27,5.27,0,0,1,2,1.5,6,6,0,0,1,1.17,2.27,10,10,0,0,1,.39,2.88v1.26H156a7.24,7.24,0,0,0,.3,2.07,5.17,5.17,0,0,0,.86,1.65,3.86,3.86,0,0,0,1.39,1.1,4.29,4.29,0,0,0,1.91.4,4.23,4.23,0,0,0,2.71-.7,3.55,3.55,0,0,0,1.17-1.9h2.4A5.32,5.32,0,0,1,164.83,56.7Zm-.58-9.76a4,4,0,0,0-.72-1.47,3.25,3.25,0,0,0-1.25-1,4.58,4.58,0,0,0-1.86-.34,4,4,0,0,0-3.07,1.2,5.82,5.82,0,0,0-1.3,3.48h8.42A7.53,7.53,0,0,0,164.25,46.94Z"/><path class="cls-1" d="M173.14,55.32a5.57,5.57,0,0,0,2.84.61,4.29,4.29,0,0,0,2.67-.64,2.1,2.1,0,0,0,.78-1.7,3,3,0,0,0-.1-.81,1.47,1.47,0,0,0-.38-.69,2.47,2.47,0,0,0-.8-.53,6.14,6.14,0,0,0-1.34-.37l-1.89-.28a14.6,14.6,0,0,1-2.2-.52,5.72,5.72,0,0,1-1.6-.81,3.25,3.25,0,0,1-1-1.23,4.25,4.25,0,0,1-.33-1.76,3.74,3.74,0,0,1,.44-1.82,4.1,4.1,0,0,1,1.23-1.36,5.91,5.91,0,0,1,1.86-.86,9,9,0,0,1,2.32-.3,9.56,9.56,0,0,1,2.67.32,5,5,0,0,1,1.76.86,3.81,3.81,0,0,1,1.06,1.28,8.39,8.39,0,0,1,.57,1.57l-2.26.37a5.1,5.1,0,0,0-.46-1,2.26,2.26,0,0,0-.68-.76,3.31,3.31,0,0,0-1-.46,6.53,6.53,0,0,0-1.53-.16,6.73,6.73,0,0,0-1.71.19,3,3,0,0,0-1.1.5,1.83,1.83,0,0,0-.59.7,2.06,2.06,0,0,0-.17.81,2.57,2.57,0,0,0,.12.82,1.32,1.32,0,0,0,.42.62,2.77,2.77,0,0,0,.86.48,8.71,8.71,0,0,0,1.4.34l2.14.34a7.18,7.18,0,0,1,3.73,1.49,4.59,4.59,0,0,1,.75,4.81,3.8,3.8,0,0,1-1.11,1.37,5.48,5.48,0,0,1-1.86.91,9.18,9.18,0,0,1-2.6.33,11.53,11.53,0,0,1-2.49-.26,6.41,6.41,0,0,1-2-.81,4.28,4.28,0,0,1-1.43-1.47,5,5,0,0,1-.63-2.23h2.4A2.87,2.87,0,0,0,173.14,55.32Z"/><path class="cls-1" d="M195.13,57.39a6.3,6.3,0,0,1-2.23-1.55,6.74,6.74,0,0,1-1.39-2.45,10.1,10.1,0,0,1-.49-3.26,9.81,9.81,0,0,1,.51-3.25A7.17,7.17,0,0,1,193,44.4a6.39,6.39,0,0,1,2.27-1.59,8.17,8.17,0,0,1,5.92,0,6.25,6.25,0,0,1,2.25,1.55,6.92,6.92,0,0,1,1.41,2.44,10.15,10.15,0,0,1,.48,3.23,9.87,9.87,0,0,1-.5,3.28,7.08,7.08,0,0,1-1.42,2.49,6.31,6.31,0,0,1-2.27,1.58,8.46,8.46,0,0,1-6,0Zm5.08-2a3.81,3.81,0,0,0,1.42-1.19,5.2,5.2,0,0,0,.81-1.85,10.06,10.06,0,0,0,.26-2.35,9.78,9.78,0,0,0-.26-2.31,5.05,5.05,0,0,0-.81-1.82,3.88,3.88,0,0,0-1.42-1.18,4.46,4.46,0,0,0-2.05-.43,4.39,4.39,0,0,0-2,.43,3.9,3.9,0,0,0-1.4,1.18,5.24,5.24,0,0,0-.82,1.82,9.94,9.94,0,0,0-.25,2.34,10.06,10.06,0,0,0,.25,2.34,5.65,5.65,0,0,0,.8,1.83,3.67,3.67,0,0,0,1.4,1.19,5.13,5.13,0,0,0,4.11,0Z"/><path class="cls-1" d="M207,44.68v-2h2.31V41.43a5.31,5.31,0,0,1,.36-2.06,3.78,3.78,0,0,1,1-1.41,4,4,0,0,1,1.42-.83,5.5,5.5,0,0,1,1.73-.27,10.19,10.19,0,0,1,1.26.07,7.59,7.59,0,0,1,1.25.27l-.4,1.94A4.82,4.82,0,0,0,215,39a7.34,7.34,0,0,0-.81-.05,2.79,2.79,0,0,0-1.71.53,2.25,2.25,0,0,0-.72,1.93v1.34h3.74v2H211.8V57.47h-2.48V44.68Z"/><path class="cls-1" d="M227.3,37.09v8.62h10.31V37.09h2.63V57.47h-2.63V48.16H227.3v9.31h-2.62V37.09Z"/><path class="cls-1" d="M251.57,37.09a12.18,12.18,0,0,1,3.72.48,6,6,0,0,1,2.32,1.32,4.46,4.46,0,0,1,1.17,1.92,8.46,8.46,0,0,1,.32,2.33,8.7,8.7,0,0,1-.34,2.46,4.9,4.9,0,0,1-1.2,2,5.83,5.83,0,0,1-2.31,1.4,11.29,11.29,0,0,1-3.68.51h-4.23v7.91h-2.6V37.09Zm2.42,10a3.5,3.5,0,0,0,1.52-.83,2.88,2.88,0,0,0,.75-1.3,6.57,6.57,0,0,0,0-3.41,2.54,2.54,0,0,0-.8-1.22,3.64,3.64,0,0,0-1.53-.73,10.07,10.07,0,0,0-2.41-.25h-4.17v8h4.2A8.79,8.79,0,0,0,254,47.05Z"/><path class="cls-1" d="M263.44,37.09l6.2,17,6.31-17h2.82L271,57.47H268.3l-7.83-20.38Z"/><path class="cls-1" d="M289.33,42.71V45a6.21,6.21,0,0,1,1.94-1.89,4.61,4.61,0,0,1,2.37-.66,6.19,6.19,0,0,1,1.32.12l-.32,2.31-.57-.1a4.09,4.09,0,0,0-.63,0,4.33,4.33,0,0,0-1.39.24,3.69,3.69,0,0,0-1.35.82,4.05,4.05,0,0,0-1,1.25,3.65,3.65,0,0,0-.36,1.66v8.76h-2.48V42.71Z"/><path class="cls-1" d="M307.39,56.7A6.84,6.84,0,0,1,303,57.93a6.52,6.52,0,0,1-5.17-2,8.33,8.33,0,0,1-1.8-5.7,10.2,10.2,0,0,1,.52-3.4A6.87,6.87,0,0,1,298,44.31a6.22,6.22,0,0,1,2.21-1.53,7.9,7.9,0,0,1,5.74,0,5.27,5.27,0,0,1,2,1.5,6.35,6.35,0,0,1,1.17,2.27,10,10,0,0,1,.39,2.88v1.26h-11a6.91,6.91,0,0,0,.3,2.07,5.17,5.17,0,0,0,.86,1.65,3.92,3.92,0,0,0,1.38,1.1,4.34,4.34,0,0,0,1.92.4,4.25,4.25,0,0,0,2.71-.7,3.55,3.55,0,0,0,1.17-1.9h2.4A5.32,5.32,0,0,1,307.39,56.7Zm-.59-9.76a4,4,0,0,0-.71-1.47,3.21,3.21,0,0,0-1.26-1,4.5,4.5,0,0,0-1.85-.34,4,4,0,0,0-3.07,1.2,5.76,5.76,0,0,0-1.3,3.48H307A7.09,7.09,0,0,0,306.8,46.94Z"/><path class="cls-1" d="M315.34,37.09V57.47h-2.48V37.09Z"/><path class="cls-1" d="M326.39,57.11a6.08,6.08,0,0,1-3.06.7,7.3,7.3,0,0,1-2-.27,4.41,4.41,0,0,1-1.6-.82,3.88,3.88,0,0,1-1-1.39,4.66,4.66,0,0,1-.37-1.94,4.28,4.28,0,0,1,.64-2.46,4.56,4.56,0,0,1,1.71-1.48,8.48,8.48,0,0,1,2.42-.77,22.17,22.17,0,0,1,2.77-.29l2.54-.08v-.57a3.86,3.86,0,0,0-.8-2.72,3.51,3.51,0,0,0-2.6-.82,4.57,4.57,0,0,0-2.6.58,2.71,2.71,0,0,0-1.08,1.61L319,46.14a4.28,4.28,0,0,1,1.91-3,7.83,7.83,0,0,1,4.12-.93,8.09,8.09,0,0,1,2.69.39,4.46,4.46,0,0,1,1.79,1.1,4.25,4.25,0,0,1,1,1.77,8.63,8.63,0,0,1,.3,2.37v9.59h-2.4v-2A7,7,0,0,1,326.39,57.11Zm-.4-7a14.13,14.13,0,0,0-2.51.29,5,5,0,0,0-1.59.61,2.17,2.17,0,0,0-.83,1,3.36,3.36,0,0,0-.24,1.31,2.42,2.42,0,0,0,.67,1.79,3.09,3.09,0,0,0,2.21.67,5,5,0,0,0,3.43-1.09,3.75,3.75,0,0,0,1.23-3V50.08Z"/><path class="cls-1" d="M333.15,44.68v-2h2.29v-4h2.48v4h3.91v2h-3.91v8.65a2.85,2.85,0,0,0,.48,1.74,1.74,1.74,0,0,0,1.49.66,6,6,0,0,0,1.1-.09,5.53,5.53,0,0,0,.87-.22l.43,1.91a9.85,9.85,0,0,1-1.25.33,8.91,8.91,0,0,1-1.58.13,4.68,4.68,0,0,1-2-.38,3,3,0,0,1-1.22-1,4.14,4.14,0,0,1-.62-1.63,13.07,13.07,0,0,1-.15-2v-8Z"/><path class="cls-1" d="M354.83,56.7a6.84,6.84,0,0,1-4.38,1.23,6.52,6.52,0,0,1-5.17-2,8.33,8.33,0,0,1-1.8-5.7,10.47,10.47,0,0,1,.52-3.4,6.87,6.87,0,0,1,1.44-2.48,6.31,6.31,0,0,1,2.21-1.53,7.9,7.9,0,0,1,5.74,0,5.27,5.27,0,0,1,2,1.5,6,6,0,0,1,1.17,2.27,10,10,0,0,1,.39,2.88v1.26H346a6.91,6.91,0,0,0,.3,2.07,5.16,5.16,0,0,0,.85,1.65,4,4,0,0,0,1.39,1.1,4.29,4.29,0,0,0,1.91.4,4.23,4.23,0,0,0,2.71-.7,3.55,3.55,0,0,0,1.17-1.9h2.4A5.32,5.32,0,0,1,354.83,56.7Zm-.58-9.76a3.89,3.89,0,0,0-.72-1.47,3.25,3.25,0,0,0-1.25-1,4.54,4.54,0,0,0-1.86-.34,4,4,0,0,0-3.07,1.2,5.82,5.82,0,0,0-1.3,3.48h8.43A7.52,7.52,0,0,0,354.25,46.94Z"/><path class="cls-1" d="M368.86,57.26a5.76,5.76,0,0,1-2.82.67,6.17,6.17,0,0,1-2.82-.6,5.46,5.46,0,0,1-2-1.64,6.93,6.93,0,0,1-1.14-2.47,12,12,0,0,1-.37-3.06,11.23,11.23,0,0,1,.45-3.29,7.4,7.4,0,0,1,1.3-2.5,5.48,5.48,0,0,1,2.06-1.57,6.68,6.68,0,0,1,2.75-.55,6.35,6.35,0,0,1,2.37.48,5.35,5.35,0,0,1,2.23,1.78V37.09h2.48V57.47H371V55.36A6.78,6.78,0,0,1,368.86,57.26Zm1.76-10.37a4,4,0,0,0-1.27-1.67,3.78,3.78,0,0,0-1.27-.71,4.87,4.87,0,0,0-1.42-.2,4.7,4.7,0,0,0-1.69.31,3.32,3.32,0,0,0-1.37,1,4.77,4.77,0,0,0-.92,1.8,9.35,9.35,0,0,0-.33,2.67,9.06,9.06,0,0,0,.36,2.74,4.93,4.93,0,0,0,.94,1.77,3.5,3.5,0,0,0,1.32.94,4,4,0,0,0,1.49.28,4.89,4.89,0,0,0,1.49-.2,4.33,4.33,0,0,0,1.31-.68,4.39,4.39,0,0,0,1.3-1.71,6.53,6.53,0,0,0,.44-2.6v-1A7.81,7.81,0,0,0,370.62,46.89Z"/><path class="cls-2" d="M25.61,88.06a6.6,6.6,0,0,1-4.83,1.59,8.45,8.45,0,0,1-3.26-.57,6,6,0,0,1-2.24-1.6A6.87,6.87,0,0,1,14,85a11.2,11.2,0,0,1-.43-3.22,10.1,10.1,0,0,1,.5-3.24A7.42,7.42,0,0,1,15.49,76a6.41,6.41,0,0,1,2.32-1.61A8.1,8.1,0,0,1,21,73.83a8.07,8.07,0,0,1,2.64.39,5.41,5.41,0,0,1,1.9,1.07,4.8,4.8,0,0,1,1.2,1.64,7.63,7.63,0,0,1,.57,2.1l-4,.54a3.73,3.73,0,0,0-.66-1.84A2,2,0,0,0,20.8,77a2.79,2.79,0,0,0-1.51.38,2.86,2.86,0,0,0-1,1,5,5,0,0,0-.5,1.49,11.2,11.2,0,0,0-.14,1.76,11.52,11.52,0,0,0,.14,1.8A5.15,5.15,0,0,0,18.32,85a2.63,2.63,0,0,0,.94,1,2.75,2.75,0,0,0,1.52.39,2.44,2.44,0,0,0,1.85-.69,3.09,3.09,0,0,0,.77-2h4.06A6.54,6.54,0,0,1,25.61,88.06Z"/><path class="cls-2" d="M37.17,88.93a5.66,5.66,0,0,1-2.84.63,6.49,6.49,0,0,1-1.89-.26,4.17,4.17,0,0,1-1.57-.8,3.91,3.91,0,0,1-1.08-1.38,4.74,4.74,0,0,1-.39-2,4.26,4.26,0,0,1,.68-2.52,4.74,4.74,0,0,1,1.8-1.51,8.93,8.93,0,0,1,2.5-.77A21.74,21.74,0,0,1,37.19,80l1.91-.09V79.2a2.14,2.14,0,0,0-.75-1.89,3.14,3.14,0,0,0-1.79-.51c-1.58,0-2.48.6-2.71,1.8l-3.66-.34a4.72,4.72,0,0,1,2.06-3.39,8.33,8.33,0,0,1,4.45-1,9.17,9.17,0,0,1,2.92.41,4.73,4.73,0,0,1,1.92,1.19A4.55,4.55,0,0,1,42.6,77.3a8.59,8.59,0,0,1,.33,2.47v9.42H39.16V87.31A7.87,7.87,0,0,1,37.17,88.93Zm.13-6.31a10.52,10.52,0,0,0-2,.26,3.51,3.51,0,0,0-1.19.5,1.48,1.48,0,0,0-.56.7,2.75,2.75,0,0,0-.14.88,1.44,1.44,0,0,0,.52,1.18,2.17,2.17,0,0,0,1.42.42,4.13,4.13,0,0,0,2.52-.71,3.18,3.18,0,0,0,.88-1,3.09,3.09,0,0,0,.34-1.53v-.77Z"/><path class="cls-2" d="M50.21,74.29v2a5.55,5.55,0,0,1,2.09-1.91,5.67,5.67,0,0,1,2.53-.6,4.89,4.89,0,0,1,3.77,1.33,6,6,0,0,1,1.23,4.18v9.85h-4V79.88a2.94,2.94,0,0,0-.6-2.14,2.22,2.22,0,0,0-1.6-.57,3.59,3.59,0,0,0-1.33.23,3.65,3.65,0,0,0-1,.66,3.52,3.52,0,0,0-.67,1,2.76,2.76,0,0,0-.27,1.22v9h-4V74.29Z"/><path class="cls-2" d="M74.77,88.06a6.64,6.64,0,0,1-4.84,1.59,8.4,8.4,0,0,1-3.25-.57,5.9,5.9,0,0,1-2.24-1.6A6.72,6.72,0,0,1,63.14,85a11.2,11.2,0,0,1-.43-3.22,9.83,9.83,0,0,1,.5-3.24A7.1,7.1,0,0,1,64.65,76,6.45,6.45,0,0,1,67,74.4a9,9,0,0,1,5.78-.18,5.32,5.32,0,0,1,1.9,1.07,4.56,4.56,0,0,1,1.2,1.64,7,7,0,0,1,.57,2.1l-4,.54a3.93,3.93,0,0,0-.66-1.84A2,2,0,0,0,70,77a2.79,2.79,0,0,0-1.51.38,2.86,2.86,0,0,0-1,1A4.76,4.76,0,0,0,67,80a11.2,11.2,0,0,0-.14,1.76,11.52,11.52,0,0,0,.14,1.8A5.15,5.15,0,0,0,67.48,85a2.56,2.56,0,0,0,.94,1,2.71,2.71,0,0,0,1.51.39,2.45,2.45,0,0,0,1.86-.69,3.2,3.2,0,0,0,.77-2h4A6.48,6.48,0,0,1,74.77,88.06Z"/><path class="cls-2" d="M91.1,88.35a7.39,7.39,0,0,1-4.7,1.3,7.18,7.18,0,0,1-5.58-2.06A8.33,8.33,0,0,1,79,81.77a9.71,9.71,0,0,1,.54-3.36A7.25,7.25,0,0,1,81,75.91a6.43,6.43,0,0,1,2.36-1.55,8.36,8.36,0,0,1,3-.53,6.52,6.52,0,0,1,5.16,2,7.76,7.76,0,0,1,1.72,5.31v1.6H83a4.45,4.45,0,0,0,.91,2.81,3.16,3.16,0,0,0,2.57,1c1.58,0,2.51-.66,2.8-2h3.88A5.86,5.86,0,0,1,91.1,88.35ZM88.67,77.68a3,3,0,0,0-2.35-.85,3.54,3.54,0,0,0-1.4.25,3.24,3.24,0,0,0-1,.7,3.31,3.31,0,0,0-.64,1A3.78,3.78,0,0,0,83,80.08h6.42A3.49,3.49,0,0,0,88.67,77.68Z"/><path class="cls-2" d="M100.16,74.29v2.08a5.08,5.08,0,0,1,1.8-1.75,4.54,4.54,0,0,1,2.23-.59,8.23,8.23,0,0,1,.94,0c.25,0,.47.06.66.1l-.49,3.63a6.79,6.79,0,0,0-1.68-.17,5.18,5.18,0,0,0-1.26.15,2.71,2.71,0,0,0-1.09.59,2.84,2.84,0,0,0-.75,1,3,3,0,0,0-.25,1.17v8.62h-4V74.29Z"/><path class="cls-2" d="M111.89,86.16a4.79,4.79,0,0,0,2.06.4,4.41,4.41,0,0,0,2-.35,1.24,1.24,0,0,0,.61-1.16,1.44,1.44,0,0,0-.38-1,2.6,2.6,0,0,0-1.47-.6l-2.06-.34a8.91,8.91,0,0,1-4-1.47,3.79,3.79,0,0,1-1.33-3.16,3.9,3.9,0,0,1,.48-1.94,4.23,4.23,0,0,1,1.32-1.45,6.72,6.72,0,0,1,2-.93,9.79,9.79,0,0,1,2.62-.33,10.48,10.48,0,0,1,3,.36,5.72,5.72,0,0,1,2,1,3.81,3.81,0,0,1,1.14,1.43,6.9,6.9,0,0,1,.56,1.77l-3.57.46a2.62,2.62,0,0,0-.9-1.52,3.51,3.51,0,0,0-2.07-.48,5.44,5.44,0,0,0-1.32.13,2.31,2.31,0,0,0-.83.33,1.15,1.15,0,0,0-.43.45,1.06,1.06,0,0,0-.13.49,1.23,1.23,0,0,0,.44,1,4.63,4.63,0,0,0,1.73.56l1.88.31a12.69,12.69,0,0,1,2.6.66,4.79,4.79,0,0,1,1.64,1,3.11,3.11,0,0,1,.86,1.39,6.44,6.44,0,0,1,.24,1.85,4.11,4.11,0,0,1-1.6,3.39A7.91,7.91,0,0,1,114,89.65a12.42,12.42,0,0,1-2.56-.25,6.38,6.38,0,0,1-2.17-.84,4.81,4.81,0,0,1-1.57-1.6,5.31,5.31,0,0,1-.7-2.51h3.83A2,2,0,0,0,111.89,86.16Z"/><path class="cls-1" d="M137,88.83a6.08,6.08,0,0,1-3.06.7,7.3,7.3,0,0,1-2-.27,4.43,4.43,0,0,1-1.6-.83,3.76,3.76,0,0,1-1-1.38,4.66,4.66,0,0,1-.37-1.94,4.28,4.28,0,0,1,.64-2.46,4.47,4.47,0,0,1,1.71-1.48,8.48,8.48,0,0,1,2.42-.77,20.44,20.44,0,0,1,2.77-.29l2.54-.08v-.58a3.83,3.83,0,0,0-.8-2.71,3.51,3.51,0,0,0-2.6-.83,4.56,4.56,0,0,0-2.6.59,2.71,2.71,0,0,0-1.08,1.61l-2.26-.25a4.23,4.23,0,0,1,1.91-3,7.82,7.82,0,0,1,4.11-.93,8.11,8.11,0,0,1,2.7.39,4.46,4.46,0,0,1,1.79,1.1,4.13,4.13,0,0,1,1,1.77,8.63,8.63,0,0,1,.3,2.37v9.59H139v-2A7.1,7.1,0,0,1,137,88.83Zm-.4-7a13.47,13.47,0,0,0-2.52.29,4.78,4.78,0,0,0-1.58.61,2.17,2.17,0,0,0-.83,1,3.36,3.36,0,0,0-.24,1.31,2.38,2.38,0,0,0,.67,1.78,3,3,0,0,0,2.21.68,5,5,0,0,0,3.43-1.09,3.75,3.75,0,0,0,1.23-3V81.8Z"/><path class="cls-1" d="M147.6,74.43v2.26A6.64,6.64,0,0,1,150,74.6a6.34,6.34,0,0,1,2.77-.63,4.74,4.74,0,0,1,3.73,1.37,5.92,5.92,0,0,1,1.21,4v9.82h-2.48V79.85a4.34,4.34,0,0,0-.75-2.89,2.88,2.88,0,0,0-2.28-.85,4.93,4.93,0,0,0-1.64.29,4.06,4.06,0,0,0-1.47.91A4.73,4.73,0,0,0,148,78.64a4,4,0,0,0-.37,1.81v8.74h-2.48V74.43Z"/><path class="cls-1" d="M170,89a5.78,5.78,0,0,1-2.83.67,6.16,6.16,0,0,1-2.81-.6,5.46,5.46,0,0,1-2-1.64,6.93,6.93,0,0,1-1.14-2.47,12,12,0,0,1-.38-3.06,11.25,11.25,0,0,1,.46-3.3,7.18,7.18,0,0,1,1.3-2.49,5.48,5.48,0,0,1,2.06-1.57,6.68,6.68,0,0,1,5.12-.08,5.46,5.46,0,0,1,2.23,1.79V68.81h2.48V89.19h-2.43V87.08A6.75,6.75,0,0,1,170,89Zm1.76-10.37a4,4,0,0,0-1.27-1.67,3.87,3.87,0,0,0-1.27-.71,4.87,4.87,0,0,0-1.42-.2,4.55,4.55,0,0,0-1.7.31,3.45,3.45,0,0,0-1.37,1,4.94,4.94,0,0,0-.91,1.79,9.45,9.45,0,0,0-.33,2.67,9,9,0,0,0,.36,2.74,4.76,4.76,0,0,0,.94,1.77,3.46,3.46,0,0,0,1.31,1,4.11,4.11,0,0,0,1.5.28,4.93,4.93,0,0,0,1.49-.2,4.12,4.12,0,0,0,2.61-2.4,6.66,6.66,0,0,0,.44-2.59v-1A8,8,0,0,0,171.8,78.61Z"/><path class="cls-1" d="M193.42,89a5.78,5.78,0,0,1-2.83.67,6.16,6.16,0,0,1-2.81-.6,5.46,5.46,0,0,1-1.95-1.64,7.12,7.12,0,0,1-1.15-2.47,12.51,12.51,0,0,1-.37-3.06,11.25,11.25,0,0,1,.46-3.3,7.18,7.18,0,0,1,1.3-2.49,5.45,5.45,0,0,1,2.05-1.57,6.71,6.71,0,0,1,5.13-.08,5.46,5.46,0,0,1,2.23,1.79V68.81H198V89.19h-2.43V87.08A6.75,6.75,0,0,1,193.42,89Zm1.76-10.37a3.9,3.9,0,0,0-1.28-1.67,3.74,3.74,0,0,0-1.26-.71,4.87,4.87,0,0,0-1.42-.2,4.55,4.55,0,0,0-1.7.31,3.45,3.45,0,0,0-1.37,1,4.94,4.94,0,0,0-.91,1.79,9.45,9.45,0,0,0-.33,2.67,9,9,0,0,0,.36,2.74,4.76,4.76,0,0,0,.94,1.77,3.46,3.46,0,0,0,1.31,1,4.11,4.11,0,0,0,1.5.28,4.93,4.93,0,0,0,1.49-.2,4.12,4.12,0,0,0,2.61-2.4,6.66,6.66,0,0,0,.44-2.59v-1A8,8,0,0,0,195.18,78.61Z"/><path class="cls-1" d="M204.44,68.81v2.88h-2.66V68.81Zm-.09,5.62V89.19h-2.48V74.43Z"/><path class="cls-1" d="M211.13,87a5.59,5.59,0,0,0,2.84.62,4.32,4.32,0,0,0,2.67-.64,2.08,2.08,0,0,0,.79-1.7,3.61,3.61,0,0,0-.1-.82,1.61,1.61,0,0,0-.39-.68,2.47,2.47,0,0,0-.8-.53,5.63,5.63,0,0,0-1.34-.37l-1.88-.29a13.53,13.53,0,0,1-2.2-.51,5.58,5.58,0,0,1-1.6-.81,3.25,3.25,0,0,1-1-1.23,4.43,4.43,0,0,1-.32-1.76,3.63,3.63,0,0,1,.44-1.82,3.89,3.89,0,0,1,1.23-1.36,6,6,0,0,1,1.85-.86,8.64,8.64,0,0,1,2.33-.3,9.61,9.61,0,0,1,2.67.32,5.1,5.1,0,0,1,1.75.85,3.84,3.84,0,0,1,1.06,1.29,7,7,0,0,1,.57,1.57l-2.25.37a7,7,0,0,0-.46-1.06,2.25,2.25,0,0,0-.69-.75,3,3,0,0,0-1-.46,6.53,6.53,0,0,0-1.53-.16,6.41,6.41,0,0,0-1.71.19,3.12,3.12,0,0,0-1.1.5,1.8,1.8,0,0,0-.58.7,1.87,1.87,0,0,0-.17.81,2.48,2.48,0,0,0,.11.81,1.4,1.4,0,0,0,.43.63,2.71,2.71,0,0,0,.85.47,7.89,7.89,0,0,0,1.4.35l2.14.34a7.11,7.11,0,0,1,3.73,1.48A4.57,4.57,0,0,1,219.6,87a3.75,3.75,0,0,1-1.12,1.37,5.43,5.43,0,0,1-1.85.92,9.18,9.18,0,0,1-2.6.33,11.63,11.63,0,0,1-2.5-.26,6.41,6.41,0,0,1-2-.81,4.56,4.56,0,0,1-1.43-1.47,4.9,4.9,0,0,1-.62-2.23h2.39A2.86,2.86,0,0,0,211.13,87Z"/><path class="cls-1" d="M234,88.42a6.84,6.84,0,0,1-4.38,1.23,6.52,6.52,0,0,1-5.17-2,8.34,8.34,0,0,1-1.8-5.7,10.43,10.43,0,0,1,.51-3.4A7,7,0,0,1,224.61,76a6,6,0,0,1,2.21-1.53,7.31,7.31,0,0,1,2.8-.53,7.11,7.11,0,0,1,2.94.55,5.43,5.43,0,0,1,2,1.49,6.52,6.52,0,0,1,1.17,2.27,10.16,10.16,0,0,1,.38,2.89v1.25h-11a6.81,6.81,0,0,0,.3,2.07,5.12,5.12,0,0,0,.86,1.66,3.92,3.92,0,0,0,1.38,1.1,4.45,4.45,0,0,0,1.92.4,4.31,4.31,0,0,0,2.71-.7,3.55,3.55,0,0,0,1.17-1.9h2.4A5.32,5.32,0,0,1,234,88.42Zm-.59-9.76a4,4,0,0,0-.71-1.48,3.29,3.29,0,0,0-1.26-1,4.5,4.5,0,0,0-1.85-.34,4,4,0,0,0-3.07,1.19,5.79,5.79,0,0,0-1.3,3.49h8.42A7.46,7.46,0,0,0,233.41,78.66Z"/><path class="cls-1" d="M246.57,88.83a6,6,0,0,1-3,.7,7.25,7.25,0,0,1-2-.27,4.35,4.35,0,0,1-1.6-.83,3.66,3.66,0,0,1-1-1.38,4.66,4.66,0,0,1-.38-1.94,4.28,4.28,0,0,1,.65-2.46,4.4,4.4,0,0,1,1.71-1.48,8.41,8.41,0,0,1,2.41-.77,20.78,20.78,0,0,1,2.77-.29l2.54-.08v-.58a3.79,3.79,0,0,0-.8-2.71,3.49,3.49,0,0,0-2.59-.83,4.54,4.54,0,0,0-2.6.59,2.69,2.69,0,0,0-1.09,1.61l-2.25-.25a4.2,4.2,0,0,1,1.91-3,7.82,7.82,0,0,1,4.11-.93,8.11,8.11,0,0,1,2.7.39,4.42,4.42,0,0,1,1.78,1.1,4,4,0,0,1,1,1.77,8.63,8.63,0,0,1,.3,2.37v9.59h-2.4v-2A7,7,0,0,1,246.57,88.83Zm-.4-7a13.36,13.36,0,0,0-2.51.29,4.69,4.69,0,0,0-1.58.61,2.17,2.17,0,0,0-.83,1,3.36,3.36,0,0,0-.24,1.31,2.38,2.38,0,0,0,.67,1.78,3,3,0,0,0,2.21.68,5,5,0,0,0,3.42-1.09,3.75,3.75,0,0,0,1.23-3V81.8Z"/><path class="cls-1" d="M257.66,87a5.59,5.59,0,0,0,2.84.62,4.32,4.32,0,0,0,2.67-.64,2.11,2.11,0,0,0,.79-1.7,3.61,3.61,0,0,0-.1-.82,1.61,1.61,0,0,0-.39-.68,2.47,2.47,0,0,0-.8-.53,5.63,5.63,0,0,0-1.34-.37l-1.88-.29a13.53,13.53,0,0,1-2.2-.51,5.58,5.58,0,0,1-1.6-.81,3.25,3.25,0,0,1-1-1.23,4.26,4.26,0,0,1-.32-1.76,3.63,3.63,0,0,1,.44-1.82A3.89,3.89,0,0,1,256,75.13a6,6,0,0,1,1.85-.86,8.64,8.64,0,0,1,2.33-.3,9.66,9.66,0,0,1,2.67.32,5.1,5.1,0,0,1,1.75.85,3.84,3.84,0,0,1,1.06,1.29,7,7,0,0,1,.57,1.57l-2.26.37a6.14,6.14,0,0,0-.45-1.06,2.25,2.25,0,0,0-.69-.75,3,3,0,0,0-1-.46,6.53,6.53,0,0,0-1.53-.16,6.41,6.41,0,0,0-1.71.19,3.12,3.12,0,0,0-1.1.5,1.8,1.8,0,0,0-.58.7,1.87,1.87,0,0,0-.17.81,2.48,2.48,0,0,0,.11.81,1.4,1.4,0,0,0,.43.63,2.71,2.71,0,0,0,.85.47,7.89,7.89,0,0,0,1.4.35l2.14.34a7.11,7.11,0,0,1,3.73,1.48,4.57,4.57,0,0,1,.76,4.81A3.75,3.75,0,0,1,265,88.4a5.43,5.43,0,0,1-1.85.92,9.18,9.18,0,0,1-2.6.33,11.56,11.56,0,0,1-2.5-.26,6.41,6.41,0,0,1-2-.81,4.46,4.46,0,0,1-1.43-1.47,5,5,0,0,1-.63-2.23h2.4A2.86,2.86,0,0,0,257.66,87Z"/><path class="cls-1" d="M280.53,88.42a6.84,6.84,0,0,1-4.38,1.23,6.52,6.52,0,0,1-5.17-2,8.34,8.34,0,0,1-1.8-5.7,10.43,10.43,0,0,1,.51-3.4A7,7,0,0,1,271.14,76a6,6,0,0,1,2.21-1.53,7.31,7.31,0,0,1,2.8-.53,7.11,7.11,0,0,1,2.94.55,5.43,5.43,0,0,1,2,1.49,6.52,6.52,0,0,1,1.17,2.27,10.16,10.16,0,0,1,.38,2.89v1.25h-11a6.81,6.81,0,0,0,.3,2.07,5.12,5.12,0,0,0,.86,1.66,3.92,3.92,0,0,0,1.38,1.1,4.45,4.45,0,0,0,1.92.4,4.31,4.31,0,0,0,2.71-.7,3.55,3.55,0,0,0,1.17-1.9h2.4A5.32,5.32,0,0,1,280.53,88.42Zm-.59-9.76a4,4,0,0,0-.71-1.48,3.29,3.29,0,0,0-1.26-1,4.5,4.5,0,0,0-1.85-.34,4,4,0,0,0-3.07,1.19,5.79,5.79,0,0,0-1.3,3.49h8.42A7,7,0,0,0,279.94,78.66Z"/><path class="cls-1" d="M288.83,87a5.62,5.62,0,0,0,2.84.62,4.32,4.32,0,0,0,2.67-.64,2.08,2.08,0,0,0,.79-1.7,3.12,3.12,0,0,0-.1-.82,1.61,1.61,0,0,0-.39-.68,2.37,2.37,0,0,0-.8-.53,5.63,5.63,0,0,0-1.34-.37l-1.88-.29a13.53,13.53,0,0,1-2.2-.51,5.58,5.58,0,0,1-1.6-.81,3.23,3.23,0,0,1-1-1.23,4.25,4.25,0,0,1-.33-1.76,3.63,3.63,0,0,1,.44-1.82,3.89,3.89,0,0,1,1.23-1.36,6,6,0,0,1,1.85-.86,8.64,8.64,0,0,1,2.33-.3,9.56,9.56,0,0,1,2.67.32,5.25,5.25,0,0,1,1.76.85,3.93,3.93,0,0,1,1,1.29,7,7,0,0,1,.57,1.57l-2.25.37a7,7,0,0,0-.46-1.06,2.33,2.33,0,0,0-.68-.75,3.15,3.15,0,0,0-1-.46,7.6,7.6,0,0,0-3.24,0,3.21,3.21,0,0,0-1.1.5,1.8,1.8,0,0,0-.58.7,1.87,1.87,0,0,0-.17.81A2.78,2.78,0,0,0,288,79a1.4,1.4,0,0,0,.43.63,2.66,2.66,0,0,0,.86.47,7.47,7.47,0,0,0,1.4.35l2.14.34a7.1,7.1,0,0,1,3.72,1.48,4.06,4.06,0,0,1,1.13,3.09A3.9,3.9,0,0,1,297.3,87a3.82,3.82,0,0,1-1.11,1.37,5.58,5.58,0,0,1-1.86.92,9.18,9.18,0,0,1-2.6.33,11.63,11.63,0,0,1-2.5-.26,6.41,6.41,0,0,1-2-.81,4.56,4.56,0,0,1-1.43-1.47,4.9,4.9,0,0,1-.62-2.23h2.39A2.89,2.89,0,0,0,288.83,87Z"/><path class="cls-1" d="M301.9,78.16a2.71,2.71,0,0,0,1.9.54,2.56,2.56,0,0,0,1.8-.57,2.2,2.2,0,0,0,.62-1.68,1.9,1.9,0,0,0-.63-1.61,2.71,2.71,0,0,0-1.7-.48h-1.32V73h1.37a2.11,2.11,0,0,0,1.49-.51A2,2,0,0,0,306,71a1.69,1.69,0,0,0-.56-1.37,2.49,2.49,0,0,0-1.66-.48,2.6,2.6,0,0,0-1.69.47,2.9,2.9,0,0,0-.84,1.46l-1.36-.21a4.18,4.18,0,0,1,.38-1.13,3.36,3.36,0,0,1,.72-1,3.45,3.45,0,0,1,1.16-.68,5.22,5.22,0,0,1,1.68-.25,4.94,4.94,0,0,1,1.62.24,3.18,3.18,0,0,1,1.13.64,2.61,2.61,0,0,1,.67,1,3,3,0,0,1,.23,1.15,3.16,3.16,0,0,1-.4,1.64,3.06,3.06,0,0,1-1.25,1.08,3,3,0,0,1,1.46,1.11,3.17,3.17,0,0,1,.45,1.72,4.18,4.18,0,0,1-.23,1.44,2.93,2.93,0,0,1-.71,1.14,3.4,3.4,0,0,1-1.22.75,5.21,5.21,0,0,1-1.71.26,5.06,5.06,0,0,1-2-.32,3.46,3.46,0,0,1-1.24-.83,2.88,2.88,0,0,1-.66-1.11,4.83,4.83,0,0,1-.22-1.22h1.44A2.69,2.69,0,0,0,301.9,78.16Z"/><path class="cls-1" d="M52.32,23l-1.13-2.3c-1.83-4-4.21-9.3-6.16-14.52-.08-.39-.31-.75-.71-.75H39.43c-.31,0-.54,0-.65.33l-.23.49c-.2.63,1,.28,1.77.87a1.63,1.63,0,0,1,.38,2.06L34.86,23s-.31.68.33.68H36c.58,0,.65-.17.88-.68l2-4.76h5.62c1.71,0,2.49,2.38,2.49,2.38l.87,2.06c.15.47.39,1,1.07,1l2.92,0c.85,0,.43-.67.43-.67M42.49,9.57l2.89,7.08h-5.9Z"/><path class="cls-1" d="M72.23,8.37c0-1.09-.55-1.47-1.78-1.72-.43-.09-.63-.19-.54-.47,0,0,.32-.8.71-.8h8.69c8.06,0,10,3.44,10,8.7,0,5.42-1.37,9.52-10.6,9.56-3.59,0-5,.07-5.57,0-.87-.1-.92-1-.93-1.71Zm4,11.55c0,2,.83,1.84,3,1.84,4.41,0,5.86-3,5.86-7.63,0-5.16-1.79-7.19-6.23-7.19H76.22Z"/><path class="cls-1" d="M129.13,6.17c0-.7-.11-.75-.56-.79h-5c-.39,0-.71.8-.71.8-.1.28.11.38.54.47,1.16.24,1.73.6,1.79,1.57V22.64c0,.78.2,1,.67,1h2.8c.37-.06.52-.32.52-1Z"/><path class="cls-1" d="M147.4,19.26c0-.38-.81-.7-.81-.7-.28-.1-.38.11-.47.54a2.85,2.85,0,0,1-1.72,2.19,4.33,4.33,0,0,1-1.44.28h-2.3c-1.55,0-2.06-.5-2.06-2.69V6.38c0-.77-.16-1-.56-1h-5c-.38,0-.71.8-.71.8-.09.28.12.38.54.47,1.23.25,1.78.63,1.78,1.72V22.71c0,.62.18.87.6.91h10.88c.77,0,1.3-.23,1.3-.65Z"/><path class="cls-1" d="M70.5,23.22a76.29,76.29,0,0,1-6.24-8,5.77,5.77,0,0,0,3.87-5.32c0-3.1-2.63-4.48-5.26-4.48H53c-.38,0-.7.8-.7.8-.1.28.11.38.54.47,1.23.25,1.78.63,1.78,1.72h0V22.84c0,.52.17.78.6.78H58c.43,0,.64-.26.64-.78V15.75h1.11c.78,0,1.23.4,1.84,1.35L65.19,23c.14.2.34.62.79.62h4.15c.26,0,.34,0,.44-.13s.1-.1-.07-.27M60.38,14.34H58.63V6.78h2.26c1.76,0,3,.76,3.11,3.37.06,2.87-1.64,4.19-3.62,4.19"/><path class="cls-1" d="M116.08,12.62c-2.32-1.43-3.79-2.39-3.48-4.27a2.7,2.7,0,0,1,2.77-2,3.29,3.29,0,0,1,1.47.32,6.7,6.7,0,0,1,2.35,2.53c.47.55.71,1,1,.88.54-.3.29-3,.24-3.21s0-.36-.28-.52a4.87,4.87,0,0,0-.7-.43,9.08,9.08,0,0,0-7-.47c-2.54.81-3.89,2.43-3.89,4.21,0,2.69,2.23,3.6,3.9,4.69,2.2,1.44,5.33,2.74,5.19,5-.09,1.82-1.26,2.8-3.35,2.65a5.49,5.49,0,0,1-3-1.41,10.4,10.4,0,0,1-2.13-2.37c-.43-.67-.67-1-1-.89-.54.3-.28,3.41-.23,3.64a1.94,1.94,0,0,0,.27.76,5.29,5.29,0,0,0,1.43,1.07,10.68,10.68,0,0,0,4.57,1.26c3.9.1,7.52-1.85,7.39-5.68-.09-2.42-2.54-3.86-5.62-5.76"/><path class="cls-1" d="M34.31,13.86l-9.31,0c-.38,0-.71.8-.71.8-.09.28.11.38.54.47,1.18.24,4.66.08,5.75,1.73a2.72,2.72,0,0,1,.27,1.2c0,2-1.85,3.9-5.55,3.9-4,0-7.73-3.44-7.73-9.54,0-5.14,2.83-8.86,7.73-8.86,4.28,0,6.88,3.69,7.43,4.46.42.61.71,1,1,.87.54-.29.14-2.74.1-3a1.6,1.6,0,0,0-.3-.78,11.3,11.3,0,0,0-8.25-3.58c-7.26,0-12.77,5-12.77,11C12.5,19.35,17.74,24,24.86,24a11.52,11.52,0,0,0,2.67-.35l.12,0A10.1,10.1,0,0,0,33.12,20a8.64,8.64,0,0,0,2-4.66v-.71c0-.52-.06-.81-.8-.81"/><path class="cls-1" d="M107.26,22.9l-1.13-2.29c-1.59-3.48-5.33-12.19-5.36-12.44a1.23,1.23,0,0,1,.49-1.29c.63-.35,1.7-.16,1.51-.72l-.22-.49c-.11-.29-.34-.33-.65-.33H94.37c-.31,0-.54,0-.65.34l-.22.49c-.21.63,1,.27,1.76.87a1.62,1.62,0,0,1,.39,2.06L89.8,22.9s-.31.68.33.68H91c.58,0,.65-.17.89-.68l2-4.77h5.63c1.71,0,2.48,2.39,2.48,2.39l.87,2.06c.15.46.39,1,1.07,1l2.92,0c.85,0,.43-.68.43-.68M94.43,16.59l3-7.08,2.89,7.08Z"/><path class="cls-1" d="M152.57,22a1.86,1.86,0,0,1-.15-.57.81.81,0,0,0-.3-.6.67.67,0,0,0,.37-.58.71.71,0,0,0-.26-.6,1.42,1.42,0,0,0-.83-.2l-.81.05v2.67h.62V21.13h.16c.26,0,.36.08.4.33a1.49,1.49,0,0,0,.19.67l0,.05h.66Zm-1.36-2h.17c.3,0,.47.11.47.3s-.3.3-.47.3h-.17Z"/><path class="cls-1" d="M148.89,20.85a2.6,2.6,0,1,0,2.6-2.6,2.6,2.6,0,0,0-2.6,2.6m.68,0a1.93,1.93,0,1,1,1.92,1.92,1.92,1.92,0,0,1-1.92-1.92"/><path class="cls-1" d="M164.64,1.7c-2.38,0-7.9.76-7.9,7.76,0,3.76,3.17,6.48,7.54,6.48.3,0,.93,0,1.08,0a.16.16,0,0,1,.15,0,.2.2,0,0,1,.12.18.14.14,0,0,1,0,.07c-.34,1.62-3,4.61-6.82,6.84l0,0v.47h4.83l0,0a20.87,20.87,0,0,0,6.23-6.1,15.14,15.14,0,0,0,2.51-8.13c0-5.55-4-7.53-7.72-7.53m0,13.05c-2.14,0-3.52-2.25-3.52-5.22,0-3.21.93-6.45,3.52-6.45s3.49,3.35,3.49,6.22c0,3-1.53,5.45-3.49,5.45"/><rect class="cls-2" width="2.72" height="95.01"/></g></g></svg>