<svg id="Layer_1" data-name="Layer 1" xmlns="http://www.w3.org/2000/svg" xmlns:xlink="http://www.w3.org/1999/xlink" viewBox="0 0 338.09 437.43"><defs><style>.cls-1{fill:#00a370;}.cls-2{fill:#6cc7dd;}.cls-3{fill:#024a34;}.cls-4{fill:url(#linear-gradient);}.cls-5{fill:#fff;}</style><linearGradient id="linear-gradient" x1="17.56" y1="284.76" x2="375.21" y2="284.76" gradientTransform="matrix(1, 0, 0, -1, 0, 440.2)" gradientUnits="userSpaceOnUse"><stop offset="0" stop-color="#00857c"/><stop offset="0.28" stop-color="#036a6b"/><stop offset="1" stop-color="#0c2340"/></linearGradient></defs><g id="Layer_2" data-name="Layer 2"><g id="Layer_1-2" data-name="Layer 1-2"><path class="cls-1" d="M183.81,323.55c-14.66,0-23.44,8.5-23.55,22.71v6.31a35.88,35.88,0,0,1,10.83,25.68v-32c0-7.49,4.25-12,11.41-12h11.07a23.14,23.14,0,0,1-18.59,14V359.1a35.44,35.44,0,0,0,31.79-35.52Z"/><path class="cls-2" d="M135.09,342.28V353.1a25.18,25.18,0,0,1,25.18,25.18h10.82a36,36,0,0,0-36-36"/><path class="cls-2" d="M135.09,357v10.79a10.49,10.49,0,0,1,10.49,10.49h10.79A21.28,21.28,0,0,0,135.09,357"/><polygon class="cls-3" points="45.54 389.2 60.19 389.2 60.19 394.33 50.99 394.33 50.99 397.5 59.17 397.5 59.17 402.64 50.99 402.64 50.99 405.94 60.35 405.94 60.35 411.08 45.54 411.08 45.54 389.2"/><polygon class="cls-3" points="71 389.2 76.45 389.2 84.67 401.56 84.67 389.2 90.12 389.2 90.12 411.08 84.67 411.08 76.45 398.71 76.45 411.08 71 411.08 71 389.2"/><polygon class="cls-3" points="101.28 389.2 115.46 389.2 115.46 394.33 106.74 394.33 106.74 397.76 114.25 397.76 114.25 402.89 106.74 402.89 106.74 411.08 101.28 411.08 101.28 389.2"/><polygon class="cls-3" points="125.73 389.2 131.19 389.2 131.19 405.94 139.59 405.94 139.59 411.08 125.73 411.08 125.73 389.2"/><path class="cls-3" d="M146.72,400.1a11.61,11.61,0,1,1,11.9,11.32h-.29a11.22,11.22,0,0,1-11.6-10.84c0-.16,0-.32,0-.48m17.6,0a6,6,0,1,0-6,6,5.9,5.9,0,0,0,6-5.8v-.2"/><polygon class="cls-3" points="179.42 389.2 184.87 389.2 193.08 401.56 193.08 389.2 198.54 389.2 198.54 411.08 193.08 411.08 184.87 398.71 184.87 411.08 179.42 411.08 179.42 389.2"/><path class="cls-3" d="M208.72,404.42h5.61c0,1.2,1.3,2.18,2.92,2.18,1.46,0,2.66-.76,2.66-1.74,0-2.95-10.84-1.71-10.84-9.13,0-4.16,3.48-6.92,8-6.92s8.08,2.89,8.08,6.76h-5.56c0-1.08-1.11-1.9-2.57-1.9-1.26,0-2.37.63-2.37,1.64,0,3,10.87,1.31,10.87,8.92,0,4.37-3.64,7.23-8.34,7.23-4.85,0-8.46-3.08-8.46-7"/><rect class="cls-3" x="235.77" y="389.19" width="5.45" height="21.88"/><path class="cls-3" d="M257.77,389.19h6.44l8,21.89h-6l-1.12-3.46h-8.4l-1.11,3.48h-5.86Zm5.68,13.42-2.51-7.39-2.5,7.39Z"/><path class="cls-3" d="M271.24,390h-1.5v-.81h3.86V390h-1.51v4.32h-.86Zm3.35-.81h1.15l1.57,3.89,1.57-3.89H280v5.13h-.85v-3.75l-1.52,3.75H277l-1.53-3.75v3.75h-.86Z"/><path class="cls-3" d="M199.32,419a2.15,2.15,0,0,1-1.35.51v-1a2.07,2.07,0,0,0,1.68-.91h.78V424h-1.11Z"/><path class="cls-3" d="M201.46,420.76c0-2,1-3.33,2.52-3.33s2.51,1.36,2.51,3.33-1,3.34-2.51,3.34-2.52-1.37-2.52-3.34m3.89,0c0-1.33-.57-2.26-1.37-2.26s-1.38.93-1.38,2.26S203.17,423,204,423s1.37-.92,1.37-2.26"/><path class="cls-3" d="M207.37,422.21h1.15a1.12,1.12,0,0,0,1.14.81,1.07,1.07,0,0,0,0-2.14,1.41,1.41,0,0,0-1,.47h-1.09l.34-3.81h3.62v1h-2.67l-.15,1.64a1.9,1.9,0,0,1,1.11-.33,2.1,2.1,0,0,1,2.16,2V422a2.33,2.33,0,0,1-4.6.22"/><path class="cls-3" d="M221.64,424V421.2a1,1,0,0,0-.91-1.08h-.15a1.06,1.06,0,0,0-1.13,1V424h-1V421.2a1,1,0,0,0-.91-1.08h-.15a1.06,1.06,0,0,0-1.13,1V424h-1v-4.76h1v.55a1.84,1.84,0,0,1,1.48-.66,1.64,1.64,0,0,1,1.55.87,1.9,1.9,0,0,1,1.68-.87,1.67,1.67,0,0,1,1.76,1.57,1.47,1.47,0,0,1,0,.21V424Z"/><path class="cls-3" d="M223.65,421.49a2.32,2.32,0,0,1,2.26-2.38H226a2.17,2.17,0,0,1,1.68.75v-.64h1v4.25a2.27,2.27,0,0,1-2.15,2.4h-.3a2.18,2.18,0,0,1-2.35-1.67H225a1.28,1.28,0,0,0,1.28.73,1.31,1.31,0,0,0,1.39-1.22,1.2,1.2,0,0,0,0-.19v-.42a2.17,2.17,0,0,1-1.68.75,2.31,2.31,0,0,1-2.35-2.27v-.1m4,0a1.5,1.5,0,1,0-1.5,1.5,1.5,1.5,0,0,0,1.5-1.5"/><path class="cls-3" d="M198.4,427.39a.67.67,0,1,1,.67.67.67.67,0,0,1-.67-.67h0m.14,1.43h1.05v4.77h-1.05Z"/><path class="cls-3" d="M204.21,433.59v-2.66a1.13,1.13,0,0,0-1.05-1.21H203a1.17,1.17,0,0,0-1.26,1.07v2.8h-1v-4.77h1v.61a2,2,0,0,1,1.61-.72,1.77,1.77,0,0,1,1.88,1.65v3.23Z"/><path class="cls-3" d="M205.46,434.42h.26a.7.7,0,0,0,.78-.61v-5h1.05v5c0,1.09-.58,1.65-1.79,1.65h-.3Zm.89-7a.67.67,0,1,1,.67.67.67.67,0,0,1-.67-.67"/><path class="cls-3" d="M208.45,431.2a2.55,2.55,0,0,1,5.09,0,2.67,2.67,0,0,1,0,.4H209.6a1.46,1.46,0,0,0,1.47,1.15,1.54,1.54,0,0,0,1.27-.61h1.16a2.62,2.62,0,0,1-2.45,1.55,2.47,2.47,0,0,1-2.57-2.37v-.13m1.13-.45h2.84a1.47,1.47,0,0,0-2.84,0"/><path class="cls-3" d="M214.19,431.2a2.46,2.46,0,0,1,2.43-2.49h.12a2.36,2.36,0,0,1,2.42,1.91h-1.07a1.33,1.33,0,0,0-1.31-.9,1.5,1.5,0,1,0,0,3,1.33,1.33,0,0,0,1.31-.9h1.11a2.36,2.36,0,0,1-2.42,1.91,2.48,2.48,0,0,1-2.55-2.39v-.11"/><path class="cls-3" d="M220.44,432.2v-2.43h-.81v-.95h.46a.33.33,0,0,0,.37-.28v-1h1v1.29h1.63v.95h-1.56v2.33a.5.5,0,0,0,.48.52h.06a.53.53,0,0,0,.55-.51V432h.93a1.45,1.45,0,0,1-1.33,1.56,1.62,1.62,0,0,1-.22,0,1.36,1.36,0,0,1-1.5-1.22,1,1,0,0,1,0-.17"/><path class="cls-3" d="M224,427.39a.67.67,0,0,1,.75-.58.66.66,0,0,1,.58.58.67.67,0,0,1-.58.75.68.68,0,0,1-.75-.59.43.43,0,0,1,0-.16m.14,1.43h1v4.77h-1Z"/><path class="cls-3" d="M226.09,431.2a2.55,2.55,0,1,1,2.6,2.5h-.05a2.46,2.46,0,0,1-2.55-2.37v-.13m4,0a1.47,1.47,0,1,0-1.47,1.47,1.47,1.47,0,0,0,1.47-1.47"/><path class="cls-3" d="M235.66,433.59v-2.66a1.13,1.13,0,0,0-1-1.21h-.14a1.19,1.19,0,0,0-1.26,1.1v2.77h-1v-4.77h1v.61a2,2,0,0,1,1.61-.72,1.78,1.78,0,0,1,1.89,1.66v3.22Z"/><path class="cls-3" d="M83.93,427.78c0-3.75,1.42-6,4.47-6,2.31,0,3.54,1.27,3.9,3.87l-2,.31c-.23-1.6-.8-2.45-1.85-2.45-1.39,0-2.22,1.21-2.22,4.3s.84,4.33,2.2,4.33c1.06,0,1.65-.88,1.89-2.4l2,.31c-.35,2.58-1.64,3.83-3.88,3.83-3.1,0-4.49-2.34-4.49-6.07m10,3.52V417.54h2.19V431c0,.85.4,1.06,1.37.88v1.62a3.7,3.7,0,0,1-1.28.21c-1.34,0-2.29-.68-2.29-2.44m11.48-.82,1.19,1a3.77,3.77,0,0,1-3.72,2.33c-3.12,0-4.59-2.49-4.59-6.1s1.53-6,4.44-6c2.63,0,3.9,1.89,3.9,5.17a10,10,0,0,1-.11,1.45h-6c.1,2.37.92,3.65,2.62,3.65a2.43,2.43,0,0,0,2.31-1.55m-4.92-3.71h4.08c0-2-.48-3.38-1.84-3.38s-2.1,1.16-2.24,3.38m7.51,3.56,1.89-.21c0,1.38.69,2.16,2,2.16s1.79-.56,1.79-1.58-.6-1.53-1.85-2l-1-.38c-1.58-.62-2.62-1.52-2.62-3.4s1.38-3.17,3.76-3.17,3.68,1.25,3.58,3.45l-1.85.17c0-1.31-.61-2.07-1.76-2.07s-1.69.56-1.69,1.51.46,1.42,1.72,1.93l1,.41c1.65.65,2.73,1.44,2.73,3.36,0,2.09-1.34,3.33-3.93,3.33s-3.86-1.3-3.79-3.52m14.81-8.47v2.28a2.87,2.87,0,0,0-3.19,2.17v7.34h-2.2V422h1.74l.14,2a3.1,3.1,0,0,1,3.51-2.25m.8,6c0-3.85,1.53-6,4.51-6s4.51,2.19,4.51,6-1.52,6.08-4.52,6.08-4.51-2.22-4.51-6.05m6.76,0c0-3.12-.83-4.32-2.25-4.32s-2.26,1.2-2.26,4.32.84,4.3,2.26,4.3,2.25-1.16,2.25-4.3m2.88-5.78h2.28L137,428.3c.28,1.22.53,2.41.8,3.72h0c.27-1.31.53-2.5.8-3.72L140,422h2.28l-3,11.57h-3.06Zm10.31-3a1.38,1.38,0,1,1,1.26,1.26,1.38,1.38,0,0,1-1.26-1.26m.29,3H146v11.57h-2.17Zm18.59,3.27v8.3h-2.17v-8.08c0-1.23-.44-1.86-1.43-1.86s-1.85.66-2.35,2.31v7.63h-2.17v-8.08c0-1.23-.45-1.86-1.43-1.86s-1.85.66-2.36,2.31v7.63h-2.17V422h1.8l.13,2.11a3.26,3.26,0,0,1,3.27-2.37,2.6,2.6,0,0,1,2.79,2.2,3.18,3.18,0,0,1,3.16-2.2c1.88,0,2.93,1.16,2.93,3.53m10.68,8.25a3.49,3.49,0,0,1-1.16.2,1.63,1.63,0,0,1-1.83-1.27,3.17,3.17,0,0,1-2.82,1.34,3.08,3.08,0,0,1-3.27-2.87,3.35,3.35,0,0,1,0-.55c0-2.14,1.24-3.4,3.58-3.4a3.69,3.69,0,0,1,2.32.67v-1.9c0-1.56-.51-2.24-1.75-2.24s-1.68.62-1.74,2.08l-2-.4c0-2.21,1.46-3.41,3.84-3.41S172,423,172,425.7v5.23c0,.87.28,1.19,1.11,1.05Zm-3.19-2.44v-2a2.61,2.61,0,0,0-1.81-.63,1.64,1.64,0,0,0-1.88,1.85c0,1.22.57,1.83,1.69,1.83a2.32,2.32,0,0,0,2-1.09M183,427.64c0,3.71-1.37,6.17-3.88,6.17a2.86,2.86,0,0,1-2.79-1.91l-.16,1.65h-1.74v-16h2.17v5.92a2.85,2.85,0,0,1,2.76-1.7c2.53,0,3.64,2.29,3.64,5.92m-2.26.08c0-2.82-.64-4.23-2.09-4.23-.94,0-1.68.62-2,1.92v4.86c.4,1.21,1.08,1.76,2,1.76,1.4,0,2.16-1.44,2.16-4.31m6.89-.79a17.91,17.91,0,0,0-3-10.46l-1.45.75a19.59,19.59,0,0,1,0,19.41l1.45.76a18.15,18.15,0,0,0,3-10.46M82.33,437.43l1.44-.76a19.69,19.69,0,0,1,0-19.41l-1.44-.75a17.77,17.77,0,0,0-3,10.46,18.08,18.08,0,0,0,3,10.46"/><rect class="cls-4" x="38.09" y="1.1" width="249.36" height="308.68" rx="20.7"/><path class="cls-5" d="M72.44,26.7a4,4,0,0,0,2.5.68,4.69,4.69,0,0,0,1.34-.17,2.65,2.65,0,0,0,.88-.46,1.66,1.66,0,0,0,.48-.66,2.4,2.4,0,0,0,.15-.84,1.82,1.82,0,0,0-.47-1.15,3,3,0,0,0-1.75-.8l-2.1-.39a12.75,12.75,0,0,1-2.2-.59,5,5,0,0,1-1.6-.94,3.79,3.79,0,0,1-1-1.41,5.27,5.27,0,0,1-.34-2,4.15,4.15,0,0,1,1.76-3.55,6.19,6.19,0,0,1,2-.89,9.85,9.85,0,0,1,2.53-.31,9.19,9.19,0,0,1,2.95.41,5.36,5.36,0,0,1,1.9,1.08,4.15,4.15,0,0,1,1.07,1.55A7.32,7.32,0,0,1,81,18.1l-3.2.41a3.11,3.11,0,0,0-1-1.92A3.32,3.32,0,0,0,74.65,16a6.17,6.17,0,0,0-1.42.14,2.84,2.84,0,0,0-.89.39,1.41,1.41,0,0,0-.48.55,1.65,1.65,0,0,0-.13.66,1.71,1.71,0,0,0,.55,1.36,3.87,3.87,0,0,0,1.73.7l2.22.43a7.68,7.68,0,0,1,3.86,1.68,4.45,4.45,0,0,1,1.22,3.36,4.89,4.89,0,0,1-.39,2,4.31,4.31,0,0,1-1.18,1.56,5.38,5.38,0,0,1-2,1,9.24,9.24,0,0,1-2.76.38,7.86,7.86,0,0,1-5.06-1.42,5.5,5.5,0,0,1-1.83-4.27H71.5A3,3,0,0,0,72.44,26.7Z"/><path class="cls-5" d="M92.59,28.9a5.31,5.31,0,0,1-3.84,1.26,6.69,6.69,0,0,1-2.58-.45,4.52,4.52,0,0,1-1.78-1.27,5.38,5.38,0,0,1-1-2,8.83,8.83,0,0,1-.34-2.56,7.76,7.76,0,0,1,.4-2.57,5.4,5.4,0,0,1,1.14-2,5.11,5.11,0,0,1,1.8-1.21,6.62,6.62,0,0,1,2.49-.45A6.8,6.8,0,0,1,91,18a4.43,4.43,0,0,1,1.51.85,4,4,0,0,1,1,1.3,6.08,6.08,0,0,1,.45,1.67l-3.19.43a3.21,3.21,0,0,0-.52-1.46,1.67,1.67,0,0,0-1.41-.56,2.29,2.29,0,0,0-1.2.31,2.25,2.25,0,0,0-.76.83,3.57,3.57,0,0,0-.39,1.18,8.18,8.18,0,0,0-.12,1.4,8.42,8.42,0,0,0,.12,1.42,3.91,3.91,0,0,0,.38,1.2,2.07,2.07,0,0,0,.75.83,2.29,2.29,0,0,0,1.2.31,2,2,0,0,0,1.42-.56,2.47,2.47,0,0,0,.61-1.56h3.26A5.14,5.14,0,0,1,92.59,28.9Z"/><path class="cls-5" d="M101.76,29.6a4.66,4.66,0,0,1-2.26.49,5.07,5.07,0,0,1-1.5-.2,3.68,3.68,0,0,1-1.25-.63,3.26,3.26,0,0,1-.85-1.1,3.66,3.66,0,0,1-.31-1.6,3.43,3.43,0,0,1,.54-2,3.62,3.62,0,0,1,1.43-1.2,7,7,0,0,1,2-.61,18.52,18.52,0,0,1,2.23-.23l1.51-.07v-.59a1.66,1.66,0,0,0-.6-1.49,2.45,2.45,0,0,0-1.41-.41c-1.25,0-2,.48-2.15,1.43l-2.92-.29a3.71,3.71,0,0,1,1.63-2.69,6.6,6.6,0,0,1,3.53-.82,7,7,0,0,1,2.31.33,3.58,3.58,0,0,1,1.53.94,3.53,3.53,0,0,1,.87,1.51,7.09,7.09,0,0,1,.26,2V29.8h-3V28.3A6.43,6.43,0,0,1,101.76,29.6Zm.1-5a7.33,7.33,0,0,0-1.61.21,2.68,2.68,0,0,0-.94.39,1.11,1.11,0,0,0-.44.56,1.84,1.84,0,0,0-.11.7,1.15,1.15,0,0,0,.4.93,1.79,1.79,0,0,0,1.14.34,3.31,3.31,0,0,0,2-.57,2.68,2.68,0,0,0,.7-.8,2.39,2.39,0,0,0,.26-1.26v-.62Z"/><path class="cls-5" d="M112.09,18v1.63a4.38,4.38,0,0,1,1.66-1.51,4.49,4.49,0,0,1,2-.47,3.92,3.92,0,0,1,3,1.05,4.79,4.79,0,0,1,1,3.32v7.8h-3.2V22.42a2.36,2.36,0,0,0-.47-1.7,1.79,1.79,0,0,0-1.27-.45,2.75,2.75,0,0,0-1.06.18,2.72,2.72,0,0,0-.82.52,2.67,2.67,0,0,0-.53.76,2,2,0,0,0-.22,1V29.8H109V18Z"/><path class="cls-5" d="M126.31,20.45V18h1.85V14.83h3.17V18h2.76v2.47h-2.76V25.9a1.61,1.61,0,0,0,.39,1.26,1.46,1.46,0,0,0,1,.33h.64a4.67,4.67,0,0,0,.65-.13l.45,2.33a8.16,8.16,0,0,1-1.28.29,9.39,9.39,0,0,1-1.19.08,4,4,0,0,1-2.9-1,4.31,4.31,0,0,1-.94-3.13V20.45Z"/><path class="cls-5" d="M139.19,13.63v5.84a4.34,4.34,0,0,1,3.63-1.85,3.92,3.92,0,0,1,3,1.05,4.79,4.79,0,0,1,1,3.32V29.8h-3.17V22.42a2.36,2.36,0,0,0-.47-1.7,1.79,1.79,0,0,0-1.27-.45,2.75,2.75,0,0,0-1.06.18A2.72,2.72,0,0,0,140,21a2.67,2.67,0,0,0-.53.76,2,2,0,0,0-.22,1V29.8H136V13.63Z"/><path class="cls-5" d="M158.65,29.1a5.78,5.78,0,0,1-3.72,1,5.67,5.67,0,0,1-4.43-1.63A6.62,6.62,0,0,1,149,23.85a7.5,7.5,0,0,1,.43-2.66,5.54,5.54,0,0,1,1.21-2A4.88,4.88,0,0,1,152.53,18a6.56,6.56,0,0,1,2.4-.42A5.16,5.16,0,0,1,159,19.1a6.11,6.11,0,0,1,1.37,4.21v1.27h-8.19a3.59,3.59,0,0,0,.72,2.23,2.51,2.51,0,0,0,2,.8,2,2,0,0,0,2.26-1.51h3.08A4.67,4.67,0,0,1,158.65,29.1Zm-1.92-8.46a2.36,2.36,0,0,0-1.87-.68,2.64,2.64,0,0,0-1.11.21,2.24,2.24,0,0,0-.81.55,2.9,2.9,0,0,0-.51.82,3.12,3.12,0,0,0-.2,1h5.1a2.8,2.8,0,0,0-.6-1.87Z"/><path class="cls-5" d="M175.23,30.21a8.33,8.33,0,0,1-3.23-.59,6.57,6.57,0,0,1-2.43-1.7,7.78,7.78,0,0,1-1.48-2.67,10.84,10.84,0,0,1-.53-3.53,10.9,10.9,0,0,1,.53-3.54,7.68,7.68,0,0,1,1.54-2.67,6.81,6.81,0,0,1,2.44-1.7,9.07,9.07,0,0,1,6.45,0,6.61,6.61,0,0,1,2.41,1.7,7.69,7.69,0,0,1,1.51,2.67,11.17,11.17,0,0,1,.52,3.54,11.17,11.17,0,0,1-.52,3.54,7.17,7.17,0,0,1-1.54,2.64l2,2.42-2,1.72-2.06-2.53A8.46,8.46,0,0,1,175.23,30.21ZM176.91,23l1.83,2.31a7.69,7.69,0,0,0,.68-3.57,7.09,7.09,0,0,0-1-4.14,3.62,3.62,0,0,0-3.19-1.48,3.67,3.67,0,0,0-3.14,1.48A7,7,0,0,0,171,21.72a7.13,7.13,0,0,0,1.05,4.17,3.63,3.63,0,0,0,3.18,1.49,5.93,5.93,0,0,0,.84-.06,4.13,4.13,0,0,0,.77-.19l-2-2.43Z"/><path class="cls-5" d="M191.44,13.63a9.54,9.54,0,0,1,3.14.44,5.13,5.13,0,0,1,1.94,1.16,3.88,3.88,0,0,1,1,1.58,5.51,5.51,0,0,1,.27,1.71,5.58,5.58,0,0,1-.57,2.63,4.44,4.44,0,0,1-1.9,1.79l3.29,6.86H195l-2.72-6.07h-3.15V29.8h-3.33V13.63ZM193,20.75a2,2,0,0,0,.83-.47,1.76,1.76,0,0,0,.42-.74,3.74,3.74,0,0,0,.11-1,2.62,2.62,0,0,0-.13-.83,1.77,1.77,0,0,0-.47-.7,2.36,2.36,0,0,0-.9-.47,5.16,5.16,0,0,0-1.46-.17h-2.29v4.5h2.63A3.83,3.83,0,0,0,193,20.75Z"/><path class="cls-5" d="M214.44,28.9a5.31,5.31,0,0,1-3.84,1.26,6.69,6.69,0,0,1-2.58-.45,4.52,4.52,0,0,1-1.78-1.27,5.24,5.24,0,0,1-1-2,8.83,8.83,0,0,1-.34-2.56,8,8,0,0,1,.39-2.57,5.56,5.56,0,0,1,1.15-2,5.11,5.11,0,0,1,1.8-1.21,6.62,6.62,0,0,1,2.49-.45,6.8,6.8,0,0,1,2.1.3,4.38,4.38,0,0,1,1.5.85,3.71,3.71,0,0,1,.95,1.3,5.68,5.68,0,0,1,.46,1.67l-3.2.43a3,3,0,0,0-.52-1.46,1.65,1.65,0,0,0-1.4-.56,2.29,2.29,0,0,0-1.2.31,2.25,2.25,0,0,0-.76.83,3.83,3.83,0,0,0-.4,1.18,9.33,9.33,0,0,0-.11,1.4,9.6,9.6,0,0,0,.11,1.42,4.22,4.22,0,0,0,.39,1.2,2.07,2.07,0,0,0,.75.83,2.2,2.2,0,0,0,1.2.31,2,2,0,0,0,1.49-.56,2.47,2.47,0,0,0,.61-1.56h3.22A5.14,5.14,0,0,1,214.44,28.9Z"/><path class="cls-5" d="M219.31,28.53a6.5,6.5,0,0,1-1.56-4.66,7.77,7.77,0,0,1,.42-2.62,5.38,5.38,0,0,1,1.2-2,5.17,5.17,0,0,1,1.89-1.15,6.73,6.73,0,0,1,2.47-.43,6.84,6.84,0,0,1,2.49.43,5.17,5.17,0,0,1,1.87,1.18,5.23,5.23,0,0,1,1.19,2,8,8,0,0,1,.41,2.62,7.87,7.87,0,0,1-.42,2.63,5.68,5.68,0,0,1-1.2,2,5.18,5.18,0,0,1-1.89,1.24,6.73,6.73,0,0,1-2.47.43A5.82,5.82,0,0,1,219.31,28.53Zm6.44-1.88a4.85,4.85,0,0,0,.67-2.78,4.8,4.8,0,0,0-.67-2.77,2.63,2.63,0,0,0-3.71-.29l-.29.29a4.82,4.82,0,0,0-.67,2.77,5,5,0,0,0,.66,2.79,2.31,2.31,0,0,0,2,1A2.28,2.28,0,0,0,225.75,26.65Z"/><path class="cls-5" d="M236.63,30.16a4.31,4.31,0,0,1-3.71-1.67,7.72,7.72,0,0,1-1.22-4.65,8.62,8.62,0,0,1,.35-2.52,6.06,6.06,0,0,1,1-2,4.59,4.59,0,0,1,1.61-1.22,5.27,5.27,0,0,1,3.91-.14,3.92,3.92,0,0,1,1.64,1.23V13.63h3.17V29.8H240.3V28.24A4.26,4.26,0,0,1,236.63,30.16Zm3.46-8.22a2.5,2.5,0,0,0-.62-1.11,1.88,1.88,0,0,0-.9-.53,4.21,4.21,0,0,0-1-.12,2.29,2.29,0,0,0-1,.2,2.2,2.2,0,0,0-.82.63,3.26,3.26,0,0,0-.55,1.14,5.89,5.89,0,0,0-.21,1.67,7.09,7.09,0,0,0,.19,1.78,3.2,3.2,0,0,0,.54,1.15,1.9,1.9,0,0,0,.79.64,2.47,2.47,0,0,0,1,.19,2.65,2.65,0,0,0,1.86-.66,2.93,2.93,0,0,0,.67-1.09,5.89,5.89,0,0,0,.21-1.67v-.41A6.86,6.86,0,0,0,240.09,21.94Z"/><path class="cls-5" d="M255.41,29.1a5.78,5.78,0,0,1-3.72,1,5.7,5.7,0,0,1-4.43-1.63,6.62,6.62,0,0,1-1.48-4.62,7.5,7.5,0,0,1,.43-2.66,5.62,5.62,0,0,1,1.21-2A4.88,4.88,0,0,1,249.29,18a6.56,6.56,0,0,1,2.4-.42,5.18,5.18,0,0,1,4.09,1.56,6.19,6.19,0,0,1,1.37,4.21v1.27H249a3.59,3.59,0,0,0,.72,2.23,2.55,2.55,0,0,0,2,.8,2,2,0,0,0,2.26-1.51H257A4.58,4.58,0,0,1,255.41,29.1Zm-1.92-8.46a2.36,2.36,0,0,0-1.87-.68,2.64,2.64,0,0,0-1.11.21,2.21,2.21,0,0,0-.8.55,2.69,2.69,0,0,0-.51.82,3.43,3.43,0,0,0-.21,1h5.1a2.8,2.8,0,0,0-.6-1.87Z"/><path class="cls-5" d="M70.56,47.62V45.15h1.85V42h3.17v3.15H78.3v2.47H75.58V53.1A1.61,1.61,0,0,0,76,54.36a1.46,1.46,0,0,0,1,.33c.21,0,.43,0,.64,0a3.55,3.55,0,0,0,.65-.12l.45,2.33a7.14,7.14,0,0,1-1.28.28,7.84,7.84,0,0,1-1.19.08,4,4,0,0,1-2.89-.92,4.32,4.32,0,0,1-.94-3.24V47.62Z"/><path class="cls-5" d="M81.2,55.7A6.5,6.5,0,0,1,79.64,51a7.8,7.8,0,0,1,.45-2.62,5.27,5.27,0,0,1,1.21-2,5,5,0,0,1,1.89-1.23,6.68,6.68,0,0,1,2.46-.43,6.89,6.89,0,0,1,2.5.43,5.08,5.08,0,0,1,3.07,3.2,8.56,8.56,0,0,1,0,5.25,5.38,5.38,0,0,1-1.2,2,5.17,5.17,0,0,1-1.93,1.26,6.73,6.73,0,0,1-2.47.43A5.8,5.8,0,0,1,81.2,55.7Zm6.44-1.88A4.85,4.85,0,0,0,88.31,51a4.8,4.8,0,0,0-.67-2.77A2.63,2.63,0,0,0,83.93,48a4,4,0,0,0-.29.29A4.8,4.8,0,0,0,83,51a5,5,0,0,0,.66,2.79,2.62,2.62,0,0,0,3.69.37,2.59,2.59,0,0,0,.37-.37Z"/><path class="cls-5" d="M104.46,56.76a4.4,4.4,0,0,1-2.25.5,5.91,5.91,0,0,1-1.51-.2,3.66,3.66,0,0,1-1.24-.64,3,3,0,0,1-.85-1.09,3.82,3.82,0,0,1-.32-1.6,3.36,3.36,0,0,1,.54-2,3.62,3.62,0,0,1,1.43-1.2,7,7,0,0,1,2-.61,16.69,16.69,0,0,1,2.23-.23l1.52-.07V49a1.66,1.66,0,0,0-.6-1.49A2.47,2.47,0,0,0,104,47.1c-1.25,0-2,.48-2.15,1.43l-2.89-.27a3.71,3.71,0,0,1,1.63-2.69,6.47,6.47,0,0,1,3.53-.78,7.25,7.25,0,0,1,2.31.32,3.85,3.85,0,0,1,1.53.94,3.79,3.79,0,0,1,.83,1.49,6.43,6.43,0,0,1,.26,2V57h-2.93v-1.5A6.21,6.21,0,0,1,104.46,56.76Zm.1-5a8.65,8.65,0,0,0-1.6.2,3,3,0,0,0-.94.4,1.27,1.27,0,0,0-.45.55,2.45,2.45,0,0,0-.11.71,1.17,1.17,0,0,0,.41.93,1.78,1.78,0,0,0,1.13.34,3.31,3.31,0,0,0,2-.57,2.63,2.63,0,0,0,.71-.81A2.41,2.41,0,0,0,106,52.3v-.61Z"/><path class="cls-5" d="M120.88,56.1a5.27,5.27,0,0,1-3.79,1.23,6.69,6.69,0,0,1-2.58-.45,4.52,4.52,0,0,1-1.78-1.27,5.38,5.38,0,0,1-1-2,8.92,8.92,0,0,1-.42-2.51,7.76,7.76,0,0,1,.4-2.57,5.4,5.4,0,0,1,1.14-2,5.1,5.1,0,0,1,1.83-1.28,6.62,6.62,0,0,1,2.49-.45,6.8,6.8,0,0,1,2.1.3,4.38,4.38,0,0,1,1.5.85,4,4,0,0,1,1,1.3,6.08,6.08,0,0,1,.45,1.67l-3.19.43a3.08,3.08,0,0,0-.53-1.46,1.65,1.65,0,0,0-1.4-.56,2.12,2.12,0,0,0-1.2.31,2.22,2.22,0,0,0-.76.82,3.55,3.55,0,0,0-.39,1.19,8.18,8.18,0,0,0-.12,1.4,8.42,8.42,0,0,0,.12,1.42,3.91,3.91,0,0,0,.38,1.2,2.14,2.14,0,0,0,.75.83,2.19,2.19,0,0,0,1.2.3,2,2,0,0,0,1.47-.54,2.44,2.44,0,0,0,.54-1.57h3.22A5.18,5.18,0,0,1,120.88,56.1Z"/><path class="cls-5" d="M133.76,56.1a5.27,5.27,0,0,1-3.84,1.26,6.69,6.69,0,0,1-2.58-.45,4.52,4.52,0,0,1-1.78-1.27,5.38,5.38,0,0,1-1-2,8.72,8.72,0,0,1-.37-2.54,7.76,7.76,0,0,1,.4-2.57,5.4,5.4,0,0,1,1.14-2,5,5,0,0,1,1.84-1.28,6.4,6.4,0,0,1,2.52-.46,6.73,6.73,0,0,1,2.09.3,4.43,4.43,0,0,1,1.51.85,4,4,0,0,1,1,1.3,6,6,0,0,1,.4,1.67l-3.19.43a3.21,3.21,0,0,0-.52-1.46,1.67,1.67,0,0,0-1.41-.56,2.12,2.12,0,0,0-1.2.31,2.3,2.3,0,0,0-.76.82,4.16,4.16,0,0,0-.39,1.19,8.18,8.18,0,0,0-.12,1.4,8.42,8.42,0,0,0,.12,1.42,3.91,3.91,0,0,0,.38,1.2,2.14,2.14,0,0,0,.75.83,2.19,2.19,0,0,0,1.2.3,2,2,0,0,0,1.47-.54,2.47,2.47,0,0,0,.61-1.56h3.22A5.2,5.2,0,0,1,133.76,56.1Z"/><path class="cls-5" d="M146.71,56.3a5.81,5.81,0,0,1-3.73,1,5.68,5.68,0,0,1-4.42-1.63,6.65,6.65,0,0,1-1.47-4.57,7.81,7.81,0,0,1,.43-2.66,5.62,5.62,0,0,1,1.21-2,5,5,0,0,1,1.87-1.24,6.77,6.77,0,0,1,2.4-.41,5.16,5.16,0,0,1,4.09,1.56,6.19,6.19,0,0,1,1.37,4.21v1.27h-8.2a3.53,3.53,0,0,0,.73,2.23,2.55,2.55,0,0,0,2,.8,2,2,0,0,0,2.22-1.58h3.07A4.61,4.61,0,0,1,146.71,56.3Zm-1.93-8.46a2.34,2.34,0,0,0-1.86-.68,2.64,2.64,0,0,0-1.11.21,2.24,2.24,0,0,0-.81.55,2.69,2.69,0,0,0-.51.82,3.12,3.12,0,0,0-.2,1h5.09A2.77,2.77,0,0,0,144.78,47.84Z"/><path class="cls-5" d="M153.94,54.57a4,4,0,0,0,1.63.32,3.34,3.34,0,0,0,1.62-.29,1,1,0,0,0,.49-.92,1.17,1.17,0,0,0-.31-.79,2,2,0,0,0-1.17-.47l-1.63-.32a6.81,6.81,0,0,1-3.2-1.16,3,3,0,0,1-1-2.5,3.16,3.16,0,0,1,.37-1.54,3.43,3.43,0,0,1,1-1.16,5.38,5.38,0,0,1,1.62-.73,7.7,7.7,0,0,1,2.08-.26,8.5,8.5,0,0,1,2.35.28,4.48,4.48,0,0,1,1.55.76,3.12,3.12,0,0,1,.91,1.13,6.32,6.32,0,0,1,.44,1.4l-2.83.37a2.05,2.05,0,0,0-.72-1.2,2.71,2.71,0,0,0-1.64-.39,4.78,4.78,0,0,0-1,.1,2.33,2.33,0,0,0-.66.26,1,1,0,0,0-.34.36,1,1,0,0,0-.1.39,1,1,0,0,0,.35.83,3.5,3.5,0,0,0,1.37.44l1.5.25a10.54,10.54,0,0,1,2.06.52A3.92,3.92,0,0,1,160,51a2.52,2.52,0,0,1,.68,1.1,4.87,4.87,0,0,1,.19,1.47,3.22,3.22,0,0,1-1.27,2.68,6.22,6.22,0,0,1-3.91,1,10.34,10.34,0,0,1-2-.19,4.9,4.9,0,0,1-1.72-.67,3.89,3.89,0,0,1-1.25-1.27,4.14,4.14,0,0,1-.55-2h3A1.68,1.68,0,0,0,153.94,54.57Z"/><path class="cls-5" d="M166.09,54.57a4,4,0,0,0,1.63.32,3.34,3.34,0,0,0,1.62-.29,1,1,0,0,0,.48-.92,1.16,1.16,0,0,0-.3-.79,2,2,0,0,0-1.17-.47l-1.62-.32a6.81,6.81,0,0,1-3.2-1.16,3,3,0,0,1-1-2.5,3.16,3.16,0,0,1,.37-1.54,3.38,3.38,0,0,1,1-1.16,5.27,5.27,0,0,1,1.62-.73,7.58,7.58,0,0,1,2.07-.26A8.52,8.52,0,0,1,170,45a4.48,4.48,0,0,1,1.55.76,3,3,0,0,1,.9,1.13,5.72,5.72,0,0,1,.45,1.4l-2.83.37a2.05,2.05,0,0,0-.72-1.2,2.71,2.71,0,0,0-1.64-.39,4.78,4.78,0,0,0-1,.1,2.33,2.33,0,0,0-.66.26,1,1,0,0,0-.34.36.87.87,0,0,0-.1.39,1,1,0,0,0,.35.83,3.5,3.5,0,0,0,1.37.44l1.5.25a10.54,10.54,0,0,1,2.06.52,4,4,0,0,1,1.25.85,2.52,2.52,0,0,1,.68,1.1,4.87,4.87,0,0,1,.19,1.47,3.22,3.22,0,0,1-1.27,2.68,6.25,6.25,0,0,1-3.92,1,10.34,10.34,0,0,1-2-.19,4.9,4.9,0,0,1-1.72-.67,3.89,3.89,0,0,1-1.25-1.27,4.14,4.14,0,0,1-.55-2h3A1.67,1.67,0,0,0,166.09,54.57Z"/><path class="cls-5" d="M179,47.62V45.15h1.86V42h3.21v3.15h2.72v2.47h-2.72V53.1a1.61,1.61,0,0,0,.39,1.26,1.46,1.46,0,0,0,1,.33c.22,0,.43,0,.65,0a3.44,3.44,0,0,0,.64-.12l.46,2.33a7.14,7.14,0,0,1-1.28.28,7.84,7.84,0,0,1-1.19.08,4,4,0,0,1-2.89-.92,4.27,4.27,0,0,1-.94-3.13V47.62Z"/><path class="cls-5" d="M191.91,40.8v5.84a4.34,4.34,0,0,1,3.63-1.85,3.87,3.87,0,0,1,3,1.05,4.79,4.79,0,0,1,1,3.32V57h-3.17V49.59a2.31,2.31,0,0,0-.48-1.7,1.75,1.75,0,0,0-1.27-.46,2.87,2.87,0,0,0-1.05.19,2.43,2.43,0,0,0-1.48,1.27,2.14,2.14,0,0,0-.21,1V57h-3.17V40.8Z"/><path class="cls-5" d="M211.37,56.3a5.81,5.81,0,0,1-3.73,1,5.65,5.65,0,0,1-4.42-1.63,6.63,6.63,0,0,1-1.49-4.57,7.81,7.81,0,0,1,.43-2.66,5.62,5.62,0,0,1,1.21-2,5,5,0,0,1,1.87-1.24,6.77,6.77,0,0,1,2.4-.41,5.16,5.16,0,0,1,4.09,1.56,6.18,6.18,0,0,1,1.36,4.21v1.27h-8.2a3.51,3.51,0,0,0,.73,2.23,2.55,2.55,0,0,0,2,.8,2,2,0,0,0,2.21-1.58h3.08A4.62,4.62,0,0,1,211.37,56.3Zm-1.93-8.46a2.36,2.36,0,0,0-1.87-.68,2.6,2.6,0,0,0-1.1.21,2.24,2.24,0,0,0-.81.55,2.69,2.69,0,0,0-.51.82,3.12,3.12,0,0,0-.2,1h5.14A2.8,2.8,0,0,0,209.44,47.84Z"/><path class="cls-5" d="M224.09,53.87a4,4,0,0,0,2.5.68,4.69,4.69,0,0,0,1.34-.17,2.65,2.65,0,0,0,.88-.46,1.62,1.62,0,0,0,.49-.67,2.34,2.34,0,0,0,.15-.83,1.81,1.81,0,0,0-.48-1.19,3,3,0,0,0-1.74-.81L225.12,50a12.64,12.64,0,0,1-2.19-.59,5,5,0,0,1-1.6-.94,3.79,3.79,0,0,1-1-1.41,5.46,5.46,0,0,1-.33-2,4.35,4.35,0,0,1,.46-2,4.24,4.24,0,0,1,1.29-1.47,5.9,5.9,0,0,1,2-.89,9.45,9.45,0,0,1,2.54-.31,8.86,8.86,0,0,1,2.94.41,5.21,5.21,0,0,1,1.9,1.08,3.92,3.92,0,0,1,1.08,1.55,7.23,7.23,0,0,1,.46,1.83l-3.19.41a3.21,3.21,0,0,0-1-1.93,3.32,3.32,0,0,0-2.16-.59,5.62,5.62,0,0,0-1.42.15,2.84,2.84,0,0,0-.89.39,1.22,1.22,0,0,0-.48.55,1.66,1.66,0,0,0-.14.66,1.73,1.73,0,0,0,.51,1.36,3.91,3.91,0,0,0,1.74.7l2.22.43a7.71,7.71,0,0,1,3.9,1.67A4.45,4.45,0,0,1,233,52.46a4.74,4.74,0,0,1-.4,2A4.51,4.51,0,0,1,231.4,56a5.38,5.38,0,0,1-2,1,8.89,8.89,0,0,1-2.76.38A7.88,7.88,0,0,1,221.58,56a5.53,5.53,0,0,1-1.89-4.27h3.42A3,3,0,0,0,224.09,53.87Z"/><path class="cls-5" d="M239,53.87a4,4,0,0,0,2.5.68,4.69,4.69,0,0,0,1.34-.17,2.65,2.65,0,0,0,.88-.46,1.6,1.6,0,0,0,.48-.67,2.34,2.34,0,0,0,.15-.83,1.82,1.82,0,0,0-.47-1.19,3.09,3.09,0,0,0-1.75-.81L240,50a12.75,12.75,0,0,1-2.2-.59,5,5,0,0,1-1.6-.94,3.79,3.79,0,0,1-1-1.41,5.27,5.27,0,0,1-.34-2,4.35,4.35,0,0,1,.46-2,4.24,4.24,0,0,1,1.29-1.47,6.19,6.19,0,0,1,2-.89,9.43,9.43,0,0,1,2.53-.31,9.19,9.19,0,0,1,3,.41,5.36,5.36,0,0,1,1.9,1.08,4.07,4.07,0,0,1,1.08,1.51,7.25,7.25,0,0,1,.47,1.83l-3.2.41a3.13,3.13,0,0,0-1-1.93,3.32,3.32,0,0,0-2.16-.59,5.67,5.67,0,0,0-1.42.15,2.84,2.84,0,0,0-.89.39,1.41,1.41,0,0,0-.48.55,1.65,1.65,0,0,0-.13.66,1.73,1.73,0,0,0,.51,1.36,3.87,3.87,0,0,0,1.73.7l2.22.43a7.7,7.7,0,0,1,3.89,1.71,4.45,4.45,0,0,1,1.22,3.36,4.89,4.89,0,0,1-.39,2A4.64,4.64,0,0,1,246.28,56a5.38,5.38,0,0,1-2,1,9.24,9.24,0,0,1-2.76.38A7.88,7.88,0,0,1,236.46,56a5.53,5.53,0,0,1-1.89-4.27H238A3,3,0,0,0,239,53.87Z"/><path class="cls-5" d="M253.6,40.8V57h-3.37V40.8Z"/><rect class="cls-5" x="54.87" y="76.59" width="215.81" height="215.81" rx="12.68"/><rect x="66.97" y="88.45" width="5.18" height="36.25"/><rect x="66.97" y="129.87" width="5.18" height="25.89"/><rect x="66.97" y="160.94" width="5.18" height="5.18"/><rect x="66.97" y="181.65" width="5.18" height="10.36"/><rect x="66.97" y="197.19" width="5.18" height="41.42"/><rect x="66.97" y="243.79" width="5.18" height="36.25"/><rect x="72.15" y="88.45" width="5.18" height="5.18"/><rect x="72.15" y="119.52" width="5.18" height="5.18"/><rect x="72.15" y="150.59" width="5.18" height="5.18"/><rect x="72.15" y="160.94" width="5.18" height="5.18"/><rect x="72.15" y="171.3" width="5.18" height="20.71"/><rect x="72.15" y="197.19" width="5.18" height="5.18"/><rect x="72.15" y="207.54" width="5.18" height="15.53"/><rect x="72.15" y="243.79" width="5.18" height="5.18"/><rect x="72.15" y="274.86" width="5.18" height="5.18"/><rect x="77.33" y="88.45" width="5.18" height="5.18"/><rect x="77.33" y="98.8" width="5.18" height="15.53"/><rect x="77.33" y="119.52" width="5.18" height="5.18"/><rect x="77.33" y="129.87" width="5.18" height="5.18"/><rect x="77.33" y="155.76" width="5.18" height="15.53"/><rect x="77.33" y="192.01" width="5.18" height="5.18"/><rect x="77.33" y="202.37" width="5.18" height="20.71"/><rect x="77.33" y="243.79" width="5.18" height="5.18"/><rect x="77.33" y="254.15" width="5.18" height="15.53"/><rect x="77.33" y="274.86" width="5.18" height="5.18"/><rect x="82.51" y="88.45" width="5.18" height="5.18"/><rect x="82.51" y="98.8" width="5.18" height="15.53"/><rect x="82.51" y="119.52" width="5.18" height="5.18"/><rect x="82.51" y="129.87" width="5.18" height="5.18"/><rect x="82.51" y="140.23" width="5.18" height="5.18"/><rect x="82.51" y="150.59" width="5.18" height="10.36"/><rect x="82.51" y="166.12" width="5.18" height="10.36"/><rect x="82.51" y="181.65" width="5.18" height="20.71"/><rect x="82.51" y="212.72" width="5.18" height="10.36"/><rect x="82.51" y="233.44" width="5.18" height="5.18"/><rect x="82.51" y="243.79" width="5.18" height="5.18"/><rect x="82.51" y="254.15" width="5.18" height="15.53"/><rect x="82.51" y="274.86" width="5.18" height="5.18"/><rect x="87.69" y="88.45" width="5.18" height="5.18"/><rect x="87.69" y="98.8" width="5.18" height="15.53"/><rect x="87.69" y="119.52" width="5.18" height="5.18"/><rect x="87.69" y="129.87" width="5.18" height="5.18"/><rect x="87.69" y="140.23" width="5.18" height="10.36"/><rect x="87.69" y="160.94" width="5.18" height="15.53"/><rect x="87.69" y="186.83" width="5.18" height="20.71"/><rect x="87.69" y="217.9" width="5.18" height="5.18"/><rect x="87.69" y="243.79" width="5.18" height="5.18"/><rect x="87.69" y="254.15" width="5.18" height="15.53"/><rect x="87.69" y="274.86" width="5.18" height="5.18"/><rect x="92.86" y="88.45" width="5.18" height="5.18"/><rect x="92.86" y="119.52" width="5.18" height="5.18"/><rect x="92.86" y="129.87" width="5.18" height="10.36"/><rect x="92.86" y="145.41" width="5.18" height="5.18"/><rect x="92.86" y="160.94" width="5.18" height="10.36"/><rect x="92.86" y="176.48" width="5.18" height="5.18"/><rect x="92.86" y="186.83" width="5.18" height="15.53"/><rect x="92.86" y="207.54" width="5.18" height="10.36"/><rect x="92.86" y="228.26" width="5.18" height="5.18"/><rect x="92.86" y="243.79" width="5.18" height="5.18"/><rect x="92.86" y="274.86" width="5.18" height="5.18"/><rect x="98.04" y="88.45" width="5.18" height="36.25"/><rect x="98.04" y="129.87" width="5.18" height="5.18"/><rect x="98.04" y="140.23" width="5.18" height="5.18"/><rect x="98.04" y="150.59" width="5.18" height="5.18"/><rect x="98.04" y="160.94" width="5.18" height="5.18"/><rect x="98.04" y="171.3" width="5.18" height="5.18"/><rect x="98.04" y="181.65" width="5.18" height="5.18"/><rect x="98.04" y="192.01" width="5.18" height="5.18"/><rect x="98.04" y="202.37" width="5.18" height="5.18"/><rect x="98.04" y="212.72" width="5.18" height="5.18"/><rect x="98.04" y="223.08" width="5.18" height="5.18"/><rect x="98.04" y="233.44" width="5.18" height="5.18"/><rect x="98.04" y="243.79" width="5.18" height="36.25"/><rect x="103.22" y="135.05" width="5.18" height="5.18"/><rect x="103.22" y="155.76" width="5.18" height="15.53"/><rect x="103.22" y="176.48" width="5.18" height="20.71"/><rect x="103.22" y="202.37" width="5.18" height="5.18"/><rect x="103.22" y="212.72" width="5.18" height="10.36"/><rect x="103.22" y="233.44" width="5.18" height="5.18"/><rect x="108.4" y="98.8" width="5.18" height="31.07"/><rect x="108.4" y="135.05" width="5.18" height="5.18"/><rect x="108.4" y="160.94" width="5.18" height="10.36"/><rect x="108.4" y="176.48" width="5.18" height="5.18"/><rect x="108.4" y="186.83" width="5.18" height="5.18"/><rect x="108.4" y="197.19" width="5.18" height="5.18"/><rect x="108.4" y="238.61" width="5.18" height="5.18"/><rect x="108.4" y="248.97" width="5.18" height="20.71"/><rect x="108.4" y="274.86" width="5.18" height="5.18"/><rect x="113.58" y="93.63" width="5.18" height="5.18"/><rect x="113.58" y="103.98" width="5.18" height="5.18"/><rect x="113.58" y="114.34" width="5.18" height="5.18"/><rect x="113.58" y="140.23" width="5.18" height="5.18"/><rect x="113.58" y="155.76" width="5.18" height="5.18"/><rect x="113.58" y="176.48" width="5.18" height="15.53"/><rect x="113.58" y="197.19" width="5.18" height="5.18"/><rect x="113.58" y="233.44" width="5.18" height="10.36"/><rect x="113.58" y="248.97" width="5.18" height="25.89"/><rect x="118.76" y="93.63" width="5.18" height="41.42"/><rect x="118.76" y="140.23" width="5.18" height="5.18"/><rect x="118.76" y="192.01" width="5.18" height="5.18"/><rect x="118.76" y="202.37" width="5.18" height="5.18"/><rect x="118.76" y="233.44" width="5.18" height="15.53"/><rect x="118.76" y="254.15" width="5.18" height="5.18"/><rect x="118.76" y="274.86" width="5.18" height="5.18"/><rect x="123.93" y="88.45" width="5.18" height="10.36"/><rect x="123.93" y="109.16" width="5.18" height="10.36"/><rect x="123.93" y="124.7" width="5.18" height="25.89"/><rect x="123.93" y="155.76" width="5.18" height="15.53"/><rect x="123.93" y="181.65" width="5.18" height="20.71"/><rect x="123.93" y="212.72" width="5.18" height="20.71"/><rect x="123.93" y="243.79" width="5.18" height="10.36"/><rect x="123.93" y="269.68" width="5.18" height="10.36"/><rect x="129.11" y="88.45" width="5.18" height="5.18"/><rect x="129.11" y="103.98" width="5.18" height="5.18"/><rect x="129.11" y="114.34" width="5.18" height="10.36"/><rect x="129.11" y="135.05" width="5.18" height="10.36"/><rect x="129.11" y="171.3" width="5.18" height="10.36"/><rect x="129.11" y="186.83" width="5.18" height="5.18"/><rect x="129.11" y="207.54" width="5.18" height="5.18"/><rect x="129.11" y="223.08" width="5.18" height="5.18"/><rect x="129.11" y="243.79" width="5.18" height="5.18"/><rect x="129.11" y="259.33" width="5.18" height="5.18"/><rect x="129.11" y="269.68" width="5.18" height="5.18"/><rect x="134.29" y="88.45" width="5.18" height="5.18"/><rect x="134.29" y="114.34" width="5.18" height="5.18"/><rect x="134.29" y="124.7" width="5.18" height="5.18"/><rect x="134.29" y="140.23" width="5.18" height="5.18"/><rect x="134.29" y="171.3" width="5.18" height="5.18"/><rect x="134.29" y="181.65" width="5.18" height="10.36"/><rect x="134.29" y="197.19" width="5.18" height="5.18"/><rect x="134.29" y="212.72" width="5.18" height="5.18"/><rect x="134.29" y="228.26" width="5.18" height="36.25"/><rect x="134.29" y="274.86" width="5.18" height="5.18"/><rect x="139.47" y="93.63" width="5.18" height="20.71"/><rect x="139.47" y="119.52" width="5.18" height="5.18"/><rect x="139.47" y="129.87" width="5.18" height="15.53"/><rect x="139.47" y="150.59" width="5.18" height="5.18"/><rect x="139.47" y="166.12" width="5.18" height="20.71"/><rect x="139.47" y="197.19" width="5.18" height="41.42"/><rect x="139.47" y="243.79" width="5.18" height="5.18"/><rect x="139.47" y="274.86" width="5.18" height="5.18"/><rect x="144.65" y="109.16" width="5.18" height="10.36"/><rect x="144.65" y="129.87" width="5.18" height="10.36"/><rect x="144.65" y="160.94" width="5.18" height="10.36"/><rect x="144.65" y="176.48" width="5.18" height="20.71"/><rect x="144.65" y="202.37" width="5.18" height="5.18"/><rect x="144.65" y="212.72" width="5.18" height="10.36"/><rect x="144.65" y="243.79" width="5.18" height="5.18"/><rect x="144.65" y="259.33" width="5.18" height="20.71"/><rect x="149.82" y="88.45" width="5.18" height="20.71"/><rect x="149.82" y="114.34" width="5.18" height="10.36"/><rect x="149.82" y="135.05" width="5.18" height="5.18"/><rect x="149.82" y="145.41" width="5.18" height="5.18"/><rect x="149.82" y="155.76" width="5.18" height="10.36"/><rect x="149.82" y="171.3" width="5.18" height="5.18"/><rect x="149.82" y="181.65" width="5.18" height="5.18"/><rect x="149.82" y="197.19" width="5.18" height="10.36"/><rect x="149.82" y="217.9" width="5.18" height="5.18"/><rect x="149.82" y="228.26" width="5.18" height="15.53"/><rect x="149.82" y="248.97" width="5.18" height="10.36"/><rect x="149.82" y="264.5" width="5.18" height="5.18"/><rect x="155" y="103.98" width="5.18" height="5.18"/><rect x="155" y="135.05" width="5.18" height="10.36"/><rect x="155" y="150.59" width="5.18" height="20.71"/><rect x="155" y="181.65" width="5.18" height="5.18"/><rect x="155" y="192.01" width="5.18" height="5.18"/><rect x="155" y="217.9" width="5.18" height="5.18"/><rect x="155" y="233.44" width="5.18" height="20.71"/><rect x="155" y="259.33" width="5.18" height="10.36"/><rect x="155" y="274.86" width="5.18" height="5.18"/><rect x="160.18" y="88.45" width="5.18" height="5.18"/><rect x="160.18" y="109.16" width="5.18" height="15.53"/><rect x="160.18" y="129.87" width="5.18" height="5.18"/><rect x="160.18" y="145.41" width="5.18" height="5.18"/><rect x="160.18" y="155.76" width="5.18" height="5.18"/><rect x="160.18" y="166.12" width="5.18" height="5.18"/><rect x="160.18" y="176.48" width="5.18" height="5.18"/><rect x="160.18" y="186.83" width="5.18" height="5.18"/><rect x="160.18" y="197.19" width="5.18" height="10.36"/><rect x="160.18" y="212.72" width="5.18" height="5.18"/><rect x="160.18" y="228.26" width="5.18" height="5.18"/><rect x="160.18" y="238.61" width="5.18" height="5.18"/><rect x="160.18" y="248.97" width="5.18" height="5.18"/><rect x="160.18" y="259.33" width="5.18" height="5.18"/><rect x="165.36" y="93.63" width="5.18" height="20.71"/><rect x="165.36" y="124.7" width="5.18" height="10.36"/><rect x="165.36" y="155.76" width="5.18" height="5.18"/><rect x="165.36" y="166.12" width="5.18" height="5.18"/><rect x="165.36" y="181.65" width="5.18" height="20.71"/><rect x="165.36" y="238.61" width="5.18" height="5.18"/><rect x="165.36" y="248.97" width="5.18" height="5.18"/><rect x="165.36" y="264.5" width="5.18" height="15.53"/><rect x="170.54" y="88.45" width="5.18" height="5.18"/><rect x="170.54" y="98.8" width="5.18" height="5.18"/><rect x="170.54" y="109.16" width="5.18" height="25.89"/><rect x="170.54" y="140.23" width="5.18" height="5.18"/><rect x="170.54" y="160.94" width="5.18" height="5.18"/><rect x="170.54" y="176.48" width="5.18" height="5.18"/><rect x="170.54" y="186.83" width="5.18" height="15.53"/><rect x="170.54" y="207.54" width="5.18" height="10.36"/><rect x="170.54" y="223.08" width="5.18" height="5.18"/><rect x="170.54" y="233.44" width="5.18" height="15.53"/><rect x="170.54" y="259.33" width="5.18" height="5.18"/><rect x="170.54" y="269.68" width="5.18" height="5.18"/><rect x="175.71" y="88.45" width="5.18" height="15.53"/><rect x="175.71" y="109.16" width="5.18" height="10.36"/><rect x="175.71" y="124.7" width="5.18" height="5.18"/><rect x="175.71" y="135.05" width="5.18" height="5.18"/><rect x="175.71" y="145.41" width="5.18" height="5.18"/><rect x="175.71" y="155.76" width="5.18" height="5.18"/><rect x="175.71" y="166.12" width="5.18" height="10.36"/><rect x="175.71" y="186.83" width="5.18" height="5.18"/><rect x="175.71" y="197.19" width="5.18" height="5.18"/><rect x="175.71" y="217.9" width="5.18" height="15.53"/><rect x="175.71" y="238.61" width="5.18" height="36.25"/><rect x="180.89" y="103.98" width="5.18" height="36.25"/><rect x="180.89" y="150.59" width="5.18" height="5.18"/><rect x="180.89" y="166.12" width="5.18" height="5.18"/><rect x="180.89" y="181.65" width="5.18" height="15.53"/><rect x="180.89" y="202.37" width="5.18" height="5.18"/><rect x="180.89" y="212.72" width="5.18" height="5.18"/><rect x="180.89" y="223.08" width="5.18" height="5.18"/><rect x="180.89" y="233.44" width="5.18" height="20.71"/><rect x="180.89" y="264.5" width="5.18" height="15.53"/><rect x="186.07" y="93.63" width="5.18" height="5.18"/><rect x="186.07" y="103.98" width="5.18" height="10.36"/><rect x="186.07" y="124.7" width="5.18" height="15.53"/><rect x="186.07" y="155.76" width="5.18" height="5.18"/><rect x="186.07" y="171.3" width="5.18" height="5.18"/><rect x="186.07" y="192.01" width="5.18" height="10.36"/><rect x="186.07" y="207.54" width="5.18" height="15.53"/><rect x="186.07" y="228.26" width="5.18" height="15.53"/><rect x="186.07" y="248.97" width="5.18" height="5.18"/><rect x="186.07" y="259.33" width="5.18" height="5.18"/><rect x="191.25" y="93.63" width="5.18" height="10.36"/><rect x="191.25" y="119.52" width="5.18" height="5.18"/><rect x="191.25" y="129.87" width="5.18" height="31.07"/><rect x="191.25" y="176.48" width="5.18" height="5.18"/><rect x="191.25" y="192.01" width="5.18" height="5.18"/><rect x="191.25" y="217.9" width="5.18" height="10.36"/><rect x="191.25" y="233.44" width="5.18" height="5.18"/><rect x="191.25" y="248.97" width="5.18" height="10.36"/><rect x="191.25" y="274.86" width="5.18" height="5.18"/><rect x="196.43" y="103.98" width="5.18" height="15.53"/><rect x="196.43" y="129.87" width="5.18" height="10.36"/><rect x="196.43" y="150.59" width="5.18" height="5.18"/><rect x="196.43" y="171.3" width="5.18" height="5.18"/><rect x="196.43" y="181.65" width="5.18" height="5.18"/><rect x="196.43" y="192.01" width="5.18" height="15.53"/><rect x="196.43" y="212.72" width="5.18" height="5.18"/><rect x="196.43" y="233.44" width="5.18" height="15.53"/><rect x="196.43" y="254.15" width="5.18" height="15.53"/><rect x="196.43" y="274.86" width="5.18" height="5.18"/><rect x="201.6" y="88.45" width="5.18" height="20.71"/><rect x="201.6" y="114.34" width="5.18" height="31.07"/><rect x="201.6" y="150.59" width="5.18" height="15.53"/><rect x="201.6" y="171.3" width="5.18" height="5.18"/><rect x="201.6" y="186.83" width="5.18" height="10.36"/><rect x="201.6" y="202.37" width="5.18" height="15.53"/><rect x="201.6" y="223.08" width="5.18" height="10.36"/><rect x="201.6" y="248.97" width="5.18" height="10.36"/><rect x="201.6" y="264.5" width="5.18" height="5.18"/><rect x="201.6" y="274.86" width="5.18" height="5.18"/><rect x="206.78" y="93.63" width="5.18" height="5.18"/><rect x="206.78" y="114.34" width="5.18" height="5.18"/><rect x="206.78" y="124.7" width="5.18" height="10.36"/><rect x="206.78" y="140.23" width="5.18" height="10.36"/><rect x="206.78" y="160.94" width="5.18" height="5.18"/><rect x="206.78" y="171.3" width="5.18" height="5.18"/><rect x="206.78" y="181.65" width="5.18" height="5.18"/><rect x="206.78" y="192.01" width="5.18" height="5.18"/><rect x="206.78" y="202.37" width="5.18" height="5.18"/><rect x="206.78" y="212.72" width="5.18" height="5.18"/><rect x="206.78" y="223.08" width="5.18" height="5.18"/><rect x="206.78" y="233.44" width="5.18" height="10.36"/><rect x="206.78" y="254.15" width="5.18" height="5.18"/><rect x="211.96" y="93.63" width="5.18" height="20.71"/><rect x="211.96" y="119.52" width="5.18" height="5.18"/><rect x="211.96" y="140.23" width="5.18" height="5.18"/><rect x="211.96" y="150.59" width="5.18" height="15.53"/><rect x="211.96" y="176.48" width="5.18" height="10.36"/><rect x="211.96" y="197.19" width="5.18" height="10.36"/><rect x="211.96" y="212.72" width="5.18" height="15.53"/><rect x="211.96" y="233.44" width="5.18" height="31.07"/><rect x="211.96" y="269.68" width="5.18" height="5.18"/><rect x="217.14" y="140.23" width="5.18" height="36.25"/><rect x="217.14" y="186.83" width="5.18" height="10.36"/><rect x="217.14" y="202.37" width="5.18" height="5.18"/><rect x="217.14" y="223.08" width="5.18" height="5.18"/><rect x="217.14" y="233.44" width="5.18" height="5.18"/><rect x="217.14" y="254.15" width="5.18" height="10.36"/><rect x="217.14" y="269.68" width="5.18" height="10.36"/><rect x="222.32" y="88.45" width="5.18" height="36.25"/><rect x="222.32" y="129.87" width="5.18" height="5.18"/><rect x="222.32" y="145.41" width="5.18" height="10.36"/><rect x="222.32" y="171.3" width="5.18" height="5.18"/><rect x="222.32" y="181.65" width="5.18" height="5.18"/><rect x="222.32" y="192.01" width="5.18" height="5.18"/><rect x="222.32" y="212.72" width="5.18" height="5.18"/><rect x="222.32" y="223.08" width="5.18" height="15.53"/><rect x="222.32" y="243.79" width="5.18" height="5.18"/><rect x="222.32" y="254.15" width="5.18" height="10.36"/><rect x="222.32" y="274.86" width="5.18" height="5.18"/><rect x="227.5" y="88.45" width="5.18" height="5.18"/><rect x="227.5" y="119.52" width="5.18" height="5.18"/><rect x="227.5" y="129.87" width="5.18" height="15.53"/><rect x="227.5" y="155.76" width="5.18" height="15.53"/><rect x="227.5" y="176.48" width="5.18" height="5.18"/><rect x="227.5" y="186.83" width="5.18" height="5.18"/><rect x="227.5" y="202.37" width="5.18" height="25.89"/><rect x="227.5" y="233.44" width="5.18" height="5.18"/><rect x="227.5" y="254.15" width="5.18" height="5.18"/><rect x="232.67" y="88.45" width="5.18" height="5.18"/><rect x="232.67" y="98.8" width="5.18" height="15.53"/><rect x="232.67" y="119.52" width="5.18" height="5.18"/><rect x="232.67" y="129.87" width="5.18" height="5.18"/><rect x="232.67" y="145.41" width="5.18" height="10.36"/><rect x="232.67" y="160.94" width="5.18" height="15.53"/><rect x="232.67" y="192.01" width="5.18" height="5.18"/><rect x="232.67" y="202.37" width="5.18" height="15.53"/><rect x="232.67" y="233.44" width="5.18" height="31.07"/><rect x="232.67" y="269.68" width="5.18" height="10.36"/><rect x="237.85" y="88.45" width="5.18" height="5.18"/><rect x="237.85" y="98.8" width="5.18" height="15.53"/><rect x="237.85" y="119.52" width="5.18" height="5.18"/><rect x="237.85" y="129.87" width="5.18" height="5.18"/><rect x="237.85" y="140.23" width="5.18" height="5.18"/><rect x="237.85" y="150.59" width="5.18" height="5.18"/><rect x="237.85" y="160.94" width="5.18" height="5.18"/><rect x="237.85" y="181.65" width="5.18" height="5.18"/><rect x="237.85" y="192.01" width="5.18" height="15.53"/><rect x="237.85" y="217.9" width="5.18" height="5.18"/><rect x="237.85" y="233.44" width="5.18" height="10.36"/><rect x="237.85" y="248.97" width="5.18" height="5.18"/><rect x="237.85" y="259.33" width="5.18" height="5.18"/><rect x="237.85" y="274.86" width="5.18" height="5.18"/><rect x="243.03" y="88.45" width="5.18" height="5.18"/><rect x="243.03" y="98.8" width="5.18" height="15.53"/><rect x="243.03" y="119.52" width="5.18" height="5.18"/><rect x="243.03" y="129.87" width="5.18" height="15.53"/><rect x="243.03" y="150.59" width="5.18" height="5.18"/><rect x="243.03" y="171.3" width="5.18" height="5.18"/><rect x="243.03" y="192.01" width="5.18" height="5.18"/><rect x="243.03" y="212.72" width="5.18" height="10.36"/><rect x="243.03" y="233.44" width="5.18" height="5.18"/><rect x="243.03" y="243.79" width="5.18" height="5.18"/><rect x="243.03" y="254.15" width="5.18" height="5.18"/><rect x="243.03" y="264.5" width="5.18" height="5.18"/><rect x="243.03" y="274.86" width="5.18" height="5.18"/><rect x="248.21" y="88.45" width="5.18" height="5.18"/><rect x="248.21" y="119.52" width="5.18" height="5.18"/><rect x="248.21" y="135.05" width="5.18" height="10.36"/><rect x="248.21" y="150.59" width="5.18" height="5.18"/><rect x="248.21" y="160.94" width="5.18" height="10.36"/><rect x="248.21" y="176.48" width="5.18" height="10.36"/><rect x="248.21" y="202.37" width="5.18" height="15.53"/><rect x="248.21" y="223.08" width="5.18" height="10.36"/><rect x="248.21" y="248.97" width="5.18" height="5.18"/><rect x="248.21" y="264.5" width="5.18" height="5.18"/><rect x="248.21" y="274.86" width="5.18" height="5.18"/><rect x="253.39" y="88.45" width="5.18" height="36.25"/><rect x="253.39" y="140.23" width="5.18" height="15.53"/><rect x="253.39" y="160.94" width="5.18" height="10.36"/><rect x="253.39" y="181.65" width="5.18" height="10.36"/><rect x="253.39" y="202.37" width="5.18" height="5.18"/><rect x="253.39" y="223.08" width="5.18" height="15.53"/><rect x="253.39" y="243.79" width="5.18" height="36.25"/></g></g></svg>