<svg id="Layer_1" data-name="Layer 1" xmlns="http://www.w3.org/2000/svg" xmlns:xlink="http://www.w3.org/1999/xlink" viewBox="0 0 338.09 437.43"><defs><style>.cls-1{fill:none;}.cls-2{clip-path:url(#clip-path);}.cls-3{fill:#fff;}.cls-4{fill:#004f58;}.cls-5{fill:#dfdf1d;}.cls-6{fill:#58c9e7;}.cls-7{fill:#7e9bbf;}.cls-8{fill:url(#linear-gradient);}</style><clipPath id="clip-path"><rect class="cls-1" x="29.25" y="322.05" width="266.37" height="115.36"/></clipPath><linearGradient id="linear-gradient" x1="17.23" y1="284.77" x2="374.87" y2="284.77" gradientTransform="matrix(1, 0, 0, -1, 0, 440.2)" gradientUnits="userSpaceOnUse"><stop offset="0" stop-color="#00857c"/><stop offset="0.28" stop-color="#036a6b"/><stop offset="1" stop-color="#0c2340"/></linearGradient></defs><g id="Layer_2" data-name="Layer 2"><g id="Layer_1-2" data-name="Layer 1-2"><g class="cls-2"><path class="cls-3" d="M142,335.7A12.71,12.71,0,1,1,129.25,323,12.71,12.71,0,0,1,142,335.7"/><path class="cls-4" d="M76.19,384.93l-1.33-2.71c-2.16-4.73-5-11-7.26-17.11-.1-.46-.37-.89-.84-.89H61c-.37,0-.64,0-.77.39l-.26.57c-.25.75,1.18.33,2.08,1a1.91,1.91,0,0,1,.45,2.42l-6.89,16.28s-.36.8.39.8h1c.69,0,.77-.2,1-.8l2.38-5.61h6.63c2,0,2.94,2.8,2.94,2.8l1,2.43c.18.55.46,1.15,1.26,1.15H75.7c1,0,.51-.79.51-.79M64.6,369.14,68,377.48h-7Z"/><path class="cls-4" d="M99.66,367.72c0-1.29-.65-1.73-2.1-2-.5-.11-.75-.23-.63-.56,0,0,.37-1,.83-1H108c9.5,0,11.82,4.06,11.82,10.26,0,6.39-1.62,11.22-12.5,11.27-4.23,0-5.95.08-6.57,0-1-.12-1.08-1.21-1.09-2Zm4.7,13.61c0,2.34,1,2.17,3.51,2.17,5.2,0,6.91-3.52,6.91-9,0-6.08-2.11-8.48-7.34-8.48h-3.08Z"/><path class="cls-4" d="M166.72,365.09c0-.83-.12-.88-.65-.94h-6c-.45,0-.83,1-.83,1-.12.33.13.45.63.55,1.38.28,2,.72,2.12,1.85v17c0,.92.23,1.18.79,1.2h3.29c.44-.07.62-.39.62-1.19Z"/><path class="cls-4" d="M188.25,380.56c0-.45-.95-.83-.95-.83-.33-.11-.45.13-.56.64a3.31,3.31,0,0,1-2,2.57,5,5,0,0,1-1.71.34h-2.7c-1.83,0-2.43-.59-2.43-3.17V365.38c0-.91-.19-1.13-.66-1.19h-6c-.45,0-.83.95-.83.95-.11.33.13.45.63.55,1.45.3,2.1.75,2.1,2v16.89c0,.74.21,1,.71,1.08h12.83c.89,0,1.53-.28,1.53-.77Z"/><path class="cls-4" d="M97.62,385.22a88.66,88.66,0,0,1-7.37-9.47,6.8,6.8,0,0,0,4.57-6.28c0-3.65-3.1-5.28-6.2-5.28H77c-.45,0-.83.95-.83.95-.11.33.13.45.63.55,1.46.3,2.1.75,2.1,2h0v17.05c0,.62.2.93.7.93h3.24c.51,0,.76-.31.76-.93v-8.35h1.31c.92.05,1.45.48,2.16,1.59l4.26,6.95c.17.25.4.74.93.74h4.89c.31,0,.4,0,.52-.16,0,0,.12-.12-.08-.32M85.7,374.76H83.63v-8.91H86.3c2.06,0,3.59.89,3.66,4,.07,3.39-1.93,4.95-4.26,4.95"/><path class="cls-4" d="M151.34,372.73c-2.73-1.69-4.46-2.82-4.1-5a3.19,3.19,0,0,1,3.27-2.37,3.59,3.59,0,0,1,1.73.38c1,.52,1.73,1.43,2.77,3,.56.64.84,1.21,1.17,1,.64-.35.34-3.5.28-3.78s-.06-.42-.33-.61a6.25,6.25,0,0,0-.82-.51,10.68,10.68,0,0,0-8.24-.55c-3,.95-4.59,2.86-4.59,5,0,3.17,2.63,4.24,4.6,5.53,2.59,1.69,6.28,3.22,6.12,5.9-.1,2.15-1.49,3.3-4,3.13a6.58,6.58,0,0,1-3.49-1.66,12.81,12.81,0,0,1-2.5-2.8c-.5-.79-.79-1.23-1.12-1.05-.63.35-.33,4-.27,4.29a2.21,2.21,0,0,0,.32.9,6.12,6.12,0,0,0,1.68,1.26,12.53,12.53,0,0,0,5.39,1.48c4.6.12,8.87-2.17,8.71-6.69-.11-2.86-3-4.54-6.63-6.79"/><path class="cls-4" d="M55,374.2H44c-.45,0-.83.95-.83.95-.12.33.12.45.63.55,1.39.28,5.5.09,6.78,2a3.26,3.26,0,0,1,.31,1.41c0,2.41-2.18,4.6-6.54,4.6-4.71,0-9.11-4-9.11-11.24,0-6,3.36-10.38,9.14-10.38,5,0,8.11,4.34,8.76,5.25.5.72.84,1.21,1.16,1,.64-.35.17-3.24.13-3.52a1.93,1.93,0,0,0-.36-.93,13.38,13.38,0,0,0-9.73-4.21c-8.55,0-15,5.84-15,13,0,8,6.18,13.43,14.58,13.43A13.32,13.32,0,0,0,47,385.7h.14a12.06,12.06,0,0,0,6.45-4.21s2.3-2.69,2.35-5.5v-.83c0-.62-.08-1-1-1"/><path class="cls-4" d="M141,384.85l-1.33-2.7c-1.87-4.11-6.28-14.37-6.32-14.67a1.47,1.47,0,0,1,.57-1.52c.75-.41,2-.18,1.79-.85l-.26-.57c-.13-.34-.4-.4-.77-.4h-8.87c-.36,0-.64.06-.77.4l-.26.57c-.25.75,1.18.33,2.08,1a1.92,1.92,0,0,1,.45,2.43l-6.89,16.27s-.36.81.39.81h1c.68,0,.76-.2,1-.8l2.39-5.62h6.62c2,0,2.93,2.81,2.93,2.81l1,2.43c.18.55.46,1.15,1.26,1.15h3.45c1,0,.5-.8.5-.8m-15.13-7.44,3.54-8.35,3.41,8.35Z"/><path class="cls-4" d="M194.36,383.8a2,2,0,0,1-.18-.67.93.93,0,0,0-.35-.71.81.81,0,0,0,.44-.69A.83.83,0,0,0,194,381a1.82,1.82,0,0,0-1-.23c-.37,0-1,.07-1,.07V384h.74v-1.24h.18a.4.4,0,0,1,.47.33.13.13,0,0,1,0,.06c.09.63.19.76.22.79V384h.78Zm-1.6-2.37H193c.35,0,.56.14.56.37s-.35.35-.56.35h-.19Z"/><path class="cls-4" d="M190,382.43a3.07,3.07,0,1,0,3.08-3.06h0a3.07,3.07,0,0,0-3.07,3.06m.8,0a2.27,2.27,0,1,1,2.27,2.27h0a2.27,2.27,0,0,1-2.27-2.27"/><polygon class="cls-4" points="34 392.64 34 399.37 37.42 399.37 37.42 392.64 40.69 392.64 40.69 409.45 37.42 409.45 37.42 402.42 34 402.42 34 409.45 30.74 409.45 30.74 392.64 34 392.64"/><path class="cls-4" d="M52.25,405.74c0,1.29,0,2.57.1,3.71H49.5l-.18-1.29h0a3.48,3.48,0,0,1-2.85,1.49c-2.32,0-3.24-1.72-3.24-5v-7.39H46.5v7c0,1.59.32,2.62,1.22,2.62a1.16,1.16,0,0,0,1-.79,2.29,2.29,0,0,0,.2-1V397.3h3.3Z"/><path class="cls-4" d="M54.54,400.92c0-1.32,0-2.5-.1-3.67h2.81l.18,1.42h0a3.61,3.61,0,0,1,2.92-1.58,2.65,2.65,0,0,1,2.67,1.67h0a4.28,4.28,0,0,1,1.25-1.22,3.25,3.25,0,0,1,1.7-.45c2.2,0,3.17,1.75,3.17,4.67v7.73H66v-7.18c0-1.37-.15-2.5-1.13-2.5a1.31,1.31,0,0,0-1.22,1.1,2.84,2.84,0,0,0-.1.87v7.71H60.25v-7.63c0-.9-.07-2.05-1.09-2.05a1.35,1.35,0,0,0-1.23,1.1,2.88,2.88,0,0,0-.12.92v7.66H54.54Z"/><path class="cls-4" d="M79.77,406.66a20,20,0,0,0,.17,2.79H77l-.17-1.19h-.08a3.14,3.14,0,0,1-2.69,1.39c-1.85,0-3.22-1.54-3.22-3.69,0-3.22,2.82-4.51,5.59-4.54v-.27a1.54,1.54,0,0,0-1.4-1.68,1.71,1.71,0,0,0-.32,0,4.62,4.62,0,0,0-2.5.73l-.6-2.22a8.28,8.28,0,0,1,3.82-.89c3.72,0,4.32,2.6,4.32,5.09Zm-3.22-3.15c-1.08,0-2.6.4-2.6,2.1,0,1.2.68,1.65,1.18,1.65a1.37,1.37,0,0,0,1.34-1.05,1.83,1.83,0,0,0,.08-.57Z"/><path class="cls-4" d="M82.06,400.92c0-1.32,0-2.5-.1-3.67h2.82l.18,1.4h0a3.48,3.48,0,0,1,3-1.56c2.3,0,3.3,1.81,3.3,4.53v7.83H87.92v-7.63c0-1-.24-2-1.19-2-.55,0-1,.37-1.22,1.1a3.06,3.06,0,0,0-.18,1.12v7.43H82.06Z"/><path class="cls-4" d="M97.76,392.89a16.39,16.39,0,0,1,3.42-.33c1.94,0,3.49.3,4.56,1.3a4.9,4.9,0,0,1,1.45,3.69,5.6,5.6,0,0,1-1.42,4,5.76,5.76,0,0,1-4.1,1.63H101v6.26H97.76Zm3.27,7.66h.55c1.64,0,2.36-1.17,2.36-2.74s-.59-2.62-2.12-2.62a2.66,2.66,0,0,0-.79.12Z"/><path class="cls-4" d="M116.61,406.66a20,20,0,0,0,.17,2.79h-2.92l-.17-1.19h-.07a3.16,3.16,0,0,1-2.7,1.39c-1.85,0-3.22-1.54-3.22-3.69,0-3.22,2.82-4.51,5.59-4.54v-.27a1.54,1.54,0,0,0-1.4-1.68,1.71,1.71,0,0,0-.32,0,4.62,4.62,0,0,0-2.5.73l-.59-2.22a8.23,8.23,0,0,1,3.77-.89c3.72,0,4.32,2.6,4.32,5.09Zm-3.22-3.15c-1.07,0-2.59.4-2.59,2.1,0,1.2.67,1.65,1.17,1.65a1.36,1.36,0,0,0,1.34-1.05,1.58,1.58,0,0,0,.08-.57Z"/><path class="cls-4" d="M118.88,401.09c0-1.47,0-2.7-.1-3.87h2.85l.17,1.43h0a2.81,2.81,0,0,1,2.62-1.56c2.67,0,3.77,2.92,3.77,6.29,0,4.34-1.9,6.31-4,6.31a2.39,2.39,0,0,1-2-1.17h0v5.76h-3.31Zm3.27,3.89a2.46,2.46,0,0,0,.18,1c.25.75.67.94,1,.94,1.15,0,1.58-1.69,1.58-3.59,0-2.32-.58-3.57-1.55-3.57a1.29,1.29,0,0,0-1.1,1,2.21,2.21,0,0,0-.15.88Z"/><path class="cls-4" d="M131.61,395.81a1.65,1.65,0,0,1-1.63-1.65c0-.05,0-.09,0-.13a1.67,1.67,0,1,1,1.64,1.78Zm-1.55,1.44h3.27v12.2h-3.27Z"/><rect class="cls-4" x="135.62" y="392.19" width="3.27" height="17.27"/><rect class="cls-4" x="141.24" y="392.19" width="3.27" height="17.27"/><path class="cls-4" d="M151.09,409.65c-2.91,0-4.66-2.32-4.66-6.26,0-4.37,2.29-6.34,4.71-6.34,2.9,0,4.62,2.42,4.62,6.27,0,5.06-2.82,6.33-4.64,6.33Zm.08-2.49c1.07,0,1.35-2.05,1.35-3.82s-.28-3.79-1.4-3.79-1.45,2.1-1.45,3.79c0,2.07.33,3.82,1.47,3.82Z"/><path class="cls-4" d="M157.58,400.92c0-1.32-.05-2.5-.1-3.67h2.85l.17,1.42h.05a3.59,3.59,0,0,1,2.9-1.62,2.66,2.66,0,0,1,2.67,1.67h0a4,4,0,0,1,1.24-1.22,3.25,3.25,0,0,1,1.7-.45c2.2,0,3.17,1.75,3.17,4.67v7.73H169v-7.18c0-1.37-.15-2.5-1.12-2.5a1.31,1.31,0,0,0-1.23,1.1,2.84,2.84,0,0,0-.1.87v7.71h-3.26v-7.63c0-.9-.08-2.05-1.1-2.05a1.33,1.33,0,0,0-1.22,1.1,2.88,2.88,0,0,0-.13.92v7.66h-3.27Z"/><path class="cls-4" d="M182.81,406.66a20,20,0,0,0,.17,2.79h-2.92l-.17-1.19h-.07a3.16,3.16,0,0,1-2.7,1.39c-1.84,0-3.22-1.54-3.22-3.69,0-3.22,2.82-4.51,5.59-4.54v-.27a1.54,1.54,0,0,0-1.4-1.68,1.71,1.71,0,0,0-.32,0,4.58,4.58,0,0,0-2.49.73l-.61-2.22a8.32,8.32,0,0,1,3.82-.93c3.72,0,4.32,2.6,4.32,5.09Zm-3.22-3.15c-1.07,0-2.59.4-2.59,2.1,0,1.2.67,1.65,1.17,1.65a1.36,1.36,0,0,0,1.34-1.05,1.58,1.58,0,0,0,.08-.57Z"/><path class="cls-4" d="M187.55,397.25l.92,5.47c.18,1.07.35,2.17.53,3.39h.05c.15-1.25.3-2.27.47-3.39l.95-5.47h3.22l-3.27,12.2h-3l-3.35-12.2Z"/><path class="cls-4" d="M196.51,395.81a1.65,1.65,0,0,1-1.63-1.65c0-.05,0-.09,0-.13a1.67,1.67,0,1,1,1.64,1.78ZM195,397.25h3.29v12.2H195Z"/><path class="cls-4" d="M200.53,400.92c0-1.2-.05-2.52-.1-3.67h2.82l.18,1.8h.1a2.85,2.85,0,0,1,2.39-2,5.49,5.49,0,0,1,.7.05v3.25a4.09,4.09,0,0,0-.7,0,2.16,2.16,0,0,0-2,1.72,4.23,4.23,0,0,0-.15,1.23v6.18h-3.26Z"/><path class="cls-4" d="M216.79,405.74c0,1.29.05,2.57.1,3.71h-2.82l-.17-1.29h-.05a3.46,3.46,0,0,1-2.84,1.49c-2.33,0-3.25-1.72-3.25-5v-7.39H211v7c0,1.59.33,2.62,1.22,2.62a1.16,1.16,0,0,0,1.07-.83,2.46,2.46,0,0,0,.21-1v-7.79h3.26Z"/><path class="cls-4" d="M219,406.51a4.51,4.51,0,0,0,2.2.65c.84,0,1.32-.37,1.32-1.08s-.35-1-1.42-1.67c-2-1.12-2.47-2.37-2.47-3.49a3.79,3.79,0,0,1,3.68-3.88h.32a5.43,5.43,0,0,1,2.47.57l-.57,2.4a3.5,3.5,0,0,0-1.7-.5c-.84,0-1.22.48-1.22,1s.27.87,1.42,1.54a4.11,4.11,0,0,1,2.47,3.67c0,2.5-1.79,3.84-4.31,3.84a5.32,5.32,0,0,1-2.78-.69Z"/><path class="cls-4" d="M31.14,431.75a7.24,7.24,0,0,0,1.47-.12,4.13,4.13,0,0,0,1.92-1,6.09,6.09,0,0,0,1.57-3.26H36a3.05,3.05,0,0,1-2.32,1c-2.1,0-3.82-1.88-3.82-4.85,0-2.77,1.7-5.68,4.81-5.68s4.62,2.74,4.62,6.66a11.13,11.13,0,0,1-2.67,7.83,7.06,7.06,0,0,1-4,2.05,10.55,10.55,0,0,1-1.49.07Zm3.39-11.52c-.82,0-1.47,1.07-1.42,3,0,1.57.52,2.87,1.52,2.87a1.45,1.45,0,0,0,1.25-.85,5,5,0,0,0,.15-1.72c0-2.12-.6-3.34-1.48-3.34Z"/><rect class="cls-4" x="40.66" y="426.21" width="4.97" height="2.34"/><path class="cls-5" d="M130.09,322.09h-.82v1a12.71,12.71,0,0,1,0,25.41v11.29a18.82,18.82,0,0,0,.82-37.62"/><path class="cls-6" d="M119.38,332.88a9.88,9.88,0,0,1,9.88-9.88h0v-1a16,16,0,1,0,0,32V342.76a9.88,9.88,0,0,1-9.88-9.88h0"/><path class="cls-7" d="M123.62,330.52a5.65,5.65,0,1,0,5.66-5.64h0a5.65,5.65,0,0,0-5.65,5.63h0"/><path class="cls-4" d="M208.58,359.86c-2.8,0-9.31.89-9.31,9.15,0,4.42,3.74,7.64,8.89,7.64a7.8,7.8,0,0,0,1.27-.06.28.28,0,0,1,.18,0,.24.24,0,0,1,.14.21.11.11,0,0,1,0,.08c-.4,1.91-3.5,5.43-8,8.07h-.05v.56h5.69a24.82,24.82,0,0,0,7.35-7.19,17.89,17.89,0,0,0,3-9.58c0-6.55-4.71-8.88-9.11-8.88m0,15.38c-2.53,0-4.15-2.65-4.15-6.16,0-3.78,1.09-7.6,4.15-7.6s4.11,3.95,4.11,7.33c0,3.61-1.8,6.43-4.11,6.43"/><path class="cls-4" d="M66.09,431.48a18.59,18.59,0,0,0,.18,2.79H63.35l-.18-1.18H63.1a3.17,3.17,0,0,1-2.7,1.39c-1.84,0-3.22-1.54-3.22-3.69,0-3.22,2.83-4.52,5.59-4.54V426a1.55,1.55,0,0,0-1.41-1.67h-.31a4.58,4.58,0,0,0-2.49.73l-.6-2.22a8.32,8.32,0,0,1,3.82-.93c3.72,0,4.31,2.6,4.31,5.09Zm-3.22-3.14c-1.07,0-2.59.39-2.59,2.09,0,1.2.67,1.65,1.17,1.65A1.38,1.38,0,0,0,62.8,431a1.88,1.88,0,0,0,.07-.58Z"/><rect class="cls-4" x="68.39" y="417.01" width="3.27" height="17.27"/><path class="cls-4" d="M76.75,429.33a2.33,2.33,0,0,0,2,2.59,2.53,2.53,0,0,0,.55,0,7.33,7.33,0,0,0,2.32-.39l.42,2.32a9.17,9.17,0,0,1-3.32.57c-3.34,0-5.16-2.2-5.16-6,0-4.09,2.14-6.54,4.89-6.54s4.14,2.07,4.14,5.76a10.71,10.71,0,0,1-.1,1.7Zm2.89-2.24c0-1.55-.4-2.77-1.37-2.77s-1.5,1.54-1.52,2.77Z"/><path class="cls-4" d="M84.46,425.74c0-1.32,0-2.5-.1-3.67h2.82l.17,1.4h0a3.5,3.5,0,0,1,3-1.6c2.32,0,3.24,1.85,3.24,4.57v7.83H90.32v-7.63c0-1-.25-2-1.2-2a1.31,1.31,0,0,0-1.22,1.09,3.33,3.33,0,0,0-.17,1.13v7.43H84.46Z"/><path class="cls-4" d="M99.73,418.9v3.19h2.4v2.32h-2.4V430c0,1.42.6,1.77,1.22,1.77a5.14,5.14,0,0,0,.88-.08v2.55a8,8,0,0,1-2,.22,3.39,3.39,0,0,1-2.37-.77c-.65-.65-1-1.57-1-3.49v-5.79H95v-2.3h1.44V420Z"/><path class="cls-4" d="M110.25,434.27l-3.74-16.81h3.61l1.2,7.26c.27,1.82.63,3.86.85,5.84h0c.22-2,.5-4,.8-5.92l1.14-7.18h3.6l-3.85,16.81Z"/><path class="cls-4" d="M126.64,431.48a18.59,18.59,0,0,0,.18,2.79H123.9l-.18-1.18h-.07a3.17,3.17,0,0,1-2.7,1.39c-1.84,0-3.22-1.54-3.22-3.69,0-3.22,2.82-4.52,5.59-4.54V426a1.55,1.55,0,0,0-1.41-1.67h-.31a4.58,4.58,0,0,0-2.49.73l-.6-2.22a8.28,8.28,0,0,1,3.81-.93c3.72,0,4.32,2.6,4.32,5.09Zm-3.22-3.14c-1.07,0-2.59.39-2.59,2.09,0,1.2.67,1.65,1.17,1.65a1.38,1.38,0,0,0,1.35-1.05,1.88,1.88,0,0,0,.07-.58Z"/><path class="cls-4" d="M135.7,434.09a5.24,5.24,0,0,1-2.07.37c-3.1,0-5.12-2.14-5.12-6.11,0-3.77,2.22-6.39,5.59-6.39a4.79,4.79,0,0,1,1.8.33l-.43,2.57a3.39,3.39,0,0,0-1.22-.23c-1.57,0-2.49,1.5-2.49,3.6s.92,3.56,2.44,3.56a2.57,2.57,0,0,0,1.22-.25Z"/><path class="cls-4" d="M143.76,434.09a5.24,5.24,0,0,1-2.07.37c-3.1,0-5.12-2.14-5.12-6.11,0-3.77,2.22-6.39,5.59-6.39a4.79,4.79,0,0,1,1.8.33l-.43,2.57a3.39,3.39,0,0,0-1.22-.23c-1.57,0-2.49,1.5-2.49,3.6s.92,3.56,2.44,3.56a2.57,2.57,0,0,0,1.22-.25Z"/><path class="cls-4" d="M146.6,420.63A1.64,1.64,0,0,1,145,419v-.11a1.68,1.68,0,1,1,1.65,1.78Zm-1.55,1.46h3.28v12.2h-3.28Z"/><path class="cls-4" d="M150.62,425.74c0-1.32-.05-2.5-.1-3.67h2.82l.18,1.4h0a3.46,3.46,0,0,1,2.94-1.6c2.32,0,3.24,1.85,3.24,4.57v7.83h-3.26v-7.63c0-1-.25-2-1.2-2a1.34,1.34,0,0,0-1.23,1.09,3.33,3.33,0,0,0-.17,1.13v7.43h-3.27Z"/><path class="cls-4" d="M164.79,429.33a2.32,2.32,0,0,0,2.57,2.59,7.06,7.06,0,0,0,2.32-.39l.43,2.32a9.17,9.17,0,0,1-3.32.57c-3.34,0-5.17-2.2-5.17-6,0-4.09,2.15-6.54,4.9-6.54s4.14,2.07,4.14,5.76a10.71,10.71,0,0,1-.1,1.7Zm2.9-2.29c0-1.55-.4-2.77-1.37-2.77s-1.5,1.54-1.53,2.77Z"/><path class="cls-4" d="M171.61,437.42a32.56,32.56,0,0,0,1.38-5.5l2.75-.21a29.09,29.09,0,0,1-2.4,5.52Z"/><path class="cls-4" d="M181.61,417.71a19.54,19.54,0,0,1,3.58-.33c1.79,0,3.41.25,4.48,1.25a4.28,4.28,0,0,1,1.35,3.49,4.45,4.45,0,0,1-2.59,4.19h0c1.15.48,1.72,1.53,2,3.35a26.6,26.6,0,0,0,1.07,4.57h-3.42a20,20,0,0,1-.85-4.05c-.3-2.07-.82-2.67-1.9-2.67h-.5v6.72h-3.27Zm3.27,7.33h.61c1.42,0,2.22-1.15,2.22-2.62s-.58-2.44-2-2.49a2.47,2.47,0,0,0-.81.1Z"/><path class="cls-4" d="M195.79,429.33a2.33,2.33,0,0,0,2,2.59,2.53,2.53,0,0,0,.55,0,7.33,7.33,0,0,0,2.32-.39l.42,2.32a9.12,9.12,0,0,1-3.31.57c-3.35,0-5.17-2.2-5.17-6,0-4.09,2.15-6.54,4.89-6.54s4.14,2.07,4.14,5.76a10.71,10.71,0,0,1-.1,1.7Zm2.9-2.29c0-1.55-.41-2.77-1.38-2.77s-1.5,1.54-1.52,2.77Z"/><path class="cls-4" d="M210.25,434.09a5.24,5.24,0,0,1-2.07.37c-3.09,0-5.11-2.14-5.11-6.11,0-3.77,2.22-6.39,5.59-6.39a4.59,4.59,0,0,1,1.79.33l-.42,2.57a3.44,3.44,0,0,0-1.23-.23c-1.57,0-2.49,1.5-2.49,3.6s.92,3.56,2.45,3.56a2.57,2.57,0,0,0,1.22-.25Z"/><path class="cls-4" d="M215.8,434.47c-2.92,0-4.66-2.32-4.66-6.26,0-4.37,2.29-6.34,4.71-6.34,2.9,0,4.62,2.42,4.62,6.26,0,5.07-2.82,6.34-4.64,6.34Zm.07-2.49c1.08,0,1.35-2.05,1.35-3.82s-.27-3.79-1.39-3.79-1.45,2.09-1.45,3.79c0,2.07.32,3.82,1.47,3.82Z"/><path class="cls-4" d="M222.25,425.74c0-1.32,0-2.5-.1-3.67H225l.18,1.42h0a3.55,3.55,0,0,1,2.9-1.62,2.63,2.63,0,0,1,2.66,1.67h.05a4.15,4.15,0,0,1,1.25-1.22,3.25,3.25,0,0,1,1.7-.45c2.19,0,3.17,1.75,3.17,4.67v7.73h-3.27v-7.18c0-1.38-.15-2.5-1.13-2.5a1.31,1.31,0,0,0-1.22,1.1,2.84,2.84,0,0,0-.1.87v7.71h-3.27v-7.63c0-.9-.07-2.05-1.1-2.05a1.35,1.35,0,0,0-1.22,1.1,2.88,2.88,0,0,0-.12.92v7.66h-3.22Z"/><path class="cls-4" d="M239.25,417h3.26v6.31h.06a2.88,2.88,0,0,1,2.54-1.45c2.35,0,3.44,2.7,3.44,6,0,4.29-1.69,6.63-4,6.63a2.52,2.52,0,0,1-2.4-1.62h-.07l-.18,1.42h-2.79c0-1.07.1-2.44.1-3.59Zm3.26,12.9a2.34,2.34,0,0,0,.13.79c.27.88.72,1.1,1.12,1.1,1.1,0,1.55-1.37,1.55-3.69,0-2.12-.47-3.47-1.57-3.47-.5,0-.93.53-1.1,1.12a2.75,2.75,0,0,0-.13.75Z"/><path class="cls-4" d="M252,420.63a1.64,1.64,0,0,1-1.62-1.67v-.11a1.68,1.68,0,0,1,1.55-1.79H252a1.79,1.79,0,0,1,0,3.57Zm-1.54,1.46h3.26v12.2h-3.26Z"/><path class="cls-4" d="M256,425.74c0-1.32-.05-2.5-.1-3.67h2.82l.17,1.4h.05a3.52,3.52,0,0,1,2.95-1.6c2.32,0,3.24,1.85,3.24,4.57v7.83h-3.26v-7.63c0-1-.26-2-1.21-2a1.32,1.32,0,0,0-1.22,1.09,3.33,3.33,0,0,0-.17,1.13v7.43H256Z"/><path class="cls-4" d="M275.66,431.48a18.59,18.59,0,0,0,.18,2.79h-2.92l-.18-1.19h-.07a3.19,3.19,0,0,1-2.7,1.39c-1.84,0-3.22-1.54-3.22-3.69,0-3.22,2.82-4.52,5.59-4.54V426a1.55,1.55,0,0,0-1.41-1.67,1.6,1.6,0,0,0-.31,0,4.58,4.58,0,0,0-2.49.73l-.6-2.22a8.32,8.32,0,0,1,3.82-.93c3.71,0,4.31,2.6,4.31,5.09Zm-3.22-3.14c-1.07,0-2.59.39-2.59,2.09,0,1.2.67,1.65,1.17,1.65a1.38,1.38,0,0,0,1.35-1.05,1.88,1.88,0,0,0,.07-.58Z"/></g><g class="cls-2"><path class="cls-4" d="M278,425.74c0-1.32,0-2.5-.1-3.67h2.82l.17,1.4h0a3.49,3.49,0,0,1,3-1.6c2.32,0,3.24,1.85,3.24,4.57v7.83h-3.27v-7.63c0-1-.25-2-1.2-2a1.31,1.31,0,0,0-1.22,1.09,3.33,3.33,0,0,0-.17,1.13v7.43H278Z"/><path class="cls-4" d="M293.25,418.9v3.19h2.39v2.32h-2.39V430c0,1.42.6,1.77,1.22,1.77a5.14,5.14,0,0,0,.88-.08v2.55a7.92,7.92,0,0,1-2,.22,3.39,3.39,0,0,1-2.37-.77c-.64-.65-1-1.57-1-3.49v-5.79h-1.45v-2.3H290V420Z"/></g><g class="cls-2"><path class="cls-4" d="M50.25,422.09l.92,5.47c.18,1.07.35,2.17.53,3.39h0c.15-1.24.29-2.27.47-3.39l1-5.47h3.22l-3.27,12.2h-3l-3.38-12.2Z"/></g><rect class="cls-8" x="37.76" y="1.09" width="249.36" height="308.68" rx="20.7"/><path class="cls-3" d="M69.51,26.69a4,4,0,0,0,2.5.68,4.69,4.69,0,0,0,1.34-.17,2.65,2.65,0,0,0,.88-.46,1.53,1.53,0,0,0,.49-.66,2.64,2.64,0,0,0,.14-.84,1.75,1.75,0,0,0-.47-1.15,3,3,0,0,0-1.75-.8l-2.1-.39a12.75,12.75,0,0,1-2.2-.59,5,5,0,0,1-1.59-.94,3.79,3.79,0,0,1-1-1.41,5.27,5.27,0,0,1-.34-2,4.19,4.19,0,0,1,1.76-3.51,5.9,5.9,0,0,1,2-.89,9.85,9.85,0,0,1,2.53-.31,9.22,9.22,0,0,1,3,.41,5.21,5.21,0,0,1,1.9,1.08,4.3,4.3,0,0,1,1.08,1.55,7.44,7.44,0,0,1,.4,1.8l-3.19.41a3.11,3.11,0,0,0-1-1.92A3.32,3.32,0,0,0,71.73,16a5.8,5.8,0,0,0-1.38.1,3,3,0,0,0-.9.39A1.39,1.39,0,0,0,69,17a1.66,1.66,0,0,0-.14.66,1.74,1.74,0,0,0,.51,1.4,3.87,3.87,0,0,0,1.73.7l2.22.43a7.63,7.63,0,0,1,3.85,1.69,4.41,4.41,0,0,1,1.22,3.36,4.89,4.89,0,0,1-.39,2,4.31,4.31,0,0,1-1.18,1.56,5.38,5.38,0,0,1-2,1,8.89,8.89,0,0,1-2.76.38A7.86,7.86,0,0,1,67,28.79a5.5,5.5,0,0,1-1.89-4.27h3.46A2.92,2.92,0,0,0,69.51,26.69Z"/><path class="cls-3" d="M89.66,28.9a5.27,5.27,0,0,1-3.84,1.25,6.64,6.64,0,0,1-2.57-.45,4.52,4.52,0,0,1-1.78-1.27,5.38,5.38,0,0,1-1-2,8.83,8.83,0,0,1-.34-2.56,7.76,7.76,0,0,1,.4-2.57,5.4,5.4,0,0,1,1.14-2,5,5,0,0,1,1.8-1.21A6.43,6.43,0,0,1,86,17.64a6.73,6.73,0,0,1,2.09.3,4.43,4.43,0,0,1,1.51.85,4.08,4.08,0,0,1,1,1.3A6,6,0,0,1,91,21.76l-3.19.43a3.07,3.07,0,0,0-.52-1.49,1.62,1.62,0,0,0-1.41-.56,2.29,2.29,0,0,0-1.2.31,2.25,2.25,0,0,0-.76.83,3.81,3.81,0,0,0-.39,1.18,8.18,8.18,0,0,0-.11,1.4,8.41,8.41,0,0,0,.11,1.42,3.91,3.91,0,0,0,.38,1.2,2.07,2.07,0,0,0,.75.83,2.29,2.29,0,0,0,1.2.31,2,2,0,0,0,1.43-.53,2.47,2.47,0,0,0,.61-1.56h3.22A5.17,5.17,0,0,1,89.66,28.9Z"/><path class="cls-3" d="M98.83,29.59a4.55,4.55,0,0,1-2.26.49,5.07,5.07,0,0,1-1.5-.2,3.68,3.68,0,0,1-1.25-.63,3.26,3.26,0,0,1-.85-1.1,3.66,3.66,0,0,1-.31-1.6,3.43,3.43,0,0,1,.54-2,3.78,3.78,0,0,1,1.43-1.2,7,7,0,0,1,2-.61,18.52,18.52,0,0,1,2.23-.23l1.52-.07v-.59a1.66,1.66,0,0,0-.6-1.49A2.48,2.48,0,0,0,98.36,20c-1.25,0-2,.48-2.15,1.43l-3-.29a3.74,3.74,0,0,1,1.63-2.69,6.6,6.6,0,0,1,3.53-.82,7,7,0,0,1,2.31.33,3.66,3.66,0,0,1,1.53.93,3.56,3.56,0,0,1,.84,1.49,7.09,7.09,0,0,1,.26,2v7.46h-3v-1.5A6.51,6.51,0,0,1,98.83,29.59Zm.1-5a7.33,7.33,0,0,0-1.61.21,2.68,2.68,0,0,0-.94.39,1.16,1.16,0,0,0-.44.56,2.38,2.38,0,0,0-.11.7,1.11,1.11,0,0,0,.41.93,1.78,1.78,0,0,0,1.13.34,3.31,3.31,0,0,0,2-.57,2.44,2.44,0,0,0,.7-.8,2.49,2.49,0,0,0,.26-1.26v-.61Z"/><path class="cls-3" d="M109.16,18V19.6a4.41,4.41,0,0,1,1.67-1.51,4.49,4.49,0,0,1,2-.47,3.92,3.92,0,0,1,3,1.05,4.79,4.79,0,0,1,1,3.32v7.8h-3.21V22.41a2.36,2.36,0,0,0-.47-1.7,1.79,1.79,0,0,0-1.27-.45,2.85,2.85,0,0,0-1,.18,2.76,2.76,0,0,0-.83.52,2.67,2.67,0,0,0-.53.76,2,2,0,0,0-.22,1v7.07h-3.22V18Z"/><path class="cls-3" d="M123.38,20.44V18h1.87V14.82h3.17V18h2.71v2.47h-2.72v5.45a1.62,1.62,0,0,0,.38,1.26,1.46,1.46,0,0,0,1,.33h.64a4.67,4.67,0,0,0,.65-.13l.45,2.33a8.16,8.16,0,0,1-1.28.29,9.39,9.39,0,0,1-1.19.08,3.93,3.93,0,0,1-2.88-1,4.26,4.26,0,0,1-.93-3.13V20.44Z"/><path class="cls-3" d="M136.25,13.62v5.84a4.34,4.34,0,0,1,3.63-1.85,3.92,3.92,0,0,1,3,1.05,4.79,4.79,0,0,1,1,3.32v7.81h-3.17V22.41a2.36,2.36,0,0,0-.47-1.7,1.79,1.79,0,0,0-1.27-.45,2.85,2.85,0,0,0-1,.18,2.76,2.76,0,0,0-.83.52,2.67,2.67,0,0,0-.53.76,2,2,0,0,0-.22,1v7.07h-3.17V13.62Z"/><path class="cls-3" d="M155.72,29.09a5.78,5.78,0,0,1-3.72,1,5.67,5.67,0,0,1-4.43-1.63,6.62,6.62,0,0,1-1.48-4.62,7.5,7.5,0,0,1,.43-2.66,5.54,5.54,0,0,1,1.21-2A5.12,5.12,0,0,1,149.6,18a6.56,6.56,0,0,1,2.4-.42,5.16,5.16,0,0,1,4.08,1.56,6.11,6.11,0,0,1,1.37,4.21v1.27h-8.2A3.59,3.59,0,0,0,150,26.8a2.51,2.51,0,0,0,2,.8,2,2,0,0,0,2.28-1.51h3.08A4.59,4.59,0,0,1,155.72,29.09Zm-1.92-8.46a2.37,2.37,0,0,0-1.87-.67,2.8,2.8,0,0,0-1.11.2,2.21,2.21,0,0,0-.8.55,2.69,2.69,0,0,0-.51.82,3.43,3.43,0,0,0-.21,1h5.1a2.8,2.8,0,0,0-.6-1.87Z"/><path class="cls-3" d="M172.31,30.2a8.35,8.35,0,0,1-3.24-.59,6.69,6.69,0,0,1-2.43-1.7,7.72,7.72,0,0,1-1.52-2.67,10.59,10.59,0,0,1-.54-3.53,10.64,10.64,0,0,1,.54-3.54,7.29,7.29,0,0,1,1.54-2.67,6.69,6.69,0,0,1,2.43-1.7,9.07,9.07,0,0,1,6.45,0A6.73,6.73,0,0,1,178,15.5a7.83,7.83,0,0,1,1.5,2.67,11.17,11.17,0,0,1,.52,3.54,10.89,10.89,0,0,1-.52,3.54,7.17,7.17,0,0,1-1.54,2.64l2,2.42-2,1.72-2.06-2.53A8.34,8.34,0,0,1,172.31,30.2ZM174,23l1.84,2.31a7.81,7.81,0,0,0,.67-3.57,7.09,7.09,0,0,0-1-4.14,3.61,3.61,0,0,0-3.18-1.48,3.71,3.71,0,0,0-3.19,1.46,7,7,0,0,0-1.05,4.14,7.13,7.13,0,0,0,1.05,4.17,3.66,3.66,0,0,0,3.19,1.49,5.69,5.69,0,0,0,.83-.06,3.47,3.47,0,0,0,.77-.19l-2-2.43Z"/><path class="cls-3" d="M188.52,13.62a9.49,9.49,0,0,1,3.13.44,5.13,5.13,0,0,1,1.94,1.16,3.88,3.88,0,0,1,1,1.58,5.51,5.51,0,0,1,.27,1.71,5.57,5.57,0,0,1-.56,2.63,4.44,4.44,0,0,1-1.9,1.79l3.28,6.86H192l-2.78-6.07h-3.17v6.07h-3.33V13.62Zm1.54,7.12a2,2,0,0,0,.82-.47,1.53,1.53,0,0,0,.42-.74,3.74,3.74,0,0,0,.11-1,2.62,2.62,0,0,0-.13-.83,1.77,1.77,0,0,0-.47-.7,2.11,2.11,0,0,0-.9-.47,4.82,4.82,0,0,0-1.46-.17h-2.33v4.5h2.62A4.2,4.2,0,0,0,190.06,20.74Z"/><path class="cls-3" d="M211.51,28.9a5.37,5.37,0,0,1-3.84,1.25,6.69,6.69,0,0,1-2.58-.45,4.52,4.52,0,0,1-1.78-1.27,5.38,5.38,0,0,1-1-2,8.83,8.83,0,0,1-.34-2.56,7.76,7.76,0,0,1,.4-2.57,5.4,5.4,0,0,1,1.14-2,5.11,5.11,0,0,1,1.8-1.21,6.62,6.62,0,0,1,2.49-.45,6.8,6.8,0,0,1,2.1.3,4.43,4.43,0,0,1,1.51.85,4,4,0,0,1,1,1.3,6.08,6.08,0,0,1,.45,1.67l-3.19.43a3.21,3.21,0,0,0-.52-1.46,1.67,1.67,0,0,0-1.41-.56,2.29,2.29,0,0,0-1.2.31,2.25,2.25,0,0,0-.76.83,3.57,3.57,0,0,0-.39,1.18,8.18,8.18,0,0,0-.12,1.4,8.42,8.42,0,0,0,.12,1.42,3.91,3.91,0,0,0,.38,1.2,2.07,2.07,0,0,0,.75.83,2.29,2.29,0,0,0,1.2.31,2,2,0,0,0,1.47-.55,2.47,2.47,0,0,0,.61-1.56H213A5.2,5.2,0,0,1,211.51,28.9Z"/><path class="cls-3" d="M216.38,28.52a6.5,6.5,0,0,1-1.56-4.66,7.77,7.77,0,0,1,.42-2.62,5.38,5.38,0,0,1,1.2-2,5.17,5.17,0,0,1,1.89-1.15,6.73,6.73,0,0,1,2.47-.43,6.8,6.8,0,0,1,2.45.43,5.28,5.28,0,0,1,1.89,1.23,5.23,5.23,0,0,1,1.19,2,8,8,0,0,1,.41,2.62,7.89,7.89,0,0,1-.42,2.64,5.84,5.84,0,0,1-1.2,2,5.15,5.15,0,0,1-1.87,1.14,6.73,6.73,0,0,1-2.47.43A5.83,5.83,0,0,1,216.38,28.52Zm6.45-1.88a4.92,4.92,0,0,0,.66-2.78,4.89,4.89,0,0,0-.66-2.77,2.65,2.65,0,0,0-3.72-.34,2.73,2.73,0,0,0-.34.34,4.89,4.89,0,0,0-.66,2.77,5,5,0,0,0,.65,2.79,2.62,2.62,0,0,0,3.67.4,2.52,2.52,0,0,0,.4-.4Z"/><path class="cls-3" d="M233.7,30.15A4.31,4.31,0,0,1,230,28.48a7.79,7.79,0,0,1-1.22-4.65,8.62,8.62,0,0,1,.35-2.52,5.88,5.88,0,0,1,1-2,4.42,4.42,0,0,1,1.62-1.22,5,5,0,0,1,2.15-.45,5.2,5.2,0,0,1,1.75.31,4.06,4.06,0,0,1,1.61,1.2V13.62h3.17V29.79h-3.08V28.23A4.26,4.26,0,0,1,233.7,30.15Zm3.41-8.22a2.5,2.5,0,0,0-.62-1.11,1.93,1.93,0,0,0-.89-.53,4.21,4.21,0,0,0-1-.12,2.29,2.29,0,0,0-1,.2,2.2,2.2,0,0,0-.82.63,3.26,3.26,0,0,0-.55,1.14,5.89,5.89,0,0,0-.21,1.67,7.1,7.1,0,0,0,.2,1.78,3.26,3.26,0,0,0,.53,1.15,2,2,0,0,0,.79.64,2.47,2.47,0,0,0,1,.19,2.45,2.45,0,0,0,2.52-1.75,5.56,5.56,0,0,0,.22-1.67v-.41A6.47,6.47,0,0,0,237.11,21.93Z"/><path class="cls-3" d="M252.49,29.09a5.81,5.81,0,0,1-3.73,1,5.7,5.7,0,0,1-4.43-1.63,6.72,6.72,0,0,1-1.48-4.62,7.5,7.5,0,0,1,.43-2.66,5.62,5.62,0,0,1,1.21-2A5.21,5.21,0,0,1,246.36,18a6.56,6.56,0,0,1,2.4-.42,5.18,5.18,0,0,1,4.09,1.56,6.18,6.18,0,0,1,1.4,4.29v1.27h-8.2a3.51,3.51,0,0,0,.73,2.23,2.48,2.48,0,0,0,2,.8A2,2,0,0,0,251,26.09h3.08A4.64,4.64,0,0,1,252.49,29.09Zm-1.93-8.46a2.37,2.37,0,0,0-1.87-.67,2.8,2.8,0,0,0-1.11.2,2.44,2.44,0,0,0-.8.55,2.69,2.69,0,0,0-.51.82,3.12,3.12,0,0,0-.2,1h5.09a2.8,2.8,0,0,0-.6-1.87Z"/><path class="cls-3" d="M67.63,47.61V45.14h1.86V42h3.17v3.15h2.71v2.47H72.66v5.48A1.62,1.62,0,0,0,73,54.35a1.46,1.46,0,0,0,1,.33h.64a3.55,3.55,0,0,0,.65-.12l.45,2.33a7.14,7.14,0,0,1-1.28.28,7.84,7.84,0,0,1-1.19.08,4,4,0,0,1-2.88-.92,4.32,4.32,0,0,1-.94-3.24V47.61Z"/><path class="cls-3" d="M78.25,55.69A6.5,6.5,0,0,1,76.69,51a7.77,7.77,0,0,1,.42-2.62,5.38,5.38,0,0,1,1.2-2,5.15,5.15,0,0,1,1.94-1.2,6.73,6.73,0,0,1,2.47-.43,6.84,6.84,0,0,1,2.49.43,5,5,0,0,1,1.89,1.23,5.43,5.43,0,0,1,1.19,2,8.71,8.71,0,0,1,0,5.25,5.38,5.38,0,0,1-1.2,2,5.16,5.16,0,0,1-1.9,1.25,6.68,6.68,0,0,1-2.46.43A5.79,5.79,0,0,1,78.25,55.69Zm6.44-1.88A4.85,4.85,0,0,0,85.36,51a4.8,4.8,0,0,0-.67-2.77,2.63,2.63,0,0,0-3.7-.35,2.32,2.32,0,0,0-.35.35A4.8,4.8,0,0,0,80,51a5,5,0,0,0,.66,2.79,2.31,2.31,0,0,0,2,1,2.27,2.27,0,0,0,2.08-1Z"/><path class="cls-3" d="M101.53,56.75a4.4,4.4,0,0,1-2.25.5,5.91,5.91,0,0,1-1.51-.2,3.64,3.64,0,0,1-1.24-.63,3.16,3.16,0,0,1-.85-1.1,3.82,3.82,0,0,1-.32-1.6,3.37,3.37,0,0,1,.55-2,3.59,3.59,0,0,1,1.42-1.2,7,7,0,0,1,2-.61,16.84,16.84,0,0,1,2.24-.23l1.51-.07V49a1.66,1.66,0,0,0-.6-1.49,2.44,2.44,0,0,0-1.43-.44c-1.26,0-2,.48-2.15,1.43L96,48.25a3.71,3.71,0,0,1,1.63-2.69,6.6,6.6,0,0,1,3.53-.82,7.25,7.25,0,0,1,2.31.32A3.85,3.85,0,0,1,105,46a3.81,3.81,0,0,1,.84,1.49,7.09,7.09,0,0,1,.26,2V57h-3v-1.5A6.08,6.08,0,0,1,101.53,56.75Zm.11-5A8.75,8.75,0,0,0,100,52a3,3,0,0,0-.94.4,1.11,1.11,0,0,0-.44.56,2.06,2.06,0,0,0-.12.7,1.17,1.17,0,0,0,.41.93,1.77,1.77,0,0,0,1.13.33,3.3,3.3,0,0,0,2-.56,2.48,2.48,0,0,0,.7-.81,2.41,2.41,0,0,0,.27-1.21v-.61Z"/><path class="cls-3" d="M118,56.09a5.27,5.27,0,0,1-3.84,1.26,6.69,6.69,0,0,1-2.58-.45,4.52,4.52,0,0,1-1.78-1.27,5.38,5.38,0,0,1-1-2,8.72,8.72,0,0,1-.37-2.54,7.76,7.76,0,0,1,.4-2.57,5.4,5.4,0,0,1,1.14-2,5.1,5.1,0,0,1,1.83-1.28,7.28,7.28,0,0,1,4.59-.15,4.43,4.43,0,0,1,1.51.85,4,4,0,0,1,1,1.3,6.29,6.29,0,0,1,.4,1.66l-3.19.43a3.21,3.21,0,0,0-.52-1.46,1.67,1.67,0,0,0-1.41-.56,2.12,2.12,0,0,0-1.2.31,2.3,2.3,0,0,0-.76.82,4.16,4.16,0,0,0-.39,1.19,8.18,8.18,0,0,0-.12,1.4,8.42,8.42,0,0,0,.12,1.42,3.91,3.91,0,0,0,.38,1.2,2.14,2.14,0,0,0,.75.83,2.19,2.19,0,0,0,1.2.3,2,2,0,0,0,1.47-.54,2.47,2.47,0,0,0,.61-1.56h3.22A5.19,5.19,0,0,1,118,56.09Z"/><path class="cls-3" d="M130.83,56.09A5.27,5.27,0,0,1,127,57.35a6.69,6.69,0,0,1-2.58-.45,4.62,4.62,0,0,1-1.78-1.27,5.38,5.38,0,0,1-1-2,9.46,9.46,0,0,1-.38-2.54,8,8,0,0,1,.4-2.57,5.4,5.4,0,0,1,1.14-2,5,5,0,0,1,1.84-1.28,7.38,7.38,0,0,1,4.62-.15,4.43,4.43,0,0,1,1.51.85,4,4,0,0,1,1,1.3,5.37,5.37,0,0,1,.45,1.67l-3.19.43a3.21,3.21,0,0,0-.52-1.46,1.62,1.62,0,0,0-1.41-.56,2.12,2.12,0,0,0-1.2.31,2.19,2.19,0,0,0-.75.82,3.8,3.8,0,0,0-.4,1.19,8.18,8.18,0,0,0-.11,1.4,8.41,8.41,0,0,0,.11,1.42,3.91,3.91,0,0,0,.38,1.2,2,2,0,0,0,1.95,1.13,1.92,1.92,0,0,0,1.47-.54,2.48,2.48,0,0,0,.62-1.56h3.09A5.14,5.14,0,0,1,130.83,56.09Z"/><path class="cls-3" d="M143.78,56.29a5.81,5.81,0,0,1-3.73,1,5.68,5.68,0,0,1-4.42-1.63,6.59,6.59,0,0,1-1.48-4.57,7.5,7.5,0,0,1,.43-2.66,5.54,5.54,0,0,1,1.21-2,5,5,0,0,1,1.87-1.24,6.75,6.75,0,0,1,2.39-.41,5.13,5.13,0,0,1,4.09,1.56,6.11,6.11,0,0,1,1.37,4.21v1.27h-8.19a3.59,3.59,0,0,0,.72,2.23,2.55,2.55,0,0,0,2,.8,2,2,0,0,0,2.22-1.58h3.08A4.65,4.65,0,0,1,143.78,56.29Zm-1.92-8.46a2.36,2.36,0,0,0-1.87-.68,2.64,2.64,0,0,0-1.11.21,2.24,2.24,0,0,0-.81.55,2.69,2.69,0,0,0-.51.82,3.12,3.12,0,0,0-.2,1h5.1A2.77,2.77,0,0,0,141.86,47.83Z"/><path class="cls-3" d="M151,54.56a3.79,3.79,0,0,0,1.63.31,3.43,3.43,0,0,0,1.61-.28,1,1,0,0,0,.49-.92,1.15,1.15,0,0,0-.31-.79,2,2,0,0,0-1.16-.47l-1.62-.32a6.89,6.89,0,0,1-3.21-1.16,3,3,0,0,1-1-2.5,3.16,3.16,0,0,1,.37-1.54,3.37,3.37,0,0,1,1.06-1.16,5.33,5.33,0,0,1,1.61-.73,7.7,7.7,0,0,1,2.08-.26,8.5,8.5,0,0,1,2.35.28,4.48,4.48,0,0,1,1.55.76,3,3,0,0,1,.91,1.13,6.32,6.32,0,0,1,.44,1.4l-2.83.37a2,2,0,0,0-.71-1.2,2.72,2.72,0,0,0-1.65-.39,4.78,4.78,0,0,0-1,.1,2.16,2.16,0,0,0-.65.26,1,1,0,0,0-.34.36.88.88,0,0,0-.11.39,1,1,0,0,0,.35.83,3.86,3.86,0,0,0,1.37.44l1.5.25a9.88,9.88,0,0,1,2.06.52,3.92,3.92,0,0,1,1.3.78,2.52,2.52,0,0,1,.68,1.1,4.87,4.87,0,0,1,.19,1.47,3.23,3.23,0,0,1-1.26,2.68,6.25,6.25,0,0,1-3.92,1,10.34,10.34,0,0,1-2-.19,5.1,5.1,0,0,1-1.72-.67,3.77,3.77,0,0,1-1.24-1.27,4.27,4.27,0,0,1-.56-2h3A1.68,1.68,0,0,0,151,54.56Z"/><path class="cls-3" d="M163.17,54.56a3.79,3.79,0,0,0,1.63.31,3.35,3.35,0,0,0,1.62-.28,1,1,0,0,0,.49-.92,1.17,1.17,0,0,0-.31-.79,2,2,0,0,0-1.17-.47l-1.63-.32a6.81,6.81,0,0,1-3.2-1.16,3,3,0,0,1-1-2.5,3.16,3.16,0,0,1,.37-1.54A3.43,3.43,0,0,1,161,45.73a5.38,5.38,0,0,1,1.62-.73,7.58,7.58,0,0,1,2.07-.26,8.16,8.16,0,0,1,2.36.28,4.48,4.48,0,0,1,1.55.76,3.12,3.12,0,0,1,.91,1.13,6.32,6.32,0,0,1,.44,1.4l-2.83.37a2.05,2.05,0,0,0-.72-1.2,2.71,2.71,0,0,0-1.64-.39,4.78,4.78,0,0,0-1,.1,2.33,2.33,0,0,0-.66.26,1,1,0,0,0-.34.36,1,1,0,0,0-.1.39A1,1,0,0,0,163,49a3.5,3.5,0,0,0,1.37.44l1.5.25a10.54,10.54,0,0,1,2.06.52,3.92,3.92,0,0,1,1.3.78,2.52,2.52,0,0,1,.68,1.1,4.87,4.87,0,0,1,.19,1.47,3.22,3.22,0,0,1-1.27,2.68,6.22,6.22,0,0,1-3.91,1,10.34,10.34,0,0,1-2-.19,4.9,4.9,0,0,1-1.72-.67A3.89,3.89,0,0,1,160,55.14a4.14,4.14,0,0,1-.55-2h3A1.68,1.68,0,0,0,163.17,54.56Z"/><path class="cls-3" d="M176.1,47.61V45.14H178V42h3.17v3.15h2.72v2.47h-2.72v5.48a1.61,1.61,0,0,0,.39,1.26,1.46,1.46,0,0,0,1,.33h.65a3.55,3.55,0,0,0,.65-.12l.45,2.33a7.14,7.14,0,0,1-1.28.28,7.84,7.84,0,0,1-1.19.08,4,4,0,0,1-2.89-.92,4.33,4.33,0,0,1-1-3.24V47.61Z"/><path class="cls-3" d="M189,40.79v5.84a4.5,4.5,0,0,1,1.63-1.4,4.39,4.39,0,0,1,1.95-.45,3.92,3.92,0,0,1,3,1,4.79,4.79,0,0,1,1,3.32V57h-3.21V49.58a2.31,2.31,0,0,0-.48-1.7,1.77,1.77,0,0,0-1.26-.46,2.76,2.76,0,0,0-1.06.19,2.47,2.47,0,0,0-1.36,1.28,2.14,2.14,0,0,0-.21,1V57h-3.17V40.79Z"/><path class="cls-3" d="M208.44,56.29a5.81,5.81,0,0,1-3.73,1,5.67,5.67,0,0,1-4.46-1.6,6.66,6.66,0,0,1-1.45-4.6,7.74,7.74,0,0,1,.44-2.66,5.54,5.54,0,0,1,1.21-2,5.19,5.19,0,0,1,1.86-1.24,6.77,6.77,0,0,1,2.4-.41,5.13,5.13,0,0,1,4.09,1.56,6.11,6.11,0,0,1,1.37,4.21v1.27H202a3.66,3.66,0,0,0,.73,2.23,2.55,2.55,0,0,0,2,.8,2,2,0,0,0,2.22-1.58H210A4.67,4.67,0,0,1,208.44,56.29Zm-1.93-8.46a2.34,2.34,0,0,0-1.86-.68,2.64,2.64,0,0,0-1.11.21,2.24,2.24,0,0,0-.81.55,2.69,2.69,0,0,0-.51.82,3.12,3.12,0,0,0-.2,1h5.1a2.78,2.78,0,0,0-.61-1.9Z"/><path class="cls-3" d="M221.18,53.86a4,4,0,0,0,2.51.68,4.58,4.58,0,0,0,1.33-.17,2.69,2.69,0,0,0,.89-.46,1.69,1.69,0,0,0,.48-.67,2.34,2.34,0,0,0,.15-.83,1.81,1.81,0,0,0-.48-1.19,3,3,0,0,0-1.74-.81L222.25,50a12.64,12.64,0,0,1-2.19-.59,5,5,0,0,1-1.6-.94,3.64,3.64,0,0,1-1-1.42,5.27,5.27,0,0,1-.34-2,4.11,4.11,0,0,1,1.75-3.51,5.9,5.9,0,0,1,2-.89,9.45,9.45,0,0,1,2.54-.31,8.86,8.86,0,0,1,2.94.41,5.38,5.38,0,0,1,1.9,1.09,4,4,0,0,1,1,1.55,7.25,7.25,0,0,1,.47,1.83l-3.2.41a3.13,3.13,0,0,0-1-1.93,3.37,3.37,0,0,0-2.16-.58,5.66,5.66,0,0,0-1.42.14,2.84,2.84,0,0,0-.89.39,1.22,1.22,0,0,0-.48.55,1.65,1.65,0,0,0-.13.66,1.73,1.73,0,0,0,.51,1.36,3.87,3.87,0,0,0,1.73.7l2.22.43a7.71,7.71,0,0,1,3.93,1.71,4.45,4.45,0,0,1,1.22,3.36,4.74,4.74,0,0,1-.4,2A4.49,4.49,0,0,1,228.48,56a5.7,5.7,0,0,1-2,1,9,9,0,0,1-2.77.38A7.88,7.88,0,0,1,218.65,56a5.53,5.53,0,0,1-1.89-4.27h3.49A3,3,0,0,0,221.18,53.86Z"/><path class="cls-3" d="M236.06,53.86a4,4,0,0,0,2.5.68,4.69,4.69,0,0,0,1.34-.17,2.65,2.65,0,0,0,.88-.46,1.62,1.62,0,0,0,.49-.67,2.16,2.16,0,0,0,.14-.83,1.75,1.75,0,0,0-.47-1.19,3.09,3.09,0,0,0-1.74-.81L237.09,50a12.75,12.75,0,0,1-2.2-.59,5,5,0,0,1-1.59-.94,3.83,3.83,0,0,1-1-1.42,5.27,5.27,0,0,1-.34-2,4.14,4.14,0,0,1,1.76-3.51,5.9,5.9,0,0,1,2-.89,9.43,9.43,0,0,1,2.53-.31,9.19,9.19,0,0,1,2.95.41,5.21,5.21,0,0,1,1.9,1.08,4.3,4.3,0,0,1,1.08,1.55,7.67,7.67,0,0,1,.46,1.83l-3.19.41a3.21,3.21,0,0,0-1-1.93,3.31,3.31,0,0,0-2.16-.58,5.58,5.58,0,0,0-1.41.14,3,3,0,0,0-.9.39,1.39,1.39,0,0,0-.47.55,1.66,1.66,0,0,0-.14.66,1.73,1.73,0,0,0,.51,1.36,3.87,3.87,0,0,0,1.73.7l2.22.43a7.61,7.61,0,0,1,3.87,1.72,4.37,4.37,0,0,1,1.22,3.36,4.89,4.89,0,0,1-.39,2A4.64,4.64,0,0,1,243.35,56a5.38,5.38,0,0,1-2,1,8.89,8.89,0,0,1-2.76.38A7.88,7.88,0,0,1,233.53,56a5.53,5.53,0,0,1-1.89-4.27h3.42A2.89,2.89,0,0,0,236.06,53.86Z"/><path class="cls-3" d="M250.67,40.79V57H247.3V40.79Z"/><rect class="cls-3" x="54.53" y="76.58" width="215.81" height="215.81" rx="12.68"/><rect x="66.39" y="88.44" width="5.19" height="36.34"/><rect x="66.39" y="129.97" width="5.19" height="5.19"/><rect x="66.39" y="150.74" width="5.19" height="10.38"/><rect x="66.39" y="176.7" width="5.19" height="5.19"/><rect x="66.39" y="187.08" width="5.19" height="15.58"/><rect x="66.39" y="207.85" width="5.19" height="31.15"/><rect x="66.39" y="244.19" width="5.19" height="36.34"/><rect x="71.58" y="88.44" width="5.19" height="5.19"/><rect x="71.58" y="119.59" width="5.19" height="5.19"/><rect x="71.58" y="135.16" width="5.19" height="5.19"/><rect x="71.58" y="145.55" width="5.19" height="10.38"/><rect x="71.58" y="161.12" width="5.19" height="10.38"/><rect x="71.58" y="176.7" width="5.19" height="5.19"/><rect x="71.58" y="192.27" width="5.19" height="5.19"/><rect x="71.58" y="213.04" width="5.19" height="5.19"/><rect x="71.58" y="244.19" width="5.19" height="5.19"/><rect x="71.58" y="275.34" width="5.19" height="5.19"/><rect x="76.77" y="88.44" width="5.19" height="5.19"/><rect x="76.77" y="98.82" width="5.19" height="15.58"/><rect x="76.77" y="119.59" width="5.19" height="5.19"/><rect x="76.77" y="129.97" width="5.19" height="10.38"/><rect x="76.77" y="145.55" width="5.19" height="5.19"/><rect x="76.77" y="155.93" width="5.19" height="5.19"/><rect x="76.77" y="181.89" width="5.19" height="5.19"/><rect x="76.77" y="192.27" width="5.19" height="5.19"/><rect x="76.77" y="207.85" width="5.19" height="20.77"/><rect x="76.77" y="233.81" width="5.19" height="5.19"/><rect x="76.77" y="244.19" width="5.19" height="5.19"/><rect x="76.77" y="254.58" width="5.19" height="15.58"/><rect x="76.77" y="275.34" width="5.19" height="5.19"/><rect x="81.96" y="88.44" width="5.19" height="5.19"/><rect x="81.96" y="98.82" width="5.19" height="15.58"/><rect x="81.96" y="119.59" width="5.19" height="5.19"/><rect x="81.96" y="129.97" width="5.19" height="20.77"/><rect x="81.96" y="161.12" width="5.19" height="5.19"/><rect x="81.96" y="176.7" width="5.19" height="10.38"/><rect x="81.96" y="192.27" width="5.19" height="5.19"/><rect x="81.96" y="207.85" width="5.19" height="5.19"/><rect x="81.96" y="218.23" width="5.19" height="15.58"/><rect x="81.96" y="244.19" width="5.19" height="5.19"/><rect x="81.96" y="254.58" width="5.19" height="15.58"/><rect x="81.96" y="275.34" width="5.19" height="5.19"/><rect x="87.16" y="88.44" width="5.19" height="5.19"/><rect x="87.16" y="98.82" width="5.19" height="15.58"/><rect x="87.16" y="119.59" width="5.19" height="5.19"/><rect x="87.16" y="129.97" width="5.19" height="10.38"/><rect x="87.16" y="166.32" width="5.19" height="5.19"/><rect x="87.16" y="181.89" width="5.19" height="5.19"/><rect x="87.16" y="192.27" width="5.19" height="36.34"/><rect x="87.16" y="233.81" width="5.19" height="5.19"/><rect x="87.16" y="244.19" width="5.19" height="5.19"/><rect x="87.16" y="254.58" width="5.19" height="15.58"/><rect x="87.16" y="275.34" width="5.19" height="5.19"/><rect x="92.35" y="88.44" width="5.19" height="5.19"/><rect x="92.35" y="119.59" width="5.19" height="5.19"/><rect x="92.35" y="129.97" width="5.19" height="20.77"/><rect x="92.35" y="176.7" width="5.19" height="20.77"/><rect x="92.35" y="202.66" width="5.19" height="5.19"/><rect x="92.35" y="213.04" width="5.19" height="5.19"/><rect x="92.35" y="223.42" width="5.19" height="5.19"/><rect x="92.35" y="244.19" width="5.19" height="5.19"/><rect x="92.35" y="275.34" width="5.19" height="5.19"/><rect x="97.54" y="88.44" width="5.19" height="36.34"/><rect x="97.54" y="129.97" width="5.19" height="5.19"/><rect x="97.54" y="140.36" width="5.19" height="5.19"/><rect x="97.54" y="150.74" width="5.19" height="5.19"/><rect x="97.54" y="161.12" width="5.19" height="5.19"/><rect x="97.54" y="171.51" width="5.19" height="5.19"/><rect x="97.54" y="181.89" width="5.19" height="5.19"/><rect x="97.54" y="192.27" width="5.19" height="5.19"/><rect x="97.54" y="202.66" width="5.19" height="5.19"/><rect x="97.54" y="213.04" width="5.19" height="5.19"/><rect x="97.54" y="223.42" width="5.19" height="5.19"/><rect x="97.54" y="233.81" width="5.19" height="5.19"/><rect x="97.54" y="244.19" width="5.19" height="36.34"/><rect x="102.73" y="135.16" width="5.19" height="5.19"/><rect x="102.73" y="155.93" width="5.19" height="31.15"/><rect x="102.73" y="197.47" width="5.19" height="10.38"/><rect x="102.73" y="213.04" width="5.19" height="5.19"/><rect x="102.73" y="228.62" width="5.19" height="5.19"/><rect x="107.92" y="98.82" width="5.19" height="31.15"/><rect x="107.92" y="140.36" width="5.19" height="5.19"/><rect x="107.92" y="150.74" width="5.19" height="10.38"/><rect x="107.92" y="187.08" width="5.19" height="5.19"/><rect x="107.92" y="197.47" width="5.19" height="5.19"/><rect x="107.92" y="207.85" width="5.19" height="5.19"/><rect x="107.92" y="218.23" width="5.19" height="15.58"/><rect x="107.92" y="239" width="5.19" height="5.19"/><rect x="107.92" y="249.38" width="5.19" height="20.77"/><rect x="107.92" y="275.34" width="5.19" height="5.19"/><rect x="113.11" y="88.44" width="5.19" height="25.96"/><rect x="113.11" y="124.78" width="5.19" height="5.19"/><rect x="113.11" y="135.16" width="5.19" height="25.96"/><rect x="113.11" y="166.32" width="5.19" height="5.19"/><rect x="113.11" y="187.08" width="5.19" height="10.38"/><rect x="113.11" y="207.85" width="5.19" height="5.19"/><rect x="113.11" y="233.81" width="5.19" height="5.19"/><rect x="113.11" y="249.38" width="5.19" height="15.58"/><rect x="113.11" y="275.34" width="5.19" height="5.19"/><rect x="118.31" y="104.01" width="5.19" height="5.19"/><rect x="118.31" y="114.4" width="5.19" height="10.38"/><rect x="118.31" y="135.16" width="5.19" height="46.73"/><rect x="118.31" y="202.66" width="5.19" height="5.19"/><rect x="118.31" y="223.42" width="5.19" height="5.19"/><rect x="118.31" y="233.81" width="5.19" height="5.19"/><rect x="118.31" y="249.38" width="5.19" height="10.38"/><rect x="118.31" y="264.96" width="5.19" height="10.38"/><rect x="123.5" y="93.63" width="5.19" height="5.19"/><rect x="123.5" y="109.21" width="5.19" height="10.38"/><rect x="123.5" y="140.36" width="5.19" height="10.38"/><rect x="123.5" y="171.51" width="5.19" height="20.77"/><rect x="123.5" y="197.47" width="5.19" height="5.19"/><rect x="123.5" y="213.04" width="5.19" height="10.38"/><rect x="123.5" y="228.62" width="5.19" height="5.19"/><rect x="123.5" y="239" width="5.19" height="15.58"/><rect x="123.5" y="259.77" width="5.19" height="10.38"/><rect x="123.5" y="275.34" width="5.19" height="5.19"/><rect x="128.69" y="88.44" width="5.19" height="5.19"/><rect x="128.69" y="104.01" width="5.19" height="5.19"/><rect x="128.69" y="114.4" width="5.19" height="15.58"/><rect x="128.69" y="150.74" width="5.19" height="10.38"/><rect x="128.69" y="166.32" width="5.19" height="15.58"/><rect x="128.69" y="187.08" width="5.19" height="10.38"/><rect x="128.69" y="202.66" width="5.19" height="5.19"/><rect x="128.69" y="218.23" width="5.19" height="5.19"/><rect x="128.69" y="228.62" width="5.19" height="5.19"/><rect x="128.69" y="254.58" width="5.19" height="5.19"/><rect x="128.69" y="264.96" width="5.19" height="10.38"/><rect x="133.88" y="98.82" width="5.19" height="15.58"/><rect x="133.88" y="129.97" width="5.19" height="5.19"/><rect x="133.88" y="150.74" width="5.19" height="5.19"/><rect x="133.88" y="166.32" width="5.19" height="10.38"/><rect x="133.88" y="187.08" width="5.19" height="20.77"/><rect x="133.88" y="233.81" width="5.19" height="15.58"/><rect x="133.88" y="254.58" width="5.19" height="10.38"/><rect x="133.88" y="275.34" width="5.19" height="5.19"/><rect x="139.07" y="93.63" width="5.19" height="5.19"/><rect x="139.07" y="104.01" width="5.19" height="5.19"/><rect x="139.07" y="114.4" width="5.19" height="25.96"/><rect x="139.07" y="150.74" width="5.19" height="10.38"/><rect x="139.07" y="166.32" width="5.19" height="5.19"/><rect x="139.07" y="176.7" width="5.19" height="10.38"/><rect x="139.07" y="207.85" width="5.19" height="5.19"/><rect x="139.07" y="218.23" width="5.19" height="5.19"/><rect x="139.07" y="233.81" width="5.19" height="5.19"/><rect x="139.07" y="244.19" width="5.19" height="10.38"/><rect x="139.07" y="259.77" width="5.19" height="10.38"/><rect x="139.07" y="275.34" width="5.19" height="5.19"/><rect x="144.26" y="88.44" width="5.19" height="5.19"/><rect x="144.26" y="98.82" width="5.19" height="10.38"/><rect x="144.26" y="135.16" width="5.19" height="5.19"/><rect x="144.26" y="161.12" width="5.19" height="10.38"/><rect x="144.26" y="176.7" width="5.19" height="20.77"/><rect x="144.26" y="202.66" width="5.19" height="10.38"/><rect x="144.26" y="218.23" width="5.19" height="5.19"/><rect x="144.26" y="244.19" width="5.19" height="5.19"/><rect x="144.26" y="254.58" width="5.19" height="25.96"/><rect x="149.46" y="88.44" width="5.19" height="5.19"/><rect x="149.46" y="98.82" width="5.19" height="5.19"/><rect x="149.46" y="109.21" width="5.19" height="5.19"/><rect x="149.46" y="119.59" width="5.19" height="10.38"/><rect x="149.46" y="135.16" width="5.19" height="5.19"/><rect x="149.46" y="145.55" width="5.19" height="10.38"/><rect x="149.46" y="166.32" width="5.19" height="10.38"/><rect x="149.46" y="181.89" width="5.19" height="5.19"/><rect x="149.46" y="197.47" width="5.19" height="10.38"/><rect x="149.46" y="218.23" width="5.19" height="5.19"/><rect x="149.46" y="228.62" width="5.19" height="5.19"/><rect x="149.46" y="239" width="5.19" height="10.38"/><rect x="149.46" y="254.58" width="5.19" height="5.19"/><rect x="149.46" y="264.96" width="5.19" height="5.19"/><rect x="149.46" y="275.34" width="5.19" height="5.19"/><rect x="154.65" y="93.63" width="5.19" height="5.19"/><rect x="154.65" y="104.01" width="5.19" height="5.19"/><rect x="154.65" y="150.74" width="5.19" height="20.77"/><rect x="154.65" y="181.89" width="5.19" height="5.19"/><rect x="154.65" y="192.27" width="5.19" height="5.19"/><rect x="154.65" y="233.81" width="5.19" height="20.77"/><rect x="154.65" y="275.34" width="5.19" height="5.19"/><rect x="159.84" y="88.44" width="5.19" height="5.19"/><rect x="159.84" y="109.21" width="5.19" height="15.58"/><rect x="159.84" y="129.97" width="5.19" height="5.19"/><rect x="159.84" y="140.36" width="5.19" height="5.19"/><rect x="159.84" y="166.32" width="5.19" height="5.19"/><rect x="159.84" y="176.7" width="5.19" height="15.58"/><rect x="159.84" y="197.47" width="5.19" height="10.38"/><rect x="159.84" y="213.04" width="5.19" height="5.19"/><rect x="159.84" y="228.62" width="5.19" height="5.19"/><rect x="159.84" y="239" width="5.19" height="5.19"/><rect x="159.84" y="249.38" width="5.19" height="5.19"/><rect x="159.84" y="259.77" width="5.19" height="10.38"/><rect x="165.03" y="93.63" width="5.19" height="20.77"/><rect x="165.03" y="124.78" width="5.19" height="10.38"/><rect x="165.03" y="145.55" width="5.19" height="5.19"/><rect x="165.03" y="155.93" width="5.19" height="5.19"/><rect x="165.03" y="166.32" width="5.19" height="5.19"/><rect x="165.03" y="176.7" width="5.19" height="5.19"/><rect x="165.03" y="192.27" width="5.19" height="10.38"/><rect x="165.03" y="218.23" width="5.19" height="5.19"/><rect x="165.03" y="233.81" width="5.19" height="10.38"/><rect x="165.03" y="249.38" width="5.19" height="5.19"/><rect x="165.03" y="264.96" width="5.19" height="10.38"/><rect x="170.22" y="88.44" width="5.19" height="5.19"/><rect x="170.22" y="98.82" width="5.19" height="5.19"/><rect x="170.22" y="109.21" width="5.19" height="20.77"/><rect x="170.22" y="140.36" width="5.19" height="10.38"/><rect x="170.22" y="161.12" width="5.19" height="5.19"/><rect x="170.22" y="181.89" width="5.19" height="20.77"/><rect x="170.22" y="207.85" width="5.19" height="15.58"/><rect x="170.22" y="233.81" width="5.19" height="15.58"/><rect x="170.22" y="270.15" width="5.19" height="5.19"/><rect x="175.42" y="88.44" width="5.19" height="15.58"/><rect x="175.42" y="124.78" width="5.19" height="5.19"/><rect x="175.42" y="135.16" width="5.19" height="5.19"/><rect x="175.42" y="145.55" width="5.19" height="5.19"/><rect x="175.42" y="161.12" width="5.19" height="15.58"/><rect x="175.42" y="187.08" width="5.19" height="5.19"/><rect x="175.42" y="197.47" width="5.19" height="15.58"/><rect x="175.42" y="218.23" width="5.19" height="15.58"/><rect x="175.42" y="244.19" width="5.19" height="10.38"/><rect x="175.42" y="259.77" width="5.19" height="15.58"/><rect x="180.61" y="104.01" width="5.19" height="20.77"/><rect x="180.61" y="135.16" width="5.19" height="5.19"/><rect x="180.61" y="150.74" width="5.19" height="5.19"/><rect x="180.61" y="161.12" width="5.19" height="10.38"/><rect x="180.61" y="176.7" width="5.19" height="20.77"/><rect x="180.61" y="223.42" width="5.19" height="5.19"/><rect x="180.61" y="233.81" width="5.19" height="10.38"/><rect x="180.61" y="254.58" width="5.19" height="25.96"/><rect x="185.8" y="88.44" width="5.19" height="5.19"/><rect x="185.8" y="109.21" width="5.19" height="5.19"/><rect x="185.8" y="124.78" width="5.19" height="15.58"/><rect x="185.8" y="145.55" width="5.19" height="15.58"/><rect x="185.8" y="171.51" width="5.19" height="10.38"/><rect x="185.8" y="187.08" width="5.19" height="15.58"/><rect x="185.8" y="207.85" width="5.19" height="15.58"/><rect x="185.8" y="239" width="5.19" height="5.19"/><rect x="185.8" y="249.38" width="5.19" height="5.19"/><rect x="185.8" y="259.77" width="5.19" height="5.19"/><rect x="185.8" y="270.15" width="5.19" height="10.38"/><rect x="190.99" y="119.59" width="5.19" height="5.19"/><rect x="190.99" y="129.97" width="5.19" height="5.19"/><rect x="190.99" y="145.55" width="5.19" height="15.58"/><rect x="190.99" y="171.51" width="5.19" height="5.19"/><rect x="190.99" y="192.27" width="5.19" height="5.19"/><rect x="190.99" y="213.04" width="5.19" height="5.19"/><rect x="190.99" y="223.42" width="5.19" height="5.19"/><rect x="190.99" y="233.81" width="5.19" height="5.19"/><rect x="190.99" y="249.38" width="5.19" height="5.19"/><rect x="190.99" y="275.34" width="5.19" height="5.19"/><rect x="196.18" y="104.01" width="5.19" height="5.19"/><rect x="196.18" y="114.4" width="5.19" height="5.19"/><rect x="196.18" y="129.97" width="5.19" height="10.38"/><rect x="196.18" y="150.74" width="5.19" height="5.19"/><rect x="196.18" y="161.12" width="5.19" height="5.19"/><rect x="196.18" y="171.51" width="5.19" height="5.19"/><rect x="196.18" y="181.89" width="5.19" height="5.19"/><rect x="196.18" y="192.27" width="5.19" height="10.38"/><rect x="196.18" y="213.04" width="5.19" height="5.19"/><rect x="196.18" y="233.81" width="5.19" height="15.58"/><rect x="196.18" y="254.58" width="5.19" height="15.58"/><rect x="196.18" y="275.34" width="5.19" height="5.19"/><rect x="201.37" y="88.44" width="5.19" height="20.77"/><rect x="201.37" y="119.59" width="5.19" height="25.96"/><rect x="201.37" y="150.74" width="5.19" height="10.38"/><rect x="201.37" y="166.32" width="5.19" height="10.38"/><rect x="201.37" y="187.08" width="5.19" height="10.38"/><rect x="201.37" y="207.85" width="5.19" height="5.19"/><rect x="201.37" y="223.42" width="5.19" height="10.38"/><rect x="201.37" y="244.19" width="5.19" height="10.38"/><rect x="201.37" y="259.77" width="5.19" height="10.38"/><rect x="201.37" y="275.34" width="5.19" height="5.19"/><rect x="206.57" y="93.63" width="5.19" height="10.38"/><rect x="206.57" y="114.4" width="5.19" height="5.19"/><rect x="206.57" y="124.78" width="5.19" height="10.38"/><rect x="206.57" y="140.36" width="5.19" height="10.38"/><rect x="206.57" y="161.12" width="5.19" height="5.19"/><rect x="206.57" y="171.51" width="5.19" height="5.19"/><rect x="206.57" y="181.89" width="5.19" height="10.38"/><rect x="206.57" y="202.66" width="5.19" height="5.19"/><rect x="206.57" y="213.04" width="5.19" height="5.19"/><rect x="206.57" y="223.42" width="5.19" height="10.38"/><rect x="206.57" y="239" width="5.19" height="5.19"/><rect x="206.57" y="254.58" width="5.19" height="5.19"/><rect x="206.57" y="270.15" width="5.19" height="5.19"/><rect x="211.76" y="88.44" width="5.19" height="25.96"/><rect x="211.76" y="119.59" width="5.19" height="5.19"/><rect x="211.76" y="140.36" width="5.19" height="5.19"/><rect x="211.76" y="150.74" width="5.19" height="15.58"/><rect x="211.76" y="171.51" width="5.19" height="5.19"/><rect x="211.76" y="187.08" width="5.19" height="5.19"/><rect x="211.76" y="197.47" width="5.19" height="10.38"/><rect x="211.76" y="218.23" width="5.19" height="10.38"/><rect x="211.76" y="233.81" width="5.19" height="31.15"/><rect x="211.76" y="270.15" width="5.19" height="5.19"/><rect x="216.95" y="140.36" width="5.19" height="25.96"/><rect x="216.95" y="171.51" width="5.19" height="5.19"/><rect x="216.95" y="187.08" width="5.19" height="10.38"/><rect x="216.95" y="207.85" width="5.19" height="20.77"/><rect x="216.95" y="233.81" width="5.19" height="5.19"/><rect x="216.95" y="254.58" width="5.19" height="10.38"/><rect x="216.95" y="275.34" width="5.19" height="5.19"/><rect x="222.14" y="88.44" width="5.19" height="36.34"/><rect x="222.14" y="129.97" width="5.19" height="5.19"/><rect x="222.14" y="145.55" width="5.19" height="10.38"/><rect x="222.14" y="161.12" width="5.19" height="15.58"/><rect x="222.14" y="181.89" width="5.19" height="5.19"/><rect x="222.14" y="192.27" width="5.19" height="5.19"/><rect x="222.14" y="202.66" width="5.19" height="15.58"/><rect x="222.14" y="223.42" width="5.19" height="15.58"/><rect x="222.14" y="244.19" width="5.19" height="5.19"/><rect x="222.14" y="254.58" width="5.19" height="10.38"/><rect x="222.14" y="270.15" width="5.19" height="5.19"/><rect x="227.33" y="88.44" width="5.19" height="5.19"/><rect x="227.33" y="119.59" width="5.19" height="5.19"/><rect x="227.33" y="129.97" width="5.19" height="10.38"/><rect x="227.33" y="155.93" width="5.19" height="31.15"/><rect x="227.33" y="202.66" width="5.19" height="10.38"/><rect x="227.33" y="218.23" width="5.19" height="20.77"/><rect x="227.33" y="254.58" width="5.19" height="5.19"/><rect x="232.52" y="88.44" width="5.19" height="5.19"/><rect x="232.52" y="98.82" width="5.19" height="15.58"/><rect x="232.52" y="119.59" width="5.19" height="5.19"/><rect x="232.52" y="129.97" width="5.19" height="5.19"/><rect x="232.52" y="140.36" width="5.19" height="5.19"/><rect x="232.52" y="150.74" width="5.19" height="5.19"/><rect x="232.52" y="161.12" width="5.19" height="15.58"/><rect x="232.52" y="192.27" width="5.19" height="5.19"/><rect x="232.52" y="202.66" width="5.19" height="15.58"/><rect x="232.52" y="223.42" width="5.19" height="5.19"/><rect x="232.52" y="233.81" width="5.19" height="31.15"/><rect x="232.52" y="270.15" width="5.19" height="10.38"/><rect x="237.72" y="88.44" width="5.19" height="5.19"/><rect x="237.72" y="98.82" width="5.19" height="15.58"/><rect x="237.72" y="119.59" width="5.19" height="5.19"/><rect x="237.72" y="129.97" width="5.19" height="5.19"/><rect x="237.72" y="150.74" width="5.19" height="5.19"/><rect x="237.72" y="161.12" width="5.19" height="5.19"/><rect x="237.72" y="181.89" width="5.19" height="5.19"/><rect x="237.72" y="192.27" width="5.19" height="15.58"/><rect x="237.72" y="223.42" width="5.19" height="20.77"/><rect x="237.72" y="249.38" width="5.19" height="5.19"/><rect x="237.72" y="275.34" width="5.19" height="5.19"/><rect x="242.91" y="88.44" width="5.19" height="5.19"/><rect x="242.91" y="98.82" width="5.19" height="15.58"/><rect x="242.91" y="119.59" width="5.19" height="5.19"/><rect x="242.91" y="129.97" width="5.19" height="5.19"/><rect x="242.91" y="150.74" width="5.19" height="5.19"/><rect x="242.91" y="171.51" width="5.19" height="10.38"/><rect x="242.91" y="192.27" width="5.19" height="5.19"/><rect x="242.91" y="213.04" width="5.19" height="5.19"/><rect x="242.91" y="223.42" width="5.19" height="5.19"/><rect x="242.91" y="233.81" width="5.19" height="5.19"/><rect x="242.91" y="244.19" width="5.19" height="5.19"/><rect x="242.91" y="254.58" width="5.19" height="15.58"/><rect x="242.91" y="275.34" width="5.19" height="5.19"/><rect x="248.1" y="88.44" width="5.19" height="5.19"/><rect x="248.1" y="119.59" width="5.19" height="5.19"/><rect x="248.1" y="135.16" width="5.19" height="10.38"/><rect x="248.1" y="150.74" width="5.19" height="36.34"/><rect x="248.1" y="202.66" width="5.19" height="15.58"/><rect x="248.1" y="223.42" width="5.19" height="15.58"/><rect x="248.1" y="249.38" width="5.19" height="5.19"/><rect x="248.1" y="264.96" width="5.19" height="5.19"/><rect x="248.1" y="275.34" width="5.19" height="5.19"/><rect x="253.29" y="88.44" width="5.19" height="36.34"/><rect x="253.29" y="140.36" width="5.19" height="15.58"/><rect x="253.29" y="161.12" width="5.19" height="5.19"/><rect x="253.29" y="171.51" width="5.19" height="5.19"/><rect x="253.29" y="181.89" width="5.19" height="10.38"/><rect x="253.29" y="202.66" width="5.19" height="10.38"/><rect x="253.29" y="223.42" width="5.19" height="15.58"/><rect x="253.29" y="244.19" width="5.19" height="10.38"/><rect x="253.29" y="259.77" width="5.19" height="20.77"/></g></g></svg>