<svg xmlns="http://www.w3.org/2000/svg" viewBox="0 0 380.76 187.7"><defs><style>.cls-1{fill:#fff;}.cls-2{fill:#fff6e0;}</style></defs><g id="Layer_2" data-name="Layer 2"><g id="Layer_1-2" data-name="Layer 1"><path class="cls-1" d="M18.24.42a9.71,9.71,0,0,1,3,.39,4.74,4.74,0,0,1,1.87,1.06,3.61,3.61,0,0,1,.94,1.55,6.36,6.36,0,0,1,.26,1.87,7.17,7.17,0,0,1-.27,2,4,4,0,0,1-1,1.66,4.72,4.72,0,0,1-1.86,1.12,8.91,8.91,0,0,1-3,.42h-3.4v6.37H12.75V.42Zm2,8a2.79,2.79,0,0,0,1.22-.66,2.47,2.47,0,0,0,.61-1,5.24,5.24,0,0,0,.17-1.37A4.47,4.47,0,0,0,22,4a2,2,0,0,0-.64-1,3.06,3.06,0,0,0-1.23-.58,8,8,0,0,0-1.94-.2H14.84V8.67h3.38A6.9,6.9,0,0,0,20.2,8.44Z"/><path class="cls-1" d="M39.77,13.74a5.68,5.68,0,0,1-3.32,3.07,8,8,0,0,1-2.75.44,7.87,7.87,0,0,1-3.06-.57A6.31,6.31,0,0,1,28.34,15a7.9,7.9,0,0,1-1.46-2.71,11.93,11.93,0,0,1-.52-3.64A11.25,11.25,0,0,1,26.92,5a7.62,7.62,0,0,1,1.54-2.71A6.44,6.44,0,0,1,30.79.58,7.41,7.41,0,0,1,33.7,0a7.86,7.86,0,0,1,2.62.39A5.34,5.34,0,0,1,38.19,1.5a5.47,5.47,0,0,1,1.25,1.7,10.14,10.14,0,0,1,.72,2.18l-2.07.35a8.55,8.55,0,0,0-.54-1.62,4,4,0,0,0-.85-1.23,3.29,3.29,0,0,0-1.24-.77,5,5,0,0,0-1.76-.27,4.63,4.63,0,0,0-2.17.5,4.55,4.55,0,0,0-1.61,1.38,6.33,6.33,0,0,0-1,2.14,10.39,10.39,0,0,0-.35,2.77,10.45,10.45,0,0,0,.35,2.77,6.57,6.57,0,0,0,1,2.15,4.36,4.36,0,0,0,1.61,1.38,4.77,4.77,0,0,0,2.19.48,5.71,5.71,0,0,0,1.92-.29A3.39,3.39,0,0,0,37,14.31,3.91,3.91,0,0,0,37.77,13a7.74,7.74,0,0,0,.44-1.61h2.18A7.57,7.57,0,0,1,39.77,13.74Z"/><path class="cls-1" d="M43.64.42l5,13.68L53.71.42H56L49.68,16.84H47.55L41.25.42Z"/><path class="cls-1" d="M59.41,5.38l-.87-1.49L63.28,1h1.86V16.84H63.07V3.18Z"/><path class="cls-1" d="M74.36,14.82a3.5,3.5,0,0,0,2.37.66,3.14,3.14,0,0,0,2.38-.9A4,4,0,0,0,80,11.75a3.93,3.93,0,0,0-.74-2.51,2.94,2.94,0,0,0-2.47-1,4.59,4.59,0,0,0-1.87.34,4.16,4.16,0,0,0-1.42,1H71.72L72.43,1h8.65V2.76h-7l-.44,5a5.39,5.39,0,0,1,1.55-.82,6,6,0,0,1,1.9-.26,5.54,5.54,0,0,1,2.22.4,4,4,0,0,1,1.52,1.1,4.47,4.47,0,0,1,.86,1.63,6.75,6.75,0,0,1,.28,2,5.54,5.54,0,0,1-1.42,4.12,5.17,5.17,0,0,1-3.8,1.4,5.84,5.84,0,0,1-3.85-1.13,4.63,4.63,0,0,1-1.53-3.35h2A3.42,3.42,0,0,0,74.36,14.82Z"/><path class="cls-1" d="M92.28.42V2.74H90.14V.42ZM92.21,5V16.84h-2V5Z"/><path class="cls-1" d="M97.67,15.1a4.53,4.53,0,0,0,2.29.49,3.48,3.48,0,0,0,2.15-.51,1.69,1.69,0,0,0,.63-1.37,2.39,2.39,0,0,0-.08-.66,1.17,1.17,0,0,0-.31-.55,1.87,1.87,0,0,0-.64-.42,4.15,4.15,0,0,0-1.08-.3l-1.52-.23a11.55,11.55,0,0,1-1.77-.42,4.46,4.46,0,0,1-1.29-.65,2.61,2.61,0,0,1-.79-1A3.37,3.37,0,0,1,95,8.07a3,3,0,0,1,.35-1.47,3.32,3.32,0,0,1,1-1.09,4.71,4.71,0,0,1,1.5-.69,6.88,6.88,0,0,1,1.87-.24,7.74,7.74,0,0,1,2.15.25,4.13,4.13,0,0,1,1.41.69,3,3,0,0,1,.85,1,5.59,5.59,0,0,1,.46,1.26l-1.81.3a5.17,5.17,0,0,0-.37-.85,1.79,1.79,0,0,0-.55-.61,2.7,2.7,0,0,0-.84-.37,5.32,5.32,0,0,0-1.23-.12,5.38,5.38,0,0,0-1.38.15,2.63,2.63,0,0,0-.89.4,1.44,1.44,0,0,0-.47.56,1.66,1.66,0,0,0-.14.66,1.89,1.89,0,0,0,.1.65,1.12,1.12,0,0,0,.34.51,2.46,2.46,0,0,0,.69.38,6.5,6.5,0,0,0,1.13.27l1.72.28a5.68,5.68,0,0,1,3,1.2,3.2,3.2,0,0,1,.91,2.48,3.21,3.21,0,0,1-.3,1.39,3.12,3.12,0,0,1-.89,1.1,4.39,4.39,0,0,1-1.5.74,7.28,7.28,0,0,1-2.09.26,9.78,9.78,0,0,1-2-.2,5.28,5.28,0,0,1-1.65-.66,3.51,3.51,0,0,1-1.15-1.18,3.92,3.92,0,0,1-.5-1.8h1.93A2.32,2.32,0,0,0,97.67,15.1Z"/><path class="cls-1" d="M114.45,5V6.79A4.92,4.92,0,0,1,116,5.27a3.68,3.68,0,0,1,1.9-.53,5.3,5.3,0,0,1,1.06.09l-.25,1.87c-.15,0-.31-.06-.46-.09a3.89,3.89,0,0,0-.51,0,3.49,3.49,0,0,0-1.12.2,2.89,2.89,0,0,0-1.08.65,3.22,3.22,0,0,0-.8,1,3,3,0,0,0-.28,1.34v7.06h-2V5Z"/><path class="cls-1" d="M129,16.22a5.58,5.58,0,0,1-3.53,1,5.22,5.22,0,0,1-4.16-1.64A6.7,6.7,0,0,1,119.86,11a8.47,8.47,0,0,1,.41-2.73,5.52,5.52,0,0,1,1.16-2A5.1,5.1,0,0,1,123.22,5a6.42,6.42,0,0,1,4.62,0,4.3,4.3,0,0,1,1.62,1.2,5.29,5.29,0,0,1,.94,1.83,8.14,8.14,0,0,1,.31,2.32v1h-8.83a5.55,5.55,0,0,0,.24,1.66,4,4,0,0,0,.69,1.34,3.14,3.14,0,0,0,1.12.88,4.23,4.23,0,0,0,3.72-.24,2.81,2.81,0,0,0,.95-1.53h1.93A4.3,4.3,0,0,1,129,16.22Zm-.47-7.87A3.34,3.34,0,0,0,128,7.17a2.6,2.6,0,0,0-1-.77,3.54,3.54,0,0,0-1.49-.28,3.18,3.18,0,0,0-2.48,1,4.58,4.58,0,0,0-1,2.8h6.78A6.08,6.08,0,0,0,128.53,8.35Z"/><path class="cls-1" d="M142.1,16a5.07,5.07,0,0,1-3.57,1.17,6.23,6.23,0,0,1-2.4-.43,4.55,4.55,0,0,1-1.75-1.26,5.41,5.41,0,0,1-1.06-2,9.21,9.21,0,0,1-.35-2.61,8.2,8.2,0,0,1,.39-2.6,5.52,5.52,0,0,1,1.13-2A5.08,5.08,0,0,1,136.28,5a5.86,5.86,0,0,1,2.39-.46,4.78,4.78,0,0,1,3.31,1,4.87,4.87,0,0,1,1.5,2.88l-2,.37a6.28,6.28,0,0,0-.31-1.06,2.63,2.63,0,0,0-.54-.84,2.32,2.32,0,0,0-.84-.55,3.27,3.27,0,0,0-1.19-.19,3.36,3.36,0,0,0-1.61.35,3,3,0,0,0-1.09,1,4.49,4.49,0,0,0-.62,1.48,8.59,8.59,0,0,0,0,3.64,4.46,4.46,0,0,0,.59,1.48,3,3,0,0,0,1.09,1,3.25,3.25,0,0,0,1.63.37,2.86,2.86,0,0,0,2.15-.74,3.65,3.65,0,0,0,.91-2h2A5.26,5.26,0,0,1,142.1,16Z"/><path class="cls-1" d="M148.93,16.77a5,5,0,0,1-1.79-1.24,5.35,5.35,0,0,1-1.13-2,8.29,8.29,0,0,1-.39-2.62A8.06,8.06,0,0,1,146,8.3a6,6,0,0,1,1.17-2A5.24,5.24,0,0,1,149,5a6.12,6.12,0,0,1,2.38-.45A6.21,6.21,0,0,1,153.8,5a5,5,0,0,1,1.81,1.25,5.4,5.4,0,0,1,1.14,2,8,8,0,0,1,.39,2.59,8.34,8.34,0,0,1-.4,2.65,5.86,5.86,0,0,1-1.15,2,5.08,5.08,0,0,1-1.83,1.28,6.44,6.44,0,0,1-2.42.44A6.28,6.28,0,0,1,148.93,16.77ZM153,15.2a3.12,3.12,0,0,0,1.14-1,4.23,4.23,0,0,0,.66-1.49,8.5,8.5,0,0,0,.2-1.89,8.38,8.38,0,0,0-.2-1.87,4.16,4.16,0,0,0-.66-1.46,3.19,3.19,0,0,0-1.14-1,3.65,3.65,0,0,0-1.65-.34,3.6,3.6,0,0,0-1.65.34,3.13,3.13,0,0,0-1.12,1A4.16,4.16,0,0,0,147.94,9a7.93,7.93,0,0,0-.21,1.89,7.93,7.93,0,0,0,.21,1.89,4.46,4.46,0,0,0,.64,1.47,3.09,3.09,0,0,0,1.13,1,4.09,4.09,0,0,0,3.31,0Z"/><path class="cls-1" d="M161.81,5V6.76a5.77,5.77,0,0,1,1.77-1.64,4,4,0,0,1,2-.54,3.69,3.69,0,0,1,2.15.57,3.4,3.4,0,0,1,1.2,1.66,5.66,5.66,0,0,1,1.84-1.67A4.62,4.62,0,0,1,173,4.58a3.66,3.66,0,0,1,2.7,1,4.2,4.2,0,0,1,1,3.07v8.24h-2V9.06a5.62,5.62,0,0,0-.14-1.34,2.1,2.1,0,0,0-.4-.85,1.48,1.48,0,0,0-.66-.44,3,3,0,0,0-.9-.13,3.69,3.69,0,0,0-1.1.19,3.5,3.5,0,0,0-1.13.64,3.28,3.28,0,0,0-.75.94,2.62,2.62,0,0,0-.3,1.27v7.5h-2V9.09a3.33,3.33,0,0,0-.54-2.18,2,2,0,0,0-1.56-.61,3.21,3.21,0,0,0-2.2,1,4.62,4.62,0,0,0-.75.94,2.9,2.9,0,0,0-.36,1.54v7.09h-2V5Z"/><path class="cls-1" d="M181.61,5V6.76a5.77,5.77,0,0,1,1.77-1.64,4,4,0,0,1,2-.54,3.67,3.67,0,0,1,2.15.57,3.42,3.42,0,0,1,1.21,1.66,5.56,5.56,0,0,1,1.84-1.67,4.58,4.58,0,0,1,2.2-.56,3.7,3.7,0,0,1,2.71,1,4.24,4.24,0,0,1,.95,3.07v8.24h-2V9.06a5.62,5.62,0,0,0-.14-1.34,2,2,0,0,0-.4-.85,1.43,1.43,0,0,0-.66-.44,3,3,0,0,0-.89-.13,3.81,3.81,0,0,0-1.11.19,3.46,3.46,0,0,0-1.12.64,3.31,3.31,0,0,0-.76.94,2.62,2.62,0,0,0-.3,1.27v7.5h-2V9.09a3.33,3.33,0,0,0-.54-2.18A2,2,0,0,0,185,6.3a3.21,3.21,0,0,0-2.21,1,5,5,0,0,0-.75.94,2.9,2.9,0,0,0-.36,1.54v7.09h-2V5Z"/><path class="cls-1" d="M208.19,16.22a5.58,5.58,0,0,1-3.53,1,5.22,5.22,0,0,1-4.16-1.64A6.7,6.7,0,0,1,199.05,11a8.2,8.2,0,0,1,.41-2.73,5.52,5.52,0,0,1,1.16-2A5.06,5.06,0,0,1,202.4,5a5.94,5.94,0,0,1,2.26-.42A5.86,5.86,0,0,1,207,5a4.38,4.38,0,0,1,1.62,1.2,5.29,5.29,0,0,1,.94,1.83,8.14,8.14,0,0,1,.31,2.32v1h-8.83a5.55,5.55,0,0,0,.24,1.66,4,4,0,0,0,.69,1.34,3.14,3.14,0,0,0,1.12.88,4.23,4.23,0,0,0,3.72-.24,2.74,2.74,0,0,0,.94-1.53h1.94A4.3,4.3,0,0,1,208.19,16.22Zm-.47-7.87a3.34,3.34,0,0,0-.58-1.18,2.6,2.6,0,0,0-1-.77,3.56,3.56,0,0,0-1.5-.28,3.17,3.17,0,0,0-2.47,1,4.58,4.58,0,0,0-1,2.8h6.78A6.08,6.08,0,0,0,207.72,8.35Z"/><path class="cls-1" d="M214.52,5V6.76a5.27,5.27,0,0,1,1.94-1.67,5,5,0,0,1,2.23-.51,3.82,3.82,0,0,1,3,1.1,4.78,4.78,0,0,1,1,3.25v7.91h-2V9.32A3.54,3.54,0,0,0,220.07,7a2.35,2.35,0,0,0-1.84-.68,4.09,4.09,0,0,0-1.33.23,3.35,3.35,0,0,0-1.18.74,3.87,3.87,0,0,0-.87,1.07,3.08,3.08,0,0,0-.3,1.46v7h-2V5Z"/><path class="cls-1" d="M232.6,16.66a4.58,4.58,0,0,1-2.28.54,5,5,0,0,1-2.26-.48,4.29,4.29,0,0,1-1.57-1.32,5.45,5.45,0,0,1-.92-2,9.75,9.75,0,0,1-.3-2.46,9.15,9.15,0,0,1,.36-2.66,6,6,0,0,1,1.05-2A4.4,4.4,0,0,1,228.34,5a5.38,5.38,0,0,1,2.21-.44,5.24,5.24,0,0,1,1.91.38,4.26,4.26,0,0,1,1.8,1.44v-6h2V16.84h-2V15.13A5.34,5.34,0,0,1,232.6,16.66ZM234,8.32A3.14,3.14,0,0,0,233,7a3.09,3.09,0,0,0-1-.57,3.79,3.79,0,0,0-1.14-.16,3.63,3.63,0,0,0-1.37.25,2.79,2.79,0,0,0-1.1.81,4,4,0,0,0-.74,1.45,7.85,7.85,0,0,0-.26,2.15,7,7,0,0,0,.29,2.21,4,4,0,0,0,.75,1.43,2.94,2.94,0,0,0,1.06.76,3.37,3.37,0,0,0,1.21.23,4.09,4.09,0,0,0,1.2-.17,3.32,3.32,0,0,0,1-.55A3.58,3.58,0,0,0,234,13.43a5.26,5.26,0,0,0,.36-2.09v-.8A6.44,6.44,0,0,0,234,8.32Z"/><path class="cls-1" d="M248.11,16.22a5.56,5.56,0,0,1-3.53,1,5.25,5.25,0,0,1-4.16-1.64A6.75,6.75,0,0,1,239,11a8.2,8.2,0,0,1,.42-2.73,5.38,5.38,0,0,1,1.16-2A5.06,5.06,0,0,1,242.33,5a5.93,5.93,0,0,1,2.25-.42A5.86,5.86,0,0,1,247,5a4.3,4.3,0,0,1,1.62,1.2,5.14,5.14,0,0,1,1,1.83,8.51,8.51,0,0,1,.31,2.32v1H241a5.55,5.55,0,0,0,.24,1.66,4,4,0,0,0,.69,1.34,3.19,3.19,0,0,0,1.11.88,4.25,4.25,0,0,0,3.73-.24,2.8,2.8,0,0,0,.94-1.53h1.93A4.3,4.3,0,0,1,248.11,16.22Zm-.47-7.87a3.17,3.17,0,0,0-.57-1.18,2.6,2.6,0,0,0-1-.77,3.62,3.62,0,0,0-1.5-.28,3.16,3.16,0,0,0-2.47,1A4.65,4.65,0,0,0,241,9.89h6.79A5.65,5.65,0,0,0,247.64,8.35Z"/><path class="cls-1" d="M259.42,16.66a4.58,4.58,0,0,1-2.28.54,5,5,0,0,1-2.26-.48,4.41,4.41,0,0,1-1.58-1.32,5.79,5.79,0,0,1-.92-2,9.75,9.75,0,0,1-.3-2.46,9.14,9.14,0,0,1,.37-2.66,6,6,0,0,1,1.05-2A4.44,4.44,0,0,1,255.15,5a5.4,5.4,0,0,1,2.22-.44,5.24,5.24,0,0,1,1.91.38,4.3,4.3,0,0,1,1.79,1.44v-6h2V16.84h-1.95V15.13A5.45,5.45,0,0,1,259.42,16.66Zm1.41-8.34a3.12,3.12,0,0,0-1-1.35,3.09,3.09,0,0,0-1-.57,3.79,3.79,0,0,0-1.14-.16,3.63,3.63,0,0,0-1.37.25,2.79,2.79,0,0,0-1.1.81,4,4,0,0,0-.74,1.45,7.48,7.48,0,0,0-.26,2.15,7.38,7.38,0,0,0,.28,2.21,4,4,0,0,0,.76,1.43,2.94,2.94,0,0,0,1.06.76,3.33,3.33,0,0,0,1.21.23,4,4,0,0,0,1.19-.17,3.26,3.26,0,0,0,1.06-.55,3.58,3.58,0,0,0,1.05-1.38,5.46,5.46,0,0,0,.35-2.09v-.8A6.2,6.2,0,0,0,260.83,8.32Z"/><path class="cls-1" d="M273.43.42V2.74h-2.14V.42ZM273.36,5V16.84h-2V5Z"/><path class="cls-1" d="M278.46,5V6.76a5.27,5.27,0,0,1,1.94-1.67,5,5,0,0,1,2.23-.51,3.83,3.83,0,0,1,3,1.1,4.78,4.78,0,0,1,1,3.25v7.91h-2V9.32A3.6,3.6,0,0,0,284,7a2.35,2.35,0,0,0-1.84-.68,4.09,4.09,0,0,0-1.33.23,3.35,3.35,0,0,0-1.18.74,3.87,3.87,0,0,0-.87,1.07,3.08,3.08,0,0,0-.3,1.46v7h-2V5Z"/><path class="cls-1" d="M293.57,6.53V5h1.84V1.71h2V5h3.16V6.53h-3.16v7a2.3,2.3,0,0,0,.4,1.4,1.37,1.37,0,0,0,1.19.53,4.73,4.73,0,0,0,.89-.07,3.78,3.78,0,0,0,.7-.18l.34,1.54a6.59,6.59,0,0,1-1,.27,7.7,7.7,0,0,1-1.27.1,3.81,3.81,0,0,1-1.64-.3,2.38,2.38,0,0,1-1-.85,3.38,3.38,0,0,1-.5-1.31,10.65,10.65,0,0,1-.13-1.66V6.53Z"/><path class="cls-1" d="M304.71.42v6.3a5.37,5.37,0,0,1,1.92-1.63,4.94,4.94,0,0,1,2.21-.51,3.85,3.85,0,0,1,3,1.1,4.78,4.78,0,0,1,1,3.25v7.91h-2V9.32A3.6,3.6,0,0,0,310.21,7a2.3,2.3,0,0,0-1.83-.68,4.08,4.08,0,0,0-1.32.23,3.35,3.35,0,0,0-1.18.74A3.7,3.7,0,0,0,305,8.34a3.08,3.08,0,0,0-.3,1.46v7h-2V.42Z"/><path class="cls-1" d="M324.56,16.22a5.55,5.55,0,0,1-3.52,1,5.26,5.26,0,0,1-4.17-1.64A6.75,6.75,0,0,1,315.42,11a8.2,8.2,0,0,1,.42-2.73,5.38,5.38,0,0,1,1.16-2A5.06,5.06,0,0,1,318.78,5,5.94,5.94,0,0,1,321,4.58,5.85,5.85,0,0,1,323.4,5,4.3,4.3,0,0,1,325,6.22a5.14,5.14,0,0,1,1,1.83,8.51,8.51,0,0,1,.31,2.32v1h-8.83a5.55,5.55,0,0,0,.24,1.66,4,4,0,0,0,.69,1.34,3.19,3.19,0,0,0,1.11.88,3.46,3.46,0,0,0,1.55.32,3.41,3.41,0,0,0,2.18-.56,2.8,2.8,0,0,0,.94-1.53h1.93A4.3,4.3,0,0,1,324.56,16.22Zm-.47-7.87a3.17,3.17,0,0,0-.57-1.18,2.6,2.6,0,0,0-1-.77,3.62,3.62,0,0,0-1.5-.28,3.16,3.16,0,0,0-2.47,1,4.65,4.65,0,0,0-1.05,2.8h6.79A5.65,5.65,0,0,0,324.09,8.35Z"/><path class="cls-1" d="M336.26.42v9.91a6.31,6.31,0,0,0,1,3.82,3.71,3.71,0,0,0,3.16,1.26,3.64,3.64,0,0,0,3.15-1.28,6.51,6.51,0,0,0,.92-3.8V.42h2.11v9.91a10.33,10.33,0,0,1-.42,3.14,5.85,5.85,0,0,1-1.22,2.15,4.7,4.7,0,0,1-2,1.24,8.13,8.13,0,0,1-2.61.39,6.1,6.1,0,0,1-4.58-1.66c-1.08-1.1-1.62-2.89-1.62-5.35V.42Z"/><path class="cls-1" d="M356.41.42l6.37,16.42h-2.3l-1.73-4.58h-7L350,16.84h-2.21L354.18.42Zm-1.2,2.39-2.85,7.61h5.75Z"/><path class="cls-1" d="M375.47.42V2.28H367V7.43h8V9.32h-8V15h8.94l-.34,1.87H364.85V.42Z"/><path class="cls-1" d="M14.84,26.42l8.35,13v-13h2V42.84h-2l-8.42-13v13h-2V26.42Z"/><path class="cls-1" d="M37.34,42.22a5.56,5.56,0,0,1-3.53,1,5.25,5.25,0,0,1-4.16-1.64A6.75,6.75,0,0,1,28.2,37a8.2,8.2,0,0,1,.42-2.73,5.38,5.38,0,0,1,1.16-2A5.06,5.06,0,0,1,31.56,31a5.93,5.93,0,0,1,2.25-.42,5.86,5.86,0,0,1,2.37.44,4.3,4.3,0,0,1,1.62,1.2,5.14,5.14,0,0,1,1,1.83,8.51,8.51,0,0,1,.31,2.32v1H30.23a5.55,5.55,0,0,0,.24,1.66,4,4,0,0,0,.69,1.34,3.19,3.19,0,0,0,1.11.88,3.45,3.45,0,0,0,1.54.32A3.42,3.42,0,0,0,36,41a2.8,2.8,0,0,0,.94-1.53h1.93A4.3,4.3,0,0,1,37.34,42.22Zm-.47-7.87a3.17,3.17,0,0,0-.57-1.18,2.6,2.6,0,0,0-1-.77,3.62,3.62,0,0,0-1.5-.28,3.16,3.16,0,0,0-2.47,1,4.65,4.65,0,0,0-1.05,2.8h6.79A5.65,5.65,0,0,0,36.87,34.35Z"/><path class="cls-1" d="M42.53,31l2.39,9.47L47.66,31h2l2.67,9.4L54.72,31h2.12L53.36,42.84H51.25l-2.67-9.48-2.69,9.48H43.8L40.35,31Z"/><path class="cls-1" d="M66.06,26.42l8.35,13v-13h2V42.84h-2L66,29.87v13H64V26.42Z"/><path class="cls-1" d="M82.21,26.42V42.84H80.09V26.42Z"/><path class="cls-1" d="M91.34,26.42a9.75,9.75,0,0,1,3,.39,4.62,4.62,0,0,1,1.86,1.06,3.51,3.51,0,0,1,.94,1.55,6.36,6.36,0,0,1,.27,1.87,6.82,6.82,0,0,1-.28,2,3.92,3.92,0,0,1-1,1.66,4.76,4.76,0,0,1-1.87,1.12,8.89,8.89,0,0,1-3,.42H87.93v6.37H85.84V26.42Zm2,8a2.79,2.79,0,0,0,1.22-.66,2.47,2.47,0,0,0,.61-1.05,5.24,5.24,0,0,0,.17-1.37A4.81,4.81,0,0,0,95.11,30a2,2,0,0,0-.65-1,2.94,2.94,0,0,0-1.23-.58,8,8,0,0,0-1.94-.2H87.93v6.46h3.38A6.9,6.9,0,0,0,93.29,34.44Z"/><path class="cls-1" d="M107.93,40.66a5.61,5.61,0,0,0,3.26.77,5.77,5.77,0,0,0,1.8-.24,3.13,3.13,0,0,0,1.16-.64,2.24,2.24,0,0,0,.62-.94,3.37,3.37,0,0,0,.19-1.14,3.54,3.54,0,0,0-.12-.93,1.85,1.85,0,0,0-.45-.82,2.73,2.73,0,0,0-.92-.64,5.85,5.85,0,0,0-1.5-.44l-2.07-.37a12.34,12.34,0,0,1-2.16-.55,5.33,5.33,0,0,1-1.6-.89,3.38,3.38,0,0,1-1-1.34,5.18,5.18,0,0,1-.33-2,3.91,3.91,0,0,1,.47-2,4.25,4.25,0,0,1,1.27-1.43,5.65,5.65,0,0,1,1.91-.85,10.1,10.1,0,0,1,2.39-.28,8.85,8.85,0,0,1,2.73.36,5.26,5.26,0,0,1,1.78.95,4.16,4.16,0,0,1,1,1.37,9.21,9.21,0,0,1,.54,1.58l-2,.39a5.73,5.73,0,0,0-.47-1.23,2.77,2.77,0,0,0-.76-.9,3.28,3.28,0,0,0-1.16-.54,6.75,6.75,0,0,0-1.68-.18A7.76,7.76,0,0,0,109,28a3.55,3.55,0,0,0-1.22.57,2,2,0,0,0-.65.85,2.83,2.83,0,0,0-.2,1,3.32,3.32,0,0,0,.15,1.05,1.83,1.83,0,0,0,.51.78,2.64,2.64,0,0,0,.93.55,7.48,7.48,0,0,0,1.43.38l2.3.42a7.36,7.36,0,0,1,3.74,1.6,4.24,4.24,0,0,1,1.2,3.27,4.57,4.57,0,0,1-.38,1.85,4.14,4.14,0,0,1-1.13,1.51,5.22,5.22,0,0,1-1.87,1,8.37,8.37,0,0,1-2.64.37,11.29,11.29,0,0,1-2.64-.29,5.85,5.85,0,0,1-2.06-.91,4.64,4.64,0,0,1-1.4-1.58,5.74,5.74,0,0,1-.64-2.3h2.11A3.57,3.57,0,0,0,107.93,40.66Z"/><path class="cls-1" d="M128.62,42a5.05,5.05,0,0,1-3.57,1.17,6.23,6.23,0,0,1-2.4-.43,4.55,4.55,0,0,1-1.75-1.26,5.39,5.39,0,0,1-1.05-2,8.85,8.85,0,0,1-.36-2.61,8.2,8.2,0,0,1,.39-2.6,5.67,5.67,0,0,1,1.13-2A5.17,5.17,0,0,1,122.8,31a5.89,5.89,0,0,1,2.39-.46A4.4,4.4,0,0,1,130,34.51l-2,.37a6.28,6.28,0,0,0-.31-1.06,2.63,2.63,0,0,0-.54-.84,2.32,2.32,0,0,0-.84-.55,3.27,3.27,0,0,0-1.19-.19,3.36,3.36,0,0,0-1.61.35,3,3,0,0,0-1.09,1,4.49,4.49,0,0,0-.62,1.48,8.19,8.19,0,0,0-.2,1.82,8.83,8.83,0,0,0,.19,1.82,4.27,4.27,0,0,0,.6,1.48,2.89,2.89,0,0,0,1.08,1,3.27,3.27,0,0,0,1.63.37,2.84,2.84,0,0,0,2.15-.74,3.65,3.65,0,0,0,.91-2h2A5.26,5.26,0,0,1,128.62,42Z"/><path class="cls-1" d="M134.74,26.42v6.3a5.37,5.37,0,0,1,1.92-1.63,5,5,0,0,1,2.22-.51,3.82,3.82,0,0,1,3,1.1,4.78,4.78,0,0,1,1,3.25v7.91h-2V35.32a3.54,3.54,0,0,0-.59-2.34,2.29,2.29,0,0,0-1.82-.68,4.09,4.09,0,0,0-1.33.23,3.35,3.35,0,0,0-1.18.74,3.87,3.87,0,0,0-.87,1.07,3.08,3.08,0,0,0-.3,1.46v7h-2V26.42Z"/><path class="cls-1" d="M154.6,42.22a5.58,5.58,0,0,1-3.53,1,5.26,5.26,0,0,1-4.17-1.64A6.75,6.75,0,0,1,145.46,37a8.2,8.2,0,0,1,.41-2.73,5.52,5.52,0,0,1,1.16-2A5.06,5.06,0,0,1,148.81,31a5.94,5.94,0,0,1,2.26-.42,5.86,5.86,0,0,1,2.37.44,4.46,4.46,0,0,1,1.62,1.2,5.29,5.29,0,0,1,.94,1.83,8.14,8.14,0,0,1,.31,2.32v1h-8.83a5.55,5.55,0,0,0,.24,1.66,4,4,0,0,0,.69,1.34,3.14,3.14,0,0,0,1.12.88,4.23,4.23,0,0,0,3.72-.24,2.74,2.74,0,0,0,.94-1.53h1.94A4.3,4.3,0,0,1,154.6,42.22Zm-.47-7.87a3.34,3.34,0,0,0-.58-1.18,2.6,2.6,0,0,0-1-.77,3.59,3.59,0,0,0-1.5-.28,3.17,3.17,0,0,0-2.47,1,4.58,4.58,0,0,0-1,2.8h6.78A6.08,6.08,0,0,0,154.13,34.35Z"/><path class="cls-1" d="M165.9,42.66a4.58,4.58,0,0,1-2.28.54,5,5,0,0,1-2.26-.48,4.41,4.41,0,0,1-1.58-1.32,5.79,5.79,0,0,1-.92-2,10.24,10.24,0,0,1-.29-2.46,9.15,9.15,0,0,1,.36-2.66,6,6,0,0,1,1-2A4.4,4.4,0,0,1,161.64,31a5.38,5.38,0,0,1,2.21-.44,5.24,5.24,0,0,1,1.91.38,4.32,4.32,0,0,1,1.8,1.44v-6h2V42.84h-2V41.13A5.45,5.45,0,0,1,165.9,42.66Zm1.42-8.34a3.14,3.14,0,0,0-1-1.35,3.09,3.09,0,0,0-1-.57,3.79,3.79,0,0,0-1.14-.16,3.63,3.63,0,0,0-1.37.25,2.79,2.79,0,0,0-1.1.81,4,4,0,0,0-.74,1.45,7.85,7.85,0,0,0-.26,2.15,7,7,0,0,0,.29,2.21,4,4,0,0,0,.75,1.43,2.94,2.94,0,0,0,1.06.76,3.37,3.37,0,0,0,1.21.23,4.09,4.09,0,0,0,1.2-.17,3.32,3.32,0,0,0,1.05-.55,3.58,3.58,0,0,0,1.05-1.38,5.26,5.26,0,0,0,.36-2.09v-.8A6.44,6.44,0,0,0,167.32,34.32Z"/><path class="cls-1" d="M174.6,31v7.49a3.89,3.89,0,0,0,.54,2.35,2.09,2.09,0,0,0,1.76.69,3.52,3.52,0,0,0,2.41-1,3.73,3.73,0,0,0,.87-1.07,3.08,3.08,0,0,0,.3-1.46V31h2V42.84h-2V41a6.1,6.1,0,0,1-1.89,1.68,4.64,4.64,0,0,1-2.18.52,3.62,3.62,0,0,1-2.94-1.09,5.07,5.07,0,0,1-.9-3.28V31Z"/><path class="cls-1" d="M187.61,26.42V42.84h-2V26.42Z"/><path class="cls-1" d="M199.49,42.22a5.58,5.58,0,0,1-3.53,1,5.24,5.24,0,0,1-4.16-1.64A6.7,6.7,0,0,1,190.35,37a8.47,8.47,0,0,1,.41-2.73,5.54,5.54,0,0,1,1.17-2A5,5,0,0,1,193.71,31a5.93,5.93,0,0,1,2.25-.42,5.86,5.86,0,0,1,2.37.44,4.3,4.3,0,0,1,1.62,1.2,5.13,5.13,0,0,1,.94,1.83,8.14,8.14,0,0,1,.31,2.32v1h-8.83a5.55,5.55,0,0,0,.25,1.66,4,4,0,0,0,.69,1.34,3.1,3.1,0,0,0,1.11.88,4.25,4.25,0,0,0,3.73-.24,2.8,2.8,0,0,0,.94-1.53H201A4.3,4.3,0,0,1,199.49,42.22ZM199,34.35a3.17,3.17,0,0,0-.57-1.18,2.63,2.63,0,0,0-1-.77,3.54,3.54,0,0,0-1.49-.28,3.16,3.16,0,0,0-2.47,1,4.65,4.65,0,0,0-1.05,2.8h6.78A6.08,6.08,0,0,0,199,34.35Z"/><path class="cls-1" d="M207.83,32.53V31h1.84V27.71h2V31h3.15v1.58h-3.15v7a2.3,2.3,0,0,0,.39,1.4,1.37,1.37,0,0,0,1.2.53,4.61,4.61,0,0,0,.88-.07,3.41,3.41,0,0,0,.7-.18l.35,1.54a6.93,6.93,0,0,1-1,.27,7.83,7.83,0,0,1-1.28.1,3.77,3.77,0,0,1-1.63-.3,2.48,2.48,0,0,1-1-.85,3.37,3.37,0,0,1-.49-1.31,9.56,9.56,0,0,1-.13-1.66V32.53Z"/><path class="cls-1" d="M219.47,42.77a5.09,5.09,0,0,1-1.8-1.24,5.47,5.47,0,0,1-1.12-2,8.29,8.29,0,0,1-.39-2.62,7.8,7.8,0,0,1,.41-2.63,6,6,0,0,1,1.17-2A5.24,5.24,0,0,1,219.57,31a6.08,6.08,0,0,1,2.38-.45,6.21,6.21,0,0,1,2.39.44,5,5,0,0,1,1.81,1.25,5.4,5.4,0,0,1,1.14,2,8,8,0,0,1,.39,2.59,8.34,8.34,0,0,1-.4,2.65,5.86,5.86,0,0,1-1.15,2,5.08,5.08,0,0,1-1.83,1.28,6.44,6.44,0,0,1-2.42.44A6.28,6.28,0,0,1,219.47,42.77Zm4.09-1.57a3.12,3.12,0,0,0,1.14-1,4,4,0,0,0,.65-1.49,7.93,7.93,0,0,0,.21-1.89,7.81,7.81,0,0,0-.21-1.87,4,4,0,0,0-.65-1.46,3.19,3.19,0,0,0-1.14-1,3.65,3.65,0,0,0-1.65-.34,3.6,3.6,0,0,0-1.65.34,3.25,3.25,0,0,0-1.13,1,4.33,4.33,0,0,0-.65,1.46,8.61,8.61,0,0,0,0,3.78,4.46,4.46,0,0,0,.64,1.47,3,3,0,0,0,1.13,1,4.09,4.09,0,0,0,3.31,0Z"/><path class="cls-1" d="M237.5,26.42V32.6a5.43,5.43,0,0,1,1.7-1.49,4.71,4.71,0,0,1,2.28-.53,5,5,0,0,1,2.22.46,4.41,4.41,0,0,1,1.58,1.29,5.51,5.51,0,0,1,.95,2,9.88,9.88,0,0,1,.31,2.52,9.14,9.14,0,0,1-.37,2.66,5.83,5.83,0,0,1-1.06,2,4.67,4.67,0,0,1-1.67,1.28,5.32,5.32,0,0,1-2.19.44,5,5,0,0,1-2-.42,4.45,4.45,0,0,1-1.76-1.46v1.52h-2V26.42Zm.24,12.77a3.86,3.86,0,0,0,.73,1.35,2.65,2.65,0,0,0,1.1.77,4,4,0,0,0,1.4.24,3.83,3.83,0,0,0,1.37-.25,2.72,2.72,0,0,0,1.09-.82,4.16,4.16,0,0,0,.73-1.46,8.11,8.11,0,0,0,.26-2.19,6.92,6.92,0,0,0-.29-2.19,4.21,4.21,0,0,0-.74-1.42,2.69,2.69,0,0,0-1-.75,3.14,3.14,0,0,0-1.21-.23,3.85,3.85,0,0,0-1.45.26,3.39,3.39,0,0,0-1.16.78,3.67,3.67,0,0,0-.77,1.31,5.68,5.68,0,0,0-.27,1.83v.81A6.6,6.6,0,0,0,237.74,39.19Z"/><path class="cls-1" d="M258,42.22a5.58,5.58,0,0,1-3.53,1,5.22,5.22,0,0,1-4.16-1.64A6.7,6.7,0,0,1,248.84,37a8.47,8.47,0,0,1,.41-2.73,5.67,5.67,0,0,1,1.16-2A5.1,5.1,0,0,1,252.2,31a5.93,5.93,0,0,1,2.25-.42,5.86,5.86,0,0,1,2.37.44,4.3,4.3,0,0,1,1.62,1.2,5.29,5.29,0,0,1,.94,1.83,8.14,8.14,0,0,1,.31,2.32v1h-8.83a5.55,5.55,0,0,0,.24,1.66,4,4,0,0,0,.69,1.34,3.14,3.14,0,0,0,1.12.88,4.23,4.23,0,0,0,3.72-.24,2.81,2.81,0,0,0,.95-1.53h1.93A4.3,4.3,0,0,1,258,42.22Zm-.47-7.87a3.18,3.18,0,0,0-.58-1.18,2.53,2.53,0,0,0-1-.77,3.54,3.54,0,0,0-1.49-.28,3.2,3.2,0,0,0-2.48,1,4.65,4.65,0,0,0-1,2.8h6.78A6.08,6.08,0,0,0,257.51,34.35Z"/><path class="cls-1" d="M270.47,45.48a4.29,4.29,0,0,0,2.26.46,2.94,2.94,0,0,0,2.61-1,5.25,5.25,0,0,0,.73-3V40.58a5,5,0,0,1-1.67,1.5,4.75,4.75,0,0,1-2.29.53,5,5,0,0,1-2.24-.48,4.37,4.37,0,0,1-1.57-1.28,5.73,5.73,0,0,1-.94-1.9,8.62,8.62,0,0,1-.31-2.32,8,8,0,0,1,.37-2.47,5.53,5.53,0,0,1,1.06-1.91A4.74,4.74,0,0,1,270.15,31a5.32,5.32,0,0,1,2.19-.44,5.1,5.1,0,0,1,2,.4,4.24,4.24,0,0,1,1.78,1.49V31h2v10a15.67,15.67,0,0,1-.22,2.78,5.28,5.28,0,0,1-.8,2.09,3.88,3.88,0,0,1-1.63,1.32,6.48,6.48,0,0,1-2.66.46,6.87,6.87,0,0,1-3.68-.84,3.57,3.57,0,0,1-1.57-2.77h2A2.38,2.38,0,0,0,270.47,45.48Zm5.37-11a3.66,3.66,0,0,0-.76-1.3,2.76,2.76,0,0,0-1.12-.73,4.15,4.15,0,0,0-1.32-.21,3.87,3.87,0,0,0-1.37.24,2.69,2.69,0,0,0-1.1.77,3.79,3.79,0,0,0-.74,1.35,6.89,6.89,0,0,0-.26,2,6.27,6.27,0,0,0,.29,2A3.92,3.92,0,0,0,270.2,40a2.87,2.87,0,0,0,1.07.74,3.57,3.57,0,0,0,1.23.23,3.93,3.93,0,0,0,1.44-.26,3,3,0,0,0,1.14-.75,3.75,3.75,0,0,0,.76-1.28,5.47,5.47,0,0,0,.27-1.81v-.39A6.14,6.14,0,0,0,275.84,34.48Z"/><path class="cls-1" d="M283.27,26.42v2.32h-2.14V26.42ZM283.2,31V42.84h-2V31Z"/><path class="cls-1" d="M287.27,31l3.54,9.66L294.42,31h2.21l-4.78,11.89h-2.14L285,31Z"/><path class="cls-1" d="M306.83,42.22a5.58,5.58,0,0,1-3.53,1,5.22,5.22,0,0,1-4.16-1.64A6.7,6.7,0,0,1,297.69,37a8.47,8.47,0,0,1,.41-2.73,5.54,5.54,0,0,1,1.17-2A5,5,0,0,1,301.05,31a5.93,5.93,0,0,1,2.25-.42,5.86,5.86,0,0,1,2.37.44,4.3,4.3,0,0,1,1.62,1.2,5.13,5.13,0,0,1,.94,1.83,8.14,8.14,0,0,1,.31,2.32v1h-8.83a5.55,5.55,0,0,0,.24,1.66,4.46,4.46,0,0,0,.69,1.34,3.23,3.23,0,0,0,1.12.88,4.25,4.25,0,0,0,3.73-.24,2.86,2.86,0,0,0,.94-1.53h1.93A4.3,4.3,0,0,1,306.83,42.22Zm-.47-7.87a3.18,3.18,0,0,0-.58-1.18,2.53,2.53,0,0,0-1-.77,3.54,3.54,0,0,0-1.49-.28,3.16,3.16,0,0,0-2.47,1,4.65,4.65,0,0,0-1.05,2.8h6.78A6.08,6.08,0,0,0,306.36,34.35Z"/><path class="cls-1" d="M313.17,31v1.81a5.17,5.17,0,0,1,1.93-1.67,5.06,5.06,0,0,1,2.23-.51,3.82,3.82,0,0,1,3,1.1,4.78,4.78,0,0,1,1,3.25v7.91h-2V35.32a3.54,3.54,0,0,0-.6-2.34,2.33,2.33,0,0,0-1.84-.68,4.08,4.08,0,0,0-1.32.23,3.39,3.39,0,0,0-1.19.74,3.87,3.87,0,0,0-.87,1.07,3.08,3.08,0,0,0-.3,1.46v7h-2V31Z"/><path class="cls-1" d="M335.2,42.55a5,5,0,0,1-2.46.56,5.61,5.61,0,0,1-1.64-.22,3.43,3.43,0,0,1-1.29-.66,3,3,0,0,1-.84-1.12,3.74,3.74,0,0,1-.3-1.56,3.43,3.43,0,0,1,.52-2,3.59,3.59,0,0,1,1.38-1.2,7,7,0,0,1,1.94-.62,17.71,17.71,0,0,1,2.23-.23l2.05-.07V35a3.05,3.05,0,0,0-.65-2.18,2.8,2.8,0,0,0-2.09-.67,3.69,3.69,0,0,0-2.09.47,2.14,2.14,0,0,0-.87,1.3l-1.82-.2a3.4,3.4,0,0,1,1.54-2.38,6.29,6.29,0,0,1,3.31-.75,6.51,6.51,0,0,1,2.17.31,3.6,3.6,0,0,1,1.44.89,3.24,3.24,0,0,1,.79,1.42,6.65,6.65,0,0,1,.25,1.91v7.73h-1.94V41.2A5.91,5.91,0,0,1,335.2,42.55Zm-.32-5.6a11.29,11.29,0,0,0-2,.23,4,4,0,0,0-1.28.49,1.82,1.82,0,0,0-.67.77,2.71,2.71,0,0,0-.19,1.06,2,2,0,0,0,.54,1.44,2.45,2.45,0,0,0,1.78.54,4,4,0,0,0,2.76-.87,3,3,0,0,0,1-2.4V36.88Z"/><path class="cls-1" d="M344.14,41.1a4.5,4.5,0,0,0,2.29.49,3.5,3.5,0,0,0,2.15-.51,1.69,1.69,0,0,0,.63-1.37,2.84,2.84,0,0,0-.08-.66,1.37,1.37,0,0,0-.31-.55,2,2,0,0,0-.65-.42,3.93,3.93,0,0,0-1.08-.3l-1.52-.23a11.55,11.55,0,0,1-1.77-.42,4.39,4.39,0,0,1-1.28-.65,2.55,2.55,0,0,1-.8-1,3.53,3.53,0,0,1-.26-1.42,3,3,0,0,1,.36-1.47,3.18,3.18,0,0,1,1-1.09,4.82,4.82,0,0,1,1.5-.69,6.94,6.94,0,0,1,1.87-.24,7.69,7.69,0,0,1,2.15.25,4.18,4.18,0,0,1,1.42.69,3.14,3.14,0,0,1,.85,1,6.12,6.12,0,0,1,.46,1.26l-1.82.3a5.17,5.17,0,0,0-.37-.85,1.7,1.7,0,0,0-.55-.61,2.7,2.7,0,0,0-.84-.37,5.32,5.32,0,0,0-1.23-.12,5.38,5.38,0,0,0-1.38.15,2.48,2.48,0,0,0-.88.4,1.36,1.36,0,0,0-.47.56,1.51,1.51,0,0,0-.14.66,2.17,2.17,0,0,0,.09.65,1.21,1.21,0,0,0,.34.51,2.46,2.46,0,0,0,.69.38,6.73,6.73,0,0,0,1.13.27l1.73.28a5.76,5.76,0,0,1,3,1.2,3.23,3.23,0,0,1,.9,2.48A3.36,3.36,0,0,1,351,41.1a3,3,0,0,1-.9,1.1,4.39,4.39,0,0,1-1.5.74,7.24,7.24,0,0,1-2.09.26,9.78,9.78,0,0,1-2-.2,5.13,5.13,0,0,1-1.64-.66,3.42,3.42,0,0,1-1.15-1.18,3.93,3.93,0,0,1-.51-1.8h1.93A2.33,2.33,0,0,0,344.14,41.1Z"/><path class="cls-1" d="M15.05,66.73a3.71,3.71,0,0,0,2.62.75,3.53,3.53,0,0,0,2.48-.79A3,3,0,0,0,21,64.38a2.65,2.65,0,0,0-.86-2.24,3.78,3.78,0,0,0-2.36-.66H16V59.66h1.88A2.88,2.88,0,0,0,19.91,59a2.75,2.75,0,0,0,.75-2.09,2.37,2.37,0,0,0-.77-1.9,3.46,3.46,0,0,0-2.29-.66,3.56,3.56,0,0,0-2.33.65,4,4,0,0,0-1.17,2l-1.88-.3a6.32,6.32,0,0,1,.53-1.55,4.49,4.49,0,0,1,2.6-2.27,6.88,6.88,0,0,1,2.32-.34,7,7,0,0,1,2.23.32,4.37,4.37,0,0,1,1.56.89A3.43,3.43,0,0,1,22.39,55a4.07,4.07,0,0,1,.31,1.6,4.22,4.22,0,0,1-.55,2.25,4.11,4.11,0,0,1-1.72,1.49,4.14,4.14,0,0,1,2,1.54,4.32,4.32,0,0,1,.63,2.37,5.77,5.77,0,0,1-.32,2,4.07,4.07,0,0,1-1,1.58,4.42,4.42,0,0,1-1.68,1,6.76,6.76,0,0,1-2.36.37A7.07,7.07,0,0,1,15,68.8a4.92,4.92,0,0,1-1.71-1.14,4,4,0,0,1-.91-1.54,7.09,7.09,0,0,1-.31-1.68h2A3.66,3.66,0,0,0,15.05,66.73Z"/><path class="cls-1" d="M32.41,61.11v2H25.65v-2Z"/><path class="cls-1" d="M42,68.66a4.57,4.57,0,0,1-2.27.54,5,5,0,0,1-2.27-.48,4.29,4.29,0,0,1-1.57-1.32,5.61,5.61,0,0,1-.92-2,9.75,9.75,0,0,1-.3-2.46A9.15,9.15,0,0,1,35,60.29a6,6,0,0,1,1-2A4.48,4.48,0,0,1,37.74,57,5.4,5.4,0,0,1,40,56.58a5.23,5.23,0,0,1,1.9.38,4.26,4.26,0,0,1,1.8,1.44v-6h2V68.84h-2V67.13A5.34,5.34,0,0,1,42,68.66Zm1.42-8.34a3.14,3.14,0,0,0-1-1.35,2.9,2.9,0,0,0-1-.57,4,4,0,0,0-2.51.09,2.79,2.79,0,0,0-1.1.81A4.21,4.21,0,0,0,37,60.75a7.85,7.85,0,0,0-.26,2.15,7.36,7.36,0,0,0,.29,2.21,3.87,3.87,0,0,0,.76,1.43,2.82,2.82,0,0,0,1,.76,3.37,3.37,0,0,0,1.21.23,4,4,0,0,0,1.2-.17,3.32,3.32,0,0,0,1-.55,3.58,3.58,0,0,0,1-1.38,5.26,5.26,0,0,0,.36-2.09v-.8A6.44,6.44,0,0,0,43.42,60.32Z"/><path class="cls-1" d="M51.69,68.77a5,5,0,0,1-1.8-1.24,5.47,5.47,0,0,1-1.12-2,8.29,8.29,0,0,1-.39-2.62,7.8,7.8,0,0,1,.41-2.63,6,6,0,0,1,1.17-2A5.24,5.24,0,0,1,51.79,57a6.08,6.08,0,0,1,2.38-.45,6.21,6.21,0,0,1,2.39.44,5,5,0,0,1,1.81,1.25,5.53,5.53,0,0,1,1.13,2,7.74,7.74,0,0,1,.4,2.59,8.06,8.06,0,0,1-.41,2.65,5.7,5.7,0,0,1-1.15,2,5,5,0,0,1-1.82,1.28,6.48,6.48,0,0,1-2.42.44A6.28,6.28,0,0,1,51.69,68.77Zm4.09-1.57a3.12,3.12,0,0,0,1.14-1,4,4,0,0,0,.65-1.49,7.93,7.93,0,0,0,.21-1.89A7.81,7.81,0,0,0,57.57,61a4,4,0,0,0-.65-1.46,3.19,3.19,0,0,0-1.14-1,3.67,3.67,0,0,0-1.66-.34,3.58,3.58,0,0,0-1.64.34,3.25,3.25,0,0,0-1.13,1A4.14,4.14,0,0,0,50.7,61a8.61,8.61,0,0,0,0,3.78,4.46,4.46,0,0,0,.64,1.47,3,3,0,0,0,1.13,1,4.09,4.09,0,0,0,3.31,0Z"/><path class="cls-1" d="M64.92,67.1a4.5,4.5,0,0,0,2.29.49,3.48,3.48,0,0,0,2.15-.51A1.69,1.69,0,0,0,70,65.71a2.39,2.39,0,0,0-.08-.66,1.17,1.17,0,0,0-.31-.55,2,2,0,0,0-.64-.42,4.15,4.15,0,0,0-1.08-.3l-1.52-.23a11.55,11.55,0,0,1-1.77-.42,4.33,4.33,0,0,1-1.29-.65,2.52,2.52,0,0,1-.79-1,3.36,3.36,0,0,1-.27-1.42,3,3,0,0,1,.36-1.47,3.32,3.32,0,0,1,1-1.09,4.76,4.76,0,0,1,1.49-.69A7,7,0,0,1,67,56.58a7.74,7.74,0,0,1,2.15.25,4.22,4.22,0,0,1,1.41.69,3,3,0,0,1,.85,1,5.59,5.59,0,0,1,.46,1.26l-1.81.3a5.17,5.17,0,0,0-.37-.85,1.79,1.79,0,0,0-.55-.61,2.7,2.7,0,0,0-.84-.37,6.39,6.39,0,0,0-2.61,0,2.54,2.54,0,0,0-.89.4,1.44,1.44,0,0,0-.47.56,1.66,1.66,0,0,0-.14.66,2.17,2.17,0,0,0,.09.65,1.23,1.23,0,0,0,.35.51,2.46,2.46,0,0,0,.69.38,6.5,6.5,0,0,0,1.13.27l1.72.28a5.68,5.68,0,0,1,3,1.2,3.66,3.66,0,0,1,.61,3.87,3,3,0,0,1-.9,1.1,4.24,4.24,0,0,1-1.49.74,7.33,7.33,0,0,1-2.09.26,10,10,0,0,1-2-.2,5.22,5.22,0,0,1-1.64-.66,3.51,3.51,0,0,1-1.15-1.18,4.05,4.05,0,0,1-.51-1.8h1.94A2.3,2.3,0,0,0,64.92,67.1Z"/><path class="cls-1" d="M83.34,68.22a5.56,5.56,0,0,1-3.53,1,5.25,5.25,0,0,1-4.16-1.64A6.75,6.75,0,0,1,74.2,63a8.2,8.2,0,0,1,.42-2.73,5.38,5.38,0,0,1,1.16-2A5.06,5.06,0,0,1,77.56,57a5.93,5.93,0,0,1,2.25-.42,5.86,5.86,0,0,1,2.37.44,4.3,4.3,0,0,1,1.62,1.2,5.14,5.14,0,0,1,1,1.83,8.51,8.51,0,0,1,.31,2.32v1H76.23a5.55,5.55,0,0,0,.24,1.66,4,4,0,0,0,.69,1.34,3.19,3.19,0,0,0,1.11.88A4.25,4.25,0,0,0,82,67a2.8,2.8,0,0,0,.94-1.53h1.93A4.3,4.3,0,0,1,83.34,68.22Zm-.47-7.87a3.17,3.17,0,0,0-.57-1.18,2.6,2.6,0,0,0-1-.77,3.62,3.62,0,0,0-1.5-.28,3.16,3.16,0,0,0-2.47,1,4.65,4.65,0,0,0-1,2.8h6.79A5.65,5.65,0,0,0,82.87,60.35Z"/><path class="cls-1" d="M94.81,57v1.84a5,5,0,0,1,1.56-1.52,3.75,3.75,0,0,1,1.91-.53,5.3,5.3,0,0,1,1.06.09l-.25,1.87-.46-.09a4,4,0,0,0-.51,0,3.55,3.55,0,0,0-1.13.2,3.06,3.06,0,0,0-1.08.65,3.34,3.34,0,0,0-.79,1,3,3,0,0,0-.29,1.34v7.06h-2V57Z"/><path class="cls-1" d="M109.36,68.22a5.58,5.58,0,0,1-3.53,1,5.26,5.26,0,0,1-4.17-1.64A6.75,6.75,0,0,1,100.22,63a8.2,8.2,0,0,1,.41-2.73,5.52,5.52,0,0,1,1.16-2A5.06,5.06,0,0,1,103.57,57a5.94,5.94,0,0,1,2.26-.42,5.78,5.78,0,0,1,2.36.44,4.41,4.41,0,0,1,1.63,1.2,5.29,5.29,0,0,1,.94,1.83,8.14,8.14,0,0,1,.31,2.32v1h-8.83a5.55,5.55,0,0,0,.24,1.66,4,4,0,0,0,.69,1.34,3.14,3.14,0,0,0,1.12.88A4.23,4.23,0,0,0,108,67,2.74,2.74,0,0,0,109,65.5h1.94A4.3,4.3,0,0,1,109.36,68.22Zm-.48-7.87a3.17,3.17,0,0,0-.57-1.18,2.6,2.6,0,0,0-1-.77,3.59,3.59,0,0,0-1.5-.28,3.17,3.17,0,0,0-2.47,1,4.58,4.58,0,0,0-1,2.8h6.78A5.65,5.65,0,0,0,108.88,60.35Z"/><path class="cls-1" d="M116.72,71.48a4.29,4.29,0,0,0,2.26.46,2.94,2.94,0,0,0,2.61-1,5.25,5.25,0,0,0,.73-3V66.58a5,5,0,0,1-1.67,1.5,4.75,4.75,0,0,1-2.29.53,4.93,4.93,0,0,1-2.24-.48,4.4,4.4,0,0,1-1.58-1.28,5.91,5.91,0,0,1-.93-1.9,8.62,8.62,0,0,1-.31-2.32,8,8,0,0,1,.37-2.47,5.53,5.53,0,0,1,1.06-1.91A4.66,4.66,0,0,1,116.4,57a5.32,5.32,0,0,1,2.19-.44,5.1,5.1,0,0,1,2,.4,4.3,4.3,0,0,1,1.78,1.49V57h2v10a16.67,16.67,0,0,1-.22,2.78,5.44,5.44,0,0,1-.81,2.09,3.79,3.79,0,0,1-1.62,1.32,6.55,6.55,0,0,1-2.66.46,6.87,6.87,0,0,1-3.68-.84,3.57,3.57,0,0,1-1.57-2.77h2A2.35,2.35,0,0,0,116.72,71.48Zm5.37-11a3.66,3.66,0,0,0-.76-1.3,2.83,2.83,0,0,0-1.12-.73,4.15,4.15,0,0,0-1.32-.21,3.83,3.83,0,0,0-1.37.24,2.69,2.69,0,0,0-1.1.77,3.64,3.64,0,0,0-.74,1.35,6.89,6.89,0,0,0-.26,2,6,6,0,0,0,.29,2,3.92,3.92,0,0,0,.74,1.33,2.87,2.87,0,0,0,1.07.74,3.57,3.57,0,0,0,1.23.23,4,4,0,0,0,1.44-.26,3,3,0,0,0,1.14-.75,3.75,3.75,0,0,0,.76-1.28,5.47,5.47,0,0,0,.27-1.81v-.39A6.14,6.14,0,0,0,122.09,60.48Z"/><path class="cls-1" d="M129.52,52.42v2.32h-2.14V52.42ZM129.45,57V68.84h-2V57Z"/><path class="cls-1" d="M134.55,57v1.81a5.77,5.77,0,0,1,1.77-1.64,4,4,0,0,1,2-.54,3.67,3.67,0,0,1,2.15.57,3.36,3.36,0,0,1,1.21,1.66,5.66,5.66,0,0,1,1.84-1.67,4.59,4.59,0,0,1,2.21-.56,3.69,3.69,0,0,1,2.7,1,4.24,4.24,0,0,1,1,3.07v8.24h-2V61.06a5.15,5.15,0,0,0-.14-1.34,2,2,0,0,0-.4-.85,1.4,1.4,0,0,0-.65-.44,3,3,0,0,0-.9-.13,3.69,3.69,0,0,0-1.1.19,3.4,3.4,0,0,0-1.13.64,3.31,3.31,0,0,0-.76.94,2.62,2.62,0,0,0-.3,1.27v7.5h-2V61.09a3.33,3.33,0,0,0-.54-2.18,2,2,0,0,0-1.55-.61,3.23,3.23,0,0,0-2.21,1,5,5,0,0,0-.75.94,3,3,0,0,0-.35,1.54v7.09h-2V57Z"/><path class="cls-1" d="M161.13,68.22a5.58,5.58,0,0,1-3.53,1,5.22,5.22,0,0,1-4.16-1.64A6.7,6.7,0,0,1,152,63a8.47,8.47,0,0,1,.41-2.73,5.67,5.67,0,0,1,1.16-2A5.1,5.1,0,0,1,155.35,57a5.93,5.93,0,0,1,2.25-.42A5.86,5.86,0,0,1,160,57a4.3,4.3,0,0,1,1.62,1.2,5.29,5.29,0,0,1,.94,1.83,8.14,8.14,0,0,1,.31,2.32v1H154a5.55,5.55,0,0,0,.24,1.66,4,4,0,0,0,.69,1.34,3.14,3.14,0,0,0,1.12.88,4.23,4.23,0,0,0,3.72-.24,2.81,2.81,0,0,0,.95-1.53h1.93A4.3,4.3,0,0,1,161.13,68.22Zm-.47-7.87a3.34,3.34,0,0,0-.58-1.18,2.6,2.6,0,0,0-1-.77,3.54,3.54,0,0,0-1.49-.28,3.18,3.18,0,0,0-2.48,1,4.65,4.65,0,0,0-1,2.8h6.78A6.08,6.08,0,0,0,160.66,60.35Z"/><path class="cls-1" d="M167.47,57v1.81a5.17,5.17,0,0,1,1.93-1.67,5.06,5.06,0,0,1,2.23-.51,3.82,3.82,0,0,1,3,1.1,4.78,4.78,0,0,1,1,3.25v7.91h-2V61.32A3.54,3.54,0,0,0,173,59a2.33,2.33,0,0,0-1.84-.68,4,4,0,0,0-1.32.23,3.3,3.3,0,0,0-1.19.74,3.87,3.87,0,0,0-.87,1.07,3.08,3.08,0,0,0-.3,1.46v7h-2V57Z"/><path class="cls-1" d="M189.5,68.55a5,5,0,0,1-2.46.56,5.73,5.73,0,0,1-1.65-.22,3.46,3.46,0,0,1-1.28-.66,3,3,0,0,1-.84-1.12,3.74,3.74,0,0,1-.3-1.56,3.43,3.43,0,0,1,.52-2,3.59,3.59,0,0,1,1.38-1.2,7,7,0,0,1,1.94-.62,17.71,17.71,0,0,1,2.23-.23l2.05-.07V61a3.05,3.05,0,0,0-.65-2.18,2.82,2.82,0,0,0-2.09-.67,3.69,3.69,0,0,0-2.09.47,2.2,2.2,0,0,0-.88,1.3l-1.81-.2a3.37,3.37,0,0,1,1.54-2.38,6.27,6.27,0,0,1,3.31-.75,6.51,6.51,0,0,1,2.17.31,3.6,3.6,0,0,1,1.44.89,3.24,3.24,0,0,1,.79,1.42,7,7,0,0,1,.24,1.91v7.73h-1.93V67.2A5.91,5.91,0,0,1,189.5,68.55Zm-.32-5.6a11.41,11.41,0,0,0-2,.23,4,4,0,0,0-1.27.49,1.75,1.75,0,0,0-.67.77A2.71,2.71,0,0,0,185,65.5a1.91,1.91,0,0,0,.54,1.44,2.45,2.45,0,0,0,1.78.54,4,4,0,0,0,2.76-.87,3,3,0,0,0,1-2.4V62.88Z"/><path class="cls-1" d="M203.05,68.66a4.63,4.63,0,0,1-2.28.54,5,5,0,0,1-2.27-.48,4.37,4.37,0,0,1-1.57-1.32,5.79,5.79,0,0,1-.92-2,9.75,9.75,0,0,1-.3-2.46,8.82,8.82,0,0,1,.37-2.66,5.8,5.8,0,0,1,1-2A4.56,4.56,0,0,1,198.78,57a5.4,5.4,0,0,1,2.22-.44,5.28,5.28,0,0,1,1.91.38,4.3,4.3,0,0,1,1.79,1.44v-6h2V68.84h-1.95V67.13A5.45,5.45,0,0,1,203.05,68.66Zm1.41-8.34a3.2,3.2,0,0,0-1-1.35,3,3,0,0,0-1-.57,3.67,3.67,0,0,0-1.13-.16,3.59,3.59,0,0,0-1.37.25,2.89,2.89,0,0,0-1.11.81,4,4,0,0,0-.73,1.45,7.46,7.46,0,0,0-.27,2.15,7.36,7.36,0,0,0,.29,2.21,3.87,3.87,0,0,0,.76,1.43,2.86,2.86,0,0,0,1.06.76,3.32,3.32,0,0,0,1.2.23,4,4,0,0,0,1.2-.17,3.37,3.37,0,0,0,1.06-.55,3.46,3.46,0,0,0,1-1.38,5.26,5.26,0,0,0,.36-2.09v-.8A6.2,6.2,0,0,0,204.46,60.32Z"/><path class="cls-1" d="M211.79,57v1.81a5.55,5.55,0,0,1,1.77-1.64,4,4,0,0,1,2-.54,3.71,3.71,0,0,1,2.15.57,3.4,3.4,0,0,1,1.2,1.66,5.66,5.66,0,0,1,1.84-1.67,4.62,4.62,0,0,1,2.21-.56,3.67,3.67,0,0,1,2.7,1,4.2,4.2,0,0,1,1,3.07v8.24h-2V61.06a5.62,5.62,0,0,0-.14-1.34,2,2,0,0,0-.41-.85,1.4,1.4,0,0,0-.65-.44,3,3,0,0,0-.9-.13,3.69,3.69,0,0,0-1.1.19,3.36,3.36,0,0,0-1.89,1.58,2.62,2.62,0,0,0-.3,1.27v7.5h-2V61.09a3.33,3.33,0,0,0-.54-2.18,2,2,0,0,0-1.55-.61,3.23,3.23,0,0,0-2.21,1,4.59,4.59,0,0,0-.74.94,2.9,2.9,0,0,0-.36,1.54v7.09h-2V57Z"/><path class="cls-1" d="M231.73,52.42v2.32h-2.14V52.42ZM231.66,57V68.84h-2V57Z"/><path class="cls-1" d="M236.76,57v1.81a5.27,5.27,0,0,1,1.94-1.67,5,5,0,0,1,2.23-.51,3.82,3.82,0,0,1,3,1.1,4.78,4.78,0,0,1,1,3.25v7.91h-2V61.32a3.6,3.6,0,0,0-.59-2.34,2.35,2.35,0,0,0-1.84-.68,4.09,4.09,0,0,0-1.33.23,3.35,3.35,0,0,0-1.18.74,3.87,3.87,0,0,0-.87,1.07,3.08,3.08,0,0,0-.3,1.46v7h-2V57Z"/><path class="cls-1" d="M250,52.42v2.32h-2.14V52.42ZM249.94,57V68.84h-2V57Z"/><path class="cls-1" d="M255.41,67.1a4.49,4.49,0,0,0,2.28.49,3.46,3.46,0,0,0,2.15-.51,1.67,1.67,0,0,0,.64-1.37,2.84,2.84,0,0,0-.08-.66,1.37,1.37,0,0,0-.31-.55,2,2,0,0,0-.65-.42,4,4,0,0,0-1.08-.3l-1.52-.23a11.55,11.55,0,0,1-1.77-.42,4.59,4.59,0,0,1-1.29-.65,2.61,2.61,0,0,1-.79-1,3.37,3.37,0,0,1-.26-1.42,3.07,3.07,0,0,1,.35-1.47,3.32,3.32,0,0,1,1-1.09,4.71,4.71,0,0,1,1.5-.69,6.94,6.94,0,0,1,1.87-.24,7.69,7.69,0,0,1,2.15.25,4.18,4.18,0,0,1,1.42.69,3.14,3.14,0,0,1,.85,1,6.77,6.77,0,0,1,.46,1.26l-1.82.3a5.17,5.17,0,0,0-.37-.85,1.79,1.79,0,0,0-.55-.61,2.7,2.7,0,0,0-.84-.37,5.32,5.32,0,0,0-1.23-.12,5.38,5.38,0,0,0-1.38.15,2.63,2.63,0,0,0-.89.4,1.53,1.53,0,0,0-.47.56,1.65,1.65,0,0,0-.13.66,2.17,2.17,0,0,0,.09.65,1.12,1.12,0,0,0,.34.51,2.46,2.46,0,0,0,.69.38,6.5,6.5,0,0,0,1.13.27l1.72.28a5.68,5.68,0,0,1,3,1.2,3.66,3.66,0,0,1,.61,3.87,3,3,0,0,1-.89,1.1,4.39,4.39,0,0,1-1.5.74,7.28,7.28,0,0,1-2.09.26,9.78,9.78,0,0,1-2-.2,5.28,5.28,0,0,1-1.65-.66,3.51,3.51,0,0,1-1.15-1.18,3.92,3.92,0,0,1-.5-1.8h1.93A2.33,2.33,0,0,0,255.41,67.1Z"/><path class="cls-1" d="M263.93,58.53V57h1.84V53.71h2V57h3.15v1.58h-3.15v7a2.3,2.3,0,0,0,.39,1.4,1.37,1.37,0,0,0,1.19.53,4.66,4.66,0,0,0,.89-.07,3.58,3.58,0,0,0,.7-.18l.35,1.54a6.93,6.93,0,0,1-1,.27,7.92,7.92,0,0,1-1.28.1,3.74,3.74,0,0,1-1.63-.3,2.35,2.35,0,0,1-1-.85,3.38,3.38,0,0,1-.5-1.31,10.7,10.7,0,0,1-.12-1.66V58.53Z"/><path class="cls-1" d="M281.39,68.22a5.56,5.56,0,0,1-3.53,1,5.24,5.24,0,0,1-4.16-1.64A6.75,6.75,0,0,1,272.25,63a8.2,8.2,0,0,1,.42-2.73,5.38,5.38,0,0,1,1.16-2A5.06,5.06,0,0,1,275.61,57a5.93,5.93,0,0,1,2.25-.42,5.86,5.86,0,0,1,2.37.44,4.3,4.3,0,0,1,1.62,1.2,5.14,5.14,0,0,1,.95,1.83,8.51,8.51,0,0,1,.31,2.32v1h-8.83a5.55,5.55,0,0,0,.24,1.66,4,4,0,0,0,.69,1.34,3.19,3.19,0,0,0,1.11.88,4.25,4.25,0,0,0,3.73-.24A2.8,2.8,0,0,0,281,65.5h1.93A4.3,4.3,0,0,1,281.39,68.22Zm-.47-7.87a3.17,3.17,0,0,0-.57-1.18,2.6,2.6,0,0,0-1-.77,3.62,3.62,0,0,0-1.5-.28,3.16,3.16,0,0,0-2.47,1,4.65,4.65,0,0,0-1.05,2.8h6.79A6.07,6.07,0,0,0,280.92,60.35Z"/><path class="cls-1" d="M287.73,57v1.84a4.92,4.92,0,0,1,1.57-1.52,3.68,3.68,0,0,1,1.9-.53,5.3,5.3,0,0,1,1.06.09L292,58.7c-.15,0-.31-.06-.46-.09a3.89,3.89,0,0,0-.51,0,3.44,3.44,0,0,0-1.12.2,2.89,2.89,0,0,0-1.08.65,3.22,3.22,0,0,0-.8,1,3,3,0,0,0-.29,1.34v7.06h-2V57Z"/><path class="cls-1" d="M302.28,68.22a5.58,5.58,0,0,1-3.53,1,5.22,5.22,0,0,1-4.16-1.64A6.7,6.7,0,0,1,293.14,63a8.2,8.2,0,0,1,.41-2.73,5.52,5.52,0,0,1,1.16-2A5.06,5.06,0,0,1,296.49,57a6,6,0,0,1,2.26-.42,5.86,5.86,0,0,1,2.37.44,4.3,4.3,0,0,1,1.62,1.2,5.29,5.29,0,0,1,.94,1.83,8.14,8.14,0,0,1,.31,2.32v1h-8.83a5.55,5.55,0,0,0,.24,1.66,4,4,0,0,0,.69,1.34,3.14,3.14,0,0,0,1.12.88,4.23,4.23,0,0,0,3.72-.24,2.74,2.74,0,0,0,.94-1.53h1.94A4.3,4.3,0,0,1,302.28,68.22Zm-.47-7.87a3.34,3.34,0,0,0-.58-1.18,2.6,2.6,0,0,0-1-.77,3.56,3.56,0,0,0-1.5-.28,3.17,3.17,0,0,0-2.47,1,4.58,4.58,0,0,0-1,2.8H302A6.08,6.08,0,0,0,301.81,60.35Z"/><path class="cls-1" d="M313.58,68.66a4.57,4.57,0,0,1-2.27.54,5,5,0,0,1-2.27-.48,4.29,4.29,0,0,1-1.57-1.32,5.45,5.45,0,0,1-.92-2,9.75,9.75,0,0,1-.3-2.46,9.15,9.15,0,0,1,.36-2.66,6,6,0,0,1,1.05-2A4.4,4.4,0,0,1,309.32,57a5.4,5.4,0,0,1,2.22-.44,5.23,5.23,0,0,1,1.9.38,4.26,4.26,0,0,1,1.8,1.44v-6h2V68.84h-2V67.13A5.34,5.34,0,0,1,313.58,68.66ZM315,60.32A3.14,3.14,0,0,0,314,59a3,3,0,0,0-1-.57,3.74,3.74,0,0,0-1.14-.16,3.63,3.63,0,0,0-1.37.25,2.79,2.79,0,0,0-1.1.81,4.21,4.21,0,0,0-.74,1.45,7.85,7.85,0,0,0-.26,2.15,7,7,0,0,0,.29,2.21,3.87,3.87,0,0,0,.76,1.43,2.82,2.82,0,0,0,1.05.76,3.37,3.37,0,0,0,1.21.23,4.09,4.09,0,0,0,1.2-.17,3.32,3.32,0,0,0,1-.55A3.58,3.58,0,0,0,315,65.43a5.26,5.26,0,0,0,.36-2.09v-.8A6.44,6.44,0,0,0,315,60.32Z"/><path class="cls-1" d="M331.25,68.55a5,5,0,0,1-2.46.56,5.73,5.73,0,0,1-1.65-.22,3.43,3.43,0,0,1-1.29-.66,3,3,0,0,1-.84-1.12,3.91,3.91,0,0,1-.29-1.56,3.51,3.51,0,0,1,.51-2,3.74,3.74,0,0,1,1.38-1.2,7.19,7.19,0,0,1,1.95-.62,17.71,17.71,0,0,1,2.23-.23l2-.07V61a3.05,3.05,0,0,0-.64-2.18,2.83,2.83,0,0,0-2.09-.67,3.75,3.75,0,0,0-2.1.47,2.23,2.23,0,0,0-.87,1.3l-1.82-.2a3.43,3.43,0,0,1,1.54-2.38,6.33,6.33,0,0,1,3.32-.75,6.55,6.55,0,0,1,2.17.31,3.6,3.6,0,0,1,1.44.89,3.34,3.34,0,0,1,.79,1.42,7,7,0,0,1,.24,1.91v7.73h-1.93V67.2A5.91,5.91,0,0,1,331.25,68.55Zm-.33-5.6a11.4,11.4,0,0,0-2,.23,4.07,4.07,0,0,0-1.28.49,1.79,1.79,0,0,0-.66.77,2.71,2.71,0,0,0-.2,1.06,2,2,0,0,0,.54,1.44,2.46,2.46,0,0,0,1.78.54,4,4,0,0,0,2.76-.87,3,3,0,0,0,1-2.4V62.88Z"/><path class="cls-1" d="M336.7,58.53V57h1.84V53.71h2V57h3.15v1.58h-3.15v7a2.3,2.3,0,0,0,.39,1.4,1.37,1.37,0,0,0,1.2.53,4.61,4.61,0,0,0,.88-.07,3.58,3.58,0,0,0,.7-.18l.35,1.54a6.93,6.93,0,0,1-1,.27,7.83,7.83,0,0,1-1.28.1,3.77,3.77,0,0,1-1.63-.3,2.35,2.35,0,0,1-1-.85,3.38,3.38,0,0,1-.5-1.31,10.7,10.7,0,0,1-.12-1.66V58.53Z"/><path class="cls-1" d="M352.8,65.52l2-1.79c.74-.64,1.38-1.23,1.94-1.76a13.22,13.22,0,0,0,1.38-1.53A6,6,0,0,0,359,59a4.62,4.62,0,0,0,.28-1.63,2.7,2.7,0,0,0-3-3,5.13,5.13,0,0,0-1.45.18,2.8,2.8,0,0,0-1,.54,2.92,2.92,0,0,0-.68.89,7.89,7.89,0,0,0-.47,1.24l-1.91-.3a8.61,8.61,0,0,1,.58-1.61,4.43,4.43,0,0,1,1-1.39,4.87,4.87,0,0,1,1.61-1,6.54,6.54,0,0,1,2.37-.38,6.28,6.28,0,0,1,2.16.34,4.47,4.47,0,0,1,1.58,1,4,4,0,0,1,1,1.46,5.15,5.15,0,0,1,.33,1.88,6.41,6.41,0,0,1-.28,1.94,7,7,0,0,1-.89,1.77,12.39,12.39,0,0,1-1.52,1.79c-.61.61-1.34,1.28-2.18,2l-1.37,1.16c-.47.39-.92.79-1.37,1.19h7.78l-.3,1.84H350.91V67.18C351.49,66.66,352.12,66.11,352.8,65.52Z"/><path class="cls-1" d="M366.87,66.1l-1.19,5h-1.61l.69-5Z"/><path class="cls-1" d="M376.62,53h2v10.3h2.18l-.27,1.63h-1.91v4h-1.93v-4h-7.59V63.39Zm0,2.64-5.5,7.66h5.5Z"/><path class="cls-1" d="M18.24,94.55a5,5,0,0,1-2.46.56,5.71,5.71,0,0,1-1.64-.22,3.43,3.43,0,0,1-1.29-.66A3,3,0,0,1,12,93.11a3.74,3.74,0,0,1-.3-1.56,3.51,3.51,0,0,1,.52-2,3.74,3.74,0,0,1,1.38-1.2,7.12,7.12,0,0,1,1.94-.62,17.91,17.91,0,0,1,2.23-.23l2-.07V87a3.05,3.05,0,0,0-.64-2.18,2.84,2.84,0,0,0-2.1-.67,3.71,3.71,0,0,0-2.09.47,2.23,2.23,0,0,0-.87,1.3l-1.82-.2a3.43,3.43,0,0,1,1.54-2.38,6.29,6.29,0,0,1,3.31-.75,6.58,6.58,0,0,1,2.18.31,3.49,3.49,0,0,1,1.43.89,3.25,3.25,0,0,1,.8,1.42,7,7,0,0,1,.24,1.91v7.73H19.88V93.2A6,6,0,0,1,18.24,94.55ZM17.92,89a11.29,11.29,0,0,0-2,.23,4.07,4.07,0,0,0-1.28.49,1.79,1.79,0,0,0-.66.77,2.54,2.54,0,0,0-.2,1.06,2,2,0,0,0,.54,1.44,2.45,2.45,0,0,0,1.78.54,4,4,0,0,0,2.76-.87,3,3,0,0,0,1-2.4V88.88Z"/><path class="cls-1" d="M26.82,83v1.81a5.27,5.27,0,0,1,1.94-1.67A5,5,0,0,1,31,82.58a3.83,3.83,0,0,1,3,1.1,4.78,4.78,0,0,1,1,3.25v7.91H33V87.32A3.6,3.6,0,0,0,32.37,85a2.35,2.35,0,0,0-1.84-.68,4.09,4.09,0,0,0-1.33.23,3.35,3.35,0,0,0-1.18.74,3.7,3.7,0,0,0-.87,1.07,3.08,3.08,0,0,0-.3,1.46v7h-2V83Z"/><path class="cls-1" d="M44.9,94.66a4.58,4.58,0,0,1-2.28.54,5,5,0,0,1-2.26-.48,4.41,4.41,0,0,1-1.58-1.32,5.79,5.79,0,0,1-.92-2A9.76,9.76,0,0,1,37.57,89a9.15,9.15,0,0,1,.36-2.66,6,6,0,0,1,1-2A4.44,4.44,0,0,1,40.63,83a5.46,5.46,0,0,1,2.22-.44,5.24,5.24,0,0,1,1.91.38,4.32,4.32,0,0,1,1.8,1.44v-6h2V94.84h-2V93.13A5.45,5.45,0,0,1,44.9,94.66Zm1.41-8.34a3,3,0,0,0-1-1.35,3.09,3.09,0,0,0-1-.57,3.79,3.79,0,0,0-1.14-.16,3.63,3.63,0,0,0-1.37.25,2.79,2.79,0,0,0-1.1.81,4,4,0,0,0-.74,1.45,7.85,7.85,0,0,0-.26,2.15,7.38,7.38,0,0,0,.28,2.21,4.18,4.18,0,0,0,.76,1.43,2.94,2.94,0,0,0,1.06.76,3.33,3.33,0,0,0,1.21.23,4,4,0,0,0,1.19-.17,3.26,3.26,0,0,0,1.06-.55,3.58,3.58,0,0,0,1.05-1.38,5.26,5.26,0,0,0,.36-2.09v-.8A6.17,6.17,0,0,0,46.31,86.32Z"/><path class="cls-1" d="M58.4,83.38l-.87-1.49L62.27,79h1.86V94.84H62.06V81.18Z"/><path class="cls-1" d="M71,85.4A3.9,3.9,0,0,1,70.29,83a4.78,4.78,0,0,1,.32-1.75,3.81,3.81,0,0,1,1-1.4,4.88,4.88,0,0,1,1.68-1,7.45,7.45,0,0,1,2.39-.34,7.87,7.87,0,0,1,2.42.33,4.88,4.88,0,0,1,1.67.93,3.73,3.73,0,0,1,1,1.42A4.83,4.83,0,0,1,81,83a3.66,3.66,0,0,1-2.41,3.7,4.9,4.9,0,0,1,1,.47,4.82,4.82,0,0,1,.93.78,4.24,4.24,0,0,1,.7,1.13,4,4,0,0,1,.27,1.51,5,5,0,0,1-.35,1.93A3.82,3.82,0,0,1,80.07,94a5.13,5.13,0,0,1-1.83,1,10.17,10.17,0,0,1-5.14,0,5.1,5.1,0,0,1-1.84-1,3.72,3.72,0,0,1-1.09-1.49,5,5,0,0,1-.36-1.93,3.46,3.46,0,0,1,.3-1.48A4.62,4.62,0,0,1,70.83,88a4.14,4.14,0,0,1,.93-.77,5.61,5.61,0,0,1,1-.46A3.92,3.92,0,0,1,71,85.4Zm1.78,7.35a4.18,4.18,0,0,0,2.91.84,4.1,4.1,0,0,0,2.87-.84,2.86,2.86,0,0,0,.9-2.21,3.5,3.5,0,0,0-.2-1.19,2.27,2.27,0,0,0-.63-.93,3,3,0,0,0-1.16-.6,6.52,6.52,0,0,0-1.78-.2,6.61,6.61,0,0,0-1.81.21,3.39,3.39,0,0,0-1.17.6,2.14,2.14,0,0,0-.64.93,3.36,3.36,0,0,0-.2,1.2A2.82,2.82,0,0,0,72.79,92.75Zm.27-7.57a5.15,5.15,0,0,0,5.22,0A2.71,2.71,0,0,0,79.1,83a3.44,3.44,0,0,0-.18-1.11,2.45,2.45,0,0,0-.6-.92,3.08,3.08,0,0,0-1.07-.62,5.51,5.51,0,0,0-3.15,0A3.09,3.09,0,0,0,73,81a2.3,2.3,0,0,0-.6.94,3.38,3.38,0,0,0-.18,1.1A2.71,2.71,0,0,0,73.06,85.18Z"/><path class="cls-1" d="M91.13,83v1.81a5.77,5.77,0,0,1,1.77-1.64,4,4,0,0,1,2-.54,3.69,3.69,0,0,1,2.15.57,3.42,3.42,0,0,1,1.21,1.66,5.56,5.56,0,0,1,1.84-1.67,4.58,4.58,0,0,1,2.2-.56,3.7,3.7,0,0,1,2.71,1,4.24,4.24,0,0,1,1,3.07v8.24h-2V87.06a5.62,5.62,0,0,0-.14-1.34,2.1,2.1,0,0,0-.4-.85,1.48,1.48,0,0,0-.66-.44,3,3,0,0,0-.89-.13,3.75,3.75,0,0,0-1.11.19,3.36,3.36,0,0,0-1.12.64,3.31,3.31,0,0,0-.76.94,2.62,2.62,0,0,0-.3,1.27v7.5h-2V87.09A3.33,3.33,0,0,0,96,84.91a2,2,0,0,0-1.55-.61,3.21,3.21,0,0,0-2.21,1,5,5,0,0,0-.75.94,2.9,2.9,0,0,0-.36,1.54v7.09h-2V83Z"/><path class="cls-1" d="M111.88,94.77a5,5,0,0,1-1.8-1.24,5.47,5.47,0,0,1-1.12-2,8.29,8.29,0,0,1-.39-2.62A7.8,7.8,0,0,1,109,86.3a5.84,5.84,0,0,1,1.17-2A5.24,5.24,0,0,1,112,83a6.08,6.08,0,0,1,2.38-.45,6.21,6.21,0,0,1,2.39.44,5,5,0,0,1,1.81,1.25,5.53,5.53,0,0,1,1.13,2,7.74,7.74,0,0,1,.4,2.59,8.06,8.06,0,0,1-.41,2.65,5.7,5.7,0,0,1-1.15,2,5,5,0,0,1-1.82,1.28,6.48,6.48,0,0,1-2.42.44A6.28,6.28,0,0,1,111.88,94.77ZM116,93.2a3.12,3.12,0,0,0,1.14-1,4,4,0,0,0,.65-1.49,7.93,7.93,0,0,0,.21-1.89,7.81,7.81,0,0,0-.21-1.87,4,4,0,0,0-.65-1.46,3.19,3.19,0,0,0-1.14-1,3.67,3.67,0,0,0-1.66-.34,3.58,3.58,0,0,0-1.64.34,3.25,3.25,0,0,0-1.13,1,4.14,4.14,0,0,0-.65,1.46,8.61,8.61,0,0,0,0,3.78,4.46,4.46,0,0,0,.64,1.47,3,3,0,0,0,1.13,1,4.09,4.09,0,0,0,3.31,0Z"/><path class="cls-1" d="M124.76,83v1.81a5.17,5.17,0,0,1,1.93-1.67,5.06,5.06,0,0,1,2.23-.51,3.82,3.82,0,0,1,3,1.1,4.78,4.78,0,0,1,1,3.25v7.91h-2V87.32a3.54,3.54,0,0,0-.6-2.34,2.33,2.33,0,0,0-1.84-.68,4,4,0,0,0-1.32.23,3.3,3.3,0,0,0-1.19.74,3.87,3.87,0,0,0-.87,1.07,3.08,3.08,0,0,0-.3,1.46v7h-2V83Z"/><path class="cls-1" d="M134.74,84.53V83h1.84V79.71h2V83h3.15v1.58h-3.15v7a2.3,2.3,0,0,0,.39,1.4,1.37,1.37,0,0,0,1.2.53,4.61,4.61,0,0,0,.88-.07,3.58,3.58,0,0,0,.7-.18l.35,1.54a6.93,6.93,0,0,1-1,.27,7.83,7.83,0,0,1-1.28.1,3.77,3.77,0,0,1-1.63-.3,2.35,2.35,0,0,1-1-.85,3.38,3.38,0,0,1-.5-1.31,10.7,10.7,0,0,1-.12-1.66V84.53Z"/><path class="cls-1" d="M145.87,78.42v6.3a5.37,5.37,0,0,1,1.92-1.63,5,5,0,0,1,2.22-.51,3.82,3.82,0,0,1,3,1.1,4.78,4.78,0,0,1,1,3.25v7.91h-2V87.32a3.61,3.61,0,0,0-.58-2.34,2.3,2.3,0,0,0-1.83-.68,4,4,0,0,0-1.32.23,3.3,3.3,0,0,0-1.19.74,3.87,3.87,0,0,0-.87,1.07,3.08,3.08,0,0,0-.3,1.46v7h-2V78.42Z"/><path class="cls-1" d="M159.31,93.1a4.5,4.5,0,0,0,2.29.49,3.48,3.48,0,0,0,2.15-.51,1.69,1.69,0,0,0,.63-1.37,2.39,2.39,0,0,0-.08-.66,1.17,1.17,0,0,0-.31-.55,2,2,0,0,0-.64-.42,4.15,4.15,0,0,0-1.08-.3l-1.52-.23a11.55,11.55,0,0,1-1.77-.42,4.33,4.33,0,0,1-1.29-.65,2.52,2.52,0,0,1-.79-1,3.36,3.36,0,0,1-.27-1.42A3,3,0,0,1,157,84.6a3.32,3.32,0,0,1,1-1.09,4.76,4.76,0,0,1,1.49-.69,7,7,0,0,1,1.88-.24,7.74,7.74,0,0,1,2.15.25,4.22,4.22,0,0,1,1.41.69,3,3,0,0,1,.85,1,5.59,5.59,0,0,1,.46,1.26l-1.81.3a5.17,5.17,0,0,0-.37-.85,1.79,1.79,0,0,0-.55-.61,2.7,2.7,0,0,0-.84-.37,6.39,6.39,0,0,0-2.61,0,2.54,2.54,0,0,0-.89.4,1.44,1.44,0,0,0-.47.56,1.66,1.66,0,0,0-.14.66,2.17,2.17,0,0,0,.09.65,1.23,1.23,0,0,0,.35.51,2.46,2.46,0,0,0,.69.38,6.5,6.5,0,0,0,1.13.27l1.72.28a5.68,5.68,0,0,1,3,1.2,3.66,3.66,0,0,1,.61,3.87,3,3,0,0,1-.9,1.1,4.24,4.24,0,0,1-1.49.74,7.33,7.33,0,0,1-2.09.26,10,10,0,0,1-2-.2,5.22,5.22,0,0,1-1.64-.66,3.51,3.51,0,0,1-1.15-1.18,3.92,3.92,0,0,1-.5-1.8h1.93A2.3,2.3,0,0,0,159.31,93.1Z"/><path class="cls-1" d="M169.28,80.5l-.51-.87,2.76-1.72h1.09v9.27h-1.21v-8Z"/><path class="cls-1" d="M23.37,114.82v1.87H14.86v5.15h8.05v1.88h-8v5.66h9l-.35,1.86H12.75V114.82Z"/><path class="cls-1" d="M28.11,119.35v1.82A5.37,5.37,0,0,1,30,119.49a5.08,5.08,0,0,1,2.23-.5,3.78,3.78,0,0,1,3,1.1,4.7,4.7,0,0,1,1,3.24v7.91h-2v-7.52a3.52,3.52,0,0,0-.6-2.33,2.32,2.32,0,0,0-1.84-.68,4.08,4.08,0,0,0-1.32.23,3.14,3.14,0,0,0-1.18.74,3.71,3.71,0,0,0-.88,1.06,3.15,3.15,0,0,0-.3,1.47v7h-2V119.35Z"/><path class="cls-1" d="M38.09,120.94v-1.59H40v-1a4.34,4.34,0,0,1,.28-1.66,3.27,3.27,0,0,1,.79-1.14,3.2,3.2,0,0,1,1.15-.66,4.22,4.22,0,0,1,1.39-.22,8.19,8.19,0,0,1,1,.06,5,5,0,0,1,1,.22l-.32,1.56a3.26,3.26,0,0,0-.7-.15c-.23,0-.44,0-.66,0a2.29,2.29,0,0,0-1.38.43,1.82,1.82,0,0,0-.57,1.55v1.08h3v1.59H42v10.3H40v-10.3ZM49,114.82v16.42H47V114.82Z"/><path class="cls-1" d="M55,131.17a4.92,4.92,0,0,1-1.79-1.24,5.41,5.41,0,0,1-1.13-2,8.24,8.24,0,0,1-.39-2.62,7.74,7.74,0,0,1,.42-2.62,5.59,5.59,0,0,1,1.17-2,5.17,5.17,0,0,1,1.83-1.28,6,6,0,0,1,2.38-.44,6.25,6.25,0,0,1,2.39.43,4.89,4.89,0,0,1,1.8,1.26,5.36,5.36,0,0,1,1.14,2,8.89,8.89,0,0,1,0,5.24,5.62,5.62,0,0,1-1.15,2,5,5,0,0,1-1.83,1.28,6.2,6.2,0,0,1-2.41.45A6.33,6.33,0,0,1,55,131.17Zm4.1-1.56a3.05,3.05,0,0,0,1.14-1,4.35,4.35,0,0,0,.65-1.48,8.07,8.07,0,0,0,.21-1.9,7.79,7.79,0,0,0-.21-1.86,4.24,4.24,0,0,0-.65-1.46,3.09,3.09,0,0,0-1.14-1,3.67,3.67,0,0,0-1.66-.35,3.58,3.58,0,0,0-1.64.35,3.14,3.14,0,0,0-1.13,1,3.9,3.9,0,0,0-.65,1.46,7.93,7.93,0,0,0-.21,1.89,7.84,7.84,0,0,0,.21,1.88,4.1,4.1,0,0,0,.64,1.47,3,3,0,0,0,1.13,1,4.2,4.2,0,0,0,3.31,0Z"/><path class="cls-1" d="M67.92,119.35v1.82a5.4,5.4,0,0,1,1.94-1.68,5,5,0,0,1,2.23-.5,3.78,3.78,0,0,1,3,1.1,4.75,4.75,0,0,1,1,3.24v7.91h-2v-7.52a3.59,3.59,0,0,0-.59-2.33,2.35,2.35,0,0,0-1.84-.68,4.09,4.09,0,0,0-1.33.23,3.22,3.22,0,0,0-1.18.74,3.83,3.83,0,0,0-.87,1.06,3.15,3.15,0,0,0-.3,1.47v7H66V119.35Z"/><path class="cls-1" d="M81.39,129.51a4.61,4.61,0,0,0,2.29.49,3.41,3.41,0,0,0,2.15-.52,1.68,1.68,0,0,0,.63-1.37,2.75,2.75,0,0,0-.08-.65,1.21,1.21,0,0,0-.31-.55,2,2,0,0,0-.64-.43,5.12,5.12,0,0,0-1.08-.3L82.83,126a10.09,10.09,0,0,1-1.77-.41,4.34,4.34,0,0,1-1.29-.66,2.39,2.39,0,0,1-.79-1,3.35,3.35,0,0,1-.27-1.41,3,3,0,0,1,.36-1.47,3.21,3.21,0,0,1,1-1.09,4.76,4.76,0,0,1,1.49-.69,7,7,0,0,1,1.88-.24,7.79,7.79,0,0,1,2.15.25,4.22,4.22,0,0,1,1.41.69,3,3,0,0,1,.85,1,6,6,0,0,1,.46,1.27l-1.82.3a4.53,4.53,0,0,0-.36-.85,1.82,1.82,0,0,0-.56-.61,2.49,2.49,0,0,0-.84-.37,4.67,4.67,0,0,0-1.23-.13,5.38,5.38,0,0,0-1.38.15,2.77,2.77,0,0,0-.88.4,1.47,1.47,0,0,0-.47.57,1.58,1.58,0,0,0-.14.65,2.19,2.19,0,0,0,.09.66,1.07,1.07,0,0,0,.35.5,2,2,0,0,0,.69.38,6.26,6.26,0,0,0,1.12.28l1.73.27a5.76,5.76,0,0,1,3,1.2,3.68,3.68,0,0,1,.61,3.88,3.13,3.13,0,0,1-.9,1.1,4.41,4.41,0,0,1-1.49.73,7.33,7.33,0,0,1-2.1.27,9.12,9.12,0,0,1-2-.21,5.12,5.12,0,0,1-1.64-.65,3.45,3.45,0,0,1-1.15-1.19,4,4,0,0,1-.51-1.79h1.93A2.33,2.33,0,0,0,81.39,129.51Z"/><path class="cls-1" d="M93.18,114.82v2.33H91v-2.33Zm-.07,4.53v11.89h-2V119.35Z"/><path class="cls-1" d="M102,131a4.87,4.87,0,0,1-2.46.57,6.1,6.1,0,0,1-1.65-.22,3.64,3.64,0,0,1-1.28-.67,3.09,3.09,0,0,1-.84-1.11,3.82,3.82,0,0,1-.3-1.57,3.37,3.37,0,0,1,.52-2,3.51,3.51,0,0,1,1.38-1.2,6.69,6.69,0,0,1,1.94-.62,17.71,17.71,0,0,1,2.23-.23l2-.07v-.46a3.05,3.05,0,0,0-.65-2.18,2.79,2.79,0,0,0-2.09-.67,3.69,3.69,0,0,0-2.09.47,2.17,2.17,0,0,0-.88,1.3l-1.81-.21a3.37,3.37,0,0,1,1.54-2.38,6.27,6.27,0,0,1,3.31-.74,6.51,6.51,0,0,1,2.17.31,3.58,3.58,0,0,1,1.44.88,3.28,3.28,0,0,1,.79,1.43,7,7,0,0,1,.24,1.91v7.72h-1.93v-1.63A5.71,5.71,0,0,1,102,131Zm-.32-5.6a12.43,12.43,0,0,0-2,.23,4,4,0,0,0-1.27.5,1.7,1.7,0,0,0-.67.77,2.71,2.71,0,0,0-.19,1.06,1.88,1.88,0,0,0,.54,1.43,2.45,2.45,0,0,0,1.78.54,4,4,0,0,0,2.76-.87,3,3,0,0,0,1-2.39v-1.33Z"/><path class="cls-1" d="M116.13,114.82v7h8.3v-7h2.12v16.42h-2.12v-7.49h-8.3v7.49H114V114.82Z"/><path class="cls-1" d="M138.66,130.62a5.52,5.52,0,0,1-3.53,1A5.26,5.26,0,0,1,131,130a6.7,6.7,0,0,1-1.45-4.59,8.53,8.53,0,0,1,.41-2.74,5.61,5.61,0,0,1,1.16-2,5,5,0,0,1,1.78-1.23,6,6,0,0,1,2.26-.42,5.87,5.87,0,0,1,2.37.43,4.32,4.32,0,0,1,1.62,1.21,5.12,5.12,0,0,1,.94,1.83,8.09,8.09,0,0,1,.31,2.32v1h-8.83a5.57,5.57,0,0,0,.24,1.67,4,4,0,0,0,.69,1.33,3.16,3.16,0,0,0,1.12.89,3.56,3.56,0,0,0,1.54.32,3.47,3.47,0,0,0,2.18-.56,2.89,2.89,0,0,0,.95-1.53h1.93A4.28,4.28,0,0,1,138.66,130.62Zm-.47-7.86a3.39,3.39,0,0,0-.58-1.19,2.69,2.69,0,0,0-1-.77,3.71,3.71,0,0,0-1.49-.27,3.21,3.21,0,0,0-2.48,1,4.61,4.61,0,0,0-1,2.81h6.78A6.08,6.08,0,0,0,138.19,122.76Z"/><path class="cls-1" d="M145.06,114.82v16.42h-2V114.82Z"/><path class="cls-1" d="M150.17,119.35v1.7a5.29,5.29,0,0,1,1.71-1.54,4.78,4.78,0,0,1,2.29-.52,5,5,0,0,1,2.22.46,4.24,4.24,0,0,1,1.59,1.28,5.72,5.72,0,0,1,.94,2,9.45,9.45,0,0,1,.31,2.52,8.75,8.75,0,0,1-.37,2.65,5.67,5.67,0,0,1-1.06,2,4.61,4.61,0,0,1-1.66,1.28,5.38,5.38,0,0,1-4.19.05,4.3,4.3,0,0,1-1.76-1.44v5.93h-2V119.35Zm.26,8.25a3.81,3.81,0,0,0,.73,1.34,2.72,2.72,0,0,0,1.1.77,4,4,0,0,0,1.41.24,3.58,3.58,0,0,0,1.36-.25,2.66,2.66,0,0,0,1.1-.82,4.24,4.24,0,0,0,.72-1.46,7.61,7.61,0,0,0,.26-2.18,7.31,7.31,0,0,0-.28-2.2,3.91,3.91,0,0,0-.75-1.41,2.72,2.72,0,0,0-1.05-.76,3.32,3.32,0,0,0-1.2-.23,3.82,3.82,0,0,0-1.45.27,3.05,3.05,0,0,0-1.16.78,3.45,3.45,0,0,0-.77,1.31,5.41,5.41,0,0,0-.28,1.83v.8A6.67,6.67,0,0,0,150.43,127.6Z"/><path class="cls-1" d="M164.26,129.51a4.61,4.61,0,0,0,2.29.49,3.43,3.43,0,0,0,2.15-.52,1.68,1.68,0,0,0,.63-1.37,2.75,2.75,0,0,0-.08-.65,1.31,1.31,0,0,0-.31-.55,2,2,0,0,0-.65-.43,4.79,4.79,0,0,0-1.08-.3l-1.52-.23a10.53,10.53,0,0,1-1.77-.41,4.41,4.41,0,0,1-1.28-.66,2.41,2.41,0,0,1-.8-1,3.51,3.51,0,0,1-.26-1.41,3,3,0,0,1,.36-1.47,3.18,3.18,0,0,1,1-1.09,4.82,4.82,0,0,1,1.5-.69,6.94,6.94,0,0,1,1.87-.24,7.69,7.69,0,0,1,2.15.25,4.18,4.18,0,0,1,1.42.69,3.11,3.11,0,0,1,.85,1,6,6,0,0,1,.46,1.27l-1.82.3a4.51,4.51,0,0,0-.37-.85,1.7,1.7,0,0,0-.55-.61,2.49,2.49,0,0,0-.84-.37,4.78,4.78,0,0,0-1.23-.13,5.38,5.38,0,0,0-1.38.15,2.67,2.67,0,0,0-.88.4,1.38,1.38,0,0,0-.47.57,1.44,1.44,0,0,0-.14.65,2.19,2.19,0,0,0,.09.66,1.12,1.12,0,0,0,.34.5,2,2,0,0,0,.69.38,6.63,6.63,0,0,0,1.13.28l1.73.27a5.76,5.76,0,0,1,3,1.2,3.74,3.74,0,0,1,.61,3.88,3.13,3.13,0,0,1-.9,1.1,4.37,4.37,0,0,1-1.5.73,7.21,7.21,0,0,1-2.09.27,9.12,9.12,0,0,1-2-.21,5.12,5.12,0,0,1-1.64-.65,3.45,3.45,0,0,1-1.15-1.19,3.92,3.92,0,0,1-.51-1.79h1.93A2.33,2.33,0,0,0,164.26,129.51Z"/><path class="cls-1" d="M181,119.35v1.7a5.29,5.29,0,0,1,1.71-1.54A4.75,4.75,0,0,1,185,119a5,5,0,0,1,2.22.46,4.28,4.28,0,0,1,1.58,1.28,5.73,5.73,0,0,1,.95,2,9.88,9.88,0,0,1,.31,2.52,9.07,9.07,0,0,1-.37,2.65,5.83,5.83,0,0,1-1.06,2,4.64,4.64,0,0,1-1.67,1.28,5.35,5.35,0,0,1-4.18.05,4.3,4.3,0,0,1-1.76-1.44v5.93h-2V119.35Zm.26,8.25a4,4,0,0,0,.72,1.34,2.75,2.75,0,0,0,1.11.77,4,4,0,0,0,1.4.24,3.63,3.63,0,0,0,1.37-.25,2.69,2.69,0,0,0,1.09-.82,4.08,4.08,0,0,0,.73-1.46,8,8,0,0,0,.26-2.18,7.29,7.29,0,0,0-.29-2.2,3.91,3.91,0,0,0-.75-1.41,2.62,2.62,0,0,0-1-.76,3.33,3.33,0,0,0-1.21-.23,3.86,3.86,0,0,0-1.45.27,3.13,3.13,0,0,0-1.16.78,3.58,3.58,0,0,0-.77,1.31,5.68,5.68,0,0,0-.27,1.83v.8A6.36,6.36,0,0,0,181.3,127.6Z"/><path class="cls-1" d="M194.77,119.35v1.84a4.76,4.76,0,0,1,1.56-1.51,3.63,3.63,0,0,1,1.91-.53,5.37,5.37,0,0,1,1.06.09L199,121.1l-.46-.08a3.84,3.84,0,0,0-.5,0,3.48,3.48,0,0,0-1.13.19,3.09,3.09,0,0,0-1.08.66,3.19,3.19,0,0,0-.79,1,3,3,0,0,0-.29,1.33v7.06h-2V119.35Z"/><path class="cls-1" d="M203.48,131.17a4.92,4.92,0,0,1-1.79-1.24,5.41,5.41,0,0,1-1.13-2,8.24,8.24,0,0,1-.39-2.62,7.74,7.74,0,0,1,.42-2.62,5.59,5.59,0,0,1,1.17-2,5.08,5.08,0,0,1,1.83-1.28A6,6,0,0,1,206,119a6.25,6.25,0,0,1,2.39.43,4.89,4.89,0,0,1,1.8,1.26,5.36,5.36,0,0,1,1.14,2,8.89,8.89,0,0,1,0,5.24,5.62,5.62,0,0,1-1.15,2,5,5,0,0,1-1.83,1.28,6.2,6.2,0,0,1-2.41.45A6.33,6.33,0,0,1,203.48,131.17Zm4.1-1.56a3,3,0,0,0,1.13-1,4.18,4.18,0,0,0,.66-1.48,8.07,8.07,0,0,0,.21-1.9,7.79,7.79,0,0,0-.21-1.86,4.08,4.08,0,0,0-.66-1.46,3,3,0,0,0-1.13-1,3.7,3.7,0,0,0-1.66-.35,3.58,3.58,0,0,0-1.64.35,3.06,3.06,0,0,0-1.13,1,4.08,4.08,0,0,0-.66,1.46,8.5,8.5,0,0,0-.2,1.89,8.4,8.4,0,0,0,.2,1.88,4.3,4.3,0,0,0,.65,1.47,3,3,0,0,0,1.12,1,4.22,4.22,0,0,0,3.32,0Z"/><path class="cls-1" d="M213,120.94v-1.59h1.84v-3.24h2v3.24H220v1.59h-3.15v7a2.3,2.3,0,0,0,.39,1.4,1.4,1.4,0,0,0,1.2.53,4.61,4.61,0,0,0,.88-.07,5.93,5.93,0,0,0,.7-.18l.35,1.54a8.55,8.55,0,0,1-1,.26,6.85,6.85,0,0,1-1.28.1,3.93,3.93,0,0,1-1.63-.29,2.43,2.43,0,0,1-1-.86A3.11,3.11,0,0,1,215,129a9.36,9.36,0,0,1-.13-1.65v-6.44Z"/><path class="cls-1" d="M230.5,130.62a5.52,5.52,0,0,1-3.53,1A5.29,5.29,0,0,1,222.8,130a6.75,6.75,0,0,1-1.44-4.59,8.27,8.27,0,0,1,.41-2.74,5.46,5.46,0,0,1,1.16-2,4.91,4.91,0,0,1,1.78-1.23A5.94,5.94,0,0,1,227,119a5.82,5.82,0,0,1,2.36.43,4.44,4.44,0,0,1,1.63,1.21,5.12,5.12,0,0,1,.94,1.83,8.09,8.09,0,0,1,.31,2.32v1h-8.83a5.57,5.57,0,0,0,.24,1.67,4,4,0,0,0,.69,1.33,3.22,3.22,0,0,0,1.11.89A3.61,3.61,0,0,0,227,130a3.47,3.47,0,0,0,2.18-.56,2.87,2.87,0,0,0,.94-1.53H232A4.22,4.22,0,0,1,230.5,130.62Zm-.48-7.86a3.21,3.21,0,0,0-.57-1.19,2.69,2.69,0,0,0-1-.77,3.76,3.76,0,0,0-1.5-.27,3.19,3.19,0,0,0-2.47,1,4.68,4.68,0,0,0-1.05,2.81h6.79A5.65,5.65,0,0,0,230,122.76Z"/><path class="cls-1" d="M243.59,130.44a5,5,0,0,1-3.56,1.17,6.19,6.19,0,0,1-2.4-.44,4.64,4.64,0,0,1-1.75-1.25,5.37,5.37,0,0,1-1.06-2,8.77,8.77,0,0,1-.35-2.61,8.25,8.25,0,0,1,.39-2.6,5.65,5.65,0,0,1,1.12-2,5,5,0,0,1,1.8-1.28,5.86,5.86,0,0,1,2.39-.46,4.37,4.37,0,0,1,4.8,3.93l-2,.37a5.27,5.27,0,0,0-.31-1.06,2.63,2.63,0,0,0-.54-.84,2.32,2.32,0,0,0-.84-.55,3.2,3.2,0,0,0-1.18-.2,3.33,3.33,0,0,0-1.61.36,2.8,2.8,0,0,0-1.09,1,4.21,4.21,0,0,0-.62,1.48,8.12,8.12,0,0,0-.2,1.82,8.68,8.68,0,0,0,.18,1.81,4.75,4.75,0,0,0,.6,1.49,3.14,3.14,0,0,0,1.08,1,3.43,3.43,0,0,0,1.64.36,2.86,2.86,0,0,0,2.15-.73,3.68,3.68,0,0,0,.9-2h2A5.27,5.27,0,0,1,243.59,130.44Z"/><path class="cls-1" d="M246.56,120.94v-1.59h1.84v-3.24h2v3.24h3.15v1.59H250.4v7a2.3,2.3,0,0,0,.39,1.4,1.4,1.4,0,0,0,1.2.53,4.55,4.55,0,0,0,.88-.07,6.12,6.12,0,0,0,.71-.18l.34,1.54a8.55,8.55,0,0,1-1,.26,6.85,6.85,0,0,1-1.28.1,4,4,0,0,1-1.63-.29,2.5,2.5,0,0,1-1-.86,3.25,3.25,0,0,1-.49-1.31,9.36,9.36,0,0,1-.13-1.65v-6.44Z"/><path class="cls-1" d="M266.59,131a4.87,4.87,0,0,1-2.46.57,6.08,6.08,0,0,1-1.64-.22,3.6,3.6,0,0,1-1.29-.67,3.09,3.09,0,0,1-.84-1.11,3.82,3.82,0,0,1-.3-1.57,3.45,3.45,0,0,1,.52-2,3.65,3.65,0,0,1,1.38-1.2,6.79,6.79,0,0,1,1.94-.62,17.91,17.91,0,0,1,2.23-.23l2.05-.07v-.46a3.05,3.05,0,0,0-.64-2.18,2.8,2.8,0,0,0-2.1-.67,3.71,3.71,0,0,0-2.09.47,2.2,2.2,0,0,0-.87,1.3l-1.82-.21a3.43,3.43,0,0,1,1.54-2.38,6.29,6.29,0,0,1,3.31-.74,6.58,6.58,0,0,1,2.18.31,3.48,3.48,0,0,1,1.43.88,3.29,3.29,0,0,1,.8,1.43,7,7,0,0,1,.24,1.91v7.72h-1.93v-1.63A5.76,5.76,0,0,1,266.59,131Zm-.32-5.6a12.29,12.29,0,0,0-2,.23,4.06,4.06,0,0,0-1.28.5,1.74,1.74,0,0,0-.66.77,2.54,2.54,0,0,0-.2,1.06,1.92,1.92,0,0,0,.54,1.43,2.45,2.45,0,0,0,1.78.54,4,4,0,0,0,2.76-.87,3,3,0,0,0,1-2.39v-1.33Z"/><path class="cls-1" d="M276.2,133.89a4.37,4.37,0,0,0,2.26.46,2.94,2.94,0,0,0,2.61-1,5.36,5.36,0,0,0,.73-3.05V129a4.93,4.93,0,0,1-1.67,1.49,4.67,4.67,0,0,1-2.29.53,5.06,5.06,0,0,1-2.24-.47,4.33,4.33,0,0,1-1.58-1.29,5.76,5.76,0,0,1-.93-1.89,8.75,8.75,0,0,1-.31-2.33,7.71,7.71,0,0,1,.37-2.47,5.46,5.46,0,0,1,1.06-1.91,4.71,4.71,0,0,1,1.66-1.23,5.4,5.4,0,0,1,2.2-.43,5.14,5.14,0,0,1,2,.4,4.35,4.35,0,0,1,1.78,1.48v-1.52h2v10a16.46,16.46,0,0,1-.22,2.77,5.38,5.38,0,0,1-.81,2.09,3.74,3.74,0,0,1-1.62,1.33,6.74,6.74,0,0,1-2.67.46,6.83,6.83,0,0,1-3.67-.84,3.56,3.56,0,0,1-1.57-2.77h2A2.35,2.35,0,0,0,276.2,133.89Zm5.37-11a3.66,3.66,0,0,0-.76-1.3,2.8,2.8,0,0,0-1.12-.72,3.89,3.89,0,0,0-1.32-.22,3.83,3.83,0,0,0-1.37.24,2.79,2.79,0,0,0-1.1.77,3.77,3.77,0,0,0-.74,1.36,6.84,6.84,0,0,0-.26,2,6.23,6.23,0,0,0,.28,2,4.05,4.05,0,0,0,.75,1.34,2.77,2.77,0,0,0,1.07.73,3.35,3.35,0,0,0,1.23.23,4,4,0,0,0,1.44-.25,3,3,0,0,0,1.14-.76,3.66,3.66,0,0,0,.76-1.28,5.41,5.41,0,0,0,.27-1.8v-.39A6.2,6.2,0,0,0,281.57,122.88Z"/><path class="cls-1" d="M292.65,131a4.87,4.87,0,0,1-2.46.57,6,6,0,0,1-1.64-.22,3.6,3.6,0,0,1-1.29-.67,3.09,3.09,0,0,1-.84-1.11,3.82,3.82,0,0,1-.3-1.57,3.37,3.37,0,0,1,.52-2,3.51,3.51,0,0,1,1.38-1.2,6.69,6.69,0,0,1,1.94-.62,17.91,17.91,0,0,1,2.23-.23l2.05-.07v-.46a3.05,3.05,0,0,0-.65-2.18,2.76,2.76,0,0,0-2.09-.67,3.69,3.69,0,0,0-2.09.47,2.16,2.16,0,0,0-.87,1.3l-1.82-.21a3.4,3.4,0,0,1,1.54-2.38,6.29,6.29,0,0,1,3.31-.74,6.51,6.51,0,0,1,2.17.31,3.58,3.58,0,0,1,1.44.88,3.28,3.28,0,0,1,.79,1.43,6.6,6.6,0,0,1,.25,1.91v7.72h-1.94v-1.63A5.58,5.58,0,0,1,292.65,131Zm-.32-5.6a12.29,12.29,0,0,0-2,.23,4,4,0,0,0-1.28.5,1.76,1.76,0,0,0-.67.77,2.71,2.71,0,0,0-.19,1.06,1.92,1.92,0,0,0,.54,1.43,2.45,2.45,0,0,0,1.78.54,4,4,0,0,0,2.76-.87,3,3,0,0,0,1-2.39v-1.33Z"/><path class="cls-1" d="M301.37,114.82v2.33h-2.14v-2.33Zm-.07,4.53v11.89h-2V119.35Z"/><path class="cls-1" d="M306.41,119.35v1.82a5.29,5.29,0,0,1,1.93-1.68,5.05,5.05,0,0,1,2.23-.5,3.78,3.78,0,0,1,3,1.1,4.75,4.75,0,0,1,1,3.24v7.91h-2v-7.52a3.52,3.52,0,0,0-.6-2.33,2.33,2.33,0,0,0-1.84-.68,4,4,0,0,0-1.32.23,3.17,3.17,0,0,0-1.19.74,3.83,3.83,0,0,0-.87,1.06,3.15,3.15,0,0,0-.3,1.47v7h-2V119.35Z"/><path class="cls-1" d="M319.87,129.51a4.61,4.61,0,0,0,2.29.49,3.41,3.41,0,0,0,2.15-.52,1.68,1.68,0,0,0,.63-1.37,2.32,2.32,0,0,0-.08-.65,1.13,1.13,0,0,0-.31-.55,2,2,0,0,0-.64-.43,5.12,5.12,0,0,0-1.08-.3l-1.52-.23a10.53,10.53,0,0,1-1.77-.41,4.34,4.34,0,0,1-1.29-.66,2.39,2.39,0,0,1-.79-1,3.35,3.35,0,0,1-.27-1.41,3,3,0,0,1,.36-1.47,3.32,3.32,0,0,1,1-1.09,4.76,4.76,0,0,1,1.49-.69,7,7,0,0,1,1.88-.24,7.74,7.74,0,0,1,2.15.25,4.22,4.22,0,0,1,1.41.69,3,3,0,0,1,.85,1,5.5,5.5,0,0,1,.46,1.27l-1.81.3a4.51,4.51,0,0,0-.37-.85,1.79,1.79,0,0,0-.55-.61,2.49,2.49,0,0,0-.84-.37,4.78,4.78,0,0,0-1.23-.13,5.33,5.33,0,0,0-1.38.15,2.73,2.73,0,0,0-.89.4,1.47,1.47,0,0,0-.47.57,1.58,1.58,0,0,0-.14.65,2.19,2.19,0,0,0,.09.66,1.14,1.14,0,0,0,.35.5,2,2,0,0,0,.69.38,6.4,6.4,0,0,0,1.13.28l1.72.27a5.68,5.68,0,0,1,3,1.2,3.68,3.68,0,0,1,.61,3.88,3.13,3.13,0,0,1-.9,1.1,4.23,4.23,0,0,1-1.49.73,7.31,7.31,0,0,1-2.09.27,9.28,9.28,0,0,1-2-.21,5.21,5.21,0,0,1-1.64-.65,3.54,3.54,0,0,1-1.15-1.19,3.92,3.92,0,0,1-.5-1.79h1.93A2.3,2.3,0,0,0,319.87,129.51Z"/><path class="cls-1" d="M328.4,120.94v-1.59h1.83v-3.24h2v3.24h3.15v1.59h-3.15v7a2.3,2.3,0,0,0,.39,1.4,1.39,1.39,0,0,0,1.19.53,4.73,4.73,0,0,0,.89-.07,6.49,6.49,0,0,0,.7-.18l.34,1.54a8.06,8.06,0,0,1-1,.26,6.74,6.74,0,0,1-1.27.1,4,4,0,0,1-1.64-.29,2.41,2.41,0,0,1-1-.86,3.26,3.26,0,0,1-.5-1.31,10.42,10.42,0,0,1-.13-1.65v-6.44Z"/><path class="cls-1" d="M18.13,140.82a9,9,0,0,1,3,.42A4.91,4.91,0,0,1,23,142.31a3.35,3.35,0,0,1,.93,1.48,5.66,5.66,0,0,1,.26,1.68,5.13,5.13,0,0,1-.66,2.67,4.31,4.31,0,0,1-2.15,1.72l3.45,7.38H22.45l-3.1-6.87a4.4,4.4,0,0,1-.65,0H14.84v6.81H12.75V140.82Zm2,7.58a2.77,2.77,0,0,0,1.13-.62,2.11,2.11,0,0,0,.57-1,4.65,4.65,0,0,0,.16-1.29,3.71,3.71,0,0,0-.18-1.21,2,2,0,0,0-.63-.91,2.91,2.91,0,0,0-1.21-.58,7.94,7.94,0,0,0-1.93-.19H14.84v6h3.5A6.12,6.12,0,0,0,20.15,148.4Z"/><path class="cls-1" d="M29.85,155.07a5.67,5.67,0,0,0,3.25.77,5.88,5.88,0,0,0,1.81-.24,3.14,3.14,0,0,0,1.16-.65,2.18,2.18,0,0,0,.62-.94,3.58,3.58,0,0,0,.18-1.14,4.08,4.08,0,0,0-.11-.93,2,2,0,0,0-.45-.82,2.87,2.87,0,0,0-.92-.64,6.24,6.24,0,0,0-1.51-.44l-2.07-.36a12.54,12.54,0,0,1-2.16-.56,5.44,5.44,0,0,1-1.6-.88,3.42,3.42,0,0,1-1-1.35,4.9,4.9,0,0,1-.34-1.95,4.08,4.08,0,0,1,.47-2,4.25,4.25,0,0,1,1.28-1.42,5.38,5.38,0,0,1,1.91-.85,9.5,9.5,0,0,1,2.39-.28,8.74,8.74,0,0,1,2.72.36,5,5,0,0,1,1.79.95,4,4,0,0,1,1,1.37,7.68,7.68,0,0,1,.54,1.57l-2,.39a5.73,5.73,0,0,0-.48-1.23,2.6,2.6,0,0,0-.75-.89,3.33,3.33,0,0,0-1.17-.54,6.24,6.24,0,0,0-1.67-.19,7.2,7.2,0,0,0-1.89.21,3.64,3.64,0,0,0-1.22.56,2,2,0,0,0-.65.85,2.84,2.84,0,0,0-.2,1.05,3.32,3.32,0,0,0,.15,1,1.83,1.83,0,0,0,.51.78,2.76,2.76,0,0,0,.93.55,8.41,8.41,0,0,0,1.42.38l2.3.41a7.61,7.61,0,0,1,3.75,1.6,4.28,4.28,0,0,1,1.2,3.28,4.6,4.6,0,0,1-.38,1.85,4.35,4.35,0,0,1-1.13,1.51,5.65,5.65,0,0,1-1.87,1,8.79,8.79,0,0,1-2.65.37,11.27,11.27,0,0,1-2.63-.29,6,6,0,0,1-2.06-.91,4.58,4.58,0,0,1-1.4-1.59,5.69,5.69,0,0,1-.65-2.3h2.12A3.58,3.58,0,0,0,29.85,155.07Z"/><path class="cls-1" d="M42.72,140.82l5,13.69,5.08-13.69h2.27l-6.3,16.42H46.63l-6.31-16.42Z"/><path class="cls-1" d="M68.54,157.07a4.57,4.57,0,0,1-2.27.54,5,5,0,0,1-2.27-.48,4.5,4.5,0,0,1-1.57-1.33,5.65,5.65,0,0,1-.92-2,9.78,9.78,0,0,1-.3-2.47,8.75,8.75,0,0,1,.37-2.65,5.8,5.8,0,0,1,1-2,4.4,4.4,0,0,1,1.66-1.27A5.4,5.4,0,0,1,66.5,145a5.26,5.26,0,0,1,1.91.37,4.46,4.46,0,0,1,1.79,1.44v-6h2v16.42h-2v-1.7A5.37,5.37,0,0,1,68.54,157.07ZM70,148.72a3.06,3.06,0,0,0-1-1.34,2.94,2.94,0,0,0-1-.58,3.7,3.7,0,0,0-1.14-.16,3.87,3.87,0,0,0-1.37.25,2.79,2.79,0,0,0-1.1.82,4,4,0,0,0-.73,1.45,8.63,8.63,0,0,0,0,4.36,3.82,3.82,0,0,0,.76,1.42,2.72,2.72,0,0,0,1.05.76,3.42,3.42,0,0,0,1.21.23,4,4,0,0,0,1.2-.16,3.71,3.71,0,0,0,1.06-.55,3.56,3.56,0,0,0,1-1.38,5.26,5.26,0,0,0,.36-2.09v-.81A6.24,6.24,0,0,0,70,148.72Z"/><path class="cls-1" d="M77.42,140.82v2.33H75.28v-2.33Zm-.07,4.53v11.89h-2V145.35Z"/><path class="cls-1" d="M82.82,155.51a4.59,4.59,0,0,0,2.28.49,3.39,3.39,0,0,0,2.15-.52,1.66,1.66,0,0,0,.64-1.37,2.75,2.75,0,0,0-.08-.65,1.31,1.31,0,0,0-.31-.55,2,2,0,0,0-.65-.43,4.79,4.79,0,0,0-1.08-.3L84.25,152a10.53,10.53,0,0,1-1.77-.41,4.6,4.6,0,0,1-1.29-.66,2.47,2.47,0,0,1-.79-1,3.35,3.35,0,0,1-.26-1.41,3.07,3.07,0,0,1,.35-1.47,3.32,3.32,0,0,1,1-1.09,4.71,4.71,0,0,1,1.5-.69,6.94,6.94,0,0,1,1.87-.24,7.69,7.69,0,0,1,2.15.25,4.18,4.18,0,0,1,1.42.69,3.11,3.11,0,0,1,.85,1,6,6,0,0,1,.46,1.27l-1.82.3a4.51,4.51,0,0,0-.37-.85,1.79,1.79,0,0,0-.55-.61,2.49,2.49,0,0,0-.84-.37,4.78,4.78,0,0,0-1.23-.13,5.38,5.38,0,0,0-1.38.15,2.83,2.83,0,0,0-.89.4,1.44,1.44,0,0,0-.6,1.22,2.19,2.19,0,0,0,.09.66,1,1,0,0,0,.34.5,2,2,0,0,0,.69.38,6.4,6.4,0,0,0,1.13.28l1.72.27a5.68,5.68,0,0,1,3,1.2,3.68,3.68,0,0,1,.61,3.88,3.09,3.09,0,0,1-.89,1.1,4.37,4.37,0,0,1-1.5.73,7.26,7.26,0,0,1-2.09.27,9.12,9.12,0,0,1-2-.21,5.27,5.27,0,0,1-1.65-.65,3.54,3.54,0,0,1-1.15-1.19,3.92,3.92,0,0,1-.5-1.79h1.93A2.33,2.33,0,0,0,82.82,155.51Z"/><path class="cls-1" d="M101.24,156.62a5.52,5.52,0,0,1-3.53,1A5.26,5.26,0,0,1,93.55,156a6.7,6.7,0,0,1-1.45-4.59,8.27,8.27,0,0,1,.41-2.74,5.61,5.61,0,0,1,1.16-2,4.91,4.91,0,0,1,1.78-1.23,6,6,0,0,1,2.26-.42,5.87,5.87,0,0,1,2.37.43,4.32,4.32,0,0,1,1.62,1.21,5.12,5.12,0,0,1,.94,1.83,8.09,8.09,0,0,1,.31,2.32v1H94.12a5.57,5.57,0,0,0,.24,1.67,4,4,0,0,0,.69,1.33,3.16,3.16,0,0,0,1.12.89,3.56,3.56,0,0,0,1.54.32,3.47,3.47,0,0,0,2.18-.56,2.82,2.82,0,0,0,.94-1.53h1.94A4.28,4.28,0,0,1,101.24,156.62Zm-.47-7.86a3.39,3.39,0,0,0-.58-1.19,2.69,2.69,0,0,0-1-.77,3.72,3.72,0,0,0-1.5-.27,3.2,3.2,0,0,0-2.47,1,4.61,4.61,0,0,0-1,2.81H101A6.08,6.08,0,0,0,100.77,148.76Z"/><path class="cls-1" d="M111.37,157a4.87,4.87,0,0,1-2.46.57,6.1,6.1,0,0,1-1.65-.22,3.64,3.64,0,0,1-1.28-.67,3.09,3.09,0,0,1-.84-1.11,3.82,3.82,0,0,1-.3-1.57,3.37,3.37,0,0,1,.52-2,3.51,3.51,0,0,1,1.38-1.2,6.69,6.69,0,0,1,1.94-.62,17.71,17.71,0,0,1,2.23-.23l2-.07v-.46a3.05,3.05,0,0,0-.65-2.18,2.78,2.78,0,0,0-2.09-.67,3.69,3.69,0,0,0-2.09.47,2.17,2.17,0,0,0-.88,1.3l-1.81-.21a3.37,3.37,0,0,1,1.54-2.38,6.27,6.27,0,0,1,3.31-.74,6.51,6.51,0,0,1,2.17.31,3.58,3.58,0,0,1,1.44.88,3.28,3.28,0,0,1,.79,1.43,7,7,0,0,1,.24,1.91v7.72H113v-1.63A5.71,5.71,0,0,1,111.37,157Zm-.32-5.6a12.57,12.57,0,0,0-2,.23,4,4,0,0,0-1.27.5,1.7,1.7,0,0,0-.67.77,2.71,2.71,0,0,0-.19,1.06,1.92,1.92,0,0,0,.54,1.43,2.45,2.45,0,0,0,1.78.54A4,4,0,0,0,112,155a3,3,0,0,0,1-2.39v-1.33Z"/><path class="cls-1" d="M120.31,155.51a4.57,4.57,0,0,0,2.28.49,3.39,3.39,0,0,0,2.15-.52,1.66,1.66,0,0,0,.64-1.37,2.75,2.75,0,0,0-.08-.65,1.31,1.31,0,0,0-.31-.55,2,2,0,0,0-.65-.43,5,5,0,0,0-1.08-.3l-1.52-.23a10.53,10.53,0,0,1-1.77-.41,4.6,4.6,0,0,1-1.29-.66,2.47,2.47,0,0,1-.79-1,3.35,3.35,0,0,1-.26-1.41A3.07,3.07,0,0,1,118,147a3.32,3.32,0,0,1,1-1.09,4.71,4.71,0,0,1,1.5-.69,6.94,6.94,0,0,1,1.87-.24,7.69,7.69,0,0,1,2.15.25,4,4,0,0,1,1.41.69,3,3,0,0,1,.86,1,6.61,6.61,0,0,1,.46,1.27l-1.82.3a4.51,4.51,0,0,0-.37-.85,1.79,1.79,0,0,0-.55-.61,2.49,2.49,0,0,0-.84-.37,4.78,4.78,0,0,0-1.23-.13,5.38,5.38,0,0,0-1.38.15,2.83,2.83,0,0,0-.89.4,1.44,1.44,0,0,0-.6,1.22,2.19,2.19,0,0,0,.09.66,1,1,0,0,0,.34.5,2,2,0,0,0,.69.38,6.4,6.4,0,0,0,1.13.28l1.72.27a5.68,5.68,0,0,1,3,1.2,3.68,3.68,0,0,1,.61,3.88,3.09,3.09,0,0,1-.89,1.1,4.37,4.37,0,0,1-1.5.73,7.26,7.26,0,0,1-2.09.27,9.12,9.12,0,0,1-2-.21,5.27,5.27,0,0,1-1.65-.65,3.54,3.54,0,0,1-1.15-1.19,3.92,3.92,0,0,1-.5-1.79h1.93A2.33,2.33,0,0,0,120.31,155.51Z"/><path class="cls-1" d="M138.73,156.62a5.52,5.52,0,0,1-3.53,1A5.29,5.29,0,0,1,131,156a6.75,6.75,0,0,1-1.44-4.59,8.27,8.27,0,0,1,.41-2.74,5.61,5.61,0,0,1,1.16-2,4.91,4.91,0,0,1,1.78-1.23,5.94,5.94,0,0,1,2.26-.42,5.87,5.87,0,0,1,2.37.43,4.48,4.48,0,0,1,1.62,1.21,5.12,5.12,0,0,1,.94,1.83,8.09,8.09,0,0,1,.31,2.32v1h-8.83a5.57,5.57,0,0,0,.24,1.67,4,4,0,0,0,.69,1.33,3.16,3.16,0,0,0,1.12.89,3.53,3.53,0,0,0,1.54.32,3.47,3.47,0,0,0,2.18-.56,2.82,2.82,0,0,0,.94-1.53h1.94A4.28,4.28,0,0,1,138.73,156.62Zm-.47-7.86a3.39,3.39,0,0,0-.58-1.19,2.69,2.69,0,0,0-1-.77,3.76,3.76,0,0,0-1.5-.27,3.2,3.2,0,0,0-2.47,1,4.61,4.61,0,0,0-1,2.81h6.78A6.08,6.08,0,0,0,138.26,148.76Z"/><path class="cls-1" d="M144.77,154.51l-1.2,5H142l.69-5Z"/><path class="cls-1" d="M151.57,146.94v-1.59h1.87v-1a4.34,4.34,0,0,1,.28-1.66,3.27,3.27,0,0,1,.79-1.14,3.2,3.2,0,0,1,1.15-.66,4.22,4.22,0,0,1,1.39-.22,8.19,8.19,0,0,1,1,.06,5,5,0,0,1,1,.22l-.32,1.56a3.26,3.26,0,0,0-.7-.15c-.23,0-.44,0-.66,0a2.31,2.31,0,0,0-1.38.43,1.82,1.82,0,0,0-.57,1.55v1.08h3v1.59h-3v10.3h-2v-10.3Z"/><path class="cls-1" d="M162.38,145.35v1.84a4.89,4.89,0,0,1,1.57-1.51,3.6,3.6,0,0,1,1.91-.53,5.26,5.26,0,0,1,1,.09l-.25,1.86-.46-.08a3.89,3.89,0,0,0-.51,0,3.47,3.47,0,0,0-1.12.19,2.92,2.92,0,0,0-1.08.66,3.37,3.37,0,0,0-.8,1,3,3,0,0,0-.28,1.33v7.06h-2V145.35Z"/><path class="cls-1" d="M171.1,157.17a4.84,4.84,0,0,1-1.79-1.24,5.41,5.41,0,0,1-1.13-2,8.24,8.24,0,0,1-.39-2.62,8,8,0,0,1,.41-2.62,5.76,5.76,0,0,1,1.18-2,5.13,5.13,0,0,1,1.82-1.28,6.11,6.11,0,0,1,2.38-.44,6.21,6.21,0,0,1,2.39.43,4.93,4.93,0,0,1,1.81,1.26,5.36,5.36,0,0,1,1.14,2,8.07,8.07,0,0,1,.39,2.6,8.32,8.32,0,0,1-.4,2.64,5.62,5.62,0,0,1-1.15,2,5,5,0,0,1-1.83,1.28,6.78,6.78,0,0,1-4.83,0Zm4.09-1.56a3.05,3.05,0,0,0,1.14-1,4.18,4.18,0,0,0,.66-1.48,8.66,8.66,0,0,0,.2-1.9,8.35,8.35,0,0,0-.2-1.86,4.08,4.08,0,0,0-.66-1.46,3.09,3.09,0,0,0-1.14-.95,4.06,4.06,0,0,0-3.3,0,3.11,3.11,0,0,0-1.12.95,4.08,4.08,0,0,0-.66,1.46,7.93,7.93,0,0,0-.21,1.89,7.84,7.84,0,0,0,.21,1.88,4.11,4.11,0,0,0,.65,1.47,2.92,2.92,0,0,0,1.12,1,4.2,4.2,0,0,0,3.31,0Z"/><path class="cls-1" d="M184,145.35v1.82a5.64,5.64,0,0,1,1.77-1.64,4,4,0,0,1,2-.54,3.69,3.69,0,0,1,2.15.57,3.37,3.37,0,0,1,1.21,1.66,5.46,5.46,0,0,1,1.84-1.67,4.47,4.47,0,0,1,2.2-.56,3.62,3.62,0,0,1,2.7.95,4.2,4.2,0,0,1,1,3.07v8.23h-2v-7.77a5.65,5.65,0,0,0-.14-1.35,2.17,2.17,0,0,0-.4-.85,1.46,1.46,0,0,0-.66-.43,2.73,2.73,0,0,0-.89-.13,3.73,3.73,0,0,0-1.11.18,3.4,3.4,0,0,0-1.12.65,3.18,3.18,0,0,0-.76.94,2.62,2.62,0,0,0-.3,1.27v7.49h-2v-7.75a3.32,3.32,0,0,0-.54-2.17,2,2,0,0,0-1.56-.61,3.16,3.16,0,0,0-2.2,1,4.68,4.68,0,0,0-.75.94,2.88,2.88,0,0,0-.36,1.54v7.08h-2V145.35Z"/><path class="cls-1" d="M208.91,145.35v1.82a5.64,5.64,0,0,1,1.77-1.64,4,4,0,0,1,2-.54,3.67,3.67,0,0,1,2.15.57,3.37,3.37,0,0,1,1.21,1.66,5.46,5.46,0,0,1,1.84-1.67,4.47,4.47,0,0,1,2.2-.56,3.66,3.66,0,0,1,2.71.95,4.24,4.24,0,0,1,.95,3.07v8.23h-2v-7.77a5.65,5.65,0,0,0-.14-1.35,2,2,0,0,0-.4-.85,1.46,1.46,0,0,0-.66-.43,2.69,2.69,0,0,0-.89-.13,3.78,3.78,0,0,0-1.11.18,3.4,3.4,0,0,0-1.12.65,3.18,3.18,0,0,0-.76.94,2.62,2.62,0,0,0-.3,1.27v7.49h-2v-7.75a3.32,3.32,0,0,0-.54-2.17,2,2,0,0,0-1.55-.61,3.17,3.17,0,0,0-2.21,1,4.68,4.68,0,0,0-.75.94,2.88,2.88,0,0,0-.36,1.54v7.08h-2V145.35Z"/><path class="cls-1" d="M228.85,140.82v2.33h-2.14v-2.33Zm-.07,4.53v11.89h-2V145.35Z"/><path class="cls-1" d="M234,140.82v16.42h-2V140.82Z"/><path class="cls-1" d="M244,157.07a4.58,4.58,0,0,1-2.28.54,5,5,0,0,1-2.26-.48,4.54,4.54,0,0,1-1.58-1.33,5.83,5.83,0,0,1-.92-2,10.26,10.26,0,0,1-.29-2.47,9.08,9.08,0,0,1,.36-2.65,6,6,0,0,1,1.05-2,4.32,4.32,0,0,1,1.66-1.27A5.38,5.38,0,0,1,242,145a5.22,5.22,0,0,1,1.91.37,4.49,4.49,0,0,1,1.8,1.44v-6h2v16.42h-2v-1.7A5.45,5.45,0,0,1,244,157.07Zm1.42-8.35a3.06,3.06,0,0,0-1-1.34,3.12,3.12,0,0,0-1-.58,3.79,3.79,0,0,0-1.14-.16,3.83,3.83,0,0,0-1.37.25,2.72,2.72,0,0,0-1.1.82,4,4,0,0,0-.74,1.45,7.85,7.85,0,0,0-.26,2.15,7.09,7.09,0,0,0,.29,2.21,4,4,0,0,0,.75,1.42,2.82,2.82,0,0,0,1.06.76,3.37,3.37,0,0,0,1.21.23,4.1,4.1,0,0,0,1.2-.16,3.54,3.54,0,0,0,1-.55,3.58,3.58,0,0,0,1.05-1.38,5.26,5.26,0,0,0,.36-2.09v-.81A6.48,6.48,0,0,0,245.45,148.72Z"/><path class="cls-1" d="M262.87,157.07a4.6,4.6,0,0,1-2.28.54,5,5,0,0,1-2.26-.48,4.45,4.45,0,0,1-1.58-1.33,5.83,5.83,0,0,1-.92-2,9.78,9.78,0,0,1-.3-2.47,8.75,8.75,0,0,1,.37-2.65,5.81,5.81,0,0,1,1-2,4.36,4.36,0,0,1,1.65-1.27,5.4,5.4,0,0,1,2.22-.43,5.22,5.22,0,0,1,1.91.37,4.46,4.46,0,0,1,1.79,1.44v-6h2v16.42h-1.95v-1.7A5.45,5.45,0,0,1,262.87,157.07Zm1.41-8.35a3.57,3.57,0,0,0-2-1.92,3.79,3.79,0,0,0-1.14-.16,3.83,3.83,0,0,0-1.37.25,2.72,2.72,0,0,0-1.1.82,4,4,0,0,0-.74,1.45,8.63,8.63,0,0,0,0,4.36,4,4,0,0,0,.76,1.42,2.82,2.82,0,0,0,1.06.76,3.33,3.33,0,0,0,1.21.23,4,4,0,0,0,1.19-.16,3.34,3.34,0,0,0,2.11-1.93,5.46,5.46,0,0,0,.35-2.09v-.81A6.24,6.24,0,0,0,264.28,148.72Z"/><path class="cls-1" d="M271.75,140.82v2.33h-2.14v-2.33Zm-.07,4.53v11.89h-2V145.35Z"/><path class="cls-1" d="M277.14,155.51a4.61,4.61,0,0,0,2.29.49,3.41,3.41,0,0,0,2.15-.52,1.68,1.68,0,0,0,.63-1.37,2.75,2.75,0,0,0-.08-.65,1.21,1.21,0,0,0-.31-.55,2,2,0,0,0-.64-.43,5.05,5.05,0,0,0-1.09-.3l-1.51-.23a10.09,10.09,0,0,1-1.77-.41,4.34,4.34,0,0,1-1.29-.66,2.39,2.39,0,0,1-.79-1,3.35,3.35,0,0,1-.27-1.41,3,3,0,0,1,.36-1.47,3.11,3.11,0,0,1,1-1.09,4.76,4.76,0,0,1,1.49-.69,7,7,0,0,1,1.87-.24,7.69,7.69,0,0,1,2.15.25,4.18,4.18,0,0,1,1.42.69,3,3,0,0,1,.85,1,6,6,0,0,1,.46,1.27l-1.82.3a4.53,4.53,0,0,0-.36-.85,1.82,1.82,0,0,0-.56-.61,2.49,2.49,0,0,0-.84-.37,4.78,4.78,0,0,0-1.23-.13,5.38,5.38,0,0,0-1.38.15,2.77,2.77,0,0,0-.88.4,1.47,1.47,0,0,0-.47.57,1.58,1.58,0,0,0-.14.65,2.19,2.19,0,0,0,.09.66,1.07,1.07,0,0,0,.35.5,2,2,0,0,0,.69.38,6.26,6.26,0,0,0,1.12.28l1.73.27a5.76,5.76,0,0,1,3,1.2,3.68,3.68,0,0,1,.61,3.88,3.13,3.13,0,0,1-.9,1.1,4.41,4.41,0,0,1-1.49.73,7.33,7.33,0,0,1-2.1.27,9.12,9.12,0,0,1-2-.21,5.12,5.12,0,0,1-1.64-.65,3.45,3.45,0,0,1-1.15-1.19,4,4,0,0,1-.51-1.79h1.93A2.33,2.33,0,0,0,277.14,155.51Z"/><path class="cls-1" d="M295.56,156.62a5.52,5.52,0,0,1-3.53,1,5.27,5.27,0,0,1-4.16-1.64,6.7,6.7,0,0,1-1.45-4.59,8.53,8.53,0,0,1,.41-2.74,5.62,5.62,0,0,1,1.17-2,4.82,4.82,0,0,1,1.78-1.23A5.93,5.93,0,0,1,292,145a5.87,5.87,0,0,1,2.37.43,4.32,4.32,0,0,1,1.62,1.21,5,5,0,0,1,.94,1.83,8.09,8.09,0,0,1,.31,2.32v1h-8.83a5.57,5.57,0,0,0,.25,1.67,4,4,0,0,0,.69,1.33,3.13,3.13,0,0,0,1.11.89A3.59,3.59,0,0,0,292,156a3.49,3.49,0,0,0,2.19-.56,2.87,2.87,0,0,0,.94-1.53h1.93A4.28,4.28,0,0,1,295.56,156.62Zm-.47-7.86a3.21,3.21,0,0,0-.57-1.19,2.73,2.73,0,0,0-1-.77,3.71,3.71,0,0,0-1.49-.27,3.19,3.19,0,0,0-2.47,1,4.68,4.68,0,0,0-1.05,2.81h6.78A6.08,6.08,0,0,0,295.09,148.76Z"/><path class="cls-1" d="M305.69,157a4.87,4.87,0,0,1-2.46.57,6,6,0,0,1-1.64-.22,3.6,3.6,0,0,1-1.29-.67,3.09,3.09,0,0,1-.84-1.11,3.82,3.82,0,0,1-.3-1.57,3.45,3.45,0,0,1,.52-2,3.65,3.65,0,0,1,1.38-1.2,6.69,6.69,0,0,1,1.94-.62,17.91,17.91,0,0,1,2.23-.23l2-.07v-.46a3.05,3.05,0,0,0-.64-2.18,2.8,2.8,0,0,0-2.1-.67,3.71,3.71,0,0,0-2.09.47,2.2,2.2,0,0,0-.87,1.3l-1.82-.21a3.43,3.43,0,0,1,1.54-2.38,6.29,6.29,0,0,1,3.31-.74,6.58,6.58,0,0,1,2.18.31,3.48,3.48,0,0,1,1.43.88,3.29,3.29,0,0,1,.8,1.43,7,7,0,0,1,.24,1.91v7.72h-1.93v-1.63A5.76,5.76,0,0,1,305.69,157Zm-.32-5.6a12.29,12.29,0,0,0-2,.23,4.06,4.06,0,0,0-1.28.5,1.83,1.83,0,0,0-.67.77,2.71,2.71,0,0,0-.19,1.06,1.92,1.92,0,0,0,.54,1.43,2.45,2.45,0,0,0,1.78.54,4,4,0,0,0,2.76-.87,3,3,0,0,0,1-2.39v-1.33Z"/><path class="cls-1" d="M314.63,155.51a4.61,4.61,0,0,0,2.29.49,3.41,3.41,0,0,0,2.15-.52,1.68,1.68,0,0,0,.63-1.37,2.75,2.75,0,0,0-.08-.65,1.21,1.21,0,0,0-.31-.55,1.93,1.93,0,0,0-.65-.43,4.79,4.79,0,0,0-1.08-.3l-1.51-.23a10.09,10.09,0,0,1-1.77-.41,4.34,4.34,0,0,1-1.29-.66,2.49,2.49,0,0,1-.8-1,3.51,3.51,0,0,1-.26-1.41,3,3,0,0,1,.36-1.47,3.11,3.11,0,0,1,1-1.09,4.76,4.76,0,0,1,1.49-.69,6.94,6.94,0,0,1,1.87-.24,7.69,7.69,0,0,1,2.15.25,4.18,4.18,0,0,1,1.42.69,3,3,0,0,1,.85,1,6,6,0,0,1,.46,1.27l-1.82.3a4,4,0,0,0-.37-.85,1.7,1.7,0,0,0-.55-.61,2.49,2.49,0,0,0-.84-.37,4.78,4.78,0,0,0-1.23-.13,5.38,5.38,0,0,0-1.38.15,2.77,2.77,0,0,0-.88.4,1.47,1.47,0,0,0-.47.57,1.44,1.44,0,0,0-.14.65,2.19,2.19,0,0,0,.09.66,1.07,1.07,0,0,0,.35.5,1.86,1.86,0,0,0,.69.38,6.26,6.26,0,0,0,1.12.28l1.73.27a5.76,5.76,0,0,1,3,1.2,3.68,3.68,0,0,1,.61,3.88,3.13,3.13,0,0,1-.9,1.1,4.41,4.41,0,0,1-1.49.73,7.33,7.33,0,0,1-2.1.27,9.12,9.12,0,0,1-2-.21,5.12,5.12,0,0,1-1.64-.65,3.45,3.45,0,0,1-1.15-1.19,4,4,0,0,1-.51-1.79h1.93A2.33,2.33,0,0,0,314.63,155.51Z"/><path class="cls-1" d="M333.05,156.62a5.52,5.52,0,0,1-3.53,1,5.26,5.26,0,0,1-4.16-1.64,6.7,6.7,0,0,1-1.45-4.59,8.53,8.53,0,0,1,.41-2.74,5.62,5.62,0,0,1,1.17-2,4.82,4.82,0,0,1,1.78-1.23,5.93,5.93,0,0,1,2.25-.42,5.87,5.87,0,0,1,2.37.43,4.32,4.32,0,0,1,1.62,1.21,5,5,0,0,1,.94,1.83,8.09,8.09,0,0,1,.31,2.32v1h-8.83a5.57,5.57,0,0,0,.24,1.67,4.4,4.4,0,0,0,.69,1.33,3.25,3.25,0,0,0,1.12.89,3.56,3.56,0,0,0,1.54.32,3.49,3.49,0,0,0,2.19-.56,2.87,2.87,0,0,0,.94-1.53h1.93A4.28,4.28,0,0,1,333.05,156.62Zm-.47-7.86a3.23,3.23,0,0,0-.58-1.19,2.62,2.62,0,0,0-1-.77,3.71,3.71,0,0,0-1.49-.27,3.19,3.19,0,0,0-2.47,1,4.68,4.68,0,0,0-1,2.81h6.78A6.08,6.08,0,0,0,332.58,148.76Z"/><path class="cls-1" d="M341.39,146.94v-1.59h1.84v-3.24h2v3.24h3.15v1.59h-3.15v7a2.3,2.3,0,0,0,.39,1.4,1.4,1.4,0,0,0,1.2.53,4.61,4.61,0,0,0,.88-.07,5.47,5.47,0,0,0,.7-.18l.35,1.54a8.55,8.55,0,0,1-1,.26,6.85,6.85,0,0,1-1.28.1,3.93,3.93,0,0,1-1.63-.29,2.5,2.5,0,0,1-1-.86,3.25,3.25,0,0,1-.49-1.31,9.36,9.36,0,0,1-.13-1.65v-6.44Z"/><path class="cls-1" d="M353,157.17a4.88,4.88,0,0,1-1.8-1.24,5.39,5.39,0,0,1-1.12-2,8.24,8.24,0,0,1-.39-2.62,7.75,7.75,0,0,1,.41-2.62,5.9,5.9,0,0,1,1.17-2,5.26,5.26,0,0,1,1.83-1.28,6.08,6.08,0,0,1,2.38-.44,6.21,6.21,0,0,1,2.39.43,4.93,4.93,0,0,1,1.81,1.26,5.5,5.5,0,0,1,1.14,2,8.78,8.78,0,0,1,0,5.24,5.47,5.47,0,0,1-1.15,2,4.85,4.85,0,0,1-1.82,1.28,6.78,6.78,0,0,1-4.83,0Zm4.09-1.56a3.05,3.05,0,0,0,1.14-1,4,4,0,0,0,.65-1.48,8.07,8.07,0,0,0,.21-1.9,7.79,7.79,0,0,0-.21-1.86,3.9,3.9,0,0,0-.65-1.46,3.09,3.09,0,0,0-1.14-.95,3.67,3.67,0,0,0-1.66-.35,3.58,3.58,0,0,0-1.64.35,3.14,3.14,0,0,0-1.13.95,4.06,4.06,0,0,0-.65,1.46,7.93,7.93,0,0,0-.21,1.89,7.84,7.84,0,0,0,.21,1.88,4.29,4.29,0,0,0,.64,1.47,3,3,0,0,0,1.13,1,4.2,4.2,0,0,0,3.31,0Z"/><path class="cls-1" d="M14.47,166.82v6.3a5.48,5.48,0,0,1,1.92-1.63,5,5,0,0,1,2.22-.5,3.78,3.78,0,0,1,3,1.1,4.75,4.75,0,0,1,1,3.24v7.91h-2v-7.52a3.59,3.59,0,0,0-.59-2.33,2.3,2.3,0,0,0-1.83-.68,4.08,4.08,0,0,0-1.32.23,3.14,3.14,0,0,0-1.18.74,3.71,3.71,0,0,0-.88,1.06,3.15,3.15,0,0,0-.3,1.47v7h-2V166.82Z"/><path class="cls-1" d="M28.5,183.17a4.92,4.92,0,0,1-1.79-1.24,5.41,5.41,0,0,1-1.13-2,8.24,8.24,0,0,1-.39-2.62,8,8,0,0,1,.41-2.62,5.76,5.76,0,0,1,1.18-2,5.08,5.08,0,0,1,1.83-1.28A6,6,0,0,1,31,171a6.28,6.28,0,0,1,2.39.43,5,5,0,0,1,1.8,1.26,5.36,5.36,0,0,1,1.14,2,8.89,8.89,0,0,1,0,5.24,5.62,5.62,0,0,1-1.15,2,5,5,0,0,1-1.83,1.28,6.2,6.2,0,0,1-2.41.45A6.33,6.33,0,0,1,28.5,183.17Zm4.1-1.56a3,3,0,0,0,1.13-1,4.18,4.18,0,0,0,.66-1.48,8.07,8.07,0,0,0,.21-1.9,7.79,7.79,0,0,0-.21-1.86,4.08,4.08,0,0,0-.66-1.46A3.06,3.06,0,0,0,32.6,173a3.7,3.7,0,0,0-1.66-.35,3.58,3.58,0,0,0-1.64.35,3.06,3.06,0,0,0-1.13.95,4.08,4.08,0,0,0-.66,1.46,8.5,8.5,0,0,0-.2,1.89,8.4,8.4,0,0,0,.2,1.88,4.3,4.3,0,0,0,.65,1.47,2.92,2.92,0,0,0,1.12,1,4.22,4.22,0,0,0,3.32,0Z"/><path class="cls-1" d="M41.74,181.51A4.61,4.61,0,0,0,44,182a3.41,3.41,0,0,0,2.15-.52,1.68,1.68,0,0,0,.63-1.37,2.75,2.75,0,0,0-.08-.65,1.31,1.31,0,0,0-.31-.55,2,2,0,0,0-.65-.43,4.79,4.79,0,0,0-1.08-.3L43.18,178a10.44,10.44,0,0,1-1.78-.41,4.41,4.41,0,0,1-1.28-.66,2.41,2.41,0,0,1-.8-1,3.51,3.51,0,0,1-.26-1.41,3,3,0,0,1,.36-1.47,3.18,3.18,0,0,1,1-1.09,4.82,4.82,0,0,1,1.5-.69,6.94,6.94,0,0,1,1.87-.24,7.69,7.69,0,0,1,2.15.25,4.18,4.18,0,0,1,1.42.69,3,3,0,0,1,.85,1,6,6,0,0,1,.46,1.27l-1.82.3a4.51,4.51,0,0,0-.37-.85,1.7,1.7,0,0,0-.55-.61,2.49,2.49,0,0,0-.84-.37,4.78,4.78,0,0,0-1.23-.13,5.38,5.38,0,0,0-1.38.15,2.67,2.67,0,0,0-.88.4,1.47,1.47,0,0,0-.47.57,1.44,1.44,0,0,0-.14.65,2.19,2.19,0,0,0,.09.66,1.12,1.12,0,0,0,.34.5,2,2,0,0,0,.69.38,6.63,6.63,0,0,0,1.13.28l1.73.27a5.76,5.76,0,0,1,3,1.2,3.68,3.68,0,0,1,.61,3.88,3.13,3.13,0,0,1-.9,1.1,4.41,4.41,0,0,1-1.49.73,7.33,7.33,0,0,1-2.1.27,9.12,9.12,0,0,1-2-.21,5.12,5.12,0,0,1-1.64-.65,3.45,3.45,0,0,1-1.15-1.19,4,4,0,0,1-.51-1.79h1.93A2.33,2.33,0,0,0,41.74,181.51Z"/><path class="cls-1" d="M53.39,171.35v1.7a5.29,5.29,0,0,1,1.71-1.54,4.78,4.78,0,0,1,2.29-.52,5,5,0,0,1,2.22.46,4.28,4.28,0,0,1,1.58,1.28,5.56,5.56,0,0,1,1,2,9.88,9.88,0,0,1,.31,2.52,8.75,8.75,0,0,1-.37,2.65,5.83,5.83,0,0,1-1.06,2,4.61,4.61,0,0,1-1.66,1.28,5.24,5.24,0,0,1-2.2.45,5.13,5.13,0,0,1-2-.4,4.3,4.3,0,0,1-1.76-1.44v5.93h-2V171.35Zm.26,8.25a3.81,3.81,0,0,0,.73,1.34,2.65,2.65,0,0,0,1.1.77,4,4,0,0,0,1.4.24,3.63,3.63,0,0,0,1.37-.25,2.63,2.63,0,0,0,1.09-.82,4.08,4.08,0,0,0,.73-1.46,8,8,0,0,0,.26-2.18,7.31,7.31,0,0,0-.28-2.2,4.24,4.24,0,0,0-.75-1.41,2.72,2.72,0,0,0-1-.76,3.33,3.33,0,0,0-1.21-.23,3.77,3.77,0,0,0-1.44.27,3.09,3.09,0,0,0-1.17.78,3.58,3.58,0,0,0-.77,1.31,5.68,5.68,0,0,0-.27,1.83v.8A6.67,6.67,0,0,0,53.65,179.6Z"/><path class="cls-1" d="M67.26,166.82v2.33H65.12v-2.33Zm-.07,4.53v11.89h-2V171.35Z"/><path class="cls-1" d="M69.17,172.94v-1.59H71v-3.24h2v3.24h3.15v1.59H73v7a2.3,2.3,0,0,0,.39,1.4,1.39,1.39,0,0,0,1.19.53,4.66,4.66,0,0,0,.89-.07,5.93,5.93,0,0,0,.7-.18l.34,1.54a8.06,8.06,0,0,1-1,.26,6.74,6.74,0,0,1-1.27.1,3.9,3.9,0,0,1-1.63-.29,2.37,2.37,0,0,1-1-.86,3.26,3.26,0,0,1-.5-1.31,10.48,10.48,0,0,1-.12-1.65v-6.44Z"/><path class="cls-1" d="M84.07,183a4.87,4.87,0,0,1-2.46.57A6.1,6.1,0,0,1,80,183.3a3.64,3.64,0,0,1-1.28-.67,3.09,3.09,0,0,1-.84-1.11,3.82,3.82,0,0,1-.3-1.57,3.37,3.37,0,0,1,.52-2,3.55,3.55,0,0,1,1.37-1.2,6.86,6.86,0,0,1,1.95-.62,17.71,17.71,0,0,1,2.23-.23l2-.07v-.46a3.05,3.05,0,0,0-.64-2.18,2.79,2.79,0,0,0-2.09-.67,3.69,3.69,0,0,0-2.09.47,2.17,2.17,0,0,0-.88,1.3l-1.81-.21a3.37,3.37,0,0,1,1.54-2.38A6.27,6.27,0,0,1,83,171a6.51,6.51,0,0,1,2.17.31,3.58,3.58,0,0,1,1.44.88,3.28,3.28,0,0,1,.79,1.43,7,7,0,0,1,.24,1.91v7.72H85.7v-1.63A5.71,5.71,0,0,1,84.07,183Zm-.32-5.6a12.43,12.43,0,0,0-2,.23,4,4,0,0,0-1.27.5,1.7,1.7,0,0,0-.67.77,2.71,2.71,0,0,0-.2,1.06,1.92,1.92,0,0,0,.54,1.43,2.49,2.49,0,0,0,1.79.54,4,4,0,0,0,2.76-.87,3,3,0,0,0,1-2.39v-1.33Z"/><path class="cls-1" d="M92.72,166.82v16.42h-2V166.82Z"/><path class="cls-1" d="M98,166.82v2.33H95.82v-2.33Zm-.07,4.53v11.89h-2V171.35Z"/><path class="cls-1" d="M107,173h-6.78v-1.61h9.27v1.5l-6.92,8.78h7.26l-.25,1.61h-9.5v-1.49Z"/><path class="cls-1" d="M117.74,183a4.87,4.87,0,0,1-2.46.57,6.1,6.1,0,0,1-1.65-.22,3.64,3.64,0,0,1-1.28-.67,3.09,3.09,0,0,1-.84-1.11,3.82,3.82,0,0,1-.3-1.57,3.37,3.37,0,0,1,.52-2,3.51,3.51,0,0,1,1.38-1.2,6.69,6.69,0,0,1,1.94-.62,17.71,17.71,0,0,1,2.23-.23l2-.07v-.46a3.05,3.05,0,0,0-.65-2.18,2.78,2.78,0,0,0-2.09-.67,3.69,3.69,0,0,0-2.09.47,2.17,2.17,0,0,0-.88,1.3l-1.81-.21a3.37,3.37,0,0,1,1.54-2.38,6.27,6.27,0,0,1,3.31-.74,6.51,6.51,0,0,1,2.17.31,3.58,3.58,0,0,1,1.44.88,3.28,3.28,0,0,1,.79,1.43,7,7,0,0,1,.24,1.91v7.72h-1.93v-1.63A5.71,5.71,0,0,1,117.74,183Zm-.32-5.6a12.57,12.57,0,0,0-2,.23,4,4,0,0,0-1.27.5,1.7,1.7,0,0,0-.67.77,2.71,2.71,0,0,0-.19,1.06,1.92,1.92,0,0,0,.54,1.43,2.45,2.45,0,0,0,1.78.54,4,4,0,0,0,2.76-.87,3,3,0,0,0,1-2.39v-1.33Z"/><path class="cls-1" d="M123.19,172.94v-1.59H125v-3.24h2v3.24h3.15v1.59H127v7a2.3,2.3,0,0,0,.39,1.4,1.4,1.4,0,0,0,1.2.53,4.55,4.55,0,0,0,.88-.07,6.12,6.12,0,0,0,.71-.18l.34,1.54a8.55,8.55,0,0,1-1,.26,6.85,6.85,0,0,1-1.28.1,3.93,3.93,0,0,1-1.63-.29,2.5,2.5,0,0,1-1-.86,3.25,3.25,0,0,1-.49-1.31,9.36,9.36,0,0,1-.13-1.65v-6.44Z"/><path class="cls-1" d="M134.44,166.82v2.33H132.3v-2.33Zm-.07,4.53v11.89h-2V171.35Z"/><path class="cls-1" d="M140.42,183.17a4.88,4.88,0,0,1-1.8-1.24,5.39,5.39,0,0,1-1.12-2,8.24,8.24,0,0,1-.39-2.62,7.75,7.75,0,0,1,.41-2.62,5.9,5.9,0,0,1,1.17-2,5.26,5.26,0,0,1,1.83-1.28,6.08,6.08,0,0,1,2.38-.44,6.21,6.21,0,0,1,2.39.43,4.93,4.93,0,0,1,1.81,1.26,5.5,5.5,0,0,1,1.14,2,8.78,8.78,0,0,1,0,5.24,5.47,5.47,0,0,1-1.15,2,4.85,4.85,0,0,1-1.82,1.28,6.78,6.78,0,0,1-4.83,0Zm4.09-1.56a3.05,3.05,0,0,0,1.14-1,4,4,0,0,0,.65-1.48,8.07,8.07,0,0,0,.21-1.9,7.79,7.79,0,0,0-.21-1.86,3.9,3.9,0,0,0-.65-1.46,3.09,3.09,0,0,0-1.14-.95,3.67,3.67,0,0,0-1.66-.35,3.58,3.58,0,0,0-1.64.35,3.14,3.14,0,0,0-1.13.95,4.06,4.06,0,0,0-.65,1.46,7.93,7.93,0,0,0-.21,1.89,7.84,7.84,0,0,0,.21,1.88,4.29,4.29,0,0,0,.64,1.47,3,3,0,0,0,1.13,1,4.2,4.2,0,0,0,3.31,0Z"/><path class="cls-1" d="M153.3,171.35v1.82a5.29,5.29,0,0,1,1.93-1.68,5.05,5.05,0,0,1,2.23-.5,3.78,3.78,0,0,1,3,1.1,4.75,4.75,0,0,1,1,3.24v7.91h-2v-7.52a3.52,3.52,0,0,0-.6-2.33,2.33,2.33,0,0,0-1.84-.68,4,4,0,0,0-1.32.23,3.25,3.25,0,0,0-1.19.74,3.83,3.83,0,0,0-.87,1.06,3.15,3.15,0,0,0-.3,1.47v7h-2V171.35Z"/><path class="cls-1" d="M164.86,173.65l1.19-1.05c.43-.37.81-.71,1.13-1a9,9,0,0,0,.81-.89,3.63,3.63,0,0,0,.48-.88,2.67,2.67,0,0,0,.16-.95,1.71,1.71,0,0,0-.46-1.29,1.73,1.73,0,0,0-1.27-.45,2.7,2.7,0,0,0-.85.11,1.66,1.66,0,0,0-.59.31,1.58,1.58,0,0,0-.39.52,4.17,4.17,0,0,0-.28.72l-1.11-.17a4.6,4.6,0,0,1,.34-.94,2.6,2.6,0,0,1,.59-.81,2.89,2.89,0,0,1,.93-.58,4.28,4.28,0,0,1,2.65,0,2.58,2.58,0,0,1,.92.56,2.38,2.38,0,0,1,.56.85,3,3,0,0,1,.19,1.1,3.77,3.77,0,0,1-.16,1.13,4.53,4.53,0,0,1-.52,1,6.77,6.77,0,0,1-.89,1c-.35.36-.78.75-1.27,1.17l-.8.68-.8.69H170l-.18,1.07h-6v-1C164.1,174.31,164.47,174,164.86,173.65Z"/><rect class="cls-2" width="2.72" height="97.07"/><rect class="cls-2" y="114.82" width="2.72" height="72.88"/></g></g></svg>