<svg xmlns="http://www.w3.org/2000/svg" viewBox="0 0 191.42 82.9"><defs><style>.cls-1{fill:#fff;}.cls-2{fill:#dfdf1d;}.cls-3{fill:#58c9e7;}.cls-4{fill:#7e9bbf;}</style></defs><g id="Layer_2" data-name="Layer 2"><g id="Layer_1-2" data-name="Layer 1"><path class="cls-1" d="M81,9.81A9.13,9.13,0,1,1,71.87.68,9.13,9.13,0,0,1,81,9.81"/><path class="cls-1" d="M33.73,45.18l-.95-1.94c-1.56-3.4-3.57-7.89-5.22-12.3-.07-.33-.27-.64-.6-.64H22.81c-.26,0-.45,0-.55.28l-.19.41c-.17.54.85.24,1.5.74a1.4,1.4,0,0,1,.32,1.75L18.94,45.17s-.26.58.28.58h.69c.5,0,.55-.14.76-.57l1.71-4h4.76c1.45,0,2.11,2,2.11,2L30,44.91c.14.39.34.82.91.82l2.48,0c.71,0,.36-.57.36-.57M25.4,33.83l2.45,6h-5Z"/><path class="cls-1" d="M50.59,32.82c0-.93-.46-1.25-1.51-1.46-.36-.07-.53-.16-.45-.4,0,0,.27-.68.6-.68h7.36c6.83,0,8.49,2.92,8.49,7.37,0,4.6-1.16,8.06-9,8.1-3,0-4.27.06-4.72,0-.74-.08-.77-.87-.79-1.45ZM54,42.6c0,1.68.71,1.56,2.53,1.56,3.73,0,5-2.53,5-6.46,0-4.38-1.52-6.1-5.27-6.1H54Z"/><path class="cls-1" d="M98.79,31c0-.59-.09-.63-.47-.67H94c-.33,0-.6.68-.6.68-.08.24.09.33.45.4,1,.2,1.47.51,1.52,1.33V44.9c0,.66.17.85.57.86h2.37c.31,0,.44-.27.44-.85Z"/><path class="cls-1" d="M114.27,42c0-.32-.69-.6-.69-.6-.23-.07-.32.1-.4.46a2.39,2.39,0,0,1-1.45,1.86,3.86,3.86,0,0,1-1.23.24h-1.94c-1.32,0-1.75-.43-1.75-2.28V31.13c0-.65-.13-.81-.47-.85h-4.27c-.33,0-.6.68-.6.68-.08.24.1.33.46.4,1,.21,1.5.53,1.5,1.46V45c0,.53.15.74.51.77h9.22c.65,0,1.1-.2,1.1-.55Z"/><path class="cls-1" d="M49.13,45.39a64.31,64.31,0,0,1-5.29-6.81,4.87,4.87,0,0,0,3.29-4.51c0-2.62-2.23-3.79-4.46-3.79H34.33c-.33,0-.6.68-.6.68-.08.24.1.33.45.4,1,.21,1.51.53,1.51,1.46h0V45.07c0,.44.14.66.5.66h2.33c.37,0,.54-.22.54-.66v-6h1c.66,0,1,.34,1.55,1.14l3.06,5c.12.17.29.52.67.52h3.51c.22,0,.29,0,.38-.11s.09-.08-.06-.23m-8.57-7.52H39.07v-6.4H41c1.49,0,2.59.64,2.64,2.85,0,2.43-1.39,3.55-3.07,3.55"/><path class="cls-1" d="M87.73,36.42c-2-1.22-3.21-2-2.94-3.62a2.28,2.28,0,0,1,2.34-1.7,2.55,2.55,0,0,1,1.25.27,5.64,5.64,0,0,1,2,2.14c.4.47.61.87.84.74.46-.25.24-2.51.2-2.72s0-.29-.23-.43a4.08,4.08,0,0,0-.59-.37,7.74,7.74,0,0,0-5.93-.4c-2.15.69-3.29,2.06-3.29,3.57,0,2.28,1.89,3.05,3.3,4,1.87,1.22,4.51,2.32,4.4,4.24C89,43.66,88,44.49,86.23,44.36a4.66,4.66,0,0,1-2.5-1.19,8.91,8.91,0,0,1-1.8-2c-.36-.57-.57-.89-.81-.76-.45.26-.24,2.89-.2,3.09a2,2,0,0,0,.24.65,4.63,4.63,0,0,0,1.2.9,9.09,9.09,0,0,0,3.88,1.06c3.3.09,6.37-1.56,6.26-4.8-.08-2.06-2.16-3.27-4.77-4.88"/><path class="cls-1" d="M18.47,37.47H10.59c-.33,0-.6.68-.6.68-.08.24.09.33.46.4,1,.2,4,.06,4.87,1.47a2.32,2.32,0,0,1,.22,1c0,1.73-1.56,3.3-4.7,3.3-3.38,0-6.54-2.91-6.54-8.08,0-4.35,2.39-7.5,6.54-7.5,3.63,0,5.83,3.12,6.3,3.78.36.51.6.86.83.74.46-.25.12-2.33.1-2.54a1.44,1.44,0,0,0-.26-.66,9.59,9.59,0,0,0-7-3C4.67,27.05,0,31.25,0,36.4c0,5.71,4.44,9.65,10.47,9.65a9.56,9.56,0,0,0,2.26-.3l.1,0a8.59,8.59,0,0,0,4.64-3,7.37,7.37,0,0,0,1.68-4v-.6c0-.44,0-.68-.68-.68"/><path class="cls-1" d="M80.27,45.12l-1-1.94c-1.35-3-4.51-10.32-4.54-10.54a1,1,0,0,1,.41-1.09c.54-.29,1.45-.13,1.29-.61l-.19-.41c-.1-.24-.29-.28-.55-.28H69.35c-.26,0-.46,0-.55.29l-.19.41c-.18.53.85.24,1.49.74a1.38,1.38,0,0,1,.33,1.75l-5,11.69s-.26.58.28.58h.69c.49,0,.55-.14.75-.58l1.72-4h4.76c1.45,0,2.11,2,2.11,2l.73,1.75c.13.4.34.83.91.83l2.48,0c.71,0,.36-.58.36-.58M69.4,39.78l2.54-6,2.45,6Z"/><path class="cls-1" d="M118.65,44.37a1.37,1.37,0,0,1-.13-.48.66.66,0,0,0-.26-.51.56.56,0,0,0,.32-.5.59.59,0,0,0-.23-.5,1.18,1.18,0,0,0-.7-.17l-.69,0v2.26h.53v-.88h.13c.22,0,.3.07.34.28.07.45.14.54.16.56l0,0h.56Zm-1.15-1.7h.14c.25,0,.4.09.4.26s-.26.25-.4.25h-.14Z"/><path class="cls-1" d="M115.53,43.38a2.2,2.2,0,1,0,2.2-2.2,2.2,2.2,0,0,0-2.2,2.2m.57,0A1.63,1.63,0,1,1,117.73,45a1.63,1.63,0,0,1-1.63-1.63"/><polygon class="cls-1" points="3.42 50.72 3.42 55.56 5.87 55.56 5.87 50.72 8.22 50.72 8.22 62.8 5.87 62.8 5.87 57.75 3.42 57.75 3.42 62.8 1.07 62.8 1.07 50.72 3.42 50.72"/><path class="cls-1" d="M16.51,60.13c0,.94,0,1.85.07,2.67h-2l-.12-.93h0a2.49,2.49,0,0,1-2,1.08C10.68,63,10,61.71,10,59.34V54h2.35v5.05c0,1.15.24,1.89.88,1.89a.87.87,0,0,0,.78-.6,1.89,1.89,0,0,0,.14-.75V54h2.35Z"/><path class="cls-1" d="M18.17,56.67c0-1,0-1.79-.07-2.63h2l.12,1h0a2.54,2.54,0,0,1,2.08-1.17A1.88,1.88,0,0,1,24.3,55.1h0a3,3,0,0,1,.9-.88,2.3,2.3,0,0,1,1.22-.33c1.58,0,2.28,1.26,2.28,3.36V62.8H26.38V57.64c0-1-.1-1.79-.8-1.79a.93.93,0,0,0-.88.79,1.75,1.75,0,0,0-.07.63V62.8H22.28V57.32c0-.65-.06-1.47-.79-1.47a1,1,0,0,0-.88.79,2.18,2.18,0,0,0-.09.66v5.5H18.17Z"/><path class="cls-1" d="M36.3,60.8a13.81,13.81,0,0,0,.13,2h-2.1l-.13-.86h-.05a2.26,2.26,0,0,1-1.94,1,2.43,2.43,0,0,1-2.31-2.66c0-2.31,2-3.24,4-3.26v-.2a1.11,1.11,0,0,0-1.23-1.2,3.33,3.33,0,0,0-1.79.52l-.43-1.59a6,6,0,0,1,2.74-.67c2.67,0,3.1,1.87,3.1,3.66ZM34,58.54c-.77,0-1.87.28-1.87,1.5,0,.86.49,1.19.85,1.19a1,1,0,0,0,1-.76,1.22,1.22,0,0,0,.06-.41Z"/><path class="cls-1" d="M38,56.67c0-1,0-1.79-.07-2.63h2L40,55h0a2.49,2.49,0,0,1,2.11-1.15c1.67,0,2.33,1.33,2.33,3.28V62.8H42.16V57.32c0-.74-.17-1.45-.86-1.45-.39,0-.71.26-.87.79a2,2,0,0,0-.13.8V62.8H38Z"/><path class="cls-1" d="M49.23,50.9a12.52,12.52,0,0,1,2.45-.23A4.64,4.64,0,0,1,55,51.6a3.53,3.53,0,0,1,1,2.65,4.05,4.05,0,0,1-1,2.91A4.16,4.16,0,0,1,52,58.32a3.54,3.54,0,0,1-.46,0v4.5H49.23Zm2.35,5.5a2.42,2.42,0,0,0,.39,0c1.19,0,1.71-.84,1.71-2s-.43-1.88-1.53-1.88a1.59,1.59,0,0,0-.57.09Z"/><path class="cls-1" d="M62.78,60.8a13.87,13.87,0,0,0,.12,2H60.8l-.12-.86h0a2.26,2.26,0,0,1-1.94,1,2.42,2.42,0,0,1-2.31-2.66c0-2.31,2-3.24,4-3.26v-.2a1.11,1.11,0,0,0-1.23-1.2,3.39,3.39,0,0,0-1.8.52l-.43-1.59a6,6,0,0,1,2.74-.67c2.67,0,3.11,1.87,3.11,3.66Zm-2.32-2.26c-.77,0-1.86.28-1.86,1.5,0,.86.48,1.19.84,1.19a1,1,0,0,0,1-.76,1.24,1.24,0,0,0,.05-.41Z"/><path class="cls-1" d="M64.41,56.82c0-1.06,0-1.94-.07-2.78h2l.13,1h0a2,2,0,0,1,1.85-1.17c1.92,0,2.71,2.1,2.71,4.52,0,3.12-1.37,4.54-2.86,4.54a1.76,1.76,0,0,1-1.45-.84h0v4.14H64.41Zm2.35,2.79a1.76,1.76,0,0,0,.12.74c.18.54.49.68.76.68.82,0,1.13-1.22,1.13-2.58,0-1.67-.42-2.57-1.12-2.57a.91.91,0,0,0-.78.74,1.44,1.44,0,0,0-.11.63Z"/><path class="cls-1" d="M73.55,53a1.18,1.18,0,0,1-1.16-1.28A1.2,1.2,0,1,1,73.57,53Zm-1.11,1h2.35V62.8H72.44Z"/><rect class="cls-1" x="76.44" y="50.4" width="2.35" height="12.41"/><rect class="cls-1" x="80.47" y="50.4" width="2.35" height="12.41"/><path class="cls-1" d="M87.56,63c-2.1,0-3.36-1.67-3.36-4.5,0-3.14,1.65-4.56,3.39-4.56,2.08,0,3.32,1.74,3.32,4.5,0,3.64-2,4.56-3.33,4.56Zm0-1.8c.77,0,1-1.47,1-2.74s-.2-2.72-1-2.72-1,1.5-1,2.72c0,1.49.23,2.74,1,2.74Z"/><path class="cls-1" d="M92.22,56.67c0-1,0-1.79-.07-2.63h2l.13,1h0a2.57,2.57,0,0,1,2.08-1.17,1.88,1.88,0,0,1,1.92,1.21h0a2.87,2.87,0,0,1,.89-.88,2.33,2.33,0,0,1,1.22-.33c1.58,0,2.28,1.26,2.28,3.36V62.8h-2.35V57.64c0-1-.11-1.79-.81-1.79a.92.92,0,0,0-.87.79,1.72,1.72,0,0,0-.08.63V62.8H96.33V57.32c0-.65-.06-1.47-.79-1.47a1,1,0,0,0-.88.79,1.9,1.9,0,0,0-.09.66v5.5H92.22Z"/><path class="cls-1" d="M110.35,60.8a13.87,13.87,0,0,0,.12,2h-2.1l-.12-.86h0a2.26,2.26,0,0,1-1.94,1A2.42,2.42,0,0,1,104,60.29c0-2.31,2-3.24,4-3.26v-.2a1.11,1.11,0,0,0-1.23-1.2,3.39,3.39,0,0,0-1.8.52l-.43-1.59a6,6,0,0,1,2.74-.67c2.68,0,3.11,1.87,3.11,3.66ZM108,58.54c-.77,0-1.86.28-1.86,1.5,0,.86.48,1.19.84,1.19a1,1,0,0,0,1-.76,1.24,1.24,0,0,0,0-.41Z"/><path class="cls-1" d="M113.75,54l.67,3.92c.12.77.25,1.56.38,2.44h0c.11-.89.21-1.63.34-2.44l.68-3.92h2.32l-2.35,8.76h-2.16L111.26,54Z"/><path class="cls-1" d="M120.19,53A1.18,1.18,0,0,1,119,51.72,1.2,1.2,0,1,1,120.21,53Zm-1.11,1h2.35V62.8h-2.35Z"/><path class="cls-1" d="M123.08,56.67c0-.86,0-1.81-.07-2.63h2l.13,1.29h.07A2.05,2.05,0,0,1,127,53.89a2.67,2.67,0,0,1,.5,0v2.33a3.7,3.7,0,0,0-.5,0,1.52,1.52,0,0,0-1.41,1.24,2.62,2.62,0,0,0-.11.88V62.8h-2.35Z"/><path class="cls-1" d="M134.77,60.13c0,.94,0,1.85.07,2.67h-2l-.12-.93h0a2.49,2.49,0,0,1-2,1.08c-1.67,0-2.33-1.24-2.33-3.61V54h2.35v5.05c0,1.15.23,1.89.87,1.89a.85.85,0,0,0,.78-.6,1.73,1.73,0,0,0,.14-.75V54h2.35Z"/><path class="cls-1" d="M136.38,60.69a3.35,3.35,0,0,0,1.58.46c.61,0,.95-.26.95-.77s-.25-.73-1-1.2a2.85,2.85,0,0,1-1.78-2.51A2.72,2.72,0,0,1,139,53.89a3.93,3.93,0,0,1,1.78.41L140.36,56a2.4,2.4,0,0,0-1.22-.36c-.6,0-.88.34-.88.73s.2.63,1,1.11a3,3,0,0,1,1.77,2.64c0,1.79-1.29,2.76-3.1,2.76a3.7,3.7,0,0,1-2-.5Z"/><path class="cls-1" d="M1.35,78.83a5,5,0,0,0,1.06-.09A2.84,2.84,0,0,0,3.79,78a4.46,4.46,0,0,0,1.13-2.35h0a2.16,2.16,0,0,1-1.67.72c-1.5,0-2.74-1.35-2.74-3.48s1.22-4.09,3.46-4.09,3.32,2,3.32,4.79a8,8,0,0,1-1.92,5.63,5,5,0,0,1-2.89,1.47,7.81,7.81,0,0,1-1.08,0Zm2.44-8.28c-.59,0-1,.77-1,2.18,0,1.13.38,2.06,1.09,2.06a1,1,0,0,0,.9-.6A3.37,3.37,0,0,0,4.87,73c0-1.52-.43-2.4-1.06-2.4Z"/><rect class="cls-1" x="8.2" y="74.85" width="3.57" height="1.68"/><path class="cls-2" d="M72.46,0h-.59V.68a9.13,9.13,0,0,1,0,18.26v8.11a13.53,13.53,0,0,0,.59-27"/><path class="cls-3" d="M64.77,7.78a7.1,7.1,0,0,1,7.1-7.1V0a11.5,11.5,0,1,0,0,23V14.88a7.1,7.1,0,0,1-7.1-7.1"/><path class="cls-4" d="M67.81,6.08A4.06,4.06,0,1,0,71.87,2a4.06,4.06,0,0,0-4.06,4.05"/><path class="cls-1" d="M128.87,27.17c-2,0-6.7.64-6.7,6.57,0,3.18,2.69,5.49,6.39,5.49.26,0,.79,0,.92,0a.13.13,0,0,1,.12,0,.16.16,0,0,1,.11.15.14.14,0,0,1,0,.06c-.28,1.37-2.51,3.9-5.77,5.79l0,0v.4H128l0,0a17.74,17.74,0,0,0,5.28-5.17,12.82,12.82,0,0,0,2.13-6.88c0-4.71-3.38-6.38-6.54-6.38m0,11c-1.82,0-3-1.9-3-4.42,0-2.72.79-5.47,3-5.47s2.95,2.84,2.95,5.27c0,2.59-1.3,4.62-2.95,4.62"/><path class="cls-1" d="M26.48,78.63a14,14,0,0,0,.12,2H24.5l-.12-.86h-.06a2.25,2.25,0,0,1-1.93,1,2.42,2.42,0,0,1-2.32-2.65c0-2.31,2-3.24,4-3.26v-.2a1.12,1.12,0,0,0-1.24-1.2,3.35,3.35,0,0,0-1.79.52l-.43-1.6a6,6,0,0,1,2.74-.66c2.68,0,3.11,1.87,3.11,3.66Zm-2.32-2.26c-.77,0-1.86.29-1.86,1.51,0,.86.48,1.18.84,1.18a1,1,0,0,0,1-.75,1.58,1.58,0,0,0,.05-.41Z"/><rect class="cls-1" x="28.12" y="68.23" width="2.35" height="12.41"/><path class="cls-1" d="M34.13,77.09A1.67,1.67,0,0,0,36,79a5.42,5.42,0,0,0,1.67-.28l.3,1.67a6.64,6.64,0,0,1-2.38.41c-2.41,0-3.72-1.58-3.72-4.32,0-2.94,1.55-4.7,3.52-4.7s3,1.49,3,4.14a7.29,7.29,0,0,1-.08,1.22Zm2.08-1.65c0-1.11-.28-2-1-2s-1.07,1.11-1.09,2Z"/><path class="cls-1" d="M39.67,74.51c0-1,0-1.79-.07-2.64h2l.12,1h0a2.51,2.51,0,0,1,2.12-1.15c1.66,0,2.32,1.33,2.32,3.28v5.63H43.89V75.15c0-.73-.19-1.45-.86-1.45-.4,0-.72.27-.88.79a2.13,2.13,0,0,0-.13.81v5.34H39.67Z"/><path class="cls-1" d="M50.65,69.6v2.27h1.72v1.67H50.65v4c0,1,.43,1.27.87,1.27a4.13,4.13,0,0,0,.63,0l0,1.83a5.58,5.58,0,0,1-1.43.16A2.42,2.42,0,0,1,49,80.19a3.27,3.27,0,0,1-.73-2.51V73.54h-1V71.87h1V70.33Z"/><path class="cls-1" d="M58.21,80.64,55.52,68.56h2.6L59,73.77c.2,1.31.45,2.78.61,4.2h0c.16-1.44.36-2.89.57-4.25L61,68.56h2.58L60.85,80.64Z"/><path class="cls-1" d="M70,78.63a14,14,0,0,0,.13,2H68l-.12-.86h-.06a2.25,2.25,0,0,1-1.93,1,2.42,2.42,0,0,1-2.32-2.65c0-2.31,2-3.24,4-3.26v-.2a1.11,1.11,0,0,0-1.24-1.2,3.38,3.38,0,0,0-1.79.52l-.43-1.6a6,6,0,0,1,2.74-.66c2.67,0,3.1,1.87,3.1,3.66Zm-2.31-2.26c-.77,0-1.86.29-1.86,1.51,0,.86.48,1.18.84,1.18a1,1,0,0,0,1-.75,1.58,1.58,0,0,0,0-.41Z"/><path class="cls-1" d="M76.5,80.48a3.85,3.85,0,0,1-1.49.27c-2.23,0-3.68-1.55-3.68-4.4,0-2.7,1.6-4.58,4-4.58a3.46,3.46,0,0,1,1.29.23l-.31,1.85a2.23,2.23,0,0,0-.88-.17c-1.13,0-1.79,1.08-1.79,2.59s.66,2.56,1.76,2.56a1.87,1.87,0,0,0,.88-.18Z"/><path class="cls-1" d="M82.29,80.48a3.85,3.85,0,0,1-1.49.27c-2.23,0-3.68-1.55-3.68-4.4,0-2.7,1.6-4.58,4-4.58a3.41,3.41,0,0,1,1.29.23l-.31,1.85a2.21,2.21,0,0,0-.87-.17c-1.13,0-1.8,1.08-1.8,2.59s.67,2.56,1.76,2.56a1.87,1.87,0,0,0,.88-.18Z"/><path class="cls-1" d="M84.33,70.83a1.19,1.19,0,0,1-1.17-1.27,1.21,1.21,0,0,1,1.21-1.29,1.28,1.28,0,0,1,0,2.56Zm-1.11,1h2.35v8.77H83.22Z"/><path class="cls-1" d="M87.22,74.51c0-1,0-1.79-.08-2.64h2l.13,1h0a2.51,2.51,0,0,1,2.12-1.15c1.67,0,2.33,1.33,2.33,3.28v5.63H91.43V75.15c0-.73-.18-1.45-.86-1.45-.4,0-.72.27-.88.79a2.35,2.35,0,0,0-.13.81v5.34H87.22Z"/><path class="cls-1" d="M97.4,77.09A1.67,1.67,0,0,0,99.25,79a5.42,5.42,0,0,0,1.67-.28l.3,1.67a6.6,6.6,0,0,1-2.38.41c-2.4,0-3.72-1.58-3.72-4.32,0-2.94,1.55-4.7,3.52-4.7s3,1.49,3,4.14a7.65,7.65,0,0,1-.07,1.22Zm2.08-1.65c0-1.11-.29-2-1-2s-1.08,1.11-1.1,2Z"/><path class="cls-1" d="M102.3,82.9a22.39,22.39,0,0,0,1-4l2-.15a20.85,20.85,0,0,1-1.73,4Z"/><path class="cls-1" d="M109.49,68.74a13.53,13.53,0,0,1,2.57-.24,4.61,4.61,0,0,1,3.22.9,3.07,3.07,0,0,1,1,2.51,3.19,3.19,0,0,1-1.87,3v0c.83.34,1.24,1.09,1.48,2.4a18.85,18.85,0,0,0,.77,3.28h-2.46a14.76,14.76,0,0,1-.61-2.91c-.21-1.48-.59-1.91-1.36-1.91h-.36v4.82h-2.35ZM111.84,74h.43c1,0,1.6-.83,1.6-1.89s-.42-1.75-1.46-1.79a1.85,1.85,0,0,0-.57.07Z"/><path class="cls-1" d="M119.67,77.09A1.67,1.67,0,0,0,121.52,79a5.42,5.42,0,0,0,1.67-.28l.3,1.67a6.6,6.6,0,0,1-2.38.41c-2.4,0-3.71-1.58-3.71-4.32,0-2.94,1.54-4.7,3.51-4.7s3,1.49,3,4.14a9.12,9.12,0,0,1-.07,1.22Zm2.09-1.65c0-1.11-.29-2-1-2s-1.08,1.11-1.1,2Z"/><path class="cls-1" d="M130.07,80.48a3.75,3.75,0,0,1-1.48.27c-2.23,0-3.68-1.55-3.68-4.4,0-2.7,1.6-4.58,4-4.58a3.41,3.41,0,0,1,1.29.23l-.31,1.85a2.27,2.27,0,0,0-.88-.17c-1.13,0-1.79,1.08-1.79,2.59s.66,2.56,1.76,2.56a1.87,1.87,0,0,0,.88-.18Z"/><path class="cls-1" d="M134.06,80.78c-2.1,0-3.36-1.66-3.36-4.5,0-3.14,1.65-4.55,3.39-4.55,2.08,0,3.32,1.74,3.32,4.5,0,3.64-2,4.55-3.34,4.55Zm.05-1.79c.77,0,1-1.47,1-2.74s-.2-2.73-1-2.73-1,1.51-1,2.73c0,1.48.24,2.74,1.06,2.74Z"/><path class="cls-1" d="M138.72,74.51c0-1,0-1.79-.08-2.64h2.05l.13,1h0a2.57,2.57,0,0,1,2.08-1.16,1.9,1.9,0,0,1,1.92,1.2h0a3.14,3.14,0,0,1,.9-.88,2.39,2.39,0,0,1,1.22-.32c1.58,0,2.28,1.25,2.28,3.35v5.56h-2.35V75.47c0-1-.11-1.79-.81-1.79a1,1,0,0,0-.88.79,2.1,2.1,0,0,0-.07.63v5.54h-2.35V75.15c0-.64,0-1.47-.79-1.47a1,1,0,0,0-.87.79,2,2,0,0,0-.09.66v5.51h-2.35Z"/><path class="cls-1" d="M150.91,68.23h2.35v4.54h0a2.07,2.07,0,0,1,1.82-1c1.69,0,2.48,1.94,2.48,4.28,0,3.09-1.22,4.77-2.85,4.77A1.8,1.8,0,0,1,153,79.62H153l-.12,1h-2c0-.77.07-1.76.07-2.58Zm2.35,9.27a1.86,1.86,0,0,0,.09.58c.2.62.52.78.8.78.8,0,1.12-1,1.12-2.65,0-1.52-.34-2.49-1.13-2.49-.36,0-.67.38-.79.81a1.84,1.84,0,0,0-.09.53Z"/><path class="cls-1" d="M160.05,70.83a1.18,1.18,0,0,1-1.16-1.27,1.2,1.2,0,1,1,2.4,0,1.19,1.19,0,0,1-1.22,1.27Zm-1.11,1h2.35v8.77h-2.35Z"/><path class="cls-1" d="M162.94,74.51c0-1,0-1.79-.07-2.64h2l.12,1h0a2.51,2.51,0,0,1,2.11-1.15c1.67,0,2.33,1.33,2.33,3.28v5.63h-2.34V75.15c0-.73-.18-1.45-.87-1.45-.39,0-.71.27-.87.79a2.13,2.13,0,0,0-.13.81v5.34h-2.35Z"/><path class="cls-1" d="M177.07,78.63a14,14,0,0,0,.13,2h-2.1l-.13-.86h-.05a2.28,2.28,0,0,1-1.94,1,2.42,2.42,0,0,1-2.31-2.65c0-2.31,2-3.24,4-3.26v-.2a1.12,1.12,0,0,0-1.24-1.2,3.33,3.33,0,0,0-1.79.52l-.43-1.6a6,6,0,0,1,2.74-.66c2.67,0,3.1,1.87,3.1,3.66Zm-2.31-2.26c-.77,0-1.87.29-1.87,1.51,0,.86.49,1.18.85,1.18a1,1,0,0,0,1-.75,1.22,1.22,0,0,0,.06-.41Z"/><path class="cls-1" d="M178.72,74.51c0-1,0-1.79-.07-2.64h2l.12,1h0A2.51,2.51,0,0,1,183,71.73c1.67,0,2.33,1.33,2.33,3.28v5.63h-2.34V75.15c0-.73-.18-1.45-.87-1.45-.39,0-.71.27-.88.79a2.38,2.38,0,0,0-.12.81v5.34h-2.35Z"/><path class="cls-1" d="M189.69,69.6v2.27h1.73v1.67h-1.73v4c0,1,.43,1.27.88,1.27a4.13,4.13,0,0,0,.63,0l0,1.83a5.66,5.66,0,0,1-1.44.16,2.41,2.41,0,0,1-1.7-.56,3.26,3.26,0,0,1-.74-2.51V73.54h-1V71.87h1V70.33Z"/><path class="cls-1" d="M15.12,71.87l.66,3.93c.13.77.25,1.56.38,2.44h0c.11-.9.22-1.63.34-2.44l.69-3.93h2.31l-2.35,8.77H15l-2.4-8.77Z"/></g></g></svg>