<svg xmlns="http://www.w3.org/2000/svg" xmlns:xlink="http://www.w3.org/1999/xlink" viewBox="0 0 327.49 63.78"><defs><style>.cls-1{fill:#00a370;}.cls-2{fill:#6cc7dd;}.cls-3{fill:#fff6e0;}</style></defs><g id="Layer_2" data-name="Layer 2"><g id="Layer_1-2" data-name="Layer 1"><path class="cls-1" d="M77.45,0C69.24,0,64.32,4.76,64.26,12.72v3.53a20.1,20.1,0,0,1,6,14.39V12.72c0-4.2,2.38-6.7,6.39-6.7h6.2a13,13,0,0,1-10.41,7.83v6A19.84,19.84,0,0,0,90.29,0Z"/><path class="cls-2" d="M50.15,10.49v6A14.11,14.11,0,0,1,64.26,30.64h6A20.16,20.16,0,0,0,50.15,10.49"/><path class="cls-2" d="M50.15,18.72v6A5.88,5.88,0,0,1,56,30.64h6A11.92,11.92,0,0,0,50.15,18.72"/><polygon class="cls-3" points="0 36.77 8.21 36.77 8.21 39.65 3.06 39.65 3.06 41.42 7.64 41.42 7.64 44.3 3.06 44.3 3.06 46.15 8.29 46.15 8.29 49.02 0 49.02 0 36.77"/><polygon class="cls-3" points="14.26 36.77 17.32 36.77 21.92 43.7 21.92 36.77 24.97 36.77 24.97 49.02 21.92 49.02 17.32 42.1 17.32 49.02 14.26 49.02 14.26 36.77"/><polygon class="cls-3" points="31.23 36.77 39.16 36.77 39.16 39.65 34.28 39.65 34.28 41.56 38.49 41.56 38.49 44.44 34.28 44.44 34.28 49.02 31.23 49.02 31.23 36.77"/><polygon class="cls-3" points="44.92 36.77 47.97 36.77 47.97 46.15 52.68 46.15 52.68 49.02 44.92 49.02 44.92 36.77"/><path class="cls-3" d="M56.68,42.9a6.5,6.5,0,1,1,6.5,6.34,6.29,6.29,0,0,1-6.5-6.34m9.86,0a3.37,3.37,0,1,0-3.36,3.39,3.31,3.31,0,0,0,3.36-3.39"/><polygon class="cls-3" points="74.99 36.77 78.05 36.77 82.64 43.7 82.64 36.77 85.7 36.77 85.7 49.02 82.64 49.02 78.05 42.1 78.05 49.02 74.99 49.02 74.99 36.77"/><path class="cls-3" d="M91.4,45.29h3.15c0,.68.72,1.23,1.63,1.23s1.49-.43,1.49-1c0-1.65-6.07-1-6.07-5.11,0-2.33,2-3.88,4.49-3.88s4.53,1.62,4.53,3.79H97.49c0-.61-.62-1.07-1.44-1.07s-1.33.36-1.33.93c0,1.68,6.1.72,6.1,5,0,2.45-2,4.05-4.68,4.05s-4.74-1.73-4.74-4"/><rect class="cls-3" x="106.55" y="36.77" width="3.06" height="12.26"/><path class="cls-3" d="M118.88,36.77h3.6L127,49h-3.34L123,47.09h-4.71L117.65,49h-3.28Zm3.18,7.51-1.41-4.14-1.4,4.14Z"/><path class="cls-3" d="M126.42,37.21h-.84v-.45h2.16v.45h-.84v2.42h-.48Zm1.88-.45H129l.87,2.18.88-2.18h.63v2.87h-.48v-2.1l-.85,2.1h-.36l-.86-2.1v2.1h-.48Z"/><path class="cls-3" d="M86.14,53.45a1.16,1.16,0,0,1-.76.29v-.58a1.17,1.17,0,0,0,.94-.52h.44v3.61h-.62Z"/><path class="cls-3" d="M87.34,54.45c0-1.11.58-1.87,1.41-1.87s1.4.76,1.4,1.87-.58,1.87-1.4,1.87-1.41-.77-1.41-1.87m2.18,0c0-.75-.32-1.27-.77-1.27S88,53.7,88,54.45s.32,1.27.77,1.27.77-.52.77-1.27"/><path class="cls-3" d="M90.64,55.26h.65a.63.63,0,0,0,.64.46.62.62,0,0,0,.66-.6.61.61,0,0,0-.64-.6.76.76,0,0,0-.58.26h-.62l.19-2.14h2v.59H91.48l-.09.92A1.1,1.1,0,0,1,92,54a1.17,1.17,0,0,1,1.2,1.17,1.22,1.22,0,0,1-1.29,1.19,1.24,1.24,0,0,1-1.29-1.06"/><path class="cls-3" d="M98.64,56.25V54.69a.56.56,0,0,0-.59-.6.59.59,0,0,0-.63.62v1.54h-.59V54.69a.56.56,0,0,0-.59-.6.59.59,0,0,0-.63.62v1.54H95V53.59h.59v.3a1,1,0,0,1,.82-.37,1,1,0,0,1,.87.49,1.08,1.08,0,0,1,.94-.49.94.94,0,0,1,1,1v1.73Z"/><path class="cls-3" d="M99.77,54.86a1.3,1.3,0,0,1,1.31-1.34A1.18,1.18,0,0,1,102,54v-.36h.59V56a1.28,1.28,0,0,1-1.37,1.34,1.24,1.24,0,0,1-1.32-.94h.61a.72.72,0,0,0,.71.41A.73.73,0,0,0,102,56v-.23a1.18,1.18,0,0,1-.94.43,1.29,1.29,0,0,1-1.31-1.33m2.25,0a.78.78,0,0,0-.82-.78.78.78,0,1,0,0,1.55.78.78,0,0,0,.82-.77"/><path class="cls-3" d="M85.62,58.16a.38.38,0,0,1,.75,0,.38.38,0,1,1-.75,0m.08.8h.59v2.67H85.7Z"/><path class="cls-3" d="M88.88,61.63V60.15a.64.64,0,0,0-.67-.68.66.66,0,0,0-.71.69v1.47h-.58V59h.58v.34a1.14,1.14,0,0,1,.9-.4A1,1,0,0,1,89.46,60v1.68Z"/><path class="cls-3" d="M89.57,62.1h.15a.4.4,0,0,0,.44-.43V59h.59v2.78c0,.61-.33.92-1,.92h-.18Zm.51-3.94a.37.37,0,0,1,.74,0,.37.37,0,1,1-.74,0"/><path class="cls-3" d="M91.25,60.3a1.43,1.43,0,0,1,2.85,0,1.48,1.48,0,0,1,0,.22H91.88a.81.81,0,0,0,.82.65.84.84,0,0,0,.71-.34h.65a1.45,1.45,0,0,1-1.37.87,1.39,1.39,0,0,1-1.44-1.4m.63-.26h1.6a.81.81,0,0,0-.81-.61.8.8,0,0,0-.79.61"/><path class="cls-3" d="M94.47,60.3a1.38,1.38,0,0,1,1.42-1.4A1.32,1.32,0,0,1,97.25,60h-.62a.76.76,0,0,0-.74-.5.83.83,0,0,0,0,1.66.76.76,0,0,0,.74-.5h.62a1.32,1.32,0,0,1-1.36,1.07,1.38,1.38,0,0,1-1.42-1.4"/><path class="cls-3" d="M98,60.86V59.5h-.45V59h.27a.19.19,0,0,0,.21-.21v-.51h.55V59h.88v.54h-.88v1.3a.28.28,0,0,0,.3.29.29.29,0,0,0,.31-.33h.52a.81.81,0,0,1-.87.87.77.77,0,0,1-.84-.77"/><path class="cls-3" d="M100,58.16a.38.38,0,0,1,.75,0,.38.38,0,1,1-.75,0m.08.8h.59v2.67h-.59Z"/><path class="cls-3" d="M101.15,60.3a1.43,1.43,0,1,1,1.43,1.4,1.38,1.38,0,0,1-1.43-1.4m2.25,0a.81.81,0,0,0-.82-.83.83.83,0,1,0,0,1.66.81.81,0,0,0,.82-.83"/><path class="cls-3" d="M106.49,61.63V60.15a.63.63,0,0,0-.66-.68.66.66,0,0,0-.71.69v1.47h-.58V59h.58v.34a1.14,1.14,0,0,1,.9-.4A1,1,0,0,1,107.08,60v1.68Z"/><path class="cls-3" d="M21.5,58.38c0-2.1.8-3.38,2.51-3.38,1.29,0,2,.71,2.18,2.17l-1.14.17c-.13-.89-.45-1.37-1-1.37-.77,0-1.24.68-1.24,2.41S23.24,60.8,24,60.8c.6,0,.93-.48,1.06-1.34l1.13.17c-.19,1.45-.92,2.15-2.17,2.15-1.73,0-2.52-1.31-2.52-3.4m5.58,2V52.64H28.3V60.2c0,.48.22.59.76.5l0,.9a2.21,2.21,0,0,1-.72.12c-.75,0-1.28-.38-1.28-1.37m6.43-.46.66.59a2.09,2.09,0,0,1-2.08,1.3c-1.75,0-2.57-1.39-2.57-3.42S30.38,55,32,55c1.47,0,2.18,1.06,2.18,2.9a5.73,5.73,0,0,1-.06.81H30.74c.06,1.32.52,2,1.47,2a1.35,1.35,0,0,0,1.3-.87m-2.76-2.07H33c0-1.14-.27-1.9-1-1.9s-1.18.65-1.26,1.9m4.21,2L36,59.69c0,.78.38,1.21,1.11,1.21s1-.31,1-.89-.34-.85-1-1.11l-.57-.21a1.91,1.91,0,0,1-1.47-1.9c0-1.07.77-1.78,2.11-1.78s2,.7,2,1.93l-1,.1c0-.74-.35-1.16-1-1.16s-.95.31-.95.84.26.8,1,1.08l.59.24c.93.36,1.53.8,1.53,1.87s-.75,1.87-2.2,1.87-2.16-.73-2.12-2M43.27,55l0,1.28a1.6,1.6,0,0,0-1.78,1.22v4.1H40.25V55.15h1l.09,1.14a1.72,1.72,0,0,1,2-1.26m.45,3.36c0-2.16.86-3.38,2.53-3.38s2.52,1.22,2.52,3.38-.85,3.39-2.52,3.39-2.53-1.24-2.53-3.39m3.79,0c0-1.74-.47-2.42-1.26-2.42S45,56.65,45,58.39s.47,2.41,1.27,2.41,1.26-.65,1.26-2.41m1.61-3.24H50.4l.81,3.52c.15.68.29,1.35.44,2.09h0c.15-.74.29-1.41.44-2.09l.82-3.52h1.27l-1.67,6.48H50.8Zm5.77-1.7a.72.72,0,0,1,.77-.73.71.71,0,0,1,.77.73.7.7,0,0,1-.77.71.71.71,0,0,1-.77-.71m.16,1.7h1.22v6.48H55.05ZM65.47,57v4.65H64.26V57.11c0-.69-.25-1-.81-1s-1,.37-1.31,1.29v4.27H60.92V57.11c0-.69-.25-1-.8-1s-1,.37-1.32,1.29v4.27H57.58V55.15h1l.08,1.19A1.81,1.81,0,0,1,60.49,55a1.46,1.46,0,0,1,1.57,1.23A1.79,1.79,0,0,1,63.83,55c1,0,1.64.65,1.64,2m6,4.63a2.15,2.15,0,0,1-.65.11.91.91,0,0,1-1-.71,1.8,1.8,0,0,1-1.58.75,1.73,1.73,0,0,1-1.83-1.92,1.77,1.77,0,0,1,2-1.9,2.08,2.08,0,0,1,1.3.37V57.25c0-.88-.29-1.26-1-1.26s-.94.35-1,1.17l-1.13-.22c0-1.24.82-1.91,2.15-1.91s2.06.65,2.06,2.18v2.93c0,.49.16.67.62.59Zm-1.77-1.37v-1.1a1.49,1.49,0,0,0-1-.35c-.72,0-1,.35-1,1s.32,1,1,1a1.29,1.29,0,0,0,1.12-.61M77,58.32c0,2.08-.77,3.46-2.17,3.46a1.6,1.6,0,0,1-1.56-1.07l-.09.92h-1v-9h1.22V56A1.59,1.59,0,0,1,75,55c1.42,0,2,1.28,2,3.31m-1.27,0c0-1.58-.36-2.37-1.16-2.37-.53,0-1,.35-1.15,1.07v2.72c.22.69.6,1,1.11,1,.78,0,1.2-.8,1.2-2.41m3.86-.44a10,10,0,0,0-1.67-5.86l-.81.42a9.85,9.85,0,0,1,1.43,5.44,9.86,9.86,0,0,1-1.43,5.43l.81.42a10.08,10.08,0,0,0,1.67-5.85m-59,5.85.81-.42A9.87,9.87,0,0,1,20,57.93a9.86,9.86,0,0,1,1.44-5.44l-.81-.42a9.94,9.94,0,0,0-1.68,5.86,10.1,10.1,0,0,0,1.68,5.85"/><image width="957" height="255" transform="translate(142.47 7.24) scale(0.19)" xlink:href="../Links/Layer%201.png"/></g></g></svg>