<svg xmlns="http://www.w3.org/2000/svg" xmlns:xlink="http://www.w3.org/1999/xlink" viewBox="0 0 266.37 436.33"><defs><style>.cls-1{fill:none;}.cls-2{clip-path:url(#clip-path);}.cls-3{fill:#fff;}.cls-4{fill:#004f58;}.cls-5{fill:#dfdf1d;}.cls-6{fill:#58c9e7;}.cls-7{fill:#7e9bbf;}.cls-8{clip-path:url(#clip-path-2);}.cls-9{fill:url(#linear-gradient);}</style><clipPath id="clip-path" transform="translate(0)"><rect class="cls-1" y="320.96" width="266.37" height="115.36"/></clipPath><clipPath id="clip-path-2" transform="translate(0)"><rect class="cls-1" y="320.96" width="266.37" height="115.36"/></clipPath><linearGradient id="linear-gradient" x1="-12.02" y1="154.34" x2="345.62" y2="154.34" gradientUnits="userSpaceOnUse"><stop offset="0" stop-color="#00857c"/><stop offset="0.28" stop-color="#036a6b"/><stop offset="1" stop-color="#0c2340"/></linearGradient></defs><g id="Layer_2" data-name="Layer 2"><g id="Layer_1-2" data-name="Layer 1"><g class="cls-2"><path class="cls-3" d="M112.72,334.61A12.71,12.71,0,1,1,100,321.9a12.71,12.71,0,0,1,12.7,12.71" transform="translate(0)"/><path class="cls-4" d="M46.94,383.84l-1.33-2.71c-2.16-4.73-5-11-7.26-17.11-.1-.46-.37-.89-.84-.89H31.75c-.37,0-.64.05-.77.39l-.26.57c-.25.75,1.18.33,2.08,1a1.9,1.9,0,0,1,.45,2.42l-6.89,16.28s-.36.8.39.8h1c.69,0,.77-.2,1.05-.8l2.38-5.61h6.63c2,0,2.94,2.8,2.94,2.8l1,2.43c.18.55.46,1.15,1.26,1.15,1.2,0,3.44,0,3.44,0,1,0,.51-.79.51-.79M35.35,368.05l3.41,8.34H31.81Z" transform="translate(0)"/><path class="cls-4" d="M70.41,366.63c0-1.29-.65-1.73-2.1-2-.5-.11-.75-.23-.63-.56,0,0,.37-.95.83-.95H78.75c9.5,0,11.82,4.06,11.82,10.26,0,6.39-1.62,11.22-12.5,11.27-4.23,0-5.95.08-6.57,0-1-.12-1.08-1.21-1.09-2Zm4.7,13.61c0,2.34,1,2.17,3.51,2.17,5.2,0,6.91-3.52,6.91-9,0-6.08-2.11-8.48-7.34-8.48H75.11Z" transform="translate(0)"/><path class="cls-4" d="M137.47,364c0-.83-.12-.88-.65-.94h-6c-.45,0-.83.95-.83.95-.12.33.13.45.63.55,1.38.28,2.05.72,2.12,1.85v17c0,.92.23,1.18.79,1.2h3.29c.44-.07.62-.39.62-1.19Z" transform="translate(0)"/><path class="cls-4" d="M159,379.47c0-.45-.95-.83-.95-.83-.33-.11-.45.13-.56.64a3.3,3.3,0,0,1-2,2.57,5.08,5.08,0,0,1-1.71.34h-2.7c-1.83,0-2.43-.59-2.43-3.17V364.29c0-.91-.19-1.13-.66-1.19H142c-.45,0-.83.95-.83.95-.11.33.13.45.63.55,1.45.3,2.1.75,2.1,2v16.89c0,.74.21,1,.71,1.08h12.83c.89,0,1.53-.28,1.53-.77Z" transform="translate(0)"/><path class="cls-4" d="M68.37,384.13A89.79,89.79,0,0,1,61,374.66a6.79,6.79,0,0,0,4.57-6.28c0-3.65-3.1-5.28-6.2-5.28H47.77c-.45,0-.83.95-.83.95-.11.33.13.45.63.55,1.46.3,2.1.75,2.1,2h0v17.05c0,.62.2.93.7.93h3.24c.51,0,.76-.31.76-.93v-8.35h1.31c.92.05,1.45.48,2.16,1.59l4.26,6.95c.17.25.4.74.93.74h4.89c.31,0,.4,0,.52-.16,0,0,.12-.12-.08-.32M56.45,373.67H54.38v-8.91h2.67c2.06,0,3.59.89,3.66,4,.07,3.39-1.93,4.95-4.26,4.95" transform="translate(0)"/><path class="cls-4" d="M122.09,371.64c-2.73-1.69-4.46-2.82-4.1-5a3.19,3.19,0,0,1,3.27-2.37,3.63,3.63,0,0,1,1.73.38c1.05.52,1.73,1.43,2.77,3,.56.64.84,1.21,1.17,1,.64-.35.34-3.5.28-3.78s-.06-.42-.33-.61a5.41,5.41,0,0,0-.82-.51,10.7,10.7,0,0,0-8.24-.55c-3,.95-4.59,2.86-4.59,5,0,3.17,2.63,4.24,4.6,5.53,2.59,1.69,6.28,3.22,6.12,5.9-.1,2.15-1.49,3.3-4,3.13a6.61,6.61,0,0,1-3.49-1.66,12.78,12.78,0,0,1-2.5-2.8c-.5-.79-.79-1.23-1.12-1.05-.63.35-.33,4-.27,4.29a2.33,2.33,0,0,0,.32.9,6.18,6.18,0,0,0,1.68,1.26,12.52,12.52,0,0,0,5.39,1.48c4.6.12,8.87-2.17,8.71-6.69-.11-2.86-3-4.54-6.63-6.79" transform="translate(0)"/><path class="cls-4" d="M25.71,373.11h-11c-.45,0-.83.95-.83.95-.12.33.12.45.63.55,1.39.28,5.5.09,6.78,2a3.33,3.33,0,0,1,.31,1.41c0,2.41-2.18,4.6-6.54,4.6-4.71,0-9.11-4.05-9.11-11.24C6,365.37,9.31,361,15.09,361c5.05,0,8.11,4.34,8.76,5.25.5.72.84,1.21,1.16,1,.64-.35.17-3.24.13-3.52a1.92,1.92,0,0,0-.36-.93,13.37,13.37,0,0,0-9.73-4.21c-8.55,0-15,5.84-15,13,0,8,6.18,13.43,14.58,13.43a13.48,13.48,0,0,0,3.14-.41l.14,0a12,12,0,0,0,6.45-4.21s2.3-2.69,2.35-5.5v-.83c0-.62-.08-.95-.95-.95" transform="translate(0)"/><path class="cls-4" d="M111.7,383.76l-1.33-2.7c-1.87-4.11-6.28-14.37-6.32-14.67a1.47,1.47,0,0,1,.57-1.52c.75-.41,2-.18,1.79-.85l-.26-.57c-.13-.34-.4-.4-.77-.4H96.51c-.36,0-.64.06-.77.4l-.26.57c-.25.75,1.18.33,2.08,1a1.92,1.92,0,0,1,.45,2.43l-6.89,16.27s-.36.81.39.81h1c.68,0,.76-.2,1-.8l2.39-5.62h6.62c2,0,2.93,2.81,2.93,2.81l1,2.43c.18.55.46,1.15,1.26,1.15,1.2,0,3.45,0,3.45,0,1,0,.5-.8.5-.8m-15.13-7.44,3.54-8.35,3.41,8.35Z" transform="translate(0)"/><path class="cls-4" d="M165.11,382.71a2.14,2.14,0,0,1-.18-.67.93.93,0,0,0-.35-.71.8.8,0,0,0,.44-.69.84.84,0,0,0-.32-.71,1.79,1.79,0,0,0-1-.23c-.37,0-1,.07-1,.07v3.14h.74v-1.24h.18a.41.41,0,0,1,.48.39c.09.63.19.76.22.79l0,.06h.78Zm-1.6-2.37.19,0c.35,0,.56.14.56.37s-.35.35-.56.35h-.19Z" transform="translate(0)"/><path class="cls-4" d="M160.77,381.34a3.07,3.07,0,1,0,3.07-3.06,3.07,3.07,0,0,0-3.07,3.06m.8,0a2.27,2.27,0,1,1,2.27,2.27,2.27,2.27,0,0,1-2.27-2.27" transform="translate(0)"/><polygon class="cls-4" points="4.75 391.55 4.75 398.28 8.17 398.28 8.17 391.55 11.44 391.55 11.44 408.36 8.17 408.36 8.17 401.33 4.75 401.33 4.75 408.36 1.49 408.36 1.49 391.55 4.75 391.55"/><path class="cls-4" d="M23,404.65c0,1.29.05,2.57.1,3.71H20.25l-.18-1.29h0a3.48,3.48,0,0,1-2.85,1.49c-2.32,0-3.24-1.72-3.24-5v-7.39h3.27v7c0,1.59.32,2.62,1.22,2.62A1.17,1.17,0,0,0,19.5,405a2.35,2.35,0,0,0,.2-1v-7.79H23Z" transform="translate(0)"/><path class="cls-4" d="M25.29,399.83c0-1.32-.05-2.5-.1-3.67H28l.18,1.42h.05A3.59,3.59,0,0,1,31.15,396a2.64,2.64,0,0,1,2.67,1.67h0a4.28,4.28,0,0,1,1.25-1.22,3.25,3.25,0,0,1,1.7-.45c2.2,0,3.17,1.75,3.17,4.67v7.73H36.72v-7.18c0-1.37-.15-2.5-1.13-2.5a1.31,1.31,0,0,0-1.22,1.1,2.79,2.79,0,0,0-.1.87v7.71H31v-7.63c0-.9-.07-2.05-1.09-2.05a1.35,1.35,0,0,0-1.23,1.1,3.1,3.1,0,0,0-.12.92v7.66H25.29Z" transform="translate(0)"/><path class="cls-4" d="M50.52,405.57a20.2,20.2,0,0,0,.17,2.79H47.77l-.17-1.19h-.08a3.14,3.14,0,0,1-2.69,1.39c-1.85,0-3.22-1.54-3.22-3.69,0-3.22,2.82-4.51,5.59-4.54v-.27a1.55,1.55,0,0,0-1.72-1.68,4.64,4.64,0,0,0-2.5.73l-.6-2.22A8.31,8.31,0,0,1,46.2,396c3.72,0,4.32,2.6,4.32,5.09Zm-3.22-3.15c-1.08,0-2.6.4-2.6,2.1,0,1.2.68,1.65,1.18,1.65a1.37,1.37,0,0,0,1.34-1.05,1.86,1.86,0,0,0,.08-.57Z" transform="translate(0)"/><path class="cls-4" d="M52.81,399.83c0-1.32-.05-2.5-.1-3.67h2.82l.18,1.4h0A3.47,3.47,0,0,1,58.7,396C61,396,62,397.81,62,400.53v7.83H58.67v-7.63c0-1-.24-2-1.19-2-.55,0-1,.37-1.22,1.1a3.14,3.14,0,0,0-.18,1.12v7.43H52.81Z" transform="translate(0)"/><path class="cls-4" d="M68.51,391.8a17,17,0,0,1,3.42-.33c1.94,0,3.49.3,4.56,1.3a4.88,4.88,0,0,1,1.45,3.69,5.62,5.62,0,0,1-1.42,4,5.75,5.75,0,0,1-4.1,1.63,4.57,4.57,0,0,1-.64,0v6.26H68.51Zm3.27,7.66a4.79,4.79,0,0,0,.55,0c1.64,0,2.36-1.17,2.36-2.74s-.59-2.62-2.12-2.62a2.57,2.57,0,0,0-.79.12Z" transform="translate(0)"/><path class="cls-4" d="M87.36,405.57a20.2,20.2,0,0,0,.17,2.79H84.61l-.17-1.19h-.07a3.16,3.16,0,0,1-2.7,1.39c-1.85,0-3.22-1.54-3.22-3.69,0-3.22,2.82-4.51,5.59-4.54v-.27a1.55,1.55,0,0,0-1.72-1.68,4.67,4.67,0,0,0-2.5.73l-.59-2.22A8.26,8.26,0,0,1,83,396c3.72,0,4.32,2.6,4.32,5.09Zm-3.22-3.15c-1.07,0-2.59.4-2.59,2.1,0,1.2.67,1.65,1.17,1.65a1.36,1.36,0,0,0,1.34-1.05,1.6,1.6,0,0,0,.08-.57Z" transform="translate(0)"/><path class="cls-4" d="M89.63,400c0-1.47,0-2.7-.1-3.87h2.85l.17,1.43h0A2.82,2.82,0,0,1,95.17,396c2.67,0,3.77,2.92,3.77,6.29,0,4.34-1.9,6.31-4,6.31a2.4,2.4,0,0,1-2-1.17h0v5.76H89.63Zm3.27,3.89a2.38,2.38,0,0,0,.18,1c.25.75.67.94,1,.94,1.15,0,1.58-1.69,1.58-3.59,0-2.32-.58-3.57-1.55-3.57a1.28,1.28,0,0,0-1.1,1,2.15,2.15,0,0,0-.15.88Z" transform="translate(0)"/><path class="cls-4" d="M102.36,394.72a1.64,1.64,0,0,1-1.62-1.78,1.67,1.67,0,1,1,1.64,1.78Zm-1.55,1.44h3.27v12.2h-3.27Z" transform="translate(0)"/><rect class="cls-4" x="106.37" y="391.1" width="3.27" height="17.27"/><rect class="cls-4" x="111.99" y="391.1" width="3.27" height="17.27"/><path class="cls-4" d="M121.84,408.56c-2.91,0-4.66-2.32-4.66-6.26,0-4.37,2.29-6.34,4.71-6.34,2.9,0,4.62,2.42,4.62,6.27,0,5.06-2.82,6.33-4.64,6.33Zm.08-2.49c1.07,0,1.35-2.05,1.35-3.82s-.28-3.79-1.4-3.79-1.45,2.1-1.45,3.79c0,2.07.33,3.82,1.47,3.82Z" transform="translate(0)"/><path class="cls-4" d="M128.33,399.83c0-1.32-.05-2.5-.1-3.67h2.85l.17,1.42h.05a3.59,3.59,0,0,1,2.9-1.62,2.65,2.65,0,0,1,2.67,1.67h0a4.12,4.12,0,0,1,1.24-1.22,3.27,3.27,0,0,1,1.7-.45c2.2,0,3.17,1.75,3.17,4.67v7.73h-3.27v-7.18c0-1.37-.15-2.5-1.12-2.5a1.31,1.31,0,0,0-1.23,1.1,2.79,2.79,0,0,0-.1.87v7.71h-3.26v-7.63c0-.9-.08-2.05-1.1-2.05a1.33,1.33,0,0,0-1.22,1.1,2.77,2.77,0,0,0-.13.92v7.66h-3.27Z" transform="translate(0)"/><path class="cls-4" d="M153.56,405.57a20.2,20.2,0,0,0,.17,2.79h-2.92l-.17-1.19h-.07a3.16,3.16,0,0,1-2.7,1.39c-1.84,0-3.22-1.54-3.22-3.69,0-3.22,2.82-4.51,5.59-4.54v-.27a1.55,1.55,0,0,0-1.72-1.68,4.61,4.61,0,0,0-2.49.73l-.61-2.22a8.35,8.35,0,0,1,3.82-.93c3.72,0,4.32,2.6,4.32,5.09Zm-3.22-3.15c-1.07,0-2.59.4-2.59,2.1,0,1.2.67,1.65,1.17,1.65a1.36,1.36,0,0,0,1.34-1.05,1.6,1.6,0,0,0,.08-.57Z" transform="translate(0)"/><path class="cls-4" d="M158.3,396.16l.92,5.47c.18,1.07.35,2.17.53,3.39h.05c.15-1.25.3-2.27.47-3.39l.95-5.47h3.22l-3.27,12.2h-3l-3.35-12.2Z" transform="translate(0)"/><path class="cls-4" d="M167.26,394.72a1.64,1.64,0,0,1-1.62-1.78,1.67,1.67,0,1,1,1.64,1.78Zm-1.55,1.44H169v12.2h-3.27Z" transform="translate(0)"/><path class="cls-4" d="M171.28,399.83c0-1.2-.05-2.52-.1-3.67H174l.18,1.8h.1a2.84,2.84,0,0,1,2.39-2,4.83,4.83,0,0,1,.7.05v3.25a4.87,4.87,0,0,0-.7,0,2.15,2.15,0,0,0-2,1.72,4,4,0,0,0-.15,1.23v6.18h-3.26Z" transform="translate(0)"/><path class="cls-4" d="M187.54,404.65c0,1.29.05,2.57.1,3.71h-2.82l-.17-1.29h-.05a3.45,3.45,0,0,1-2.84,1.49c-2.33,0-3.25-1.72-3.25-5v-7.39h3.27v7c0,1.59.33,2.62,1.22,2.62a1.15,1.15,0,0,0,1.07-.83,2.34,2.34,0,0,0,.21-1v-7.79h3.26Z" transform="translate(0)"/><path class="cls-4" d="M189.79,405.42a4.54,4.54,0,0,0,2.2.65c.84,0,1.32-.37,1.32-1.08s-.35-1-1.42-1.67c-2-1.12-2.47-2.37-2.47-3.49a3.78,3.78,0,0,1,4-3.87,5.43,5.43,0,0,1,2.47.57l-.57,2.4a3.46,3.46,0,0,0-1.7-.5c-.84,0-1.22.48-1.22,1s.27.87,1.42,1.54c1.8,1,2.47,2.3,2.47,3.67,0,2.5-1.79,3.84-4.31,3.84a5.28,5.28,0,0,1-2.78-.69Z" transform="translate(0)"/><path class="cls-4" d="M1.89,430.66a6.79,6.79,0,0,0,1.47-.12,4.1,4.1,0,0,0,1.92-1,6.12,6.12,0,0,0,1.57-3.26H6.78a3.06,3.06,0,0,1-2.32,1c-2.1,0-3.82-1.88-3.82-4.85,0-2.77,1.7-5.68,4.81-5.68s4.62,2.74,4.62,6.66a11.14,11.14,0,0,1-2.67,7.83,7,7,0,0,1-4,2.05,10.69,10.69,0,0,1-1.49.07Zm3.39-11.52c-.82,0-1.47,1.07-1.42,3,0,1.57.52,2.87,1.52,2.87a1.45,1.45,0,0,0,1.25-.85,4.8,4.8,0,0,0,.15-1.72c0-2.12-.6-3.34-1.48-3.34Z" transform="translate(0)"/><rect class="cls-4" x="11.41" y="425.12" width="4.97" height="2.34"/><path class="cls-5" d="M100.84,321c-.27,0-.55,0-.82,0v1a12.71,12.71,0,0,1,0,25.41v11.29a18.82,18.82,0,0,0,.82-37.62" transform="translate(0)"/><path class="cls-6" d="M90.13,331.79a9.88,9.88,0,0,1,9.88-9.88v-1a16,16,0,0,0,0,32V341.67a9.88,9.88,0,0,1-9.88-9.88" transform="translate(0)"/><path class="cls-7" d="M94.37,329.43a5.65,5.65,0,1,0,5.65-5.64,5.64,5.64,0,0,0-5.65,5.64" transform="translate(0)"/><path class="cls-4" d="M179.33,358.77c-2.8,0-9.31.89-9.31,9.15,0,4.42,3.74,7.64,8.89,7.64.35,0,1.1,0,1.27-.06a.23.23,0,0,1,.18,0,.23.23,0,0,1,.14.21.19.19,0,0,1,0,.08c-.4,1.91-3.5,5.43-8,8.07l-.05,0v.56h5.69l0,0a24.76,24.76,0,0,0,7.35-7.19,17.88,17.88,0,0,0,3-9.58c0-6.55-4.71-8.88-9.11-8.88m0,15.38c-2.53,0-4.15-2.65-4.15-6.16,0-3.78,1.09-7.6,4.15-7.6s4.11,3.95,4.11,7.33c0,3.61-1.8,6.43-4.11,6.43" transform="translate(0)"/><path class="cls-4" d="M36.84,430.39a18.69,18.69,0,0,0,.18,2.79H34.1L33.92,432h-.07a3.17,3.17,0,0,1-2.7,1.39c-1.84,0-3.22-1.54-3.22-3.69,0-3.22,2.83-4.52,5.59-4.54v-.28a1.55,1.55,0,0,0-1.72-1.67,4.64,4.64,0,0,0-2.49.73l-.6-2.22a8.31,8.31,0,0,1,3.82-.93c3.72,0,4.31,2.6,4.31,5.09Zm-3.22-3.14c-1.07,0-2.59.39-2.59,2.09,0,1.2.67,1.65,1.17,1.65a1.38,1.38,0,0,0,1.35-1.05,1.92,1.92,0,0,0,.07-.58Z" transform="translate(0)"/><rect class="cls-4" x="39.14" y="415.92" width="3.27" height="17.27"/><path class="cls-4" d="M47.5,428.24a2.32,2.32,0,0,0,2.57,2.59,7.36,7.36,0,0,0,2.32-.39l.42,2.32a9.19,9.19,0,0,1-3.32.57c-3.34,0-5.16-2.2-5.16-6,0-4.09,2.14-6.54,4.89-6.54s4.14,2.07,4.14,5.76a11.31,11.31,0,0,1-.1,1.7ZM50.39,426c0-1.55-.4-2.77-1.37-2.77s-1.5,1.54-1.52,2.77Z" transform="translate(0)"/><path class="cls-4" d="M55.21,424.65c0-1.32-.05-2.5-.1-3.67h2.82l.17,1.4h0a3.5,3.5,0,0,1,3-1.6c2.32,0,3.24,1.85,3.24,4.57v7.83H61.07v-7.63c0-1-.25-2-1.2-2-.55,0-1,.37-1.22,1.09a3.23,3.23,0,0,0-.17,1.13v7.43H55.21Z" transform="translate(0)"/><path class="cls-4" d="M70.48,417.81V421h2.4v2.32h-2.4v5.57c0,1.42.6,1.77,1.22,1.77a5.05,5.05,0,0,0,.88-.08l0,2.55a8.14,8.14,0,0,1-2,.22,3.41,3.41,0,0,1-2.37-.77c-.65-.65-1-1.57-1-3.49V423.3H65.77V421h1.44v-2.14Z" transform="translate(0)"/><path class="cls-4" d="M81,433.18l-3.74-16.81h3.61l1.2,7.26c.27,1.82.63,3.86.85,5.84h0c.22-2,.5-4,.8-5.92l1.14-7.18h3.6l-3.85,16.81Z" transform="translate(0)"/><path class="cls-4" d="M97.39,430.39a18.69,18.69,0,0,0,.18,2.79H94.65L94.47,432H94.4a3.17,3.17,0,0,1-2.7,1.39c-1.84,0-3.22-1.54-3.22-3.69,0-3.22,2.82-4.52,5.59-4.54v-.28a1.55,1.55,0,0,0-1.72-1.67,4.61,4.61,0,0,0-2.49.73l-.6-2.22a8.3,8.3,0,0,1,3.81-.93c3.72,0,4.32,2.6,4.32,5.09Zm-3.22-3.14c-1.07,0-2.59.39-2.59,2.09,0,1.2.67,1.65,1.17,1.65a1.38,1.38,0,0,0,1.35-1.05,1.92,1.92,0,0,0,.07-.58Z" transform="translate(0)"/><path class="cls-4" d="M106.45,433a5.24,5.24,0,0,1-2.07.37c-3.1,0-5.12-2.14-5.12-6.11,0-3.77,2.22-6.39,5.59-6.39a4.79,4.79,0,0,1,1.8.33l-.43,2.57a3.37,3.37,0,0,0-1.22-.23c-1.57,0-2.49,1.5-2.49,3.6s.92,3.56,2.44,3.56a2.56,2.56,0,0,0,1.22-.25Z" transform="translate(0)"/><path class="cls-4" d="M114.51,433a5.28,5.28,0,0,1-2.07.37c-3.1,0-5.12-2.14-5.12-6.11,0-3.77,2.22-6.39,5.59-6.39a4.79,4.79,0,0,1,1.8.33l-.43,2.57a3.37,3.37,0,0,0-1.22-.23c-1.57,0-2.49,1.5-2.49,3.6s.92,3.56,2.44,3.56a2.56,2.56,0,0,0,1.22-.25Z" transform="translate(0)"/><path class="cls-4" d="M117.35,419.54a1.65,1.65,0,0,1-1.62-1.78,1.68,1.68,0,1,1,1.65,1.78ZM115.8,421h3.28v12.2H115.8Z" transform="translate(0)"/><path class="cls-4" d="M121.37,424.65c0-1.32-.05-2.5-.1-3.67h2.82l.18,1.4h0a3.47,3.47,0,0,1,2.94-1.6c2.32,0,3.24,1.85,3.24,4.57v7.83h-3.26v-7.63c0-1-.25-2-1.2-2a1.33,1.33,0,0,0-1.23,1.09,3.49,3.49,0,0,0-.17,1.13v7.43h-3.27Z" transform="translate(0)"/><path class="cls-4" d="M135.54,428.24a2.33,2.33,0,0,0,2.57,2.59,7.26,7.26,0,0,0,2.32-.39l.43,2.32a9.15,9.15,0,0,1-3.32.57c-3.34,0-5.17-2.2-5.17-6,0-4.09,2.15-6.54,4.9-6.54s4.14,2.07,4.14,5.76a11.31,11.31,0,0,1-.1,1.7Zm2.9-2.29c0-1.55-.4-2.77-1.37-2.77s-1.5,1.54-1.53,2.77Z" transform="translate(0)"/><path class="cls-4" d="M142.36,436.33a31.85,31.85,0,0,0,1.38-5.5l2.75-.21a29.26,29.26,0,0,1-2.4,5.52Z" transform="translate(0)"/><path class="cls-4" d="M152.36,416.62a19.65,19.65,0,0,1,3.58-.33c1.79,0,3.41.25,4.48,1.25a4.28,4.28,0,0,1,1.35,3.49,4.44,4.44,0,0,1-2.59,4.19v0c1.15.48,1.72,1.53,2,3.35a26.91,26.91,0,0,0,1.07,4.57h-3.42a20.21,20.21,0,0,1-.85-4.05c-.3-2.07-.82-2.67-1.9-2.67h-.5v6.72h-3.27Zm3.27,7.33h.61c1.42,0,2.22-1.15,2.22-2.62s-.58-2.44-2-2.49a2.32,2.32,0,0,0-.81.1Z" transform="translate(0)"/><path class="cls-4" d="M166.54,428.24a2.32,2.32,0,0,0,2.57,2.59,7.36,7.36,0,0,0,2.32-.39l.42,2.32a9.14,9.14,0,0,1-3.31.57c-3.35,0-5.17-2.2-5.17-6,0-4.09,2.15-6.54,4.89-6.54s4.14,2.07,4.14,5.76a11.31,11.31,0,0,1-.1,1.7Zm2.9-2.29c0-1.55-.41-2.77-1.38-2.77s-1.5,1.54-1.52,2.77Z" transform="translate(0)"/><path class="cls-4" d="M181,433a5.24,5.24,0,0,1-2.07.37c-3.09,0-5.11-2.14-5.11-6.11,0-3.77,2.22-6.39,5.59-6.39a4.72,4.72,0,0,1,1.79.33l-.42,2.57a3.48,3.48,0,0,0-1.23-.23c-1.57,0-2.49,1.5-2.49,3.6s.92,3.56,2.45,3.56a2.61,2.61,0,0,0,1.22-.25Z" transform="translate(0)"/><path class="cls-4" d="M186.55,433.38c-2.92,0-4.66-2.32-4.66-6.26,0-4.37,2.29-6.34,4.71-6.34,2.9,0,4.62,2.42,4.62,6.26,0,5.07-2.82,6.34-4.64,6.34Zm.07-2.49c1.08,0,1.35-2.05,1.35-3.82s-.27-3.79-1.39-3.79-1.45,2.09-1.45,3.79c0,2.07.32,3.82,1.47,3.82Z" transform="translate(0)"/><path class="cls-4" d="M193,424.65c0-1.32,0-2.5-.1-3.67h2.84l.18,1.42h0a3.55,3.55,0,0,1,2.9-1.62,2.63,2.63,0,0,1,2.66,1.67h.05a4.16,4.16,0,0,1,1.25-1.22,3.25,3.25,0,0,1,1.7-.45c2.19,0,3.17,1.75,3.17,4.67v7.73h-3.27V426c0-1.38-.15-2.5-1.13-2.5a1.31,1.31,0,0,0-1.22,1.1,2.79,2.79,0,0,0-.1.87v7.71h-3.27v-7.63c0-.9-.07-2.05-1.1-2.05a1.34,1.34,0,0,0-1.22,1.1,3.1,3.1,0,0,0-.12.92v7.66H193Z" transform="translate(0)"/><path class="cls-4" d="M210,415.92h3.26v6.31h.06a2.88,2.88,0,0,1,2.54-1.45c2.35,0,3.44,2.7,3.44,6,0,4.29-1.69,6.63-4,6.63a2.53,2.53,0,0,1-2.4-1.62h-.07l-.18,1.42h-2.79c.05-1.07.1-2.44.1-3.59Zm3.26,12.9a2.41,2.41,0,0,0,.13.79c.27.88.72,1.1,1.12,1.1,1.1,0,1.55-1.37,1.55-3.69,0-2.12-.47-3.47-1.57-3.47-.5,0-.93.53-1.1,1.12a2.75,2.75,0,0,0-.13.75Z" transform="translate(0)"/><path class="cls-4" d="M222.73,419.54a1.65,1.65,0,0,1-1.62-1.78,1.67,1.67,0,0,1,1.67-1.79,1.79,1.79,0,0,1,0,3.57ZM221.19,421h3.26v12.2h-3.26Z" transform="translate(0)"/><path class="cls-4" d="M226.75,424.65c0-1.32-.05-2.5-.1-3.67h2.82l.17,1.4h.05a3.5,3.5,0,0,1,2.95-1.6c2.32,0,3.24,1.85,3.24,4.57v7.83h-3.26v-7.63c0-1-.26-2-1.21-2-.54,0-1,.37-1.22,1.09a3.23,3.23,0,0,0-.17,1.13v7.43h-3.27Z" transform="translate(0)"/><path class="cls-4" d="M246.41,430.39a18.69,18.69,0,0,0,.18,2.79h-2.92l-.18-1.19h-.07a3.18,3.18,0,0,1-2.7,1.39c-1.84,0-3.22-1.54-3.22-3.69,0-3.22,2.82-4.52,5.59-4.54v-.28a1.55,1.55,0,0,0-1.72-1.67,4.64,4.64,0,0,0-2.49.73l-.6-2.22a8.28,8.28,0,0,1,3.82-.93c3.71,0,4.31,2.6,4.31,5.09Zm-3.22-3.14c-1.07,0-2.59.39-2.59,2.09,0,1.2.67,1.65,1.17,1.65a1.38,1.38,0,0,0,1.35-1.05,1.92,1.92,0,0,0,.07-.58Z" transform="translate(0)"/></g><g class="cls-8"><path class="cls-4" d="M248.71,424.65c0-1.32-.05-2.5-.1-3.67h2.82l.17,1.4h.05a3.49,3.49,0,0,1,2.95-1.6c2.32,0,3.24,1.85,3.24,4.57v7.83h-3.27v-7.63c0-1-.25-2-1.2-2a1.31,1.31,0,0,0-1.22,1.09,3.23,3.23,0,0,0-.17,1.13v7.43h-3.27Z" transform="translate(0)"/><path class="cls-4" d="M264,417.81V421h2.39v2.32H264v5.57c0,1.42.6,1.77,1.22,1.77a5.05,5.05,0,0,0,.88-.08l0,2.55a8.14,8.14,0,0,1-2,.22,3.41,3.41,0,0,1-2.37-.77c-.64-.65-1-1.57-1-3.49V423.3h-1.45V421h1.45v-2.14Z" transform="translate(0)"/></g><g class="cls-2"><path class="cls-4" d="M21,421l.92,5.47c.18,1.07.35,2.17.53,3.39h.05c.15-1.24.29-2.27.47-3.39L24,421h3.22l-3.27,12.2h-3L17.57,421Z" transform="translate(0)"/></g><rect class="cls-9" x="8.51" width="249.36" height="308.68" rx="20.7"/><path class="cls-3" d="M40.26,25.6a3.94,3.94,0,0,0,2.5.68,4.7,4.7,0,0,0,1.34-.17,2.7,2.7,0,0,0,.88-.46,1.57,1.57,0,0,0,.49-.66,2.55,2.55,0,0,0,.14-.84A1.78,1.78,0,0,0,45.14,23a3,3,0,0,0-1.75-.8l-2.1-.39a12.69,12.69,0,0,1-2.2-.59,5,5,0,0,1-1.59-.94,3.75,3.75,0,0,1-1-1.41,5.27,5.27,0,0,1-.34-2,4.18,4.18,0,0,1,1.76-3.51,6,6,0,0,1,2-.89,10,10,0,0,1,2.53-.31,9.2,9.2,0,0,1,3,.41,5.26,5.26,0,0,1,1.9,1.08,4.26,4.26,0,0,1,1.08,1.55A7.67,7.67,0,0,1,48.83,17l-3.19.41a3.13,3.13,0,0,0-1-1.92,3.28,3.28,0,0,0-2.16-.59A6.08,6.08,0,0,0,41.1,15a2.9,2.9,0,0,0-.9.39,1.35,1.35,0,0,0-.47.55,1.66,1.66,0,0,0-.14.66A1.73,1.73,0,0,0,40.1,18a3.88,3.88,0,0,0,1.73.7l2.22.43a7.67,7.67,0,0,1,3.85,1.69,4.41,4.41,0,0,1,1.22,3.36,4.86,4.86,0,0,1-.39,2,4.37,4.37,0,0,1-1.18,1.56,5.46,5.46,0,0,1-2,1,9.07,9.07,0,0,1-2.76.38,7.84,7.84,0,0,1-5.06-1.42,5.5,5.5,0,0,1-1.89-4.27H39.3A2.91,2.91,0,0,0,40.26,25.6Z" transform="translate(0)"/><path class="cls-3" d="M60.41,27.81a5.3,5.3,0,0,1-3.84,1.25A6.69,6.69,0,0,1,54,28.61a4.59,4.59,0,0,1-1.78-1.27,5.36,5.36,0,0,1-1-2,8.91,8.91,0,0,1-.34-2.56,7.83,7.83,0,0,1,.4-2.57,5.49,5.49,0,0,1,1.14-2A5,5,0,0,1,54.22,17a6.43,6.43,0,0,1,2.49-.45,6.58,6.58,0,0,1,2.09.3,4.5,4.5,0,0,1,1.51.85,4,4,0,0,1,.95,1.3,5.86,5.86,0,0,1,.45,1.67l-3.19.43A3.12,3.12,0,0,0,58,19.61a1.63,1.63,0,0,0-1.41-.56,2.23,2.23,0,0,0-1.2.31,2.26,2.26,0,0,0-.76.83,3.81,3.81,0,0,0-.39,1.18,7.94,7.94,0,0,0-.11,1.4,8.17,8.17,0,0,0,.11,1.42,3.76,3.76,0,0,0,.38,1.2,2.08,2.08,0,0,0,.75.83,2.23,2.23,0,0,0,1.2.31A2,2,0,0,0,58,26a2.47,2.47,0,0,0,.61-1.56h3.22A5.2,5.2,0,0,1,60.41,27.81Z" transform="translate(0)"/><path class="cls-3" d="M69.58,28.5a4.53,4.53,0,0,1-2.26.49,5.28,5.28,0,0,1-1.5-.2,3.68,3.68,0,0,1-1.25-.63,3.35,3.35,0,0,1-.85-1.1,3.74,3.74,0,0,1-.31-1.6,3.39,3.39,0,0,1,.54-2,3.73,3.73,0,0,1,1.43-1.2,7.06,7.06,0,0,1,2-.61,18.11,18.11,0,0,1,2.23-.23l1.52-.07v-.59a1.67,1.67,0,0,0-.6-1.49,2.5,2.5,0,0,0-1.42-.41c-1.25,0-2,.48-2.15,1.43L64,20a3.74,3.74,0,0,1,1.63-2.69,6.59,6.59,0,0,1,3.53-.82,7.06,7.06,0,0,1,2.31.33,3.64,3.64,0,0,1,1.53.93,3.6,3.6,0,0,1,.84,1.49,6.94,6.94,0,0,1,.26,2V28.7h-3V27.2A6.44,6.44,0,0,1,69.58,28.5Zm.1-5a7.8,7.8,0,0,0-1.61.21,2.68,2.68,0,0,0-.94.39,1.17,1.17,0,0,0-.44.56,2.19,2.19,0,0,0-.11.7,1.13,1.13,0,0,0,.41.93,1.73,1.73,0,0,0,1.13.34,3.26,3.26,0,0,0,2-.57,2.46,2.46,0,0,0,.7-.8A2.5,2.5,0,0,0,71.08,24v-.61Z" transform="translate(0)"/><path class="cls-3" d="M79.91,16.88v1.63A4.37,4.37,0,0,1,81.58,17a4.55,4.55,0,0,1,2-.47,3.9,3.9,0,0,1,3,1.05,4.77,4.77,0,0,1,1,3.32V28.7H84.37V21.32a2.37,2.37,0,0,0-.47-1.7,1.78,1.78,0,0,0-1.27-.45,2.74,2.74,0,0,0-1,.18,2.81,2.81,0,0,0-.83.52,2.65,2.65,0,0,0-.53.76,2.05,2.05,0,0,0-.22,1V28.7H76.83V16.88Z" transform="translate(0)"/><path class="cls-3" d="M94.13,19.35V16.88H96V13.73h3.17v3.15h2.71v2.47H99.16V24.8a1.61,1.61,0,0,0,.38,1.26,1.49,1.49,0,0,0,1,.33l.64,0a4.67,4.67,0,0,0,.65-.13l.45,2.33a7.81,7.81,0,0,1-1.28.29,9.91,9.91,0,0,1-1.19.08A3.93,3.93,0,0,1,96.93,28,4.28,4.28,0,0,1,96,24.87V19.35Z" transform="translate(0)"/><path class="cls-3" d="M107,12.53v5.84a4.48,4.48,0,0,1,1.63-1.4,4.42,4.42,0,0,1,2-.45,3.9,3.9,0,0,1,3,1.05,4.77,4.77,0,0,1,1,3.32V28.7h-3.17V21.32a2.37,2.37,0,0,0-.47-1.7,1.78,1.78,0,0,0-1.27-.45,2.74,2.74,0,0,0-1,.18,2.81,2.81,0,0,0-.83.52,2.65,2.65,0,0,0-.53.76,2.05,2.05,0,0,0-.22,1V28.7h-3.17V12.53Z" transform="translate(0)"/><path class="cls-3" d="M126.47,28a5.79,5.79,0,0,1-3.72,1,5.67,5.67,0,0,1-4.43-1.63,6.63,6.63,0,0,1-1.48-4.62,7.61,7.61,0,0,1,.43-2.66,5.5,5.5,0,0,1,1.21-2,5.08,5.08,0,0,1,1.87-1.23,6.57,6.57,0,0,1,2.4-.42,5.13,5.13,0,0,1,4.08,1.56,6.13,6.13,0,0,1,1.37,4.21v1.27H120a3.56,3.56,0,0,0,.72,2.23,2.51,2.51,0,0,0,2,.8A2,2,0,0,0,125,25h3.08A4.61,4.61,0,0,1,126.47,28Zm-1.92-8.46a2.37,2.37,0,0,0-1.87-.67,2.75,2.75,0,0,0-1.11.2,2.28,2.28,0,0,0-.8.55,2.57,2.57,0,0,0-.51.82,3.24,3.24,0,0,0-.21,1h5.1A2.8,2.8,0,0,0,124.55,19.57Z" transform="translate(0)"/><path class="cls-3" d="M143.06,29.11a8.47,8.47,0,0,1-3.24-.59,6.64,6.64,0,0,1-2.43-1.7,7.6,7.6,0,0,1-1.52-2.67,10.77,10.77,0,0,1-.54-3.53,10.79,10.79,0,0,1,.54-3.54,7.35,7.35,0,0,1,1.54-2.67,6.76,6.76,0,0,1,2.43-1.7,9.11,9.11,0,0,1,6.45,0,6.64,6.64,0,0,1,2.42,1.7,7.72,7.72,0,0,1,1.5,2.67,11.08,11.08,0,0,1,.52,3.54,11,11,0,0,1-.52,3.54,7.22,7.22,0,0,1-1.54,2.64l2,2.42-2,1.72-2.06-2.53A8.41,8.41,0,0,1,143.06,29.11Zm1.67-7.23,1.84,2.31a7.8,7.8,0,0,0,.67-3.57,7.1,7.1,0,0,0-1-4.14A3.6,3.6,0,0,0,143.06,15a3.7,3.7,0,0,0-3.19,1.46,7,7,0,0,0-1.05,4.14,7.14,7.14,0,0,0,1.05,4.17,3.67,3.67,0,0,0,3.19,1.49,5.69,5.69,0,0,0,.83-.06,3.62,3.62,0,0,0,.77-.19l-2-2.43Z" transform="translate(0)"/><path class="cls-3" d="M159.27,12.53a9.54,9.54,0,0,1,3.13.44,5.14,5.14,0,0,1,1.94,1.16,3.82,3.82,0,0,1,1,1.58,5.75,5.75,0,0,1,.27,1.71,5.65,5.65,0,0,1-.56,2.63,4.47,4.47,0,0,1-1.9,1.79l3.28,6.86h-3.65L160,22.63h-3.17V28.7h-3.33V12.53Zm1.54,7.12a2,2,0,0,0,.82-.47,1.53,1.53,0,0,0,.42-.74,3.49,3.49,0,0,0,.11-1,2.57,2.57,0,0,0-.13-.83,1.77,1.77,0,0,0-.47-.7,2.18,2.18,0,0,0-.9-.47,5,5,0,0,0-1.46-.17h-2.33v4.5h2.62A4.15,4.15,0,0,0,160.81,19.65Z" transform="translate(0)"/><path class="cls-3" d="M182.26,27.81a5.33,5.33,0,0,1-3.84,1.25,6.69,6.69,0,0,1-2.58-.45,4.59,4.59,0,0,1-1.78-1.27,5.36,5.36,0,0,1-1-2,8.91,8.91,0,0,1-.34-2.56,7.83,7.83,0,0,1,.4-2.57,5.49,5.49,0,0,1,1.14-2A5.08,5.08,0,0,1,176.06,17a6.5,6.5,0,0,1,2.49-.45,6.65,6.65,0,0,1,2.1.3,4.5,4.5,0,0,1,1.51.85,4,4,0,0,1,1,1.3,6.21,6.21,0,0,1,.45,1.67l-3.19.43a3.12,3.12,0,0,0-.52-1.46,1.65,1.65,0,0,0-1.41-.56,2.23,2.23,0,0,0-1.2.31,2.18,2.18,0,0,0-.76.83,3.57,3.57,0,0,0-.39,1.18,7.93,7.93,0,0,0-.12,1.4,8.16,8.16,0,0,0,.12,1.42,3.76,3.76,0,0,0,.38,1.2,2.08,2.08,0,0,0,.75.83,2.23,2.23,0,0,0,1.2.31,2,2,0,0,0,1.47-.55,2.47,2.47,0,0,0,.61-1.56h3.22A5.2,5.2,0,0,1,182.26,27.81Z" transform="translate(0)"/><path class="cls-3" d="M187.13,27.43a6.48,6.48,0,0,1-1.56-4.66,7.7,7.7,0,0,1,.42-2.62,5.44,5.44,0,0,1,1.2-2A5.2,5.2,0,0,1,189.08,17a6.71,6.71,0,0,1,2.47-.43A6.78,6.78,0,0,1,194,17a5.2,5.2,0,0,1,1.89,1.23,5.28,5.28,0,0,1,1.19,2,8,8,0,0,1,.41,2.62,7.78,7.78,0,0,1-.42,2.64,5.65,5.65,0,0,1-1.2,2A5.23,5.23,0,0,1,194,28.63a6.71,6.71,0,0,1-2.47.43A5.84,5.84,0,0,1,187.13,27.43Zm6.45-1.88a5,5,0,0,0,.66-2.78,4.86,4.86,0,0,0-.66-2.77,2.64,2.64,0,0,0-4.06,0,4.86,4.86,0,0,0-.66,2.77,4.92,4.92,0,0,0,.65,2.79,2.61,2.61,0,0,0,4.07,0Z" transform="translate(0)"/><path class="cls-3" d="M204.45,29.06a4.31,4.31,0,0,1-3.71-1.67,7.81,7.81,0,0,1-1.22-4.65,8.67,8.67,0,0,1,.35-2.52,5.83,5.83,0,0,1,1-2A4.46,4.46,0,0,1,202.49,17a5,5,0,0,1,2.15-.45,5.13,5.13,0,0,1,1.75.31A4,4,0,0,1,208,18.06V12.53h3.17V28.7h-3.08V27.14A4.26,4.26,0,0,1,204.45,29.06Zm3.41-8.22a2.51,2.51,0,0,0-.62-1.11,1.93,1.93,0,0,0-.89-.53,4.09,4.09,0,0,0-1-.12,2.36,2.36,0,0,0-1,.2,2.23,2.23,0,0,0-.82.63,3.19,3.19,0,0,0-.55,1.14,5.8,5.8,0,0,0-.21,1.67,6.88,6.88,0,0,0,.2,1.78,3.23,3.23,0,0,0,.53,1.15,2,2,0,0,0,.79.64,2.45,2.45,0,0,0,1,.19,2.64,2.64,0,0,0,1.85-.66,2.71,2.71,0,0,0,.67-1.09,5.49,5.49,0,0,0,.22-1.67v-.41A6.75,6.75,0,0,0,207.86,20.84Z" transform="translate(0)"/><path class="cls-3" d="M223.24,28a5.84,5.84,0,0,1-3.73,1,5.69,5.69,0,0,1-4.43-1.63,6.68,6.68,0,0,1-1.48-4.62,7.61,7.61,0,0,1,.43-2.66,5.64,5.64,0,0,1,1.21-2,5.17,5.17,0,0,1,1.87-1.23,6.65,6.65,0,0,1,2.4-.42,5.17,5.17,0,0,1,4.09,1.56A6.18,6.18,0,0,1,225,22.29v1.27h-8.2a3.5,3.5,0,0,0,.73,2.23,2.49,2.49,0,0,0,2,.8A2,2,0,0,0,221.75,25h3.08A4.64,4.64,0,0,1,223.24,28Zm-1.93-8.46a2.37,2.37,0,0,0-1.87-.67,2.75,2.75,0,0,0-1.11.2,2.38,2.38,0,0,0-.8.55,2.57,2.57,0,0,0-.51.82,3,3,0,0,0-.2,1h5.09A2.8,2.8,0,0,0,221.31,19.57Z" transform="translate(0)"/><path class="cls-3" d="M38.38,46.52V44.05h1.86V40.9h3.17v3.15h2.71v2.47H43.41V52a1.61,1.61,0,0,0,.38,1.26,1.49,1.49,0,0,0,1,.33,4.68,4.68,0,0,0,.64,0,3.55,3.55,0,0,0,.65-.12l.45,2.33a6.85,6.85,0,0,1-1.28.28,8.2,8.2,0,0,1-1.19.08,4,4,0,0,1-2.88-.92A4.28,4.28,0,0,1,40.24,52V46.52Z" transform="translate(0)"/><path class="cls-3" d="M49,54.6a6.48,6.48,0,0,1-1.56-4.66,7.7,7.7,0,0,1,.42-2.62,5.44,5.44,0,0,1,1.2-2A5.08,5.08,0,0,1,51,44.12a6.71,6.71,0,0,1,2.47-.43,6.78,6.78,0,0,1,2.49.43,5.08,5.08,0,0,1,1.89,1.23,5.42,5.42,0,0,1,1.19,2,8.71,8.71,0,0,1,0,5.25,5.48,5.48,0,0,1-1.2,2,5.25,5.25,0,0,1-1.9,1.25,6.69,6.69,0,0,1-2.46.43A5.81,5.81,0,0,1,49,54.6Zm6.44-1.88a4.86,4.86,0,0,0,.67-2.78,4.78,4.78,0,0,0-.67-2.77,2.63,2.63,0,0,0-4.05,0,4.78,4.78,0,0,0-.67,2.77,4.91,4.91,0,0,0,.66,2.79,2.3,2.3,0,0,0,2,1A2.28,2.28,0,0,0,55.46,52.72Z" transform="translate(0)"/><path class="cls-3" d="M72.28,55.66a4.41,4.41,0,0,1-2.25.5,5.73,5.73,0,0,1-1.51-.2,3.63,3.63,0,0,1-1.24-.63,3.1,3.1,0,0,1-.85-1.1,3.74,3.74,0,0,1-.32-1.6,3.32,3.32,0,0,1,.55-2,3.53,3.53,0,0,1,1.42-1.2,7.06,7.06,0,0,1,2-.61,16.67,16.67,0,0,1,2.24-.23l1.51-.07v-.59a1.67,1.67,0,0,0-.6-1.49A2.46,2.46,0,0,0,71.8,46c-1.26,0-2,.48-2.15,1.43l-2.9-.27a3.71,3.71,0,0,1,1.63-2.69,6.56,6.56,0,0,1,3.53-.82,7.08,7.08,0,0,1,2.31.32,3.9,3.9,0,0,1,1.53.94,3.83,3.83,0,0,1,.84,1.49,6.94,6.94,0,0,1,.26,2v7.47h-3v-1.5A6.05,6.05,0,0,1,72.28,55.66Zm.11-5a8.55,8.55,0,0,0-1.61.2,2.87,2.87,0,0,0-.94.4,1.12,1.12,0,0,0-.44.56,1.94,1.94,0,0,0-.12.7,1.16,1.16,0,0,0,.41.93,1.75,1.75,0,0,0,1.13.33,3.29,3.29,0,0,0,2-.56,2.51,2.51,0,0,0,.7-.81,2.43,2.43,0,0,0,.27-1.21v-.61Z" transform="translate(0)"/><path class="cls-3" d="M88.7,55a5.26,5.26,0,0,1-3.84,1.26,6.69,6.69,0,0,1-2.58-.45,4.59,4.59,0,0,1-1.78-1.27,5.36,5.36,0,0,1-1-2A8.91,8.91,0,0,1,79.13,50a7.78,7.78,0,0,1,.4-2.57,5.49,5.49,0,0,1,1.14-2,5.08,5.08,0,0,1,1.83-1.28A7.29,7.29,0,0,1,87.09,44a4.5,4.5,0,0,1,1.51.85,4,4,0,0,1,1,1.3A6.21,6.21,0,0,1,90,47.81l-3.19.43a3.12,3.12,0,0,0-.52-1.46,1.65,1.65,0,0,0-1.41-.56,2.14,2.14,0,0,0-1.2.31,2.31,2.31,0,0,0-.76.82,4,4,0,0,0-.39,1.19,7.93,7.93,0,0,0-.12,1.4,8.16,8.16,0,0,0,.12,1.42,3.84,3.84,0,0,0,.38,1.2,2.15,2.15,0,0,0,.75.83,2.23,2.23,0,0,0,1.2.3,2,2,0,0,0,1.47-.54,2.47,2.47,0,0,0,.61-1.56h3.22A5.16,5.16,0,0,1,88.7,55Z" transform="translate(0)"/><path class="cls-3" d="M101.58,55a5.26,5.26,0,0,1-3.84,1.26,6.76,6.76,0,0,1-2.58-.45,4.66,4.66,0,0,1-1.78-1.27,5.36,5.36,0,0,1-1-2A9.27,9.27,0,0,1,92,50a8.05,8.05,0,0,1,.4-2.57,5.49,5.49,0,0,1,1.14-2,5,5,0,0,1,1.84-1.28,6.43,6.43,0,0,1,2.49-.45A6.54,6.54,0,0,1,100,44a4.5,4.5,0,0,1,1.51.85,3.83,3.83,0,0,1,1,1.3,5.55,5.55,0,0,1,.45,1.67l-3.19.43a3.12,3.12,0,0,0-.52-1.46,1.63,1.63,0,0,0-1.41-.56,2.14,2.14,0,0,0-1.2.31,2.2,2.2,0,0,0-.75.82,4,4,0,0,0-.4,1.19,7.94,7.94,0,0,0-.11,1.4,8.17,8.17,0,0,0,.11,1.42,4.12,4.12,0,0,0,.38,1.2,2,2,0,0,0,1.95,1.13,1.93,1.93,0,0,0,1.47-.54,2.54,2.54,0,0,0,.62-1.56H103A5.16,5.16,0,0,1,101.58,55Z" transform="translate(0)"/><path class="cls-3" d="M114.53,55.2a5.8,5.8,0,0,1-3.73,1,5.67,5.67,0,0,1-4.42-1.63A6.63,6.63,0,0,1,104.9,50a7.57,7.57,0,0,1,.43-2.66,5.5,5.5,0,0,1,1.21-2,5.11,5.11,0,0,1,1.87-1.24,6.77,6.77,0,0,1,2.39-.41,5.14,5.14,0,0,1,4.09,1.56,6.12,6.12,0,0,1,1.37,4.21v1.27h-8.19a3.56,3.56,0,0,0,.72,2.23,2.53,2.53,0,0,0,2,.8,2,2,0,0,0,2.22-1.58h3.08A4.65,4.65,0,0,1,114.53,55.2Zm-1.92-8.46a2.39,2.39,0,0,0-1.87-.68,2.68,2.68,0,0,0-1.11.21,2.33,2.33,0,0,0-.81.55,2.57,2.57,0,0,0-.51.82,3.23,3.23,0,0,0-.2,1h5.1A2.79,2.79,0,0,0,112.61,46.74Z" transform="translate(0)"/><path class="cls-3" d="M121.76,53.47a3.89,3.89,0,0,0,1.63.31A3.37,3.37,0,0,0,125,53.5a1,1,0,0,0,.49-.92,1.13,1.13,0,0,0-.31-.79,2,2,0,0,0-1.16-.47L122.4,51a6.91,6.91,0,0,1-3.21-1.16,3,3,0,0,1-1-2.5,3.11,3.11,0,0,1,.37-1.54,3.35,3.35,0,0,1,1.06-1.16,5.3,5.3,0,0,1,1.61-.73,7.55,7.55,0,0,1,2.08-.26,8.31,8.31,0,0,1,2.35.28,4.49,4.49,0,0,1,1.55.76,3,3,0,0,1,.91,1.13,5.86,5.86,0,0,1,.44,1.4l-2.83.37a2,2,0,0,0-.71-1.2,2.74,2.74,0,0,0-1.65-.39,5,5,0,0,0-1,.1,2.13,2.13,0,0,0-.65.26,1,1,0,0,0-.34.36.89.89,0,0,0-.11.39,1,1,0,0,0,.35.83,3.73,3.73,0,0,0,1.37.44l1.5.25a10.07,10.07,0,0,1,2.06.52,3.87,3.87,0,0,1,1.3.78,2.49,2.49,0,0,1,.68,1.1,5,5,0,0,1,.19,1.47,3.25,3.25,0,0,1-1.26,2.68,6.3,6.3,0,0,1-3.92,1,10.21,10.21,0,0,1-2-.19,5.11,5.11,0,0,1-1.72-.67,3.77,3.77,0,0,1-1.24-1.27,4.2,4.2,0,0,1-.56-2h3A1.66,1.66,0,0,0,121.76,53.47Z" transform="translate(0)"/><path class="cls-3" d="M133.92,53.47a3.86,3.86,0,0,0,1.63.31,3.37,3.37,0,0,0,1.62-.28,1,1,0,0,0,.49-.92,1.17,1.17,0,0,0-.31-.79,2,2,0,0,0-1.17-.47L134.55,51a6.91,6.91,0,0,1-3.2-1.16,3,3,0,0,1-1-2.5,3.11,3.11,0,0,1,.37-1.54,3.41,3.41,0,0,1,1.05-1.16,5.47,5.47,0,0,1,1.62-.73,7.52,7.52,0,0,1,2.07-.26,8.34,8.34,0,0,1,2.36.28,4.58,4.58,0,0,1,1.55.76,3.1,3.1,0,0,1,.91,1.13,5.86,5.86,0,0,1,.44,1.4l-2.83.37a2.05,2.05,0,0,0-.72-1.2,2.71,2.71,0,0,0-1.64-.39,5,5,0,0,0-1,.1,2.32,2.32,0,0,0-.66.26,1,1,0,0,0-.34.36,1,1,0,0,0-.1.39,1,1,0,0,0,.35.83,3.66,3.66,0,0,0,1.37.44l1.5.25a10.25,10.25,0,0,1,2.06.52,4,4,0,0,1,1.3.78,2.58,2.58,0,0,1,.68,1.1,5,5,0,0,1,.19,1.47,3.23,3.23,0,0,1-1.27,2.68,6.24,6.24,0,0,1-3.91,1,10.21,10.21,0,0,1-2-.19,5,5,0,0,1-1.72-.67,3.89,3.89,0,0,1-1.25-1.27,4.2,4.2,0,0,1-.55-2h3A1.66,1.66,0,0,0,133.92,53.47Z" transform="translate(0)"/><path class="cls-3" d="M146.85,46.52V44.05h1.85V40.9h3.17v3.15h2.72v2.47h-2.72V52a1.61,1.61,0,0,0,.39,1.26,1.46,1.46,0,0,0,1,.33,4.73,4.73,0,0,0,.65,0,3.71,3.71,0,0,0,.65-.12l.45,2.33a7,7,0,0,1-1.28.28,8.3,8.3,0,0,1-1.19.08,4,4,0,0,1-2.89-.92A4.32,4.32,0,0,1,148.7,52V46.52Z" transform="translate(0)"/><path class="cls-3" d="M159.73,39.7v5.84a4.48,4.48,0,0,1,1.63-1.4,4.42,4.42,0,0,1,1.95-.45,3.9,3.9,0,0,1,3,1.05,4.77,4.77,0,0,1,1,3.32v7.81H164.1V48.49a2.32,2.32,0,0,0-.48-1.7,1.76,1.76,0,0,0-1.26-.46,2.83,2.83,0,0,0-1.06.19,2.77,2.77,0,0,0-.82.52,2.67,2.67,0,0,0-.54.76,2.18,2.18,0,0,0-.21,1v7.11h-3.17V39.7Z" transform="translate(0)"/><path class="cls-3" d="M179.19,55.2a5.8,5.8,0,0,1-3.73,1A5.67,5.67,0,0,1,171,54.6,6.63,6.63,0,0,1,169.55,50a7.57,7.57,0,0,1,.44-2.66,5.5,5.5,0,0,1,1.21-2,5.15,5.15,0,0,1,1.86-1.24,6.87,6.87,0,0,1,2.4-.41,5.14,5.14,0,0,1,4.09,1.56,6.12,6.12,0,0,1,1.37,4.21v1.27h-8.2a3.62,3.62,0,0,0,.73,2.23,2.53,2.53,0,0,0,2,.8,2,2,0,0,0,2.22-1.58h3.08A4.69,4.69,0,0,1,179.19,55.2Zm-1.93-8.46a2.35,2.35,0,0,0-1.86-.68,2.68,2.68,0,0,0-1.11.21,2.33,2.33,0,0,0-.81.55,2.57,2.57,0,0,0-.51.82,3.23,3.23,0,0,0-.2,1h5.1A2.8,2.8,0,0,0,177.26,46.74Z" transform="translate(0)"/><path class="cls-3" d="M191.93,52.77a4,4,0,0,0,2.51.68,4.58,4.58,0,0,0,1.33-.17,2.66,2.66,0,0,0,.89-.46,1.66,1.66,0,0,0,.48-.67,2.23,2.23,0,0,0,.15-.83,1.78,1.78,0,0,0-.48-1.19,3,3,0,0,0-1.74-.81L193,48.94a12.33,12.33,0,0,1-2.19-.59,4.91,4.91,0,0,1-1.6-.94,3.66,3.66,0,0,1-1-1.42,5.18,5.18,0,0,1-.34-2,4.1,4.1,0,0,1,1.75-3.51,6,6,0,0,1,2-.89,9.66,9.66,0,0,1,2.54-.31,9.09,9.09,0,0,1,2.94.41A5.31,5.31,0,0,1,199,40.78,4.12,4.12,0,0,1,200,42.33a7.25,7.25,0,0,1,.47,1.83l-3.2.41a3.13,3.13,0,0,0-1-1.93,3.37,3.37,0,0,0-2.16-.58,5.61,5.61,0,0,0-1.42.14,2.73,2.73,0,0,0-.89.39,1.31,1.31,0,0,0-.48.55,1.65,1.65,0,0,0-.13.66,1.73,1.73,0,0,0,.51,1.36,3.82,3.82,0,0,0,1.73.7l2.22.43A7.71,7.71,0,0,1,199.58,48a4.42,4.42,0,0,1,1.22,3.36,4.71,4.71,0,0,1-.4,2,4.39,4.39,0,0,1-1.17,1.56,5.63,5.63,0,0,1-2,1,9.18,9.18,0,0,1-2.77.38,7.92,7.92,0,0,1-5.06-1.42,5.52,5.52,0,0,1-1.89-4.27H191A3,3,0,0,0,191.93,52.77Z" transform="translate(0)"/><path class="cls-3" d="M206.81,52.77a3.94,3.94,0,0,0,2.5.68,4.7,4.7,0,0,0,1.34-.17,2.7,2.7,0,0,0,.88-.46,1.6,1.6,0,0,0,.49-.67,2.23,2.23,0,0,0,.14-.83,1.76,1.76,0,0,0-.47-1.19,3.07,3.07,0,0,0-1.74-.81l-2.11-.38a12.69,12.69,0,0,1-2.2-.59,5,5,0,0,1-1.59-.94,3.79,3.79,0,0,1-1-1.42,5.18,5.18,0,0,1-.34-2,4.14,4.14,0,0,1,1.76-3.51,6,6,0,0,1,2-.89,9.58,9.58,0,0,1,2.53-.31,9.2,9.2,0,0,1,2.95.41,5.26,5.26,0,0,1,1.9,1.08,4.26,4.26,0,0,1,1.08,1.55,7.67,7.67,0,0,1,.46,1.83l-3.19.41a3.19,3.19,0,0,0-1-1.93,3.34,3.34,0,0,0-2.16-.58,5.58,5.58,0,0,0-1.41.14,2.9,2.9,0,0,0-.9.39,1.35,1.35,0,0,0-.47.55,1.66,1.66,0,0,0-.14.66,1.73,1.73,0,0,0,.51,1.36,3.88,3.88,0,0,0,1.73.7l2.22.43A7.67,7.67,0,0,1,214.45,48a4.38,4.38,0,0,1,1.22,3.36,4.86,4.86,0,0,1-.39,2,4.55,4.55,0,0,1-1.18,1.56,5.46,5.46,0,0,1-2,1,9.07,9.07,0,0,1-2.76.38,7.92,7.92,0,0,1-5.06-1.42,5.52,5.52,0,0,1-1.89-4.27h3.42A2.91,2.91,0,0,0,206.81,52.77Z" transform="translate(0)"/><path class="cls-3" d="M221.42,39.7V55.87h-3.37V39.7Z" transform="translate(0)"/><rect class="cls-3" x="25.28" y="75.49" width="215.81" height="215.81" rx="12.68"/><rect x="37.14" y="87.35" width="5.19" height="36.34"/><rect x="37.14" y="128.88" width="5.19" height="5.19"/><rect x="37.14" y="149.65" width="5.19" height="10.38"/><rect x="37.14" y="175.61" width="5.19" height="5.19"/><rect x="37.14" y="185.99" width="5.19" height="15.58"/><rect x="37.14" y="206.76" width="5.19" height="31.15"/><rect x="37.14" y="243.1" width="5.19" height="36.34"/><rect x="42.33" y="87.35" width="5.19" height="5.19"/><rect x="42.33" y="118.5" width="5.19" height="5.19"/><rect x="42.33" y="134.07" width="5.19" height="5.19"/><rect x="42.33" y="144.46" width="5.19" height="10.38"/><rect x="42.33" y="160.03" width="5.19" height="10.38"/><rect x="42.33" y="175.61" width="5.19" height="5.19"/><rect x="42.33" y="191.18" width="5.19" height="5.19"/><rect x="42.33" y="211.95" width="5.19" height="5.19"/><rect x="42.33" y="243.1" width="5.19" height="5.19"/><rect x="42.33" y="274.25" width="5.19" height="5.19"/><rect x="47.52" y="87.35" width="5.19" height="5.19"/><rect x="47.52" y="97.73" width="5.19" height="15.58"/><rect x="47.52" y="118.5" width="5.19" height="5.19"/><rect x="47.52" y="128.88" width="5.19" height="10.38"/><rect x="47.52" y="144.46" width="5.19" height="5.19"/><rect x="47.52" y="154.84" width="5.19" height="5.19"/><rect x="47.52" y="180.8" width="5.19" height="5.19"/><rect x="47.52" y="191.18" width="5.19" height="5.19"/><rect x="47.52" y="206.76" width="5.19" height="20.77"/><rect x="47.52" y="232.72" width="5.19" height="5.19"/><rect x="47.52" y="243.1" width="5.19" height="5.19"/><rect x="47.52" y="253.49" width="5.19" height="15.58"/><rect x="47.52" y="274.25" width="5.19" height="5.19"/><rect x="52.71" y="87.35" width="5.19" height="5.19"/><rect x="52.71" y="97.73" width="5.19" height="15.58"/><rect x="52.71" y="118.5" width="5.19" height="5.19"/><rect x="52.71" y="128.88" width="5.19" height="20.77"/><rect x="52.71" y="160.03" width="5.19" height="5.19"/><rect x="52.71" y="175.61" width="5.19" height="10.38"/><rect x="52.71" y="191.18" width="5.19" height="5.19"/><rect x="52.71" y="206.76" width="5.19" height="5.19"/><rect x="52.71" y="217.14" width="5.19" height="15.58"/><rect x="52.71" y="243.1" width="5.19" height="5.19"/><rect x="52.71" y="253.49" width="5.19" height="15.58"/><rect x="52.71" y="274.25" width="5.19" height="5.19"/><rect x="57.91" y="87.35" width="5.19" height="5.19"/><rect x="57.91" y="97.73" width="5.19" height="15.58"/><rect x="57.91" y="118.5" width="5.19" height="5.19"/><rect x="57.91" y="128.88" width="5.19" height="10.38"/><rect x="57.91" y="165.23" width="5.19" height="5.19"/><rect x="57.91" y="180.8" width="5.19" height="5.19"/><rect x="57.91" y="191.18" width="5.19" height="36.34"/><rect x="57.91" y="232.72" width="5.19" height="5.19"/><rect x="57.91" y="243.1" width="5.19" height="5.19"/><rect x="57.91" y="253.49" width="5.19" height="15.58"/><rect x="57.91" y="274.25" width="5.19" height="5.19"/><rect x="63.1" y="87.35" width="5.19" height="5.19"/><rect x="63.1" y="118.5" width="5.19" height="5.19"/><rect x="63.1" y="128.88" width="5.19" height="20.77"/><rect x="63.1" y="175.61" width="5.19" height="20.77"/><rect x="63.1" y="201.57" width="5.19" height="5.19"/><rect x="63.1" y="211.95" width="5.19" height="5.19"/><rect x="63.1" y="222.33" width="5.19" height="5.19"/><rect x="63.1" y="243.1" width="5.19" height="5.19"/><rect x="63.1" y="274.25" width="5.19" height="5.19"/><rect x="68.29" y="87.35" width="5.19" height="36.34"/><rect x="68.29" y="128.88" width="5.19" height="5.19"/><rect x="68.29" y="139.27" width="5.19" height="5.19"/><rect x="68.29" y="149.65" width="5.19" height="5.19"/><rect x="68.29" y="160.03" width="5.19" height="5.19"/><rect x="68.29" y="170.42" width="5.19" height="5.19"/><rect x="68.29" y="180.8" width="5.19" height="5.19"/><rect x="68.29" y="191.18" width="5.19" height="5.19"/><rect x="68.29" y="201.57" width="5.19" height="5.19"/><rect x="68.29" y="211.95" width="5.19" height="5.19"/><rect x="68.29" y="222.33" width="5.19" height="5.19"/><rect x="68.29" y="232.72" width="5.19" height="5.19"/><rect x="68.29" y="243.1" width="5.19" height="36.34"/><rect x="73.48" y="134.07" width="5.19" height="5.19"/><rect x="73.48" y="154.84" width="5.19" height="31.15"/><rect x="73.48" y="196.38" width="5.19" height="10.38"/><rect x="73.48" y="211.95" width="5.19" height="5.19"/><rect x="73.48" y="227.53" width="5.19" height="5.19"/><rect x="78.67" y="97.73" width="5.19" height="31.15"/><rect x="78.67" y="139.27" width="5.19" height="5.19"/><rect x="78.67" y="149.65" width="5.19" height="10.38"/><rect x="78.67" y="185.99" width="5.19" height="5.19"/><rect x="78.67" y="196.38" width="5.19" height="5.19"/><rect x="78.67" y="206.76" width="5.19" height="5.19"/><rect x="78.67" y="217.14" width="5.19" height="15.58"/><rect x="78.67" y="237.91" width="5.19" height="5.19"/><rect x="78.67" y="248.29" width="5.19" height="20.77"/><rect x="78.67" y="274.25" width="5.19" height="5.19"/><rect x="83.86" y="87.35" width="5.19" height="25.96"/><rect x="83.86" y="123.69" width="5.19" height="5.19"/><rect x="83.86" y="134.07" width="5.19" height="25.96"/><rect x="83.86" y="165.23" width="5.19" height="5.19"/><rect x="83.86" y="185.99" width="5.19" height="10.38"/><rect x="83.86" y="206.76" width="5.19" height="5.19"/><rect x="83.86" y="232.72" width="5.19" height="5.19"/><rect x="83.86" y="248.29" width="5.19" height="15.58"/><rect x="83.86" y="274.25" width="5.19" height="5.19"/><rect x="89.06" y="102.92" width="5.19" height="5.19"/><rect x="89.06" y="113.31" width="5.19" height="10.38"/><rect x="89.06" y="134.07" width="5.19" height="46.73"/><rect x="89.06" y="201.57" width="5.19" height="5.19"/><rect x="89.06" y="222.33" width="5.19" height="5.19"/><rect x="89.06" y="232.72" width="5.19" height="5.19"/><rect x="89.06" y="248.29" width="5.19" height="10.38"/><rect x="89.06" y="263.87" width="5.19" height="10.38"/><rect x="94.25" y="92.54" width="5.19" height="5.19"/><rect x="94.25" y="108.12" width="5.19" height="10.38"/><rect x="94.25" y="139.27" width="5.19" height="10.38"/><rect x="94.25" y="170.42" width="5.19" height="20.77"/><rect x="94.25" y="196.38" width="5.19" height="5.19"/><rect x="94.25" y="211.95" width="5.19" height="10.38"/><rect x="94.25" y="227.53" width="5.19" height="5.19"/><rect x="94.25" y="237.91" width="5.19" height="15.58"/><rect x="94.25" y="258.68" width="5.19" height="10.38"/><rect x="94.25" y="274.25" width="5.19" height="5.19"/><rect x="99.44" y="87.35" width="5.19" height="5.19"/><rect x="99.44" y="102.92" width="5.19" height="5.19"/><rect x="99.44" y="113.31" width="5.19" height="15.58"/><rect x="99.44" y="149.65" width="5.19" height="10.38"/><rect x="99.44" y="165.23" width="5.19" height="15.58"/><rect x="99.44" y="185.99" width="5.19" height="10.38"/><rect x="99.44" y="201.57" width="5.19" height="5.19"/><rect x="99.44" y="217.14" width="5.19" height="5.19"/><rect x="99.44" y="227.53" width="5.19" height="5.19"/><rect x="99.44" y="253.49" width="5.19" height="5.19"/><rect x="99.44" y="263.87" width="5.19" height="10.38"/><rect x="104.63" y="97.73" width="5.19" height="15.58"/><rect x="104.63" y="128.88" width="5.19" height="5.19"/><rect x="104.63" y="149.65" width="5.19" height="5.19"/><rect x="104.63" y="165.23" width="5.19" height="10.38"/><rect x="104.63" y="185.99" width="5.19" height="20.77"/><rect x="104.63" y="232.72" width="5.19" height="15.58"/><rect x="104.63" y="253.49" width="5.19" height="10.38"/><rect x="104.63" y="274.25" width="5.19" height="5.19"/><rect x="109.82" y="92.54" width="5.19" height="5.19"/><rect x="109.82" y="102.92" width="5.19" height="5.19"/><rect x="109.82" y="113.31" width="5.19" height="25.96"/><rect x="109.82" y="149.65" width="5.19" height="10.38"/><rect x="109.82" y="165.23" width="5.19" height="5.19"/><rect x="109.82" y="175.61" width="5.19" height="10.38"/><rect x="109.82" y="206.76" width="5.19" height="5.19"/><rect x="109.82" y="217.14" width="5.19" height="5.19"/><rect x="109.82" y="232.72" width="5.19" height="5.19"/><rect x="109.82" y="243.1" width="5.19" height="10.38"/><rect x="109.82" y="258.68" width="5.19" height="10.38"/><rect x="109.82" y="274.25" width="5.19" height="5.19"/><rect x="115.01" y="87.35" width="5.19" height="5.19"/><rect x="115.01" y="97.73" width="5.19" height="10.38"/><rect x="115.01" y="134.07" width="5.19" height="5.19"/><rect x="115.01" y="160.03" width="5.19" height="10.38"/><rect x="115.01" y="175.61" width="5.19" height="20.77"/><rect x="115.01" y="201.57" width="5.19" height="10.38"/><rect x="115.01" y="217.14" width="5.19" height="5.19"/><rect x="115.01" y="243.1" width="5.19" height="5.19"/><rect x="115.01" y="253.49" width="5.19" height="25.96"/><rect x="120.21" y="87.35" width="5.19" height="5.19"/><rect x="120.21" y="97.73" width="5.19" height="5.19"/><rect x="120.21" y="108.12" width="5.19" height="5.19"/><rect x="120.21" y="118.5" width="5.19" height="10.38"/><rect x="120.21" y="134.07" width="5.19" height="5.19"/><rect x="120.21" y="144.46" width="5.19" height="10.38"/><rect x="120.21" y="165.23" width="5.19" height="10.38"/><rect x="120.21" y="180.8" width="5.19" height="5.19"/><rect x="120.21" y="196.38" width="5.19" height="10.38"/><rect x="120.21" y="217.14" width="5.19" height="5.19"/><rect x="120.21" y="227.53" width="5.19" height="5.19"/><rect x="120.21" y="237.91" width="5.19" height="10.38"/><rect x="120.21" y="253.49" width="5.19" height="5.19"/><rect x="120.21" y="263.87" width="5.19" height="5.19"/><rect x="120.21" y="274.25" width="5.19" height="5.19"/><rect x="125.4" y="92.54" width="5.19" height="5.19"/><rect x="125.4" y="102.92" width="5.19" height="5.19"/><rect x="125.4" y="149.65" width="5.19" height="20.77"/><rect x="125.4" y="180.8" width="5.19" height="5.19"/><rect x="125.4" y="191.18" width="5.19" height="5.19"/><rect x="125.4" y="232.72" width="5.19" height="20.77"/><rect x="125.4" y="274.25" width="5.19" height="5.19"/><rect x="130.59" y="87.35" width="5.19" height="5.19"/><rect x="130.59" y="108.12" width="5.19" height="15.58"/><rect x="130.59" y="128.88" width="5.19" height="5.19"/><rect x="130.59" y="139.27" width="5.19" height="5.19"/><rect x="130.59" y="165.23" width="5.19" height="5.19"/><rect x="130.59" y="175.61" width="5.19" height="15.58"/><rect x="130.59" y="196.38" width="5.19" height="10.38"/><rect x="130.59" y="211.95" width="5.19" height="5.19"/><rect x="130.59" y="227.53" width="5.19" height="5.19"/><rect x="130.59" y="237.91" width="5.19" height="5.19"/><rect x="130.59" y="248.29" width="5.19" height="5.19"/><rect x="130.59" y="258.68" width="5.19" height="10.38"/><rect x="135.78" y="92.54" width="5.19" height="20.77"/><rect x="135.78" y="123.69" width="5.19" height="10.38"/><rect x="135.78" y="144.46" width="5.19" height="5.19"/><rect x="135.78" y="154.84" width="5.19" height="5.19"/><rect x="135.78" y="165.23" width="5.19" height="5.19"/><rect x="135.78" y="175.61" width="5.19" height="5.19"/><rect x="135.78" y="191.18" width="5.19" height="10.38"/><rect x="135.78" y="217.14" width="5.19" height="5.19"/><rect x="135.78" y="232.72" width="5.19" height="10.38"/><rect x="135.78" y="248.29" width="5.19" height="5.19"/><rect x="135.78" y="263.87" width="5.19" height="10.38"/><rect x="140.97" y="87.35" width="5.19" height="5.19"/><rect x="140.97" y="97.73" width="5.19" height="5.19"/><rect x="140.97" y="108.12" width="5.19" height="20.77"/><rect x="140.97" y="139.27" width="5.19" height="10.38"/><rect x="140.97" y="160.03" width="5.19" height="5.19"/><rect x="140.97" y="180.8" width="5.19" height="20.77"/><rect x="140.97" y="206.76" width="5.19" height="15.58"/><rect x="140.97" y="232.72" width="5.19" height="15.58"/><rect x="140.97" y="269.06" width="5.19" height="5.19"/><rect x="146.17" y="87.35" width="5.19" height="15.58"/><rect x="146.17" y="123.69" width="5.19" height="5.19"/><rect x="146.17" y="134.07" width="5.19" height="5.19"/><rect x="146.17" y="144.46" width="5.19" height="5.19"/><rect x="146.17" y="160.03" width="5.19" height="15.58"/><rect x="146.17" y="185.99" width="5.19" height="5.19"/><rect x="146.17" y="196.38" width="5.19" height="15.58"/><rect x="146.17" y="217.14" width="5.19" height="15.58"/><rect x="146.17" y="243.1" width="5.19" height="10.38"/><rect x="146.17" y="258.68" width="5.19" height="15.58"/><rect x="151.36" y="102.92" width="5.19" height="20.77"/><rect x="151.36" y="134.07" width="5.19" height="5.19"/><rect x="151.36" y="149.65" width="5.19" height="5.19"/><rect x="151.36" y="160.03" width="5.19" height="10.38"/><rect x="151.36" y="175.61" width="5.19" height="20.77"/><rect x="151.36" y="222.33" width="5.19" height="5.19"/><rect x="151.36" y="232.72" width="5.19" height="10.38"/><rect x="151.36" y="253.49" width="5.19" height="25.96"/><rect x="156.55" y="87.35" width="5.19" height="5.19"/><rect x="156.55" y="108.12" width="5.19" height="5.19"/><rect x="156.55" y="123.69" width="5.19" height="15.58"/><rect x="156.55" y="144.46" width="5.19" height="15.58"/><rect x="156.55" y="170.42" width="5.19" height="10.38"/><rect x="156.55" y="185.99" width="5.19" height="15.58"/><rect x="156.55" y="206.76" width="5.19" height="15.58"/><rect x="156.55" y="237.91" width="5.19" height="5.19"/><rect x="156.55" y="248.29" width="5.19" height="5.19"/><rect x="156.55" y="258.68" width="5.19" height="5.19"/><rect x="156.55" y="269.06" width="5.19" height="10.38"/><rect x="161.74" y="118.5" width="5.19" height="5.19"/><rect x="161.74" y="128.88" width="5.19" height="5.19"/><rect x="161.74" y="144.46" width="5.19" height="15.58"/><rect x="161.74" y="170.42" width="5.19" height="5.19"/><rect x="161.74" y="191.18" width="5.19" height="5.19"/><rect x="161.74" y="211.95" width="5.19" height="5.19"/><rect x="161.74" y="222.33" width="5.19" height="5.19"/><rect x="161.74" y="232.72" width="5.19" height="5.19"/><rect x="161.74" y="248.29" width="5.19" height="5.19"/><rect x="161.74" y="274.25" width="5.19" height="5.19"/><rect x="166.93" y="102.92" width="5.19" height="5.19"/><rect x="166.93" y="113.31" width="5.19" height="5.19"/><rect x="166.93" y="128.88" width="5.19" height="10.38"/><rect x="166.93" y="149.65" width="5.19" height="5.19"/><rect x="166.93" y="160.03" width="5.19" height="5.19"/><rect x="166.93" y="170.42" width="5.19" height="5.19"/><rect x="166.93" y="180.8" width="5.19" height="5.19"/><rect x="166.93" y="191.18" width="5.19" height="10.38"/><rect x="166.93" y="211.95" width="5.19" height="5.19"/><rect x="166.93" y="232.72" width="5.19" height="15.58"/><rect x="166.93" y="253.49" width="5.19" height="15.58"/><rect x="166.93" y="274.25" width="5.19" height="5.19"/><rect x="172.12" y="87.35" width="5.19" height="20.77"/><rect x="172.12" y="118.5" width="5.19" height="25.96"/><rect x="172.12" y="149.65" width="5.19" height="10.38"/><rect x="172.12" y="165.23" width="5.19" height="10.38"/><rect x="172.12" y="185.99" width="5.19" height="10.38"/><rect x="172.12" y="206.76" width="5.19" height="5.19"/><rect x="172.12" y="222.33" width="5.19" height="10.38"/><rect x="172.12" y="243.1" width="5.19" height="10.38"/><rect x="172.12" y="258.68" width="5.19" height="10.38"/><rect x="172.12" y="274.25" width="5.19" height="5.19"/><rect x="177.32" y="92.54" width="5.19" height="10.38"/><rect x="177.32" y="113.31" width="5.19" height="5.19"/><rect x="177.32" y="123.69" width="5.19" height="10.38"/><rect x="177.32" y="139.27" width="5.19" height="10.38"/><rect x="177.32" y="160.03" width="5.19" height="5.19"/><rect x="177.32" y="170.42" width="5.19" height="5.19"/><rect x="177.32" y="180.8" width="5.19" height="10.38"/><rect x="177.32" y="201.57" width="5.19" height="5.19"/><rect x="177.32" y="211.95" width="5.19" height="5.19"/><rect x="177.32" y="222.33" width="5.19" height="10.38"/><rect x="177.32" y="237.91" width="5.19" height="5.19"/><rect x="177.32" y="253.49" width="5.19" height="5.19"/><rect x="177.32" y="269.06" width="5.19" height="5.19"/><rect x="182.51" y="87.35" width="5.19" height="25.96"/><rect x="182.51" y="118.5" width="5.19" height="5.19"/><rect x="182.51" y="139.27" width="5.19" height="5.19"/><rect x="182.51" y="149.65" width="5.19" height="15.58"/><rect x="182.51" y="170.42" width="5.19" height="5.19"/><rect x="182.51" y="185.99" width="5.19" height="5.19"/><rect x="182.51" y="196.38" width="5.19" height="10.38"/><rect x="182.51" y="217.14" width="5.19" height="10.38"/><rect x="182.51" y="232.72" width="5.19" height="31.15"/><rect x="182.51" y="269.06" width="5.19" height="5.19"/><rect x="187.7" y="139.27" width="5.19" height="25.96"/><rect x="187.7" y="170.42" width="5.19" height="5.19"/><rect x="187.7" y="185.99" width="5.19" height="10.38"/><rect x="187.7" y="206.76" width="5.19" height="20.77"/><rect x="187.7" y="232.72" width="5.19" height="5.19"/><rect x="187.7" y="253.49" width="5.19" height="10.38"/><rect x="187.7" y="274.25" width="5.19" height="5.19"/><rect x="192.89" y="87.35" width="5.19" height="36.34"/><rect x="192.89" y="128.88" width="5.19" height="5.19"/><rect x="192.89" y="144.46" width="5.19" height="10.38"/><rect x="192.89" y="160.03" width="5.19" height="15.58"/><rect x="192.89" y="180.8" width="5.19" height="5.19"/><rect x="192.89" y="191.18" width="5.19" height="5.19"/><rect x="192.89" y="201.57" width="5.19" height="15.58"/><rect x="192.89" y="222.33" width="5.19" height="15.58"/><rect x="192.89" y="243.1" width="5.19" height="5.19"/><rect x="192.89" y="253.49" width="5.19" height="10.38"/><rect x="192.89" y="269.06" width="5.19" height="5.19"/><rect x="198.08" y="87.35" width="5.19" height="5.19"/><rect x="198.08" y="118.5" width="5.19" height="5.19"/><rect x="198.08" y="128.88" width="5.19" height="10.38"/><rect x="198.08" y="154.84" width="5.19" height="31.15"/><rect x="198.08" y="201.57" width="5.19" height="10.38"/><rect x="198.08" y="217.14" width="5.19" height="20.77"/><rect x="198.08" y="253.49" width="5.19" height="5.19"/><rect x="203.27" y="87.35" width="5.19" height="5.19"/><rect x="203.27" y="97.73" width="5.19" height="15.58"/><rect x="203.27" y="118.5" width="5.19" height="5.19"/><rect x="203.27" y="128.88" width="5.19" height="5.19"/><rect x="203.27" y="139.27" width="5.19" height="5.19"/><rect x="203.27" y="149.65" width="5.19" height="5.19"/><rect x="203.27" y="160.03" width="5.19" height="15.58"/><rect x="203.27" y="191.18" width="5.19" height="5.19"/><rect x="203.27" y="201.57" width="5.19" height="15.58"/><rect x="203.27" y="222.33" width="5.19" height="5.19"/><rect x="203.27" y="232.72" width="5.19" height="31.15"/><rect x="203.27" y="269.06" width="5.19" height="10.38"/><rect x="208.47" y="87.35" width="5.19" height="5.19"/><rect x="208.47" y="97.73" width="5.19" height="15.58"/><rect x="208.47" y="118.5" width="5.19" height="5.19"/><rect x="208.47" y="128.88" width="5.19" height="5.19"/><rect x="208.47" y="149.65" width="5.19" height="5.19"/><rect x="208.47" y="160.03" width="5.19" height="5.19"/><rect x="208.47" y="180.8" width="5.19" height="5.19"/><rect x="208.47" y="191.18" width="5.19" height="15.58"/><rect x="208.47" y="222.33" width="5.19" height="20.77"/><rect x="208.47" y="248.29" width="5.19" height="5.19"/><rect x="208.47" y="274.25" width="5.19" height="5.19"/><rect x="213.66" y="87.35" width="5.19" height="5.19"/><rect x="213.66" y="97.73" width="5.19" height="15.58"/><rect x="213.66" y="118.5" width="5.19" height="5.19"/><rect x="213.66" y="128.88" width="5.19" height="5.19"/><rect x="213.66" y="149.65" width="5.19" height="5.19"/><rect x="213.66" y="170.42" width="5.19" height="10.38"/><rect x="213.66" y="191.18" width="5.19" height="5.19"/><rect x="213.66" y="211.95" width="5.19" height="5.19"/><rect x="213.66" y="222.33" width="5.19" height="5.19"/><rect x="213.66" y="232.72" width="5.19" height="5.19"/><rect x="213.66" y="243.1" width="5.19" height="5.19"/><rect x="213.66" y="253.49" width="5.19" height="15.58"/><rect x="213.66" y="274.25" width="5.19" height="5.19"/><rect x="218.85" y="87.35" width="5.19" height="5.19"/><rect x="218.85" y="118.5" width="5.19" height="5.19"/><rect x="218.85" y="134.07" width="5.19" height="10.38"/><rect x="218.85" y="149.65" width="5.19" height="36.34"/><rect x="218.85" y="201.57" width="5.19" height="15.58"/><rect x="218.85" y="222.33" width="5.19" height="15.58"/><rect x="218.85" y="248.29" width="5.19" height="5.19"/><rect x="218.85" y="263.87" width="5.19" height="5.19"/><rect x="218.85" y="274.25" width="5.19" height="5.19"/><rect x="224.04" y="87.35" width="5.19" height="36.34"/><rect x="224.04" y="139.27" width="5.19" height="15.58"/><rect x="224.04" y="160.03" width="5.19" height="5.19"/><rect x="224.04" y="170.42" width="5.19" height="5.19"/><rect x="224.04" y="180.8" width="5.19" height="10.38"/><rect x="224.04" y="201.57" width="5.19" height="10.38"/><rect x="224.04" y="222.33" width="5.19" height="15.58"/><rect x="224.04" y="243.1" width="5.19" height="10.38"/><rect x="224.04" y="258.68" width="5.19" height="20.77"/></g></g></svg>