<svg xmlns="http://www.w3.org/2000/svg" xmlns:xlink="http://www.w3.org/1999/xlink" viewBox="0 0 249.36 436.33"><defs><style>.cls-1{fill:#00a370;}.cls-2{fill:#6cc7dd;}.cls-3{fill:#024a34;}.cls-4{fill:url(#linear-gradient);}.cls-5{fill:#fff;}</style><linearGradient id="linear-gradient" x1="-20.53" y1="154.34" x2="337.12" y2="154.34" gradientUnits="userSpaceOnUse"><stop offset="0" stop-color="#00857c"/><stop offset="0.28" stop-color="#036a6b"/><stop offset="1" stop-color="#0c2340"/></linearGradient></defs><g id="Layer_2" data-name="Layer 2"><g id="Layer_1-2" data-name="Layer 1"><path class="cls-1" d="M145.72,322.45c-14.66,0-23.44,8.5-23.55,22.71v6.31A35.86,35.86,0,0,1,133,377.15v-32c0-7.49,4.25-12,11.41-12h11.07a23.14,23.14,0,0,1-18.59,14V358a35.44,35.44,0,0,0,31.79-35.52Z"/><path class="cls-2" d="M97,341.18V352a25.18,25.18,0,0,1,25.18,25.18H133a36,36,0,0,0-36-36"/><path class="cls-2" d="M97,355.87v10.79a10.49,10.49,0,0,1,10.49,10.49h10.79A21.28,21.28,0,0,0,97,355.87"/><polygon class="cls-3" points="7.45 388.1 22.1 388.1 22.1 393.23 12.9 393.23 12.9 396.4 21.08 396.4 21.08 401.54 12.9 401.54 12.9 404.84 22.26 404.84 22.26 409.98 7.45 409.98 7.45 388.1"/><polygon class="cls-3" points="32.91 388.1 38.36 388.1 46.58 400.46 46.58 388.1 52.03 388.1 52.03 409.98 46.58 409.98 38.36 397.61 38.36 409.98 32.91 409.98 32.91 388.1"/><polygon class="cls-3" points="63.19 388.1 77.37 388.1 77.37 393.23 68.65 393.23 68.65 396.66 76.16 396.66 76.16 401.79 68.65 401.79 68.65 409.98 63.19 409.98 63.19 388.1"/><polygon class="cls-3" points="87.64 388.1 93.1 388.1 93.1 404.84 101.5 404.84 101.5 409.98 87.64 409.98 87.64 388.1"/><path class="cls-3" d="M108.63,399a11.61,11.61,0,1,1,11.61,11.32A11.23,11.23,0,0,1,108.63,399m17.6,0a6,6,0,1,0-6,6,5.9,5.9,0,0,0,6-6"/><polygon class="cls-3" points="141.33 388.1 146.78 388.1 154.99 400.46 154.99 388.1 160.45 388.1 160.45 409.98 154.99 409.98 146.78 397.61 146.78 409.98 141.33 409.98 141.33 388.1"/><path class="cls-3" d="M170.63,403.32h5.61c0,1.2,1.3,2.18,2.92,2.18,1.46,0,2.66-.76,2.66-1.74,0-2.95-10.84-1.71-10.84-9.13,0-4.16,3.48-6.92,8-6.92s8.08,2.89,8.08,6.76H181.5c0-1.08-1.11-1.9-2.57-1.9-1.26,0-2.37.63-2.37,1.64,0,3,10.87,1.31,10.87,8.92,0,4.37-3.64,7.23-8.34,7.23-4.85,0-8.46-3.08-8.46-7"/><rect class="cls-3" x="197.68" y="388.09" width="5.45" height="21.88"/><path class="cls-3" d="M219.68,388.09h6.44l8,21.89h-6L227,406.52h-8.4L217.49,410h-5.86Zm5.68,13.42-2.51-7.39-2.5,7.39Z"/><path class="cls-3" d="M233.15,388.89h-1.5v-.81h3.86v.81H234v4.32h-.86Zm3.35-.81h1.15l1.57,3.89,1.57-3.89h1.12v5.13h-.85v-3.75l-1.52,3.75h-.65l-1.53-3.75v3.75h-.86Z"/><path class="cls-3" d="M161.23,417.89a2.11,2.11,0,0,1-1.35.51v-1a2.08,2.08,0,0,0,1.68-.91h.78v6.44h-1.11Z"/><path class="cls-3" d="M163.37,419.66c0-2,1-3.33,2.52-3.33s2.51,1.36,2.51,3.33-1,3.34-2.51,3.34-2.52-1.37-2.52-3.34m3.89,0c0-1.33-.57-2.26-1.37-2.26s-1.38.93-1.38,2.26.57,2.26,1.38,2.26,1.37-.92,1.37-2.26"/><path class="cls-3" d="M169.28,421.11h1.15a1.12,1.12,0,0,0,1.14.81,1.07,1.07,0,1,0,0-2.14,1.42,1.42,0,0,0-1.05.47h-1.09l.34-3.81h3.62v1h-2.67l-.15,1.64a1.92,1.92,0,0,1,1.11-.33,2.1,2.1,0,0,1,2.16,2.1,2.33,2.33,0,0,1-4.6.22"/><path class="cls-3" d="M183.55,422.88V420.1a1,1,0,0,0-1.06-1.08,1.06,1.06,0,0,0-1.13,1.1v2.76h-1V420.1a1,1,0,0,0-1.06-1.08,1.06,1.06,0,0,0-1.13,1.1v2.76h-1v-4.76h1v.55a1.85,1.85,0,0,1,1.48-.66,1.64,1.64,0,0,1,1.55.87,1.9,1.9,0,0,1,1.68-.87,1.67,1.67,0,0,1,1.76,1.78v3.09Z"/><path class="cls-3" d="M185.56,420.39a2.32,2.32,0,0,1,2.35-2.38,2.18,2.18,0,0,1,1.68.75v-.64h1v4.25a2.28,2.28,0,0,1-2.45,2.4,2.19,2.19,0,0,1-2.35-1.67h1.08a1.29,1.29,0,0,0,1.28.73,1.31,1.31,0,0,0,1.39-1.41V422a2.15,2.15,0,0,1-1.68.75,2.31,2.31,0,0,1-2.35-2.37m4,0a1.48,1.48,0,0,0-3,0,1.48,1.48,0,0,0,3,0"/><path class="cls-3" d="M160.31,426.29a.67.67,0,0,1,1.34,0,.67.67,0,1,1-1.34,0m.14,1.43h1.05v4.77h-1.05Z"/><path class="cls-3" d="M166.12,432.49v-2.66a1.13,1.13,0,0,0-1.19-1.21,1.17,1.17,0,0,0-1.26,1.23v2.64h-1v-4.77h1v.61a2,2,0,0,1,1.61-.72,1.77,1.77,0,0,1,1.88,1.88v3Z"/><path class="cls-3" d="M167.37,433.32h.26a.7.7,0,0,0,.78-.76v-4.84h1.05v5c0,1.09-.58,1.65-1.79,1.65h-.3Zm.89-7a.67.67,0,0,1,1.34,0,.67.67,0,0,1-1.34,0"/><path class="cls-3" d="M170.36,430.1a2.55,2.55,0,0,1,5.09,0,2.69,2.69,0,0,1,0,.4h-3.94a1.45,1.45,0,0,0,1.47,1.15,1.54,1.54,0,0,0,1.27-.61h1.16a2.61,2.61,0,0,1-2.45,1.55,2.47,2.47,0,0,1-2.57-2.5m1.13-.45h2.84a1.47,1.47,0,0,0-2.84,0"/><path class="cls-3" d="M176.1,430.1a2.46,2.46,0,0,1,2.55-2.49,2.36,2.36,0,0,1,2.42,1.91H180a1.33,1.33,0,0,0-1.31-.9,1.49,1.49,0,0,0,0,3,1.33,1.33,0,0,0,1.31-.9h1.11a2.36,2.36,0,0,1-2.42,1.91,2.47,2.47,0,0,1-2.55-2.5"/><path class="cls-3" d="M182.35,431.1v-2.43h-.81v-.95H182a.33.33,0,0,0,.37-.37v-.92h1v1.29H185v.95h-1.56V431a.5.5,0,0,0,.54.52.53.53,0,0,0,.55-.59h.93a1.45,1.45,0,0,1-1.55,1.56,1.37,1.37,0,0,1-1.51-1.39"/><path class="cls-3" d="M185.93,426.29a.67.67,0,0,1,1.33,0,.67.67,0,1,1-1.33,0m.14,1.43h1v4.77h-1Z"/><path class="cls-3" d="M188,430.1a2.55,2.55,0,1,1,2.55,2.5,2.46,2.46,0,0,1-2.55-2.5m4,0a1.47,1.47,0,1,0-2.94,0,1.47,1.47,0,1,0,2.94,0"/><path class="cls-3" d="M197.57,432.49v-2.66a1.13,1.13,0,0,0-1.19-1.21,1.18,1.18,0,0,0-1.26,1.23v2.64h-1v-4.77h1v.61a2,2,0,0,1,1.61-.72,1.78,1.78,0,0,1,1.89,1.88v3Z"/><path class="cls-3" d="M45.84,426.68c0-3.75,1.42-6,4.47-6,2.31,0,3.54,1.27,3.9,3.87l-2,.31c-.23-1.6-.8-2.45-1.85-2.45-1.39,0-2.22,1.21-2.22,4.3s.84,4.33,2.2,4.33c1.06,0,1.65-.88,1.89-2.4l2,.31c-.35,2.58-1.64,3.83-3.88,3.83-3.1,0-4.49-2.34-4.49-6.07m9.95,3.52V416.44H58v13.49c0,.85.4,1.06,1.37.88l0,1.62a3.73,3.73,0,0,1-1.28.21c-1.34,0-2.29-.68-2.29-2.44m11.48-.82,1.19,1a3.76,3.76,0,0,1-3.72,2.33c-3.12,0-4.59-2.49-4.59-6.1s1.53-6,4.44-6c2.63,0,3.9,1.89,3.9,5.17a10.33,10.33,0,0,1-.11,1.45h-6c.1,2.37.92,3.65,2.62,3.65a2.43,2.43,0,0,0,2.31-1.55m-4.92-3.71h4.08c0-2-.48-3.38-1.84-3.38s-2.1,1.16-2.24,3.38m7.51,3.56,1.89-.21c0,1.38.69,2.16,2,2.16s1.79-.56,1.79-1.58-.6-1.53-1.85-2l-1-.38c-1.58-.62-2.62-1.52-2.62-3.4s1.38-3.17,3.76-3.17,3.68,1.25,3.58,3.45l-1.85.17c0-1.31-.61-2.07-1.76-2.07s-1.69.56-1.69,1.51.46,1.42,1.72,1.93l1,.41c1.65.65,2.73,1.44,2.73,3.36,0,2.09-1.34,3.33-3.93,3.33s-3.86-1.3-3.79-3.52M84.7,420.7l0,2.28a2.87,2.87,0,0,0-3.19,2.17v7.34H79.31V420.92h1.74l.14,2a3.1,3.1,0,0,1,3.51-2.25m.8,6c0-3.85,1.53-6,4.51-6s4.51,2.19,4.51,6S93,432.75,90,432.75s-4.51-2.22-4.51-6.05m6.76,0c0-3.12-.83-4.32-2.25-4.32s-2.26,1.2-2.26,4.32S88.58,431,90,431s2.25-1.16,2.25-4.3m2.88-5.78h2.28l1.45,6.28c.28,1.22.53,2.41.8,3.72h0c.27-1.31.53-2.5.8-3.72l1.45-6.28h2.28l-3,11.57H98.13Zm10.31-3a1.38,1.38,0,0,1,2.75,0,1.38,1.38,0,0,1-2.75,0m.29,3h2.17v11.57h-2.17Zm18.59,3.27v8.3h-2.17v-8.08c0-1.23-.44-1.86-1.43-1.86s-1.85.66-2.35,2.31v7.63h-2.17v-8.08c0-1.23-.45-1.86-1.43-1.86s-1.85.66-2.36,2.31v7.63h-2.17V420.92h1.8l.13,2.11a3.27,3.27,0,0,1,3.27-2.37,2.6,2.6,0,0,1,2.79,2.2,3.18,3.18,0,0,1,3.16-2.2c1.88,0,2.93,1.16,2.93,3.53M135,432.44a3.52,3.52,0,0,1-1.16.2,1.64,1.64,0,0,1-1.83-1.27,3.19,3.19,0,0,1-2.82,1.34,3.08,3.08,0,0,1-3.26-3.42c0-2.14,1.24-3.4,3.58-3.4a3.67,3.67,0,0,1,2.32.67v-1.9c0-1.56-.51-2.24-1.75-2.24s-1.68.62-1.74,2.08l-2-.4c0-2.21,1.46-3.41,3.84-3.41s3.68,1.16,3.68,3.91v5.23c0,.87.28,1.19,1.11,1.05ZM131.81,430v-2a2.61,2.61,0,0,0-1.81-.63c-1.3,0-1.88.63-1.88,1.85s.57,1.83,1.69,1.83a2.31,2.31,0,0,0,2-1.09m13.09-3.42c0,3.71-1.37,6.17-3.88,6.17a2.87,2.87,0,0,1-2.79-1.91l-.16,1.65h-1.74V416.44h2.17v5.92a2.85,2.85,0,0,1,2.76-1.7c2.53,0,3.64,2.29,3.64,5.92m-2.26.08c0-2.82-.64-4.23-2.09-4.23-.94,0-1.68.62-2.05,1.92v4.86c.4,1.21,1.08,1.76,2,1.76,1.4,0,2.16-1.44,2.16-4.31m6.89-.79a17.88,17.88,0,0,0-3-10.46l-1.45.75a19.61,19.61,0,0,1,0,19.41l1.45.76a18.16,18.16,0,0,0,3-10.46M44.24,436.33l1.44-.76a19.68,19.68,0,0,1,0-19.41l-1.44-.75a17.8,17.8,0,0,0-3,10.46,18.08,18.08,0,0,0,3,10.46"/><rect class="cls-4" width="249.36" height="308.68" rx="20.7"/><path class="cls-5" d="M34.35,25.6a3.94,3.94,0,0,0,2.5.68,4.7,4.7,0,0,0,1.34-.17,2.7,2.7,0,0,0,.88-.46,1.61,1.61,0,0,0,.48-.66,2.32,2.32,0,0,0,.15-.84A1.83,1.83,0,0,0,39.23,23a3,3,0,0,0-1.75-.8l-2.1-.39a12.45,12.45,0,0,1-2.2-.59,5,5,0,0,1-1.6-.94,3.81,3.81,0,0,1-1-1.41,5.27,5.27,0,0,1-.34-2A4.14,4.14,0,0,1,32,13.32a6.15,6.15,0,0,1,2-.89,10,10,0,0,1,2.53-.31,9.2,9.2,0,0,1,2.95.41,5.35,5.35,0,0,1,1.9,1.08,4.12,4.12,0,0,1,1.07,1.55A7.25,7.25,0,0,1,42.92,17l-3.2.41a3.08,3.08,0,0,0-1-1.92,3.28,3.28,0,0,0-2.16-.59,6.17,6.17,0,0,0-1.42.14,2.83,2.83,0,0,0-.89.39,1.38,1.38,0,0,0-.48.55,1.65,1.65,0,0,0-.13.66A1.73,1.73,0,0,0,34.19,18a3.88,3.88,0,0,0,1.73.7l2.22.43A7.71,7.71,0,0,1,42,20.81a4.45,4.45,0,0,1,1.22,3.36,4.86,4.86,0,0,1-.39,2,4.37,4.37,0,0,1-1.18,1.56,5.54,5.54,0,0,1-2,1,9.16,9.16,0,0,1-2.76.38,7.84,7.84,0,0,1-5.06-1.42A5.5,5.5,0,0,1,30,23.42h3.41A3,3,0,0,0,34.35,25.6Z"/><path class="cls-5" d="M54.5,27.8a5.29,5.29,0,0,1-3.84,1.26,6.69,6.69,0,0,1-2.58-.45,4.59,4.59,0,0,1-1.78-1.27,5.36,5.36,0,0,1-1-2,8.91,8.91,0,0,1-.34-2.56,7.83,7.83,0,0,1,.4-2.57,5.49,5.49,0,0,1,1.14-2A5.08,5.08,0,0,1,48.3,17a6.5,6.5,0,0,1,2.49-.45,6.65,6.65,0,0,1,2.1.3,4.5,4.5,0,0,1,1.51.85,4,4,0,0,1,1,1.3,6.21,6.21,0,0,1,.45,1.67l-3.19.43a3.12,3.12,0,0,0-.52-1.46,1.65,1.65,0,0,0-1.41-.56,2.23,2.23,0,0,0-1.2.31,2.18,2.18,0,0,0-.76.83,3.57,3.57,0,0,0-.39,1.18,7.93,7.93,0,0,0-.12,1.4,8.16,8.16,0,0,0,.12,1.42,3.76,3.76,0,0,0,.38,1.2,2.08,2.08,0,0,0,.75.83,2.23,2.23,0,0,0,1.2.31A2,2,0,0,0,52.13,26a2.47,2.47,0,0,0,.61-1.56H56A5.16,5.16,0,0,1,54.5,27.8Z"/><path class="cls-5" d="M63.67,28.5a4.59,4.59,0,0,1-2.26.49,5.23,5.23,0,0,1-1.5-.2,3.68,3.68,0,0,1-1.25-.63,3.22,3.22,0,0,1-.85-1.1,3.74,3.74,0,0,1-.31-1.6,3.39,3.39,0,0,1,.54-2,3.65,3.65,0,0,1,1.43-1.2,6.86,6.86,0,0,1,2-.61,18.11,18.11,0,0,1,2.23-.23l1.51-.07v-.59a1.67,1.67,0,0,0-.6-1.49,2.46,2.46,0,0,0-1.41-.41c-1.25,0-2,.48-2.15,1.43L58.13,20a3.71,3.71,0,0,1,1.63-2.69,6.59,6.59,0,0,1,3.53-.82,7.06,7.06,0,0,1,2.31.33,3.56,3.56,0,0,1,1.53.94A3.6,3.6,0,0,1,68,19.27a6.94,6.94,0,0,1,.26,2V28.7h-3V27.2A6.44,6.44,0,0,1,63.67,28.5Zm.1-5a7.7,7.7,0,0,0-1.61.21,2.68,2.68,0,0,0-.94.39,1.12,1.12,0,0,0-.44.56,1.94,1.94,0,0,0-.11.7,1.16,1.16,0,0,0,.4.93,1.76,1.76,0,0,0,1.14.34,3.28,3.28,0,0,0,2-.57,2.58,2.58,0,0,0,.7-.8A2.49,2.49,0,0,0,65.17,24v-.62Z"/><path class="cls-5" d="M74,16.88v1.63A4.42,4.42,0,0,1,75.66,17a4.59,4.59,0,0,1,2-.47,3.9,3.9,0,0,1,3,1.05,4.77,4.77,0,0,1,1,3.32V28.7H78.46V21.32a2.37,2.37,0,0,0-.47-1.7,1.78,1.78,0,0,0-1.27-.45,2.83,2.83,0,0,0-1.06.18,2.77,2.77,0,0,0-.82.52,2.65,2.65,0,0,0-.53.76,2.05,2.05,0,0,0-.22,1V28.7H70.92V16.88Z"/><path class="cls-5" d="M88.22,19.35V16.88h1.85V13.73h3.17v3.15H96v2.47H93.24V24.8a1.61,1.61,0,0,0,.39,1.26,1.49,1.49,0,0,0,1,.33l.64,0a4.67,4.67,0,0,0,.65-.13l.45,2.33a7.81,7.81,0,0,1-1.28.29,10,10,0,0,1-1.19.08A4,4,0,0,1,91,28a4.32,4.32,0,0,1-.94-3.13V19.35Z"/><path class="cls-5" d="M101.1,12.53v5.84a4.48,4.48,0,0,1,1.63-1.4,4.42,4.42,0,0,1,2-.45,3.9,3.9,0,0,1,3,1.05,4.77,4.77,0,0,1,1,3.32V28.7h-3.17V21.32a2.37,2.37,0,0,0-.47-1.7,1.78,1.78,0,0,0-1.27-.45,2.83,2.83,0,0,0-1.06.18,2.77,2.77,0,0,0-.82.52,2.65,2.65,0,0,0-.53.76,2.05,2.05,0,0,0-.22,1V28.7H97.93V12.53Z"/><path class="cls-5" d="M120.56,28a5.79,5.79,0,0,1-3.72,1,5.67,5.67,0,0,1-4.43-1.63,6.63,6.63,0,0,1-1.48-4.62,7.61,7.61,0,0,1,.43-2.66,5.5,5.5,0,0,1,1.21-2,5,5,0,0,1,1.87-1.23,6.57,6.57,0,0,1,2.4-.42,5.13,5.13,0,0,1,4.08,1.56,6.13,6.13,0,0,1,1.37,4.21v1.27H114.1a3.56,3.56,0,0,0,.72,2.23,2.5,2.5,0,0,0,2,.8A2,2,0,0,0,119.08,25h3.08A4.65,4.65,0,0,1,120.56,28Zm-1.92-8.46a2.39,2.39,0,0,0-1.87-.68,2.75,2.75,0,0,0-1.11.21,2.33,2.33,0,0,0-.81.55,3,3,0,0,0-.51.82,3.24,3.24,0,0,0-.2,1h5.1A2.8,2.8,0,0,0,118.64,19.57Z"/><path class="cls-5" d="M137.14,29.11a8.45,8.45,0,0,1-3.23-.59,6.56,6.56,0,0,1-2.43-1.7A7.78,7.78,0,0,1,130,24.15a11,11,0,0,1-.53-3.53,11.07,11.07,0,0,1,.53-3.54,7.64,7.64,0,0,1,1.54-2.67,6.88,6.88,0,0,1,2.44-1.7,9.11,9.11,0,0,1,6.45,0,6.52,6.52,0,0,1,2.41,1.7,7.58,7.58,0,0,1,1.51,2.67,11.08,11.08,0,0,1,.52,3.54,11.08,11.08,0,0,1-.52,3.54,7.22,7.22,0,0,1-1.54,2.64l2,2.42-2,1.72-2.06-2.53A8.46,8.46,0,0,1,137.14,29.11Zm1.68-7.23,1.83,2.31a7.66,7.66,0,0,0,.68-3.57,7.1,7.1,0,0,0-1-4.14A3.61,3.61,0,0,0,137.14,15,3.67,3.67,0,0,0,134,16.48a7,7,0,0,0-1.05,4.14A7.14,7.14,0,0,0,134,24.79a3.64,3.64,0,0,0,3.18,1.49,5.73,5.73,0,0,0,.84-.06,3.77,3.77,0,0,0,.77-.19l-2-2.43Z"/><path class="cls-5" d="M153.35,12.53a9.56,9.56,0,0,1,3.14.44,5.14,5.14,0,0,1,1.94,1.16,3.92,3.92,0,0,1,1,1.58,5.75,5.75,0,0,1,.27,1.71,5.53,5.53,0,0,1-.57,2.63,4.42,4.42,0,0,1-1.9,1.79l3.29,6.86h-3.65l-2.72-6.07H151V28.7h-3.33V12.53Zm1.54,7.12a2,2,0,0,0,.83-.47,1.7,1.7,0,0,0,.42-.74,3.93,3.93,0,0,0,.11-1,2.57,2.57,0,0,0-.13-.83,1.77,1.77,0,0,0-.47-.7,2.25,2.25,0,0,0-.9-.47,5.09,5.09,0,0,0-1.46-.17H151v4.5h2.63A4,4,0,0,0,154.89,19.65Z"/><path class="cls-5" d="M176.35,27.8a5.29,5.29,0,0,1-3.84,1.26,6.69,6.69,0,0,1-2.58-.45,4.59,4.59,0,0,1-1.78-1.27,5.21,5.21,0,0,1-1-2,8.91,8.91,0,0,1-.34-2.56,8.1,8.1,0,0,1,.39-2.57,5.66,5.66,0,0,1,1.15-2A5.08,5.08,0,0,1,170.15,17a6.5,6.5,0,0,1,2.49-.45,6.65,6.65,0,0,1,2.1.3,4.46,4.46,0,0,1,1.5.85,3.71,3.71,0,0,1,.95,1.3,5.87,5.87,0,0,1,.46,1.67l-3.2.43a2.91,2.91,0,0,0-.52-1.46,1.63,1.63,0,0,0-1.4-.56,2.23,2.23,0,0,0-1.2.31,2.18,2.18,0,0,0-.76.83,3.82,3.82,0,0,0-.4,1.18,9,9,0,0,0-.11,1.4,9.29,9.29,0,0,0,.11,1.42,4,4,0,0,0,.39,1.2,2.08,2.08,0,0,0,.75.83,2.18,2.18,0,0,0,1.2.31A2,2,0,0,0,174,26a2.47,2.47,0,0,0,.61-1.56h3.22A5.16,5.16,0,0,1,176.35,27.8Z"/><path class="cls-5" d="M181.22,27.43a6.48,6.48,0,0,1-1.56-4.66,7.7,7.7,0,0,1,.42-2.62,5.44,5.44,0,0,1,1.2-2A5.2,5.2,0,0,1,183.17,17a6.71,6.71,0,0,1,2.47-.43,6.78,6.78,0,0,1,2.49.43A5.2,5.2,0,0,1,190,18.18a5.28,5.28,0,0,1,1.19,2,8,8,0,0,1,.41,2.62,7.68,7.68,0,0,1-.42,2.63,5.61,5.61,0,0,1-1.2,2,5.23,5.23,0,0,1-1.89,1.24,6.74,6.74,0,0,1-2.47.43A5.83,5.83,0,0,1,181.22,27.43Zm6.44-1.88a4.86,4.86,0,0,0,.67-2.78,4.78,4.78,0,0,0-.67-2.77,2.63,2.63,0,0,0-4,0,4.86,4.86,0,0,0-.67,2.77,4.91,4.91,0,0,0,.66,2.79,2.31,2.31,0,0,0,2,1A2.28,2.28,0,0,0,187.66,25.55Z"/><path class="cls-5" d="M198.54,29.06a4.3,4.3,0,0,1-3.71-1.67,7.74,7.74,0,0,1-1.22-4.65,8.34,8.34,0,0,1,.35-2.52,6,6,0,0,1,1-2A4.55,4.55,0,0,1,196.57,17a5,5,0,0,1,2.15-.45,5.14,5.14,0,0,1,1.76.31,3.92,3.92,0,0,1,1.64,1.23V12.53h3.17V28.7h-3.08V27.14A4.26,4.26,0,0,1,198.54,29.06ZM202,20.84a2.61,2.61,0,0,0-.62-1.11,1.91,1.91,0,0,0-.9-.53,4,4,0,0,0-1-.12,2.32,2.32,0,0,0-1,.2,2.16,2.16,0,0,0-.82.63,3.19,3.19,0,0,0-.55,1.14,5.8,5.8,0,0,0-.21,1.67,7.4,7.4,0,0,0,.19,1.78,3.24,3.24,0,0,0,.54,1.15,1.92,1.92,0,0,0,.79.64,2.43,2.43,0,0,0,1,.19,2.65,2.65,0,0,0,1.86-.66,2.82,2.82,0,0,0,.67-1.09,5.57,5.57,0,0,0,.21-1.67v-.41A6.81,6.81,0,0,0,202,20.84Z"/><path class="cls-5" d="M217.32,28a5.79,5.79,0,0,1-3.72,1,5.69,5.69,0,0,1-4.43-1.63,6.63,6.63,0,0,1-1.48-4.62,7.61,7.61,0,0,1,.43-2.66,5.64,5.64,0,0,1,1.21-2,5,5,0,0,1,1.87-1.23,6.57,6.57,0,0,1,2.4-.42,5.17,5.17,0,0,1,4.09,1.56,6.18,6.18,0,0,1,1.37,4.21v1.27h-8.2a3.56,3.56,0,0,0,.72,2.23,2.53,2.53,0,0,0,2,.8A2,2,0,0,0,215.84,25h3.08A4.61,4.61,0,0,1,217.32,28Zm-1.92-8.46a2.38,2.38,0,0,0-1.87-.68,2.75,2.75,0,0,0-1.11.21,2.28,2.28,0,0,0-.8.55,2.57,2.57,0,0,0-.51.82,3.24,3.24,0,0,0-.21,1H216A2.8,2.8,0,0,0,215.4,19.57Z"/><path class="cls-5" d="M32.47,46.52V44.05h1.85V40.9h3.17v3.15h2.72v2.47H37.49V52a1.61,1.61,0,0,0,.39,1.26,1.49,1.49,0,0,0,1,.33,4.68,4.68,0,0,0,.64,0,3.71,3.71,0,0,0,.65-.12l.45,2.33a7,7,0,0,1-1.28.28,8.3,8.3,0,0,1-1.19.08,4,4,0,0,1-2.89-.92A4.32,4.32,0,0,1,34.32,52V46.52Z"/><path class="cls-5" d="M43.11,54.6a6.48,6.48,0,0,1-1.56-4.66A8,8,0,0,1,42,47.32a5.32,5.32,0,0,1,1.21-2,5.08,5.08,0,0,1,1.89-1.23,6.69,6.69,0,0,1,2.46-.43,6.83,6.83,0,0,1,2.5.43,5.05,5.05,0,0,1,3.07,3.2,8.51,8.51,0,0,1,0,5.25,5.48,5.48,0,0,1-1.2,2A5.12,5.12,0,0,1,50,55.8a6.71,6.71,0,0,1-2.47.43A5.8,5.8,0,0,1,43.11,54.6Zm6.44-1.88a4.86,4.86,0,0,0,.67-2.78,4.78,4.78,0,0,0-.67-2.77,2.63,2.63,0,0,0-4,0,4.78,4.78,0,0,0-.67,2.77,4.91,4.91,0,0,0,.66,2.79,2.62,2.62,0,0,0,4.06,0Z"/><path class="cls-5" d="M66.37,55.66a4.41,4.41,0,0,1-2.25.5,5.73,5.73,0,0,1-1.51-.2,3.48,3.48,0,0,1-1.24-.64,3,3,0,0,1-.85-1.09,3.74,3.74,0,0,1-.32-1.6,3.37,3.37,0,0,1,.54-2,3.63,3.63,0,0,1,1.43-1.2,7.06,7.06,0,0,1,2-.61,16.52,16.52,0,0,1,2.23-.23l1.52-.07v-.59a1.67,1.67,0,0,0-.6-1.49A2.47,2.47,0,0,0,65.88,46c-1.25,0-2,.48-2.15,1.43l-2.89-.27a3.71,3.71,0,0,1,1.63-2.69A6.56,6.56,0,0,1,66,43.69a7.16,7.16,0,0,1,2.31.32,3.9,3.9,0,0,1,1.53.94,3.69,3.69,0,0,1,.83,1.49,6.6,6.6,0,0,1,.26,2v7.47H68v-1.5A6.22,6.22,0,0,1,66.37,55.66Zm.1-5a8.43,8.43,0,0,0-1.6.2,2.87,2.87,0,0,0-.94.4,1.23,1.23,0,0,0-.45.55,2.3,2.3,0,0,0-.11.71,1.16,1.16,0,0,0,.41.93,1.75,1.75,0,0,0,1.13.34,3.24,3.24,0,0,0,2-.57,2.53,2.53,0,0,0,.71-.81,2.43,2.43,0,0,0,.27-1.21v-.61Z"/><path class="cls-5" d="M82.79,55A5.29,5.29,0,0,1,79,56.23a6.69,6.69,0,0,1-2.58-.45,4.59,4.59,0,0,1-1.78-1.27,5.36,5.36,0,0,1-1-2A8.91,8.91,0,0,1,73.22,50a7.78,7.78,0,0,1,.4-2.57,5.49,5.49,0,0,1,1.14-2,5.08,5.08,0,0,1,1.83-1.28,6.5,6.5,0,0,1,2.49-.45,6.65,6.65,0,0,1,2.1.3,4.46,4.46,0,0,1,1.5.85,3.86,3.86,0,0,1,1,1.3,6.21,6.21,0,0,1,.45,1.67l-3.19.43a3,3,0,0,0-.53-1.46,1.63,1.63,0,0,0-1.4-.56,2.14,2.14,0,0,0-1.2.31,2.22,2.22,0,0,0-.76.82,3.7,3.7,0,0,0-.39,1.19,7.93,7.93,0,0,0-.12,1.4,8.16,8.16,0,0,0,.12,1.42,3.93,3.93,0,0,0,.38,1.2,2.15,2.15,0,0,0,.75.83,2.18,2.18,0,0,0,1.2.3,2,2,0,0,0,1.47-.54A2.47,2.47,0,0,0,81,51.59h3.22A5.16,5.16,0,0,1,82.79,55Z"/><path class="cls-5" d="M95.67,55a5.26,5.26,0,0,1-3.84,1.26,6.69,6.69,0,0,1-2.58-.45,4.59,4.59,0,0,1-1.78-1.27,5.36,5.36,0,0,1-1-2A8.91,8.91,0,0,1,86.1,50a7.78,7.78,0,0,1,.4-2.57,5.49,5.49,0,0,1,1.14-2,5,5,0,0,1,1.84-1.28A6.43,6.43,0,0,1,92,43.69a6.58,6.58,0,0,1,2.09.3,4.5,4.5,0,0,1,1.51.85,4,4,0,0,1,1,1.3A5.86,5.86,0,0,1,97,47.81l-3.19.43a3.12,3.12,0,0,0-.52-1.46,1.65,1.65,0,0,0-1.41-.56,2.14,2.14,0,0,0-1.2.31,2.31,2.31,0,0,0-.76.82,4,4,0,0,0-.39,1.19,7.93,7.93,0,0,0-.12,1.4,8.16,8.16,0,0,0,.12,1.42,3.93,3.93,0,0,0,.38,1.2,2.15,2.15,0,0,0,.75.83,2.23,2.23,0,0,0,1.2.3,1.94,1.94,0,0,0,1.47-.54,2.47,2.47,0,0,0,.61-1.56h3.22A5.16,5.16,0,0,1,95.67,55Z"/><path class="cls-5" d="M108.62,55.2a5.82,5.82,0,0,1-3.73,1,5.67,5.67,0,0,1-4.42-1.63A6.63,6.63,0,0,1,99,50a7.81,7.81,0,0,1,.43-2.66,5.64,5.64,0,0,1,1.21-2,5.15,5.15,0,0,1,1.87-1.24,6.87,6.87,0,0,1,2.4-.41A5.16,5.16,0,0,1,109,45.25a6.16,6.16,0,0,1,1.37,4.21v1.27h-8.2a3.56,3.56,0,0,0,.73,2.23,2.53,2.53,0,0,0,2,.8,2,2,0,0,0,2.22-1.58h3.07A4.64,4.64,0,0,1,108.62,55.2Zm-1.93-8.46a2.37,2.37,0,0,0-1.86-.68,2.68,2.68,0,0,0-1.11.21,2.33,2.33,0,0,0-.81.55,2.57,2.57,0,0,0-.51.82,3,3,0,0,0-.2,1h5.09A2.79,2.79,0,0,0,106.69,46.74Z"/><path class="cls-5" d="M115.85,53.47a3.85,3.85,0,0,0,1.63.32,3.35,3.35,0,0,0,1.62-.29,1,1,0,0,0,.49-.92,1.17,1.17,0,0,0-.31-.79,2,2,0,0,0-1.17-.47L116.48,51a6.91,6.91,0,0,1-3.2-1.16,3,3,0,0,1-1-2.5,3.11,3.11,0,0,1,.37-1.54,3.41,3.41,0,0,1,1.05-1.16,5.47,5.47,0,0,1,1.62-.73,7.55,7.55,0,0,1,2.08-.26,8.31,8.31,0,0,1,2.35.28,4.58,4.58,0,0,1,1.55.76,3.1,3.1,0,0,1,.91,1.13,5.86,5.86,0,0,1,.44,1.4l-2.83.37a2.05,2.05,0,0,0-.72-1.2,2.71,2.71,0,0,0-1.64-.39,4.45,4.45,0,0,0-1,.1,2.32,2.32,0,0,0-.66.26,1,1,0,0,0-.34.36,1,1,0,0,0-.1.39,1,1,0,0,0,.35.83,3.66,3.66,0,0,0,1.37.44l1.5.25a10.25,10.25,0,0,1,2.06.52,3.87,3.87,0,0,1,1.3.78,2.52,2.52,0,0,1,.68,1.1,5,5,0,0,1,.19,1.47,3.23,3.23,0,0,1-1.27,2.68,6.24,6.24,0,0,1-3.91,1,10.21,10.21,0,0,1-2-.19,5,5,0,0,1-1.72-.67,3.89,3.89,0,0,1-1.25-1.27,4.2,4.2,0,0,1-.55-2h3A1.66,1.66,0,0,0,115.85,53.47Z"/><path class="cls-5" d="M128,53.47a3.82,3.82,0,0,0,1.63.32,3.41,3.41,0,0,0,1.62-.29,1,1,0,0,0,.48-.92,1.16,1.16,0,0,0-.3-.79,2,2,0,0,0-1.17-.47L128.64,51a6.91,6.91,0,0,1-3.2-1.16,3,3,0,0,1-1-2.5,3.11,3.11,0,0,1,.37-1.54,3.41,3.41,0,0,1,1-1.16,5.25,5.25,0,0,1,1.62-.73,7.52,7.52,0,0,1,2.07-.26,8.38,8.38,0,0,1,2.36.28,4.58,4.58,0,0,1,1.55.76,3,3,0,0,1,.9,1.13,5.46,5.46,0,0,1,.45,1.4l-2.83.37a2.05,2.05,0,0,0-.72-1.2,2.71,2.71,0,0,0-1.64-.39,4.45,4.45,0,0,0-1,.1,2.32,2.32,0,0,0-.66.26,1,1,0,0,0-.34.36.87.87,0,0,0-.1.39,1,1,0,0,0,.35.83,3.59,3.59,0,0,0,1.37.44l1.5.25a10.25,10.25,0,0,1,2.06.52A4,4,0,0,1,134,50a2.52,2.52,0,0,1,.68,1.1,5,5,0,0,1,.19,1.47,3.23,3.23,0,0,1-1.27,2.68,6.26,6.26,0,0,1-3.92,1,10.11,10.11,0,0,1-2-.19,5,5,0,0,1-1.72-.67,3.89,3.89,0,0,1-1.25-1.27,4.2,4.2,0,0,1-.55-2h3A1.66,1.66,0,0,0,128,53.47Z"/><path class="cls-5" d="M140.93,46.52V44.05h1.86V40.9H146v3.15h2.72v2.47H146V52a1.61,1.61,0,0,0,.39,1.26,1.46,1.46,0,0,0,1,.33,4.82,4.82,0,0,0,.65,0,3.44,3.44,0,0,0,.64-.12l.46,2.33a7,7,0,0,1-1.28.28,8.3,8.3,0,0,1-1.19.08,4,4,0,0,1-2.89-.92,4.28,4.28,0,0,1-.94-3.13V46.52Z"/><path class="cls-5" d="M153.82,39.7v5.84a4.48,4.48,0,0,1,1.63-1.4,4.42,4.42,0,0,1,2-.45,3.87,3.87,0,0,1,3,1.05,4.77,4.77,0,0,1,1,3.32v7.81h-3.17V48.49a2.32,2.32,0,0,0-.48-1.7,1.77,1.77,0,0,0-1.27-.46,2.81,2.81,0,0,0-1.05.19A2.41,2.41,0,0,0,154,47.79a2.25,2.25,0,0,0-.21,1v7.11h-3.17V39.7Z"/><path class="cls-5" d="M173.28,55.2a5.84,5.84,0,0,1-3.73,1,5.65,5.65,0,0,1-4.42-1.63A6.63,6.63,0,0,1,163.64,50a7.81,7.81,0,0,1,.43-2.66,5.64,5.64,0,0,1,1.21-2,5.15,5.15,0,0,1,1.87-1.24,6.87,6.87,0,0,1,2.4-.41,5.16,5.16,0,0,1,4.09,1.56A6.16,6.16,0,0,1,175,49.46v1.27h-8.2a3.5,3.5,0,0,0,.73,2.23,2.53,2.53,0,0,0,2,.8,2,2,0,0,0,2.21-1.58h3.08A4.64,4.64,0,0,1,173.28,55.2Zm-1.93-8.46a2.38,2.38,0,0,0-1.87-.68,2.67,2.67,0,0,0-1.1.21,2.33,2.33,0,0,0-.81.55,2.57,2.57,0,0,0-.51.82,3,3,0,0,0-.2,1H172A2.79,2.79,0,0,0,171.35,46.74Z"/><path class="cls-5" d="M186,52.77a4,4,0,0,0,2.5.68,4.65,4.65,0,0,0,1.34-.17,2.6,2.6,0,0,0,.88-.46,1.6,1.6,0,0,0,.49-.67,2.23,2.23,0,0,0,.15-.83,1.78,1.78,0,0,0-.48-1.19,3,3,0,0,0-1.74-.81l-2.11-.38a12.33,12.33,0,0,1-2.19-.59,5.09,5.09,0,0,1-1.6-.94,3.83,3.83,0,0,1-1-1.41,5.48,5.48,0,0,1-.33-2,4.32,4.32,0,0,1,.46-2,4.23,4.23,0,0,1,1.29-1.47,6,6,0,0,1,2-.89,9.66,9.66,0,0,1,2.54-.31,9.09,9.09,0,0,1,2.94.41,5.18,5.18,0,0,1,1.9,1.08,4,4,0,0,1,1.08,1.55,7.23,7.23,0,0,1,.46,1.83l-3.19.41a3.24,3.24,0,0,0-1-1.93,3.37,3.37,0,0,0-2.16-.59,5.56,5.56,0,0,0-1.42.15,2.73,2.73,0,0,0-.89.39,1.31,1.31,0,0,0-.48.55,1.66,1.66,0,0,0-.14.66,1.73,1.73,0,0,0,.51,1.36,3.87,3.87,0,0,0,1.74.7l2.22.43A7.71,7.71,0,0,1,193.67,48a4.42,4.42,0,0,1,1.22,3.36,4.71,4.71,0,0,1-.4,2,4.42,4.42,0,0,1-1.18,1.56,5.46,5.46,0,0,1-2,1,9.07,9.07,0,0,1-2.76.38,7.92,7.92,0,0,1-5.06-1.42,5.52,5.52,0,0,1-1.89-4.27h3.42A3,3,0,0,0,186,52.77Z"/><path class="cls-5" d="M200.9,52.77a3.94,3.94,0,0,0,2.5.68,4.7,4.7,0,0,0,1.34-.17,2.7,2.7,0,0,0,.88-.46,1.57,1.57,0,0,0,.48-.67,2.23,2.23,0,0,0,.15-.83,1.81,1.81,0,0,0-.47-1.19,3.07,3.07,0,0,0-1.75-.81l-2.1-.38a12.45,12.45,0,0,1-2.2-.59,5.2,5.2,0,0,1-1.6-.94,3.81,3.81,0,0,1-1-1.41,5.27,5.27,0,0,1-.34-2,4.32,4.32,0,0,1,.46-2,4.23,4.23,0,0,1,1.29-1.47,6.15,6.15,0,0,1,2-.89,9.58,9.58,0,0,1,2.53-.31,9.2,9.2,0,0,1,2.95.41,5.35,5.35,0,0,1,1.9,1.08A4.12,4.12,0,0,1,209,42.33a7.25,7.25,0,0,1,.47,1.83l-3.2.41a3.13,3.13,0,0,0-1-1.93,3.34,3.34,0,0,0-2.16-.59,5.61,5.61,0,0,0-1.42.15,2.83,2.83,0,0,0-.89.39,1.38,1.38,0,0,0-.48.55,1.65,1.65,0,0,0-.13.66,1.73,1.73,0,0,0,.51,1.36,3.88,3.88,0,0,0,1.73.7l2.22.43A7.71,7.71,0,0,1,208.54,48a4.42,4.42,0,0,1,1.22,3.36,4.86,4.86,0,0,1-.39,2,4.55,4.55,0,0,1-1.18,1.56,5.54,5.54,0,0,1-2,1,9.16,9.16,0,0,1-2.76.38,7.9,7.9,0,0,1-5.06-1.42,5.52,5.52,0,0,1-1.89-4.27h3.41A3,3,0,0,0,200.9,52.77Z"/><path class="cls-5" d="M215.51,39.7V55.87h-3.37V39.7Z"/><rect class="cls-5" x="16.78" y="75.49" width="215.81" height="215.81" rx="12.68"/><rect x="28.88" y="87.35" width="5.18" height="36.25"/><rect x="28.88" y="128.77" width="5.18" height="25.89"/><rect x="28.88" y="159.84" width="5.18" height="5.18"/><rect x="28.88" y="180.55" width="5.18" height="10.36"/><rect x="28.88" y="196.09" width="5.18" height="41.42"/><rect x="28.88" y="242.69" width="5.18" height="36.25"/><rect x="34.06" y="87.35" width="5.18" height="5.18"/><rect x="34.06" y="118.42" width="5.18" height="5.18"/><rect x="34.06" y="149.49" width="5.18" height="5.18"/><rect x="34.06" y="159.84" width="5.18" height="5.18"/><rect x="34.06" y="170.2" width="5.18" height="20.71"/><rect x="34.06" y="196.09" width="5.18" height="5.18"/><rect x="34.06" y="206.44" width="5.18" height="15.53"/><rect x="34.06" y="242.69" width="5.18" height="5.18"/><rect x="34.06" y="273.76" width="5.18" height="5.18"/><rect x="39.24" y="87.35" width="5.18" height="5.18"/><rect x="39.24" y="97.7" width="5.18" height="15.53"/><rect x="39.24" y="118.42" width="5.18" height="5.18"/><rect x="39.24" y="128.77" width="5.18" height="5.18"/><rect x="39.24" y="154.66" width="5.18" height="15.53"/><rect x="39.24" y="190.91" width="5.18" height="5.18"/><rect x="39.24" y="201.27" width="5.18" height="20.71"/><rect x="39.24" y="242.69" width="5.18" height="5.18"/><rect x="39.24" y="253.05" width="5.18" height="15.53"/><rect x="39.24" y="273.76" width="5.18" height="5.18"/><rect x="44.42" y="87.35" width="5.18" height="5.18"/><rect x="44.42" y="97.7" width="5.18" height="15.53"/><rect x="44.42" y="118.42" width="5.18" height="5.18"/><rect x="44.42" y="128.77" width="5.18" height="5.18"/><rect x="44.42" y="139.13" width="5.18" height="5.18"/><rect x="44.42" y="149.49" width="5.18" height="10.36"/><rect x="44.42" y="165.02" width="5.18" height="10.36"/><rect x="44.42" y="180.55" width="5.18" height="20.71"/><rect x="44.42" y="211.62" width="5.18" height="10.36"/><rect x="44.42" y="232.34" width="5.18" height="5.18"/><rect x="44.42" y="242.69" width="5.18" height="5.18"/><rect x="44.42" y="253.05" width="5.18" height="15.53"/><rect x="44.42" y="273.76" width="5.18" height="5.18"/><rect x="49.6" y="87.35" width="5.18" height="5.18"/><rect x="49.6" y="97.7" width="5.18" height="15.53"/><rect x="49.6" y="118.42" width="5.18" height="5.18"/><rect x="49.6" y="128.77" width="5.18" height="5.18"/><rect x="49.6" y="139.13" width="5.18" height="10.36"/><rect x="49.6" y="159.84" width="5.18" height="15.53"/><rect x="49.6" y="185.73" width="5.18" height="20.71"/><rect x="49.6" y="216.8" width="5.18" height="5.18"/><rect x="49.6" y="242.69" width="5.18" height="5.18"/><rect x="49.6" y="253.05" width="5.18" height="15.53"/><rect x="49.6" y="273.76" width="5.18" height="5.18"/><rect x="54.77" y="87.35" width="5.18" height="5.18"/><rect x="54.77" y="118.42" width="5.18" height="5.18"/><rect x="54.77" y="128.77" width="5.18" height="10.36"/><rect x="54.77" y="144.31" width="5.18" height="5.18"/><rect x="54.77" y="159.84" width="5.18" height="10.36"/><rect x="54.77" y="175.38" width="5.18" height="5.18"/><rect x="54.77" y="185.73" width="5.18" height="15.53"/><rect x="54.77" y="206.44" width="5.18" height="10.36"/><rect x="54.77" y="227.16" width="5.18" height="5.18"/><rect x="54.77" y="242.69" width="5.18" height="5.18"/><rect x="54.77" y="273.76" width="5.18" height="5.18"/><rect x="59.95" y="87.35" width="5.18" height="36.25"/><rect x="59.95" y="128.77" width="5.18" height="5.18"/><rect x="59.95" y="139.13" width="5.18" height="5.18"/><rect x="59.95" y="149.49" width="5.18" height="5.18"/><rect x="59.95" y="159.84" width="5.18" height="5.18"/><rect x="59.95" y="170.2" width="5.18" height="5.18"/><rect x="59.95" y="180.55" width="5.18" height="5.18"/><rect x="59.95" y="190.91" width="5.18" height="5.18"/><rect x="59.95" y="201.27" width="5.18" height="5.18"/><rect x="59.95" y="211.62" width="5.18" height="5.18"/><rect x="59.95" y="221.98" width="5.18" height="5.18"/><rect x="59.95" y="232.34" width="5.18" height="5.18"/><rect x="59.95" y="242.69" width="5.18" height="36.25"/><rect x="65.13" y="133.95" width="5.18" height="5.18"/><rect x="65.13" y="154.66" width="5.18" height="15.53"/><rect x="65.13" y="175.38" width="5.18" height="20.71"/><rect x="65.13" y="201.27" width="5.18" height="5.18"/><rect x="65.13" y="211.62" width="5.18" height="10.36"/><rect x="65.13" y="232.34" width="5.18" height="5.18"/><rect x="70.31" y="97.7" width="5.18" height="31.07"/><rect x="70.31" y="133.95" width="5.18" height="5.18"/><rect x="70.31" y="159.84" width="5.18" height="10.36"/><rect x="70.31" y="175.38" width="5.18" height="5.18"/><rect x="70.31" y="185.73" width="5.18" height="5.18"/><rect x="70.31" y="196.09" width="5.18" height="5.18"/><rect x="70.31" y="237.51" width="5.18" height="5.18"/><rect x="70.31" y="247.87" width="5.18" height="20.71"/><rect x="70.31" y="273.76" width="5.18" height="5.18"/><rect x="75.49" y="92.53" width="5.18" height="5.18"/><rect x="75.49" y="102.88" width="5.18" height="5.18"/><rect x="75.49" y="113.24" width="5.18" height="5.18"/><rect x="75.49" y="139.13" width="5.18" height="5.18"/><rect x="75.49" y="154.66" width="5.18" height="5.18"/><rect x="75.49" y="175.38" width="5.18" height="15.53"/><rect x="75.49" y="196.09" width="5.18" height="5.18"/><rect x="75.49" y="232.34" width="5.18" height="10.36"/><rect x="75.49" y="247.87" width="5.18" height="25.89"/><rect x="80.67" y="92.53" width="5.18" height="41.42"/><rect x="80.67" y="139.13" width="5.18" height="5.18"/><rect x="80.67" y="190.91" width="5.18" height="5.18"/><rect x="80.67" y="201.27" width="5.18" height="5.18"/><rect x="80.67" y="232.34" width="5.18" height="15.53"/><rect x="80.67" y="253.05" width="5.18" height="5.18"/><rect x="80.67" y="273.76" width="5.18" height="5.18"/><rect x="85.84" y="87.35" width="5.18" height="10.36"/><rect x="85.84" y="108.06" width="5.18" height="10.36"/><rect x="85.84" y="123.6" width="5.18" height="25.89"/><rect x="85.84" y="154.66" width="5.18" height="15.53"/><rect x="85.84" y="180.55" width="5.18" height="20.71"/><rect x="85.84" y="211.62" width="5.18" height="20.71"/><rect x="85.84" y="242.69" width="5.18" height="10.36"/><rect x="85.84" y="268.58" width="5.18" height="10.36"/><rect x="91.02" y="87.35" width="5.18" height="5.18"/><rect x="91.02" y="102.88" width="5.18" height="5.18"/><rect x="91.02" y="113.24" width="5.18" height="10.36"/><rect x="91.02" y="133.95" width="5.18" height="10.36"/><rect x="91.02" y="170.2" width="5.18" height="10.36"/><rect x="91.02" y="185.73" width="5.18" height="5.18"/><rect x="91.02" y="206.44" width="5.18" height="5.18"/><rect x="91.02" y="221.98" width="5.18" height="5.18"/><rect x="91.02" y="242.69" width="5.18" height="5.18"/><rect x="91.02" y="258.23" width="5.18" height="5.18"/><rect x="91.02" y="268.58" width="5.18" height="5.18"/><rect x="96.2" y="87.35" width="5.18" height="5.18"/><rect x="96.2" y="113.24" width="5.18" height="5.18"/><rect x="96.2" y="123.6" width="5.18" height="5.18"/><rect x="96.2" y="139.13" width="5.18" height="5.18"/><rect x="96.2" y="170.2" width="5.18" height="5.18"/><rect x="96.2" y="180.55" width="5.18" height="10.36"/><rect x="96.2" y="196.09" width="5.18" height="5.18"/><rect x="96.2" y="211.62" width="5.18" height="5.18"/><rect x="96.2" y="227.16" width="5.18" height="36.25"/><rect x="96.2" y="273.76" width="5.18" height="5.18"/><rect x="101.38" y="92.53" width="5.18" height="20.71"/><rect x="101.38" y="118.42" width="5.18" height="5.18"/><rect x="101.38" y="128.77" width="5.18" height="15.53"/><rect x="101.38" y="149.49" width="5.18" height="5.18"/><rect x="101.38" y="165.02" width="5.18" height="20.71"/><rect x="101.38" y="196.09" width="5.18" height="41.42"/><rect x="101.38" y="242.69" width="5.18" height="5.18"/><rect x="101.38" y="273.76" width="5.18" height="5.18"/><rect x="106.56" y="108.06" width="5.18" height="10.36"/><rect x="106.56" y="128.77" width="5.18" height="10.36"/><rect x="106.56" y="159.84" width="5.18" height="10.36"/><rect x="106.56" y="175.38" width="5.18" height="20.71"/><rect x="106.56" y="201.27" width="5.18" height="5.18"/><rect x="106.56" y="211.62" width="5.18" height="10.36"/><rect x="106.56" y="242.69" width="5.18" height="5.18"/><rect x="106.56" y="258.23" width="5.18" height="20.71"/><rect x="111.73" y="87.35" width="5.18" height="20.71"/><rect x="111.73" y="113.24" width="5.18" height="10.36"/><rect x="111.73" y="133.95" width="5.18" height="5.18"/><rect x="111.73" y="144.31" width="5.18" height="5.18"/><rect x="111.73" y="154.66" width="5.18" height="10.36"/><rect x="111.73" y="170.2" width="5.18" height="5.18"/><rect x="111.73" y="180.55" width="5.18" height="5.18"/><rect x="111.73" y="196.09" width="5.18" height="10.36"/><rect x="111.73" y="216.8" width="5.18" height="5.18"/><rect x="111.73" y="227.16" width="5.18" height="15.53"/><rect x="111.73" y="247.87" width="5.18" height="10.36"/><rect x="111.73" y="263.4" width="5.18" height="5.18"/><rect x="116.91" y="102.88" width="5.18" height="5.18"/><rect x="116.91" y="133.95" width="5.18" height="10.36"/><rect x="116.91" y="149.49" width="5.18" height="20.71"/><rect x="116.91" y="180.55" width="5.18" height="5.18"/><rect x="116.91" y="190.91" width="5.18" height="5.18"/><rect x="116.91" y="216.8" width="5.18" height="5.18"/><rect x="116.91" y="232.34" width="5.18" height="20.71"/><rect x="116.91" y="258.23" width="5.18" height="10.36"/><rect x="116.91" y="273.76" width="5.18" height="5.18"/><rect x="122.09" y="87.35" width="5.18" height="5.18"/><rect x="122.09" y="108.06" width="5.18" height="15.53"/><rect x="122.09" y="128.77" width="5.18" height="5.18"/><rect x="122.09" y="144.31" width="5.18" height="5.18"/><rect x="122.09" y="154.66" width="5.18" height="5.18"/><rect x="122.09" y="165.02" width="5.18" height="5.18"/><rect x="122.09" y="175.38" width="5.18" height="5.18"/><rect x="122.09" y="185.73" width="5.18" height="5.18"/><rect x="122.09" y="196.09" width="5.18" height="10.36"/><rect x="122.09" y="211.62" width="5.18" height="5.18"/><rect x="122.09" y="227.16" width="5.18" height="5.18"/><rect x="122.09" y="237.51" width="5.18" height="5.18"/><rect x="122.09" y="247.87" width="5.18" height="5.18"/><rect x="122.09" y="258.23" width="5.18" height="5.18"/><rect x="127.27" y="92.53" width="5.18" height="20.71"/><rect x="127.27" y="123.6" width="5.18" height="10.36"/><rect x="127.27" y="154.66" width="5.18" height="5.18"/><rect x="127.27" y="165.02" width="5.18" height="5.18"/><rect x="127.27" y="180.55" width="5.18" height="20.71"/><rect x="127.27" y="237.51" width="5.18" height="5.18"/><rect x="127.27" y="247.87" width="5.18" height="5.18"/><rect x="127.27" y="263.4" width="5.18" height="15.53"/><rect x="132.45" y="87.35" width="5.18" height="5.18"/><rect x="132.45" y="97.7" width="5.18" height="5.18"/><rect x="132.45" y="108.06" width="5.18" height="25.89"/><rect x="132.45" y="139.13" width="5.18" height="5.18"/><rect x="132.45" y="159.84" width="5.18" height="5.18"/><rect x="132.45" y="175.38" width="5.18" height="5.18"/><rect x="132.45" y="185.73" width="5.18" height="15.53"/><rect x="132.45" y="206.44" width="5.18" height="10.36"/><rect x="132.45" y="221.98" width="5.18" height="5.18"/><rect x="132.45" y="232.34" width="5.18" height="15.53"/><rect x="132.45" y="258.23" width="5.18" height="5.18"/><rect x="132.45" y="268.58" width="5.18" height="5.18"/><rect x="137.62" y="87.35" width="5.18" height="15.53"/><rect x="137.62" y="108.06" width="5.18" height="10.36"/><rect x="137.62" y="123.6" width="5.18" height="5.18"/><rect x="137.62" y="133.95" width="5.18" height="5.18"/><rect x="137.62" y="144.31" width="5.18" height="5.18"/><rect x="137.62" y="154.66" width="5.18" height="5.18"/><rect x="137.62" y="165.02" width="5.18" height="10.36"/><rect x="137.62" y="185.73" width="5.18" height="5.18"/><rect x="137.62" y="196.09" width="5.18" height="5.18"/><rect x="137.62" y="216.8" width="5.18" height="15.53"/><rect x="137.62" y="237.51" width="5.18" height="36.25"/><rect x="142.8" y="102.88" width="5.18" height="36.25"/><rect x="142.8" y="149.49" width="5.18" height="5.18"/><rect x="142.8" y="165.02" width="5.18" height="5.18"/><rect x="142.8" y="180.55" width="5.18" height="15.53"/><rect x="142.8" y="201.27" width="5.18" height="5.18"/><rect x="142.8" y="211.62" width="5.18" height="5.18"/><rect x="142.8" y="221.98" width="5.18" height="5.18"/><rect x="142.8" y="232.34" width="5.18" height="20.71"/><rect x="142.8" y="263.4" width="5.18" height="15.53"/><rect x="147.98" y="92.53" width="5.18" height="5.18"/><rect x="147.98" y="102.88" width="5.18" height="10.36"/><rect x="147.98" y="123.6" width="5.18" height="15.53"/><rect x="147.98" y="154.66" width="5.18" height="5.18"/><rect x="147.98" y="170.2" width="5.18" height="5.18"/><rect x="147.98" y="190.91" width="5.18" height="10.36"/><rect x="147.98" y="206.44" width="5.18" height="15.53"/><rect x="147.98" y="227.16" width="5.18" height="15.53"/><rect x="147.98" y="247.87" width="5.18" height="5.18"/><rect x="147.98" y="258.23" width="5.18" height="5.18"/><rect x="153.16" y="92.53" width="5.18" height="10.36"/><rect x="153.16" y="118.42" width="5.18" height="5.18"/><rect x="153.16" y="128.77" width="5.18" height="31.07"/><rect x="153.16" y="175.38" width="5.18" height="5.18"/><rect x="153.16" y="190.91" width="5.18" height="5.18"/><rect x="153.16" y="216.8" width="5.18" height="10.36"/><rect x="153.16" y="232.34" width="5.18" height="5.18"/><rect x="153.16" y="247.87" width="5.18" height="10.36"/><rect x="153.16" y="273.76" width="5.18" height="5.18"/><rect x="158.34" y="102.88" width="5.18" height="15.53"/><rect x="158.34" y="128.77" width="5.18" height="10.36"/><rect x="158.34" y="149.49" width="5.18" height="5.18"/><rect x="158.34" y="170.2" width="5.18" height="5.18"/><rect x="158.34" y="180.55" width="5.18" height="5.18"/><rect x="158.34" y="190.91" width="5.18" height="15.53"/><rect x="158.34" y="211.62" width="5.18" height="5.18"/><rect x="158.34" y="232.34" width="5.18" height="15.53"/><rect x="158.34" y="253.05" width="5.18" height="15.53"/><rect x="158.34" y="273.76" width="5.18" height="5.18"/><rect x="163.51" y="87.35" width="5.18" height="20.71"/><rect x="163.51" y="113.24" width="5.18" height="31.07"/><rect x="163.51" y="149.49" width="5.18" height="15.53"/><rect x="163.51" y="170.2" width="5.18" height="5.18"/><rect x="163.51" y="185.73" width="5.18" height="10.36"/><rect x="163.51" y="201.27" width="5.18" height="15.53"/><rect x="163.51" y="221.98" width="5.18" height="10.36"/><rect x="163.51" y="247.87" width="5.18" height="10.36"/><rect x="163.51" y="263.4" width="5.18" height="5.18"/><rect x="163.51" y="273.76" width="5.18" height="5.18"/><rect x="168.69" y="92.53" width="5.18" height="5.18"/><rect x="168.69" y="113.24" width="5.18" height="5.18"/><rect x="168.69" y="123.6" width="5.18" height="10.36"/><rect x="168.69" y="139.13" width="5.18" height="10.36"/><rect x="168.69" y="159.84" width="5.18" height="5.18"/><rect x="168.69" y="170.2" width="5.18" height="5.18"/><rect x="168.69" y="180.55" width="5.18" height="5.18"/><rect x="168.69" y="190.91" width="5.18" height="5.18"/><rect x="168.69" y="201.27" width="5.18" height="5.18"/><rect x="168.69" y="211.62" width="5.18" height="5.18"/><rect x="168.69" y="221.98" width="5.18" height="5.18"/><rect x="168.69" y="232.34" width="5.18" height="10.36"/><rect x="168.69" y="253.05" width="5.18" height="5.18"/><rect x="173.87" y="92.53" width="5.18" height="20.71"/><rect x="173.87" y="118.42" width="5.18" height="5.18"/><rect x="173.87" y="139.13" width="5.18" height="5.18"/><rect x="173.87" y="149.49" width="5.18" height="15.53"/><rect x="173.87" y="175.38" width="5.18" height="10.36"/><rect x="173.87" y="196.09" width="5.18" height="10.36"/><rect x="173.87" y="211.62" width="5.18" height="15.53"/><rect x="173.87" y="232.34" width="5.18" height="31.07"/><rect x="173.87" y="268.58" width="5.18" height="5.18"/><rect x="179.05" y="139.13" width="5.18" height="36.25"/><rect x="179.05" y="185.73" width="5.18" height="10.36"/><rect x="179.05" y="201.27" width="5.18" height="5.18"/><rect x="179.05" y="221.98" width="5.18" height="5.18"/><rect x="179.05" y="232.34" width="5.18" height="5.18"/><rect x="179.05" y="253.05" width="5.18" height="10.36"/><rect x="179.05" y="268.58" width="5.18" height="10.36"/><rect x="184.23" y="87.35" width="5.18" height="36.25"/><rect x="184.23" y="128.77" width="5.18" height="5.18"/><rect x="184.23" y="144.31" width="5.18" height="10.36"/><rect x="184.23" y="170.2" width="5.18" height="5.18"/><rect x="184.23" y="180.55" width="5.18" height="5.18"/><rect x="184.23" y="190.91" width="5.18" height="5.18"/><rect x="184.23" y="211.62" width="5.18" height="5.18"/><rect x="184.23" y="221.98" width="5.18" height="15.53"/><rect x="184.23" y="242.69" width="5.18" height="5.18"/><rect x="184.23" y="253.05" width="5.18" height="10.36"/><rect x="184.23" y="273.76" width="5.18" height="5.18"/><rect x="189.41" y="87.35" width="5.18" height="5.18"/><rect x="189.41" y="118.42" width="5.18" height="5.18"/><rect x="189.41" y="128.77" width="5.18" height="15.53"/><rect x="189.41" y="154.66" width="5.18" height="15.53"/><rect x="189.41" y="175.38" width="5.18" height="5.18"/><rect x="189.41" y="185.73" width="5.18" height="5.18"/><rect x="189.41" y="201.27" width="5.18" height="25.89"/><rect x="189.41" y="232.34" width="5.18" height="5.18"/><rect x="189.41" y="253.05" width="5.18" height="5.18"/><rect x="194.58" y="87.35" width="5.18" height="5.18"/><rect x="194.58" y="97.7" width="5.18" height="15.53"/><rect x="194.58" y="118.42" width="5.18" height="5.18"/><rect x="194.58" y="128.77" width="5.18" height="5.18"/><rect x="194.58" y="144.31" width="5.18" height="10.36"/><rect x="194.58" y="159.84" width="5.18" height="15.53"/><rect x="194.58" y="190.91" width="5.18" height="5.18"/><rect x="194.58" y="201.27" width="5.18" height="15.53"/><rect x="194.58" y="232.34" width="5.18" height="31.07"/><rect x="194.58" y="268.58" width="5.18" height="10.36"/><rect x="199.76" y="87.35" width="5.18" height="5.18"/><rect x="199.76" y="97.7" width="5.18" height="15.53"/><rect x="199.76" y="118.42" width="5.18" height="5.18"/><rect x="199.76" y="128.77" width="5.18" height="5.18"/><rect x="199.76" y="139.13" width="5.18" height="5.18"/><rect x="199.76" y="149.49" width="5.18" height="5.18"/><rect x="199.76" y="159.84" width="5.18" height="5.18"/><rect x="199.76" y="180.55" width="5.18" height="5.18"/><rect x="199.76" y="190.91" width="5.18" height="15.53"/><rect x="199.76" y="216.8" width="5.18" height="5.18"/><rect x="199.76" y="232.34" width="5.18" height="10.36"/><rect x="199.76" y="247.87" width="5.18" height="5.18"/><rect x="199.76" y="258.23" width="5.18" height="5.18"/><rect x="199.76" y="273.76" width="5.18" height="5.18"/><rect x="204.94" y="87.35" width="5.18" height="5.18"/><rect x="204.94" y="97.7" width="5.18" height="15.53"/><rect x="204.94" y="118.42" width="5.18" height="5.18"/><rect x="204.94" y="128.77" width="5.18" height="15.53"/><rect x="204.94" y="149.49" width="5.18" height="5.18"/><rect x="204.94" y="170.2" width="5.18" height="5.18"/><rect x="204.94" y="190.91" width="5.18" height="5.18"/><rect x="204.94" y="211.62" width="5.18" height="10.36"/><rect x="204.94" y="232.34" width="5.18" height="5.18"/><rect x="204.94" y="242.69" width="5.18" height="5.18"/><rect x="204.94" y="253.05" width="5.18" height="5.18"/><rect x="204.94" y="263.4" width="5.18" height="5.18"/><rect x="204.94" y="273.76" width="5.18" height="5.18"/><rect x="210.12" y="87.35" width="5.18" height="5.18"/><rect x="210.12" y="118.42" width="5.18" height="5.18"/><rect x="210.12" y="133.95" width="5.18" height="10.36"/><rect x="210.12" y="149.49" width="5.18" height="5.18"/><rect x="210.12" y="159.84" width="5.18" height="10.36"/><rect x="210.12" y="175.38" width="5.18" height="10.36"/><rect x="210.12" y="201.27" width="5.18" height="15.53"/><rect x="210.12" y="221.98" width="5.18" height="10.36"/><rect x="210.12" y="247.87" width="5.18" height="5.18"/><rect x="210.12" y="263.4" width="5.18" height="5.18"/><rect x="210.12" y="273.76" width="5.18" height="5.18"/><rect x="215.3" y="87.35" width="5.18" height="36.25"/><rect x="215.3" y="139.13" width="5.18" height="15.53"/><rect x="215.3" y="159.84" width="5.18" height="10.36"/><rect x="215.3" y="180.55" width="5.18" height="10.36"/><rect x="215.3" y="201.27" width="5.18" height="5.18"/><rect x="215.3" y="221.98" width="5.18" height="15.53"/><rect x="215.3" y="242.69" width="5.18" height="36.25"/></g></g></svg>