<svg xmlns="http://www.w3.org/2000/svg" xmlns:xlink="http://www.w3.org/1999/xlink" viewBox="0 0 920.16 626.4"><defs><style>.cls-1{isolation:isolate;}.cls-2{fill:url(#linear-gradient);}.cls-3{fill:url(#linear-gradient-2);}.cls-4{fill:url(#linear-gradient-3);}.cls-5{fill:url(#linear-gradient-4);}.cls-6{fill:url(#linear-gradient-5);}.cls-7{fill:url(#linear-gradient-6);}.cls-8{fill:url(#linear-gradient-7);}.cls-9{fill:url(#linear-gradient-8);}.cls-10{fill:url(#linear-gradient-9);}.cls-11{fill:url(#linear-gradient-10);}.cls-12{fill:url(#linear-gradient-11);}.cls-13{fill:url(#linear-gradient-12);}.cls-14{fill:url(#linear-gradient-13);}.cls-15{fill:url(#linear-gradient-14);}.cls-16{fill:url(#linear-gradient-15);}.cls-17{fill:url(#linear-gradient-16);}.cls-18{fill:url(#linear-gradient-17);}.cls-19{fill:url(#linear-gradient-18);}.cls-20,.cls-50,.cls-51{mix-blend-mode:color-dodge;}.cls-21{fill:url(#radial-gradient);}.cls-22{fill:url(#radial-gradient-2);}.cls-23{fill:url(#radial-gradient-3);}.cls-24{fill:url(#radial-gradient-4);}.cls-25{fill:url(#linear-gradient-19);}.cls-26{fill:url(#linear-gradient-20);}.cls-27{fill:url(#linear-gradient-21);}.cls-28{fill:url(#linear-gradient-22);}.cls-29{fill:url(#linear-gradient-23);}.cls-30{fill:url(#linear-gradient-24);}.cls-31{fill:url(#linear-gradient-25);}.cls-32{fill:url(#linear-gradient-26);}.cls-33{opacity:0.2;}.cls-34{fill:url(#linear-gradient-27);}.cls-35{fill:url(#linear-gradient-28);}.cls-36{fill:url(#radial-gradient-5);}.cls-37{fill:url(#radial-gradient-6);}.cls-38{fill:url(#radial-gradient-7);}.cls-39{fill:url(#linear-gradient-29);}.cls-40{fill:url(#linear-gradient-30);}.cls-41{fill:url(#linear-gradient-31);}.cls-42{fill:url(#linear-gradient-32);}.cls-43{fill:url(#linear-gradient-33);}.cls-44{fill:url(#linear-gradient-34);}.cls-45{fill:url(#linear-gradient-35);}.cls-46{fill:url(#linear-gradient-36);}.cls-47{fill:url(#linear-gradient-37);}.cls-48{fill:url(#radial-gradient-8);}.cls-49{fill:url(#radial-gradient-9);}.cls-50{fill:url(#radial-gradient-10);}.cls-51{fill:url(#radial-gradient-11);}.cls-52{fill:url(#linear-gradient-38);}.cls-53{fill:url(#linear-gradient-39);}.cls-54{fill:url(#linear-gradient-40);}.cls-55{fill:url(#linear-gradient-41);}.cls-56{fill:url(#radial-gradient-12);}.cls-57{fill:url(#radial-gradient-13);}.cls-58{fill:url(#radial-gradient-14);}.cls-59{fill:url(#radial-gradient-15);}</style><linearGradient id="linear-gradient" x1="16922.44" y1="-298.04" x2="16667.39" y2="188.02" gradientTransform="matrix(-1, 0, 0, 1, 17164.52, 0)" gradientUnits="userSpaceOnUse"><stop offset="0.04" stop-color="#00193b"/><stop offset="0.25" stop-color="#002844"/><stop offset="0.66" stop-color="#00515c"/><stop offset="1" stop-color="#007672"/></linearGradient><linearGradient id="linear-gradient-2" x1="16746.62" y1="189.86" x2="17177.1" y2="-43.01" xlink:href="#linear-gradient"/><linearGradient id="linear-gradient-3" x1="16719" y1="237.66" x2="16898.74" y2="458.88" xlink:href="#linear-gradient"/><linearGradient id="linear-gradient-4" x1="16768.1" y1="229.56" x2="17198.56" y2="-3.3" xlink:href="#linear-gradient"/><linearGradient id="linear-gradient-5" x1="16784.62" y1="240.16" x2="16784.69" y2="240.24" xlink:href="#linear-gradient"/><linearGradient id="linear-gradient-6" x1="16786.5" y1="239.47" x2="16786.55" y2="239.53" xlink:href="#linear-gradient"/><linearGradient id="linear-gradient-7" x1="16233.51" y1="302.95" x2="16993.46" y2="132.59" xlink:href="#linear-gradient"/><linearGradient id="linear-gradient-8" x1="16790.19" y1="217.22" x2="16882.97" y2="217.22" gradientTransform="matrix(-1, 0, 0, 1, 17164.52, 0)" gradientUnits="userSpaceOnUse"><stop offset="0" stop-color="#00193b"/><stop offset="0.06" stop-color="#081f3e"/><stop offset="0.16" stop-color="#0f2541"/><stop offset="0.28" stop-color="#0a4051"/><stop offset="0.48" stop-color="#007672"/><stop offset="0.87" stop-color="#00193b"/></linearGradient><linearGradient id="linear-gradient-9" x1="16783.66" y1="178.15" x2="16783.74" y2="178.25" xlink:href="#linear-gradient"/><linearGradient id="linear-gradient-10" x1="16785.66" y1="177.22" x2="16785.96" y2="177.6" xlink:href="#linear-gradient"/><linearGradient id="linear-gradient-11" x1="16572.17" y1="177.01" x2="16573.09" y2="176.8" xlink:href="#linear-gradient"/><linearGradient id="linear-gradient-12" x1="16405.18" y1="186.29" x2="16645.07" y2="132.52" xlink:href="#linear-gradient"/><linearGradient id="linear-gradient-13" x1="16574.14" y1="177.02" x2="16574.5" y2="176.94" xlink:href="#linear-gradient"/><linearGradient id="linear-gradient-14" x1="16556.59" y1="240.83" x2="16580.58" y2="235.45" xlink:href="#linear-gradient"/><linearGradient id="linear-gradient-15" x1="16571.26" y1="240.08" x2="16575.87" y2="239.04" xlink:href="#linear-gradient"/><linearGradient id="linear-gradient-16" x1="16577.25" y1="238.99" x2="16577.66" y2="238.9" xlink:href="#linear-gradient"/><linearGradient id="linear-gradient-17" x1="16636.6" y1="259.74" x2="16637.17" y2="259.61" xlink:href="#linear-gradient"/><linearGradient id="linear-gradient-18" x1="16583.07" y1="190.67" x2="16667.37" y2="190.67" gradientTransform="matrix(-1, 0, 0, 1, 17164.52, 0)" gradientUnits="userSpaceOnUse"><stop offset="0" stop-color="#1b2b51"/><stop offset="0.06" stop-color="#0f2347"/><stop offset="0.15" stop-color="#041b3e"/><stop offset="0.25" stop-color="#00193b"/><stop offset="0.56" stop-color="#002f46"/><stop offset="0.97" stop-color="#0f2541"/></linearGradient><radialGradient id="radial-gradient" cx="16861.85" cy="116.75" r="26.98" gradientTransform="matrix(-1, 0, 0, 1, 17164.52, 0)" gradientUnits="userSpaceOnUse"><stop offset="0" stop-color="#fff"/><stop offset="0.07" stop-color="#d8d8d8"/><stop offset="0.16" stop-color="#a6a6a6"/><stop offset="0.26" stop-color="#797979"/><stop offset="0.37" stop-color="#545454"/><stop offset="0.47" stop-color="#353535"/><stop offset="0.59" stop-color="#1e1e1e"/><stop offset="0.7" stop-color="#0d0d0d"/><stop offset="0.84" stop-color="#030303"/><stop offset="1"/></radialGradient><radialGradient id="radial-gradient-2" cx="16837.84" cy="217.77" r="66.26" xlink:href="#radial-gradient"/><radialGradient id="radial-gradient-3" cx="16530.47" cy="161.21" r="37.12" xlink:href="#radial-gradient"/><radialGradient id="radial-gradient-4" cx="16624.9" cy="154.32" r="33.81" xlink:href="#radial-gradient"/><linearGradient id="linear-gradient-19" x1="16715.87" y1="-213.57" x2="16430.93" y2="329.48" gradientTransform="matrix(-1, 0, 0, 1, 17164.52, 0)" gradientUnits="userSpaceOnUse"><stop offset="0.04" stop-color="#2cc1a7"/><stop offset="0.22" stop-color="#3bc4aa"/><stop offset="0.59" stop-color="#64cdb3"/><stop offset="1" stop-color="#99d9bf"/></linearGradient><linearGradient id="linear-gradient-20" x1="16592.83" y1="249.44" x2="16691.48" y2="219.9" xlink:href="#linear-gradient-19"/><linearGradient id="linear-gradient-21" x1="16480.09" y1="337.88" x2="16655.75" y2="337.88" gradientTransform="matrix(-1, 0, 0, 1, 17164.52, 0)" gradientUnits="userSpaceOnUse"><stop offset="0" stop-color="#6cd0b4"/><stop offset="0.1" stop-color="#7bd3b8"/><stop offset="0.24" stop-color="#99d9bf"/><stop offset="0.35" stop-color="#81d4b9"/><stop offset="0.44" stop-color="#6cd0b4"/><stop offset="0.5" stop-color="#6cd0b4"/><stop offset="0.51" stop-color="#6cd0b4"/><stop offset="0.55" stop-color="#99d9bf"/><stop offset="0.55" stop-color="#91d7bd"/><stop offset="0.56" stop-color="#6dcfb5"/><stop offset="0.58" stop-color="#50c9af"/><stop offset="0.6" stop-color="#3cc5ab"/><stop offset="0.61" stop-color="#30c2a8"/><stop offset="0.63" stop-color="#2cc1a7"/></linearGradient><linearGradient id="linear-gradient-22" x1="16073.32" y1="437.37" x2="16645.7" y2="309.06" xlink:href="#linear-gradient-19"/><linearGradient id="linear-gradient-23" x1="16518.07" y1="344.35" x2="16608.48" y2="480.34" xlink:href="#linear-gradient-19"/><linearGradient id="linear-gradient-24" x1="16550.82" y1="393.61" x2="16587.53" y2="448.83" xlink:href="#linear-gradient-19"/><linearGradient id="linear-gradient-25" x1="16466.84" y1="377.89" x2="16559.84" y2="517.77" xlink:href="#linear-gradient-19"/><linearGradient id="linear-gradient-26" x1="16500.53" y1="428.56" x2="16538.29" y2="485.36" xlink:href="#linear-gradient-19"/><linearGradient id="linear-gradient-27" x1="16518.07" y1="500.21" x2="16608.48" y2="636.2" xlink:href="#linear-gradient-19"/><linearGradient id="linear-gradient-28" x1="16550.82" y1="549.47" x2="16587.53" y2="604.69" xlink:href="#linear-gradient-19"/><radialGradient id="radial-gradient-5" cx="16353.42" cy="334.84" r="144.02" xlink:href="#radial-gradient"/><radialGradient id="radial-gradient-6" cx="16601.58" cy="223.65" r="19.96" xlink:href="#radial-gradient"/><radialGradient id="radial-gradient-7" cx="16532.19" cy="295.44" r="64.05" xlink:href="#radial-gradient"/><linearGradient id="linear-gradient-29" x1="16758.23" y1="277.96" x2="17157.35" y2="277.96" gradientTransform="matrix(-1, 0, 0, 1, 17164.52, 0)" gradientUnits="userSpaceOnUse"><stop offset="0.04" stop-color="#001831"/><stop offset="0.17" stop-color="#02273c"/><stop offset="0.44" stop-color="#075058"/><stop offset="0.8" stop-color="#109186"/><stop offset="1" stop-color="#15b8a2"/></linearGradient><linearGradient id="linear-gradient-30" x1="17196.08" y1="-175.26" x2="16911.14" y2="367.79" xlink:href="#linear-gradient-29"/><linearGradient id="linear-gradient-31" x1="16964.03" y1="233.15" x2="16869.99" y2="233.15" gradientTransform="matrix(-1, 0, 0, 1, 17164.52, 0)" gradientUnits="userSpaceOnUse"><stop offset="0" stop-color="#001831"/><stop offset="0.09" stop-color="#02273c"/><stop offset="0.26" stop-color="#075058"/><stop offset="0.5" stop-color="#109186"/><stop offset="0.63" stop-color="#15b8a2"/><stop offset="0.87" stop-color="#007470"/></linearGradient><linearGradient id="linear-gradient-32" x1="17035.6" y1="317.25" x2="17108.89" y2="469.4" xlink:href="#linear-gradient-29"/><linearGradient id="linear-gradient-33" x1="16995.38" y1="387.56" x2="17433.29" y2="256.43" xlink:href="#linear-gradient-29"/><linearGradient id="linear-gradient-34" x1="16669.34" y1="340.48" x2="16921.05" y2="284.05" xlink:href="#linear-gradient-29"/><linearGradient id="linear-gradient-35" x1="16853.19" y1="420.19" x2="17005.06" y2="386.15" xlink:href="#linear-gradient-29"/><linearGradient id="linear-gradient-36" x1="16844.86" y1="409.13" x2="16918.15" y2="561.28" xlink:href="#linear-gradient-29"/><linearGradient id="linear-gradient-37" x1="16891.32" y1="396.58" x2="16784.49" y2="396.58" gradientTransform="matrix(-1, 0, 0, 1, 17164.52, 0)" gradientUnits="userSpaceOnUse"><stop offset="0" stop-color="#001831"/><stop offset="0.11" stop-color="#02273c"/><stop offset="0.32" stop-color="#075058"/><stop offset="0.61" stop-color="#109186"/><stop offset="0.77" stop-color="#15b8a2"/><stop offset="0.92" stop-color="#007470"/></linearGradient><radialGradient id="radial-gradient-8" cx="16811.58" cy="299.85" r="43.19" xlink:href="#radial-gradient"/><radialGradient id="radial-gradient-9" cx="16923.31" cy="210.42" r="31.07" xlink:href="#radial-gradient"/><radialGradient id="radial-gradient-10" cx="16817.82" cy="395.01" r="100.4" xlink:href="#radial-gradient"/><radialGradient id="radial-gradient-11" cx="17090.37" cy="345.08" r="107.16" xlink:href="#radial-gradient"/><linearGradient id="linear-gradient-38" x1="16919.78" y1="27.43" x2="16674.79" y2="494.32" gradientTransform="matrix(-1, 0, 0, 1, 17164.52, 0)" gradientUnits="userSpaceOnUse"><stop offset="0.04" stop-color="#72d1b2"/><stop offset="1" stop-color="#6bcab0"/></linearGradient><linearGradient id="linear-gradient-39" x1="16523" y1="521.01" x2="16922.97" y2="521.01" gradientTransform="matrix(-1, 0, 0, 1, 17164.52, 0)" gradientUnits="userSpaceOnUse"><stop offset="0.07" stop-color="#9be1ca"/><stop offset="0.52" stop-color="#6bcdb2"/><stop offset="0.59" stop-color="#6bcab0"/><stop offset="0.6" stop-color="#6bcbb1"/><stop offset="0.7" stop-color="#6cd0b4"/><stop offset="1" stop-color="#249e84"/></linearGradient><linearGradient id="linear-gradient-40" x1="16449.14" y1="441.53" x2="16655.54" y2="395.26" xlink:href="#linear-gradient-38"/><linearGradient id="linear-gradient-41" x1="16772.56" y1="394.21" x2="16654.73" y2="394.21" gradientTransform="matrix(-1, 0, 0, 1, 17164.52, 0)" gradientUnits="userSpaceOnUse"><stop offset="0.04" stop-color="#6cd0b4"/><stop offset="0.63" stop-color="#6bcab0"/><stop offset="0.87" stop-color="#6cd0b4"/></linearGradient><radialGradient id="radial-gradient-12" cx="16826.27" cy="394.65" r="0.29" xlink:href="#radial-gradient"/><radialGradient id="radial-gradient-13" cx="16753.65" cy="380.57" r="16.25" xlink:href="#radial-gradient"/><radialGradient id="radial-gradient-14" cx="16548.84" cy="402.74" r="23.22" xlink:href="#radial-gradient"/><radialGradient id="radial-gradient-15" cx="16660.79" cy="497.18" r="149.24" xlink:href="#radial-gradient"/></defs><g class="cls-1"><g id="Layer_1" data-name="Layer 1"><path class="cls-2" d="M578.84,155.32c-13.34-13.08-43.27-17-65.4-8.14-17.78,7.11-24.62,22.53-14.92,33.62,5.51,6.29,14.66,10.69,25.14,12.86,5,1,5.52,5,1,6.51L434.9,230.89l-53.25-52.2c-3.44-3.38-12.28-2.87-14.42.87-3.46,6-10.86,11.38-21.55,14.6-20.06,6-45.12,2.14-57.09-8.85-13.12-12.08-6.27-28,15-35.27a71.92,71.92,0,0,1,30.34-3.14c6.71.72,11.77-3.5,8.31-6.89L288.94,87.8,519.45,8.88c10.07-3.45,23-1.54,28.95,4.25L683.66,145.72l-89.85,30.77c-4.49,1.53-10.13-.61-9.28-3.58C586.19,167.05,584.45,160.83,578.84,155.32Z"/><path class="cls-3" d="M333.88,146.9A71.92,71.92,0,0,0,303.54,150a47.16,47.16,0,0,0-10.13,4.77l-4.47-4.38V87.8L342.19,140C345.65,143.4,340.59,147.62,333.88,146.9Z"/><path class="cls-4" d="M282.25,174.83a19.57,19.57,0,0,0,6.34,10.48c12,11,37,14.89,57.09,8.85,10.69-3.22,18.09-8.56,21.55-14.6,2.14-3.74,11-4.25,14.42-.87l53.25,52.2,89.73-30.72c4.55-1.56,4-5.48-1-6.51-10.48-2.17-19.63-6.57-25.14-12.86-9.7-11.09-2.86-26.51,14.92-33.62,22.13-8.84,52.06-4.94,65.4,8.14,5.61,5.51,7.35,11.73,5.69,17.59-.85,3,4.79,5.11,9.28,3.58l89.85-30.77v62.63l-89.85,30.76c-4.49,1.53-10.13-.6-9.28-3.57,1.66-5.87-.08-12.09-5.69-17.6-10.66-10.45-31.92-15-51.32-11.93v52.82c.57,1.45-.31,3.08-2.89,4L434.9,293.52l-53.25-52.21c-3.44-3.38-12.28-2.87-14.42.87-3.46,6-10.86,11.38-21.55,14.61-20.06,6-45.12,2.14-57.09-8.86-5.5-5.07-7.45-10.81-6.34-16.3Z"/><path class="cls-5" d="M373.63,239.12V176.5c3-.25,6.24.44,8,2.19l53.25,52.2v62.63l-53.25-52.21C379.87,239.56,376.63,238.88,373.63,239.12Z"/><path class="cls-6" d="M379.72,240.07c.12.05.26.08.37.14C380,240.15,379.84,240.12,379.72,240.07Z"/><path class="cls-7" d="M377.93,239.44a1.13,1.13,0,0,0,.18,0A1.35,1.35,0,0,1,377.93,239.44Z"/><path class="cls-8" d="M524.63,200.17c4.55-1.56,4-5.48-1-6.51-10.48-2.17-19.63-6.57-25.14-12.86-9.7-11.09-2.86-26.5,14.92-33.62,22.13-8.84,52.06-4.93,65.4,8.14,5.61,5.51,7.35,11.73,5.69,17.59-.85,3,4.79,5.11,9.28,3.58l89.85-30.77v62.63l-89.85,30.76c-4.49,1.54-10.13-.6-9.28-3.57,1.66-5.87-.08-12.09-5.69-17.6-10.66-10.45-31.92-15-51.32-11.93v52.82c.57,1.45-.31,3.08-2.89,4L434.9,293.52V230.89Z"/><path class="cls-9" d="M282.25,231.63v-56.8a19.57,19.57,0,0,0,6.34,10.48c12,11,37,14.89,57.09,8.85,10.69-3.22,18.09-8.56,21.54-14.6,1.57-2.74,6.7-3.72,10.71-2.74a13.71,13.71,0,0,0-4.3-.32v62.62c-2.79.23-5.37,1.26-6.41,3.06-3.45,6-10.85,11.39-21.54,14.61-20.06,6-45.12,2.14-57.09-8.86C283.09,242.86,281.14,237.12,282.25,231.63Z"/><path class="cls-10" d="M380.09,177.59a6.34,6.34,0,0,1,1.56,1.1A6.34,6.34,0,0,0,380.09,177.59Z"/><path class="cls-11" d="M378.11,176.85a9.58,9.58,0,0,1,1.61.6A9.58,9.58,0,0,0,378.11,176.85Z"/><path class="cls-12" d="M592.05,176.9h0Z"/><polygon class="cls-13" points="600.33 174.25 683.66 145.72 683.66 145.72 600.33 174.25"/><path class="cls-14" d="M590.14,177l.11,0Z"/><path class="cls-15" d="M593.81,239.11l6.52-2.23-6.52,2.23a9,9,0,0,1-1.76.41A9,9,0,0,0,593.81,239.11Z"/><path class="cls-16" d="M591.75,239.54a12.55,12.55,0,0,1-1.5.07A10.76,10.76,0,0,0,591.75,239.54Z"/><path class="cls-17" d="M587,238.93v0C587.14,239,587.19,239,587,238.93Z"/><path class="cls-18" d="M527.63,259.27a2.06,2.06,0,0,1,0,.82Z"/><path class="cls-19" d="M527.63,197.66c.47-1.61-.89-3.36-4-4-10.48-2.17-19.63-6.57-25.14-12.86-9.7-11.09-2.86-26.5,14.92-33.62,22.13-8.84,52.06-4.93,65.4,8.14,5.61,5.51,7.35,11.73,5.69,17.59-.41,1.44.71,2.67,2.48,3.4v62.6c-.54-.27-3-1.62-2.48-3.37,1.66-5.87-.08-12.09-5.69-17.6-10.65-10.43-31.84-15-51.21-11.94Z"/><g class="cls-20"><path class="cls-21" d="M342.42,141.66c-.08-.08-.14-.17-.23-.26L288.94,89.2l3.16-1.08,50.09,49.1A3,3,0,0,1,342.42,141.66Z"/><path class="cls-22" d="M288.59,182.52c12,11,37,14.9,57.09,8.86,10.69-3.22,18.09-8.56,21.54-14.61,2.15-3.74,11-4.24,14.43-.86l53.25,52.2,89.73-30.72a6.21,6.21,0,0,0,1.94-1.08c2,1.61,1.46,4.09-1.94,5.25L434.9,232.29l-53.25-52.21c-3.45-3.38-12.28-2.87-14.43.87-3.45,6-10.85,11.38-21.54,14.61-20.06,6-45.12,2.13-57.09-8.86-5.22-4.81-7.23-10.22-6.48-15.45C282.67,175.12,284.75,179,288.59,182.52Z"/><path class="cls-23" d="M585,172.14c1.43,1.79,5.46,2.72,8.83,1.57L680.5,144l3.16,3.09-89.85,30.76c-4.49,1.54-10.13-.6-9.28-3.57A16.4,16.4,0,0,0,585,172.14Z"/><path class="cls-24" d="M494.26,169c-1.29-9.32,5.88-19.29,19.18-24.61,22.13-8.85,52.06-4.94,65.4,8.14,4.94,4.84,6.87,10.23,6.13,15.46a19.55,19.55,0,0,0-6.13-11.29c-13.34-13.07-43.27-17-65.4-8.13C502.12,153.1,495.26,161,494.26,169Z"/></g><path class="cls-25" d="M671.69,346.08c18.7-10.79,18-28.53-2.24-38.64-16.25-8.13-43.78-8-60,.23C600.22,312.35,595.06,318.6,594,325c-.52,3-7,4.34-10.68,2.19L510,284.88l74.63-43.1c4.83-2.78,1.84-7.6-5-7.84-11-.39-21.73-3.17-29.74-8.33-15-9.67-14.54-24.68,1-34.17,17.07-10.42,45.45-10.65,62.79-.65,7.78,4.5,12,10.28,12.63,16.18.43,3.93,8.74,5.68,13.59,2.88l74.64-43.09L902.92,275.53c8.23,4.75,8.18,12.49-.1,17.27L713.25,402.25l-73.43-42.4c-3.67-2.11-1.45-5.81,3.73-6.1C653.81,353.19,663.81,350.63,671.69,346.08Z"/><path class="cls-26" d="M549.88,225.61c8,5.16,18.76,7.94,29.74,8.33,6.8.24,9.79,5.06,5,7.84L539.17,268V211.41C540.05,216.55,543.59,221.55,549.88,225.61Z"/><path class="cls-27" d="M583.28,327.21c3.72,2.15,10.16.84,10.68-2.19,1.1-6.42,6.26-12.67,15.47-17.35,16.24-8.25,43.77-8.36,60-.23,20.21,10.11,20.94,27.85,2.24,38.64-7.88,4.55-17.88,7.11-28.14,7.67-3.18.18-5.22,1.64-5.5,3.23h0v0a1,1,0,0,0,0,.17v6.88c-10.47.2-20.83,2.26-28.61,6.22-9.21,4.68-14.37,10.92-15.47,17.34-.52,3-7,4.34-10.68,2.2L513,349.28l-3.09-.65V284.88Z"/><path class="cls-28" d="M902.82,292.8c4.07-2.35,6.15-5.42,6.23-8.49v61.31l-.08,0c.58,3.51-1.47,7.15-6.15,9.84L713.25,464.88V402.25Z"/><path class="cls-29" d="M638,357h0a.43.43,0,0,1,0,0Z"/><path class="cls-30" d="M638,357h0a.43.43,0,0,1,0,0Z"/><path class="cls-31" d="M639.82,359.85l73.43,42.4v62.63l-73.43-42.4a3.09,3.09,0,0,1-1.75-2.3h0v-.36a.85.85,0,0,1,0-.16V357.2A2.9,2.9,0,0,0,639.82,359.85Z"/><path class="cls-32" d="M639.82,359.85l73.43,42.4v62.63l-73.43-42.4a3.09,3.09,0,0,1-1.75-2.3h0v-.36a.85.85,0,0,1,0-.16V357.2A2.9,2.9,0,0,0,639.82,359.85Z"/><g class="cls-33"><path class="cls-34" d="M638,512.84h0a.43.43,0,0,1,0,0Z"/><path class="cls-35" d="M638,512.84h0a.43.43,0,0,1,0,0Z"/></g><g class="cls-20"><path class="cls-36" d="M640.25,357.32l73,42.15L902.82,290a12.6,12.6,0,0,0,5.67-5.9c1.61,4-.27,8.35-5.67,11.46L713.25,405l-73.43-42.39C637.08,361.05,637.63,358.59,640.25,357.32Z"/><path class="cls-37" d="M549.88,222.83c8,5.17,18.76,7.94,29.74,8.33,6.4.22,9.42,4.51,5.72,7.34a10,10,0,0,0-5.72-1.78c-11-.39-21.73-3.16-29.74-8.33-8.49-5.47-12-12.65-10.67-19.58C540.14,213.89,543.66,218.82,549.88,222.83Z"/><path class="cls-38" d="M583.28,324.43c3.72,2.15,10.16.83,10.68-2.2,1.1-6.42,6.26-12.66,15.47-17.34,16.24-8.25,43.77-8.36,60-.23,11.81,5.91,16.91,14.42,15.43,22.63-1.17-6.35-6.29-12.49-15.43-17.07-16.25-8.12-43.78-8-60,.24-9.21,4.68-14.37,10.92-15.47,17.34-.52,3-7,4.35-10.68,2.19L510,287.66l4.82-2.78Z"/></g><path class="cls-39" d="M244.55,216.38c-18.7,10.79-18,28.53,2.23,38.64,16.25,8.13,43.78,8,60-.23,9.21-4.68,14.37-10.92,15.47-17.34.52-3,7-4.35,10.68-2.2l73.34,42.34-74.64,43.09c-4.83,2.79-1.83,7.6,5,7.85,11,.39,21.74,3.16,29.74,8.32,15,9.68,14.54,24.68-1,34.18-17.06,10.42-45.45,10.65-62.79.64-7.78-4.5-12-10.27-12.62-16.17-.43-3.94-8.75-5.68-13.6-2.89L201.71,395.7,13.32,286.94c-8.23-4.76-8.19-12.49.09-17.27L203,160.21l73.42,42.4c3.68,2.12,1.45,5.81-3.73,6.1C262.43,209.28,252.42,211.83,244.55,216.38Z"/><path class="cls-40" d="M244.55,216.38c-18.7,10.79-18,28.53,2.23,38.64,16.25,8.13,43.78,8,60-.23,9.21-4.68,14.37-10.92,15.47-17.34.52-3,7-4.35,10.68-2.2l73.34,42.34-74.64,43.09c-4.83,2.79-1.83,7.6,5,7.85,11,.39,21.74,3.16,29.74,8.32,15,9.68,14.54,24.68-1,34.18-17.06,10.42-45.45,10.65-62.79.64-7.78-4.5-12-10.27-12.62-16.17-.43-3.94-8.75-5.68-13.6-2.89L201.71,395.7,13.32,286.94c-8.23-4.76-8.19-12.49.09-17.27L203,160.21l73.42,42.4c3.68,2.12,1.45,5.81-3.73,6.1C262.43,209.28,252.42,211.83,244.55,216.38Z"/><path class="cls-41" d="M246.78,255c-20.21-10.11-20.93-27.85-2.23-38.64,7.87-4.55,17.88-7.1,28.13-7.67,3.32-.18,5.4-1.76,5.52-3.43l.11,0V261C266.87,261.25,255.28,259.28,246.78,255Z"/><path class="cls-42" d="M7.2,340.65l-.14,0V278l.14,0c-.14,3.21,1.89,6.44,6.12,8.89L201.71,395.7v62.63L13.32,349.56C9.07,347.11,7.05,343.87,7.2,340.65Z"/><path class="cls-43" d="M7.2,340.65l-.14,0V278l.14,0c-.14,3.21,1.89,6.44,6.12,8.89L201.71,395.7v62.63L13.32,349.56C9.07,347.11,7.05,343.87,7.2,340.65Z"/><path class="cls-44" d="M366.35,336.85c-8-5.16-18.76-7.93-29.74-8.32-6.79-.25-9.79-5.06-5-7.85l74.64-43.09v62.62L377.22,357l-.32-.09C378.5,349.83,375,342.45,366.35,336.85Z"/><path class="cls-45" d="M276.34,352.61a12.44,12.44,0,0,1,8.34-1.1v62.62a12.44,12.44,0,0,0-8.34,1.1l-74.63,43.1V395.7Z"/><path class="cls-46" d="M289.94,355.5c.64,5.9,4.84,11.67,12.62,16.17,17.34,10,45.73,9.78,62.79-.64,6.56-4,10.39-9,11.55-14.13l.32.09v58c.56,6.69-3.39,13.51-11.87,18.68-17.06,10.43-45.45,10.65-62.79.64-7.78-4.49-12-10.27-12.62-16.17-.22-2-2.47-3.42-5.26-4V351.51C287.47,352.08,289.72,353.51,289.94,355.5Z"/><path class="cls-47" d="M289.94,355.5c.64,5.9,4.84,11.67,12.62,16.17,17.34,10,45.73,9.78,62.79-.64,6.56-4,10.39-9,11.55-14.13l.32.09v58c.56,6.69-3.39,13.51-11.87,18.68-17.06,10.43-45.45,10.65-62.79.64-7.78-4.49-12-10.27-12.62-16.17-.22-2-2.47-3.42-5.26-4V351.51C287.47,352.08,289.72,353.51,289.94,355.5Z"/><g class="cls-20"><path class="cls-48" d="M330.9,324c-2.22-1.72-2.32-4.3.75-6.07l69.81-40.31,4.83,2.79-74.64,43.08A6.53,6.53,0,0,0,330.9,324Z"/><path class="cls-49" d="M272.68,211.49c-10.25.57-20.26,3.13-28.13,7.67s-12.14,10.18-13.2,16c-1.42-7.68,3-15.67,13.2-21.58,7.87-4.55,17.88-7.11,28.13-7.67a8.56,8.56,0,0,0,3.3-.79l.43.25C280.09,207.51,277.86,211.21,272.68,211.49Z"/></g><path class="cls-50" d="M276.34,349.83c4.85-2.8,13.17-1.05,13.6,2.89.64,5.89,4.84,11.67,12.62,16.16,17.34,10,45.73,9.79,62.79-.63C372.1,364.13,376,359,377,353.66c1.31,7.16-2.57,14.6-11.67,20.15-17.06,10.43-45.45,10.65-62.79.64-7.78-4.49-12-10.27-12.62-16.17-.43-3.93-8.75-5.68-13.6-2.89l-74.11,42.8v-5.57Z"/><path class="cls-51" d="M13.32,289.72c-5.34-3.08-7.18-7.4-5.57-11.37a12.36,12.36,0,0,0,5.57,5.8L201.71,392.92l.52-.3v5.57l-.52.3Z"/><path class="cls-52" d="M345.77,410c14.63,12.61,44.92,15.51,66.13,5.95,17.05-7.69,22.34-23.3,11.55-34-6.12-6.1-15.7-10.19-26.39-12-5.05-.86-6-4.76-1.61-6.46L482,329.84l58.37,50.34c3.78,3.25,12.56,2.45,14.32-1.35,2.85-6.15,9.71-11.72,20.08-15.29,19.42-6.69,44.84-3.63,57.88,6.95,14.31,11.61,9.05,27.74-11.41,35.69a70.28,70.28,0,0,1-30,4.13c-6.77-.49-11.4,3.89-7.62,7.16L642,467.81l-222.36,86.4c-9.72,3.78-22.86,2.31-29.33-3.28L242.05,423.09l86.67-33.68c4.33-1.68,10.17.26,9.62,3.25C337.27,398.58,339.61,404.72,345.77,410Z"/><path class="cls-53" d="M390.32,550.93c6.47,5.59,19.61,7.06,29.33,3.28L642,467.81v62.62l-222.36,86.4c-9.72,3.78-22.86,2.31-29.33-3.28L242.05,485.71V423.09Z"/><path class="cls-54" d="M591.25,410.31a70.28,70.28,0,0,0,30-4.13c11.61-4.52,18.32-11.67,19.34-19.13V446c.62,5.26-1.63,10.54-6.44,15.06l-50.52-43.56C579.85,414.2,584.48,409.82,591.25,410.31Z"/><path class="cls-55" d="M397.06,369.94c10.69,1.82,20.27,5.91,26.39,12,10.79,10.74,5.5,26.35-11.55,34a65.68,65.68,0,0,1-19,5.08V367.36C393.37,368.52,394.76,369.55,397.06,369.94Z"/><g class="cls-20"><path class="cls-56" d="M338.18,394.24a2.08,2.08,0,0,1,.14.82C338.27,394.79,338.21,394.52,338.18,394.24Z"/><path class="cls-57" d="M423.45,379.16c4.62,4.6,6.27,10.09,5.34,15.47a18.29,18.29,0,0,0-5.34-9.9c-6.12-6.09-15.7-10.18-26.39-12-4.84-.83-5.86-4.42-2.07-6.22a8.14,8.14,0,0,0,2.07.65C407.75,369,417.33,373.07,423.45,379.16Z"/><path class="cls-58" d="M621.25,409a70.13,70.13,0,0,1-30,4.13,10.92,10.92,0,0,0-7.35,1.83l-.27-.23c-3.78-3.27.85-7.65,7.62-7.16a70.28,70.28,0,0,0,30-4.13c11.24-4.37,17.86-11.21,19.2-18.4C642.24,394.1,635.37,403.47,621.25,409Z"/><path class="cls-59" d="M390.32,548.14c6.47,5.59,19.61,7.07,29.33,3.29l217.91-84.68,4.45,3.84L419.65,557c-9.72,3.77-22.86,2.3-29.33-3.29L242.05,425.87l4.45-1.73Z"/></g></g></g></svg>