<svg xmlns="http://www.w3.org/2000/svg" xmlns:xlink="http://www.w3.org/1999/xlink" viewBox="0 0 218.92 94.81"><defs><style>.cls-1{fill:none;}.cls-2{clip-path:url(#clip-path);}.cls-3{fill:#fff;}.cls-4{fill:#004f58;}.cls-5{fill:#dfdf1d;}.cls-6{fill:#58c9e7;}.cls-7{fill:#7e9bbf;}.cls-8{clip-path:url(#clip-path-2);}</style><clipPath id="clip-path" transform="translate(0 0)"><rect id="SVGID" class="cls-1" width="218.92" height="94.81"/></clipPath><clipPath id="clip-path-2" transform="translate(0 0)"><rect id="SVGID-2" data-name="SVGID" class="cls-1" width="218.91" height="94.81"/></clipPath></defs><g id="Layer_2" data-name="Layer 2"><g id="Layer_1-2" data-name="Layer 1"><g class="cls-2"><path class="cls-3" d="M92.64,11.21A10.44,10.44,0,1,1,82.2.77,10.45,10.45,0,0,1,92.64,11.21" transform="translate(0 0)"/><path class="cls-4" d="M38.58,51.67l-1.09-2.22c-1.78-3.89-4.09-9-6-14.07-.09-.37-.31-.73-.69-.73H26.09c-.3,0-.52,0-.63.32l-.22.48c-.2.61,1,.27,1.71.84a1.56,1.56,0,0,1,.37,2L21.66,51.66s-.3.66.32.67h.8c.56,0,.62-.17.85-.66l2-4.62H31c1.66,0,2.41,2.31,2.41,2.31l.84,2c.15.45.38.94,1,.94,1,0,2.83,0,2.83,0,.82,0,.42-.66.42-.66m-9.53-13,2.8,6.86H26.14Z" transform="translate(0 0)"/><path class="cls-4" d="M57.86,37.53c0-1.06-.53-1.42-1.72-1.66-.42-.09-.61-.19-.52-.46,0,0,.31-.78.68-.78h8.42c7.81,0,9.71,3.34,9.71,8.43,0,5.26-1.33,9.22-10.27,9.26-3.48,0-4.89.07-5.4,0-.84-.1-.88-1-.9-1.67Zm3.87,11.19c0,1.92.8,1.78,2.88,1.78,4.28,0,5.69-2.89,5.69-7.39,0-5-1.74-7-6-7H61.73Z" transform="translate(0 0)"/><path class="cls-4" d="M113,35.4c0-.68-.1-.72-.54-.77h-4.89c-.37,0-.69.78-.69.78-.09.27.11.37.52.45,1.13.24,1.68.59,1.74,1.52v14c0,.75.19,1,.65,1h2.71c.36-.06.51-.32.51-1Z" transform="translate(0 0)"/><path class="cls-4" d="M130.68,48.08c0-.37-.78-.68-.78-.68-.27-.09-.37.11-.46.52A2.71,2.71,0,0,1,127.78,50a4.15,4.15,0,0,1-1.4.28h-2.22c-1.51,0-2-.49-2-2.61V35.61c0-.75-.16-.94-.55-1h-4.88c-.37,0-.68.78-.68.78-.09.27.11.37.52.45,1.19.25,1.73.61,1.73,1.67V51.42c0,.61.17.85.58.88h10.54c.74,0,1.26-.22,1.26-.62Z" transform="translate(0 0)"/><path class="cls-4" d="M56.19,51.91a71.3,71.3,0,0,1-6-7.78A5.59,5.59,0,0,0,53.9,39c0-3-2.55-4.34-5.1-4.34H39.26c-.37,0-.68.78-.68.78-.1.27.11.37.52.46,1.19.24,1.72.6,1.72,1.66h0v14c0,.51.16.76.58.76h2.66c.42,0,.62-.25.62-.76V44.68h1.08c.75,0,1.19.39,1.77,1.31l3.51,5.71c.13.2.32.6.76.6h4c.25,0,.33,0,.43-.13s.1-.09-.07-.26m-9.8-8.6h-1.7V36h2.19c1.7,0,3,.74,3,3.26.06,2.78-1.58,4.06-3.5,4.06" transform="translate(0 0)"/><path class="cls-4" d="M100.34,41.65c-2.25-1.39-3.67-2.32-3.37-4.14a2.61,2.61,0,0,1,2.68-1.94,3.35,3.35,0,0,1,1.43.3,6.63,6.63,0,0,1,2.28,2.46c.45.53.69,1,1,.84.52-.28.27-2.88.23-3.11s0-.34-.28-.49a3.74,3.74,0,0,0-.67-.42,8.79,8.79,0,0,0-6.77-.46c-2.47.79-3.77,2.35-3.77,4.08,0,2.61,2.16,3.49,3.77,4.54,2.14,1.4,5.17,2.66,5,4.85-.08,1.77-1.22,2.72-3.24,2.58a5.27,5.27,0,0,1-2.86-1.37,10.21,10.21,0,0,1-2.06-2.3c-.41-.64-.65-1-.92-.86-.52.29-.28,3.3-.23,3.53a2.08,2.08,0,0,0,.27.74,5.08,5.08,0,0,0,1.38,1,10.41,10.41,0,0,0,4.43,1.22c3.78.1,7.29-1.79,7.15-5.5-.08-2.35-2.46-3.74-5.44-5.58" transform="translate(0 0)"/><path class="cls-4" d="M21.13,42.85h-9c-.37,0-.68.79-.68.79-.09.27.1.37.52.45,1.14.23,4.52.07,5.57,1.68a2.68,2.68,0,0,1,.26,1.16c0,2-1.79,3.77-5.38,3.77-3.87,0-7.48-3.32-7.48-9.24,0-5,2.73-8.58,7.48-8.58,4.15,0,6.67,3.57,7.2,4.32.41.59.69,1,1,.85.52-.29.13-2.66.1-2.9a1.57,1.57,0,0,0-.29-.76,11,11,0,0,0-8-3.46C5.34,30.94,0,35.74,0,41.63c0,6.53,5.08,11,12,11a10.77,10.77,0,0,0,2.58-.34l.12,0A9.74,9.74,0,0,0,20,48.84a8.47,8.47,0,0,0,1.93-4.52v-.69c0-.5-.06-.78-.78-.78" transform="translate(0 0)"/><path class="cls-4" d="M91.8,51.61l-1.09-2.22c-1.54-3.37-5.17-11.81-5.2-12.06A1.22,1.22,0,0,1,86,36.08c.62-.33,1.66-.15,1.47-.69l-.21-.48c-.11-.27-.33-.32-.63-.32H79.32c-.3,0-.53,0-.64.32l-.21.48c-.2.61,1,.27,1.71.84a1.59,1.59,0,0,1,.37,2L74.88,51.6s-.29.66.33.67H76c.56,0,.63-.17.86-.67l2-4.61h5.45c1.65,0,2.41,2.31,2.41,2.31l.83,2c.16.45.39.94,1,.94,1,0,2.83,0,2.83,0,.81,0,.41-.66.41-.66M79.37,45.49l2.91-6.86,2.8,6.86Z" transform="translate(0 0)"/><path class="cls-4" d="M135.69,50.74a1.88,1.88,0,0,1-.14-.54.78.78,0,0,0-.29-.59.66.66,0,0,0,.36-.57.7.7,0,0,0-.26-.58,1.51,1.51,0,0,0-.8-.19c-.3,0-.79.06-.79.06v2.58h.61v-1h.15c.25,0,.35.08.39.32a1.49,1.49,0,0,0,.18.65l0,0h.63Zm-1.31-1.94.16,0c.29,0,.46.11.46.3s-.29.29-.46.29h-.16Z" transform="translate(0 0)"/><path class="cls-4" d="M132.13,49.62a2.52,2.52,0,1,0,2.52-2.52,2.52,2.52,0,0,0-2.52,2.52m.65,0a1.87,1.87,0,1,1,1.87,1.86,1.87,1.87,0,0,1-1.87-1.86" transform="translate(0 0)"/><polygon class="cls-4" points="3.91 58.01 3.91 63.54 6.72 63.54 6.72 58.01 9.4 58.01 9.4 71.83 6.72 71.83 6.72 66.05 3.91 66.05 3.91 71.83 1.22 71.83 1.22 58.01 3.91 58.01"/><path class="cls-4" d="M18.88,68.77c0,1.07,0,2.11.08,3.06H16.64l-.14-1.07h0A2.83,2.83,0,0,1,14.12,72c-1.91,0-2.67-1.41-2.67-4.12V61.8h2.69v5.78c0,1.31.27,2.16,1,2.16a1,1,0,0,0,.89-.68,2.06,2.06,0,0,0,.16-.86V61.8h2.69Z" transform="translate(0 0)"/><path class="cls-4" d="M20.79,64.81c0-1.08-.05-2.05-.09-3H23L23.18,63h0a3,3,0,0,1,2.38-1.33A2.17,2.17,0,0,1,27.8,63h0a3.47,3.47,0,0,1,1-1,2.64,2.64,0,0,1,1.4-.37c1.8,0,2.6,1.43,2.6,3.83v6.36H30.17V65.92c0-1.13-.12-2.05-.92-2.05a1.07,1.07,0,0,0-1,.9,2.3,2.3,0,0,0-.08.72v6.34H25.48V65.55c0-.74-.06-1.68-.9-1.68a1.11,1.11,0,0,0-1,.9,2.54,2.54,0,0,0-.1.76v6.3H20.79Z" transform="translate(0 0)"/><path class="cls-4" d="M41.52,69.53a16.52,16.52,0,0,0,.14,2.3h-2.4l-.14-1h-.06A2.61,2.61,0,0,1,36.84,72a2.76,2.76,0,0,1-2.64-3c0-2.65,2.31-3.71,4.59-3.73V65a1.28,1.28,0,0,0-1.42-1.38,3.85,3.85,0,0,0-2,.6l-.49-1.82A6.86,6.86,0,0,1,38,61.64c3.06,0,3.55,2.13,3.55,4.18ZM38.87,67c-.88,0-2.13.33-2.13,1.72,0,1,.55,1.35,1,1.35a1.13,1.13,0,0,0,1.11-.86,1.53,1.53,0,0,0,.06-.47Z" transform="translate(0 0)"/><path class="cls-4" d="M43.4,64.81c0-1.08,0-2.05-.08-3h2.32L45.78,63h0a2.86,2.86,0,0,1,2.42-1.31c1.91,0,2.67,1.51,2.67,3.75v6.44H48.22V65.55c0-.84-.2-1.66-1-1.66-.45,0-.82.31-1,.9a2.76,2.76,0,0,0-.14.93v6.11H43.4Z" transform="translate(0 0)"/><path class="cls-4" d="M56.3,58.21A14.46,14.46,0,0,1,59.11,58,5.29,5.29,0,0,1,62.86,59a4,4,0,0,1,1.19,3,4.62,4.62,0,0,1-1.17,3.32A5.09,5.09,0,0,1,59,66.68v5.15H56.3ZM59,64.51a3.24,3.24,0,0,0,.45,0c1.35,0,2-1,2-2.26s-.49-2.15-1.75-2.15a2,2,0,0,0-.65.1Z" transform="translate(0 0)"/><path class="cls-4" d="M71.8,69.53a16.52,16.52,0,0,0,.14,2.3h-2.4l-.14-1h-.06A2.61,2.61,0,0,1,67.12,72a2.76,2.76,0,0,1-2.64-3c0-2.65,2.31-3.71,4.59-3.73V65a1.28,1.28,0,0,0-1.42-1.38,3.85,3.85,0,0,0-2.05.6l-.49-1.82a6.86,6.86,0,0,1,3.14-.76c3,0,3.55,2.13,3.55,4.18ZM69.15,67c-.88,0-2.13.33-2.13,1.72,0,1,.55,1.35,1,1.35a1.13,1.13,0,0,0,1.11-.86,1.53,1.53,0,0,0,.06-.47Z" transform="translate(0 0)"/><path class="cls-4" d="M73.66,65c0-1.21,0-2.22-.08-3.18h2.34L76.06,63h0a2.31,2.31,0,0,1,2.11-1.33c2.2,0,3.1,2.4,3.1,5.16,0,3.57-1.56,5.19-3.26,5.19a2,2,0,0,1-1.66-1h0v4.73H73.66Zm2.69,3.2a2,2,0,0,0,.14.84c.21.61.56.78.86.78,1,0,1.3-1.4,1.3-3,0-1.91-.48-2.94-1.27-2.94a1,1,0,0,0-.91.84,1.73,1.73,0,0,0-.12.72Z" transform="translate(0 0)"/><path class="cls-4" d="M84.12,60.61a1.35,1.35,0,0,1-1.33-1.46,1.38,1.38,0,1,1,1.35,1.46ZM82.85,61.8h2.69v10H82.85Z" transform="translate(0 0)"/><rect class="cls-4" x="87.42" y="57.64" width="2.69" height="14.19"/><rect class="cls-4" x="92.04" y="57.64" width="2.69" height="14.19"/><path class="cls-4" d="M100.14,72c-2.4,0-3.84-1.9-3.84-5.14,0-3.59,1.89-5.21,3.88-5.21,2.38,0,3.79,2,3.79,5.14C104,71,101.66,72,100.16,72Zm.06-2c.88,0,1.11-1.68,1.11-3.14s-.23-3.11-1.15-3.11S99,65.41,99,66.8c0,1.71.26,3.14,1.21,3.14Z" transform="translate(0 0)"/><path class="cls-4" d="M105.47,64.81c0-1.08,0-2.05-.08-3h2.33l.15,1.17h0a2.92,2.92,0,0,1,2.38-1.33A2.16,2.16,0,0,1,112.48,63h0a3.39,3.39,0,0,1,1-1,2.63,2.63,0,0,1,1.39-.37c1.81,0,2.61,1.43,2.61,3.83v6.36h-2.69V65.92c0-1.13-.12-2.05-.92-2.05a1.08,1.08,0,0,0-1,.9,2.3,2.3,0,0,0-.08.72v6.34h-2.68V65.55c0-.74-.07-1.68-.91-1.68a1.09,1.09,0,0,0-1,.9,2.54,2.54,0,0,0-.1.76v6.3h-2.69Z" transform="translate(0 0)"/><path class="cls-4" d="M126.2,69.53a16.52,16.52,0,0,0,.14,2.3h-2.4l-.14-1h-.06A2.58,2.58,0,0,1,121.53,72a2.77,2.77,0,0,1-2.65-3c0-2.65,2.32-3.71,4.59-3.73V65a1.28,1.28,0,0,0-1.41-1.38,3.8,3.8,0,0,0-2,.6l-.49-1.82a6.82,6.82,0,0,1,3.13-.76c3.06,0,3.55,2.13,3.55,4.18ZM123.55,67c-.88,0-2.13.33-2.13,1.72,0,1,.56,1.35,1,1.35a1.11,1.11,0,0,0,1.1-.86,1.28,1.28,0,0,0,.06-.47Z" transform="translate(0 0)"/><path class="cls-4" d="M130.1,61.8l.76,4.49c.14.88.28,1.79.43,2.79h0c.12-1,.24-1.87.39-2.79l.78-4.49h2.64l-2.68,10H130l-2.74-10Z" transform="translate(0 0)"/><path class="cls-4" d="M137.46,60.61a1.35,1.35,0,0,1-1.33-1.46,1.37,1.37,0,1,1,1.35,1.46Zm-1.27,1.19h2.68v10h-2.68Z" transform="translate(0 0)"/><path class="cls-4" d="M140.76,64.81c0-1,0-2.07-.08-3H143l.14,1.48h.08a2.33,2.33,0,0,1,2-1.64,3.44,3.44,0,0,1,.57,0v2.66a4.8,4.8,0,0,0-.57,0,1.76,1.76,0,0,0-1.62,1.42,3.27,3.27,0,0,0-.12,1v5.09h-2.69Z" transform="translate(0 0)"/><path class="cls-4" d="M154.13,68.77c0,1.07,0,2.11.08,3.06h-2.32l-.14-1.07h0A2.83,2.83,0,0,1,149.37,72c-1.9,0-2.66-1.41-2.66-4.12V61.8h2.68v5.78c0,1.31.27,2.16,1,2.16a1,1,0,0,0,.88-.68,2.06,2.06,0,0,0,.16-.86V61.8h2.69Z" transform="translate(0 0)"/><path class="cls-4" d="M156,69.41a3.79,3.79,0,0,0,1.8.53c.7,0,1.09-.3,1.09-.88s-.29-.84-1.17-1.37c-1.62-.93-2-2-2-2.88a3.1,3.1,0,0,1,3.3-3.17,4.38,4.38,0,0,1,2,.47l-.47,2a2.74,2.74,0,0,0-1.39-.41c-.7,0-1,.39-1,.84s.22.72,1.17,1.27a3.41,3.41,0,0,1,2,3c0,2-1.48,3.16-3.55,3.16a4.29,4.29,0,0,1-2.28-.57Z" transform="translate(0 0)"/><path class="cls-4" d="M1.55,90.15a5.7,5.7,0,0,0,1.21-.1,3.31,3.31,0,0,0,1.58-.8,5.1,5.1,0,0,0,1.29-2.69H5.57a2.47,2.47,0,0,1-1.91.83c-1.72,0-3.14-1.54-3.14-4,0-2.28,1.4-4.68,4-4.68s3.8,2.26,3.8,5.48a9.2,9.2,0,0,1-2.2,6.44,5.73,5.73,0,0,1-3.3,1.68,8.45,8.45,0,0,1-1.23.06Zm2.79-9.47c-.68,0-1.21.88-1.17,2.5,0,1.3.43,2.36,1.25,2.36a1.16,1.16,0,0,0,1-.7,3.57,3.57,0,0,0,.13-1.41c0-1.74-.49-2.75-1.21-2.75Z" transform="translate(0 0)"/><rect class="cls-4" x="9.38" y="85.6" width="4.08" height="1.93"/><path class="cls-5" d="M82.87,0,82.2,0V.77a10.45,10.45,0,0,1,0,20.89v9.28A15.47,15.47,0,0,0,82.87,0" transform="translate(0 0)"/><path class="cls-6" d="M74.07,8.9A8.13,8.13,0,0,1,82.2.77V0a13.15,13.15,0,0,0,0,26.3V17A8.13,8.13,0,0,1,74.07,8.9" transform="translate(0 0)"/><path class="cls-7" d="M77.56,7A4.64,4.64,0,1,0,82.2,2.32,4.63,4.63,0,0,0,77.56,7" transform="translate(0 0)"/><path class="cls-4" d="M147.38,31.07c-2.3,0-7.65.74-7.65,7.52,0,3.64,3.07,6.28,7.3,6.28.29,0,.91,0,1.05,0a.17.17,0,0,1,.14,0,.18.18,0,0,1,.12.17.17.17,0,0,1,0,.07c-.33,1.57-2.88,4.46-6.61,6.63l0,0v.46h4.67l0,0a20.19,20.19,0,0,0,6-5.91,14.64,14.64,0,0,0,2.43-7.87c0-5.38-3.86-7.3-7.48-7.3m0,12.64c-2.08,0-3.42-2.18-3.42-5.06,0-3.11.9-6.25,3.42-6.25s3.38,3.25,3.38,6c0,3-1.49,5.28-3.38,5.28" transform="translate(0 0)"/><path class="cls-4" d="M30.28,89.93a16.52,16.52,0,0,0,.14,2.3H28l-.14-1h-.06a2.6,2.6,0,0,1-2.22,1.15,2.77,2.77,0,0,1-2.64-3c0-2.64,2.32-3.71,4.59-3.73V85.4A1.28,1.28,0,0,0,26.14,84a3.86,3.86,0,0,0-2.06.6l-.49-1.83A7,7,0,0,1,26.73,82c3.06,0,3.55,2.14,3.55,4.19Zm-2.65-2.58c-.88,0-2.13.32-2.13,1.72,0,1,.55,1.35,1,1.35a1.12,1.12,0,0,0,1.1-.86,1.58,1.58,0,0,0,.06-.47Z" transform="translate(0 0)"/><rect class="cls-4" x="32.16" y="78.04" width="2.69" height="14.19"/><path class="cls-4" d="M39,88.17a1.93,1.93,0,0,0,2.12,2.13,6.07,6.07,0,0,0,1.9-.33l.35,1.91a7.67,7.67,0,0,1-2.72.47c-2.75,0-4.25-1.81-4.25-4.94,0-3.36,1.76-5.38,4-5.38s3.41,1.71,3.41,4.74a9.23,9.23,0,0,1-.09,1.4Zm2.38-1.89c0-1.27-.32-2.28-1.12-2.28S39.06,85.27,39,86.28Z" transform="translate(0 0)"/><path class="cls-4" d="M45.37,85.21c0-1.08,0-2-.08-3h2.32l.14,1.15h0A2.89,2.89,0,0,1,50.21,82c1.91,0,2.67,1.52,2.67,3.76v6.44H50.19V86c0-.84-.21-1.66-1-1.66-.45,0-.82.31-1,.9a2.76,2.76,0,0,0-.14.93v6.11H45.37Z" transform="translate(0 0)"/><path class="cls-4" d="M57.92,79.6v2.6h2v1.91h-2v4.57c0,1.17.49,1.45,1,1.45a4.28,4.28,0,0,0,.72-.06v2.09a6,6,0,0,1-1.64.19,2.79,2.79,0,0,1-1.94-.64c-.54-.53-.84-1.29-.84-2.87V84.11H54.05V82.2h1.19V80.44Z" transform="translate(0 0)"/><path class="cls-4" d="M66.58,92.23,63.5,78.41h3l1,6c.22,1.5.51,3.18.69,4.8h0c.18-1.64.41-3.3.65-4.86l.94-5.9h3L69.59,92.23Z" transform="translate(0 0)"/><path class="cls-4" d="M80,89.93a16.52,16.52,0,0,0,.14,2.3h-2.4l-.14-1h-.06a2.59,2.59,0,0,1-2.22,1.15,2.77,2.77,0,0,1-2.64-3c0-2.64,2.32-3.71,4.59-3.73V85.4A1.28,1.28,0,0,0,75.9,84a3.8,3.8,0,0,0-2.05.6l-.49-1.83A7,7,0,0,1,76.49,82C79.55,82,80,84.17,80,86.22Zm-2.65-2.58c-.88,0-2.13.32-2.13,1.72,0,1,.55,1.35,1,1.35a1.12,1.12,0,0,0,1.1-.86,1.58,1.58,0,0,0,.06-.47Z" transform="translate(0 0)"/><path class="cls-4" d="M87.49,92a4.34,4.34,0,0,1-1.71.31c-2.54,0-4.2-1.77-4.2-5,0-3.09,1.82-5.24,4.59-5.24a4,4,0,0,1,1.48.26l-.35,2.11a3,3,0,0,0-1-.18c-1.29,0-2,1.23-2,3s.75,2.93,2,2.93a2.28,2.28,0,0,0,1-.2Z" transform="translate(0 0)"/><path class="cls-4" d="M94.11,92a4.28,4.28,0,0,1-1.7.31c-2.55,0-4.21-1.77-4.21-5,0-3.09,1.83-5.24,4.6-5.24a4,4,0,0,1,1.47.26l-.35,2.11a2.83,2.83,0,0,0-1-.18c-1.29,0-2,1.23-2,3s.76,2.93,2,2.93a2.2,2.2,0,0,0,1-.2Z" transform="translate(0 0)"/><path class="cls-4" d="M96.44,81a1.36,1.36,0,0,1-1.33-1.46,1.38,1.38,0,0,1,1.38-1.47,1.47,1.47,0,0,1,0,2.93ZM95.17,82.2h2.69v10H95.17Z" transform="translate(0 0)"/><path class="cls-4" d="M99.75,85.21c0-1.08,0-2-.09-3H102l.15,1.15h0A2.86,2.86,0,0,1,104.59,82c1.91,0,2.66,1.52,2.66,3.76v6.44h-2.68V86c0-.84-.21-1.66-1-1.66a1.08,1.08,0,0,0-1,.9,2.72,2.72,0,0,0-.15.93v6.11H99.75Z" transform="translate(0 0)"/><path class="cls-4" d="M111.4,88.17a1.91,1.91,0,0,0,2.11,2.13,6.07,6.07,0,0,0,1.9-.33l.35,1.91a7.67,7.67,0,0,1-2.72.47c-2.75,0-4.25-1.81-4.25-4.94,0-3.36,1.77-5.38,4-5.38s3.4,1.71,3.4,4.74a9.65,9.65,0,0,1-.08,1.4Zm2.37-1.89c0-1.27-.32-2.28-1.12-2.28s-1.23,1.27-1.25,2.28Z" transform="translate(0 0)"/><path class="cls-4" d="M117,94.81a24.75,24.75,0,0,0,1.14-4.52l2.26-.17a24.09,24.09,0,0,1-2,4.54Z" transform="translate(0 0)"/><path class="cls-4" d="M125.22,78.61a16.44,16.44,0,0,1,2.94-.27,5.29,5.29,0,0,1,3.68,1A3.51,3.51,0,0,1,133,82.24a3.68,3.68,0,0,1-2.13,3.45v0c.94.39,1.41,1.25,1.68,2.74a23.58,23.58,0,0,0,.88,3.76h-2.81a17,17,0,0,1-.69-3.33c-.25-1.7-.68-2.19-1.56-2.19h-.41v5.52h-2.69Zm2.69,6h.49c1.17,0,1.82-1,1.82-2.15s-.47-2-1.66-2a2,2,0,0,0-.65.08Z" transform="translate(0 0)"/><path class="cls-4" d="M136.87,88.17A1.91,1.91,0,0,0,139,90.3a6.19,6.19,0,0,0,1.91-.33l.35,1.91a7.77,7.77,0,0,1-2.73.47c-2.75,0-4.25-1.81-4.25-4.94,0-3.36,1.77-5.38,4-5.38s3.41,1.71,3.41,4.74a11.41,11.41,0,0,1-.08,1.4Zm2.38-1.89c0-1.27-.33-2.28-1.13-2.28s-1.23,1.27-1.25,2.28Z" transform="translate(0 0)"/><path class="cls-4" d="M148.76,92a4.24,4.24,0,0,1-1.7.31c-2.54,0-4.2-1.77-4.2-5,0-3.09,1.82-5.24,4.59-5.24a4,4,0,0,1,1.48.26l-.35,2.11a3,3,0,0,0-1-.18c-1.29,0-2,1.23-2,3s.76,2.93,2,2.93a2.28,2.28,0,0,0,1-.2Z" transform="translate(0 0)"/><path class="cls-4" d="M153.32,92.39c-2.4,0-3.84-1.91-3.84-5.15,0-3.59,1.89-5.21,3.88-5.21,2.38,0,3.79,2,3.79,5.15,0,4.16-2.32,5.21-3.81,5.21Zm.06-2c.88,0,1.1-1.68,1.1-3.14s-.22-3.12-1.14-3.12-1.2,1.73-1.2,3.12c0,1.7.27,3.14,1.22,3.14Z" transform="translate(0 0)"/><path class="cls-4" d="M158.65,85.21c0-1.08,0-2-.09-3h2.34l.15,1.17h0A2.93,2.93,0,0,1,163.47,82a2.17,2.17,0,0,1,2.19,1.38h0a3.54,3.54,0,0,1,1-1,2.72,2.72,0,0,1,1.39-.37c1.8,0,2.61,1.44,2.61,3.84v6.36H168V86.32c0-1.13-.12-2-.93-2a1.08,1.08,0,0,0-1,.9,2.26,2.26,0,0,0-.08.72v6.34h-2.69V86c0-.74-.06-1.68-.9-1.68a1.09,1.09,0,0,0-1,.9,2.18,2.18,0,0,0-.11.76v6.3h-2.68Z" transform="translate(0 0)"/><path class="cls-4" d="M172.59,78h2.69v5.19h0a2.37,2.37,0,0,1,2.09-1.2c1.93,0,2.83,2.22,2.83,4.91,0,3.52-1.39,5.45-3.26,5.45a2.08,2.08,0,0,1-2-1.33H175l-.14,1.17h-2.3c0-.89.08-2,.08-3Zm2.69,10.6a1.93,1.93,0,0,0,.1.65c.23.72.59.9.92.9.91,0,1.27-1.12,1.27-3,0-1.74-.39-2.85-1.29-2.85-.41,0-.76.43-.9.92a2.12,2.12,0,0,0-.1.62Z" transform="translate(0 0)"/><path class="cls-4" d="M183.05,81a1.35,1.35,0,0,1-1.33-1.46A1.37,1.37,0,1,1,183.07,81Zm-1.27,1.19h2.68v10h-2.68Z" transform="translate(0 0)"/><path class="cls-4" d="M186.35,85.21c0-1.08,0-2-.08-3h2.32l.14,1.15h0A2.87,2.87,0,0,1,191.19,82c1.91,0,2.67,1.52,2.67,3.76v6.44h-2.69V86c0-.84-.2-1.66-1-1.66-.45,0-.82.31-1,.9a2.76,2.76,0,0,0-.14.93v6.11h-2.69Z" transform="translate(0 0)"/><path class="cls-4" d="M202.51,89.93a16.52,16.52,0,0,0,.14,2.3h-2.39l-.15-1h-.06a2.59,2.59,0,0,1-2.22,1.15,2.77,2.77,0,0,1-2.64-3c0-2.64,2.32-3.71,4.59-3.73V85.4A1.28,1.28,0,0,0,198.37,84a3.8,3.8,0,0,0-2.05.6l-.49-1.83A7,7,0,0,1,199,82c3.06,0,3.55,2.14,3.55,4.19Zm-2.64-2.58c-.89,0-2.14.32-2.14,1.72,0,1,.56,1.35,1,1.35a1.12,1.12,0,0,0,1.1-.86,1.55,1.55,0,0,0,.07-.47Z" transform="translate(0 0)"/></g><g class="cls-8"><path class="cls-4" d="M204.4,85.21c0-1.08,0-2-.08-3h2.31l.15,1.15h0A2.86,2.86,0,0,1,209.24,82c1.9,0,2.66,1.52,2.66,3.76v6.44h-2.68V86c0-.84-.21-1.66-1-1.66a1.08,1.08,0,0,0-1,.9,2.5,2.5,0,0,0-.15.93v6.11H204.4Z" transform="translate(0 0)"/><path class="cls-4" d="M217,79.6v2.6h2v1.91h-2v4.57c0,1.17.49,1.45,1,1.45a4.2,4.2,0,0,0,.72-.06l0,2.09a6.07,6.07,0,0,1-1.64.19,2.8,2.8,0,0,1-2-.64,3.7,3.7,0,0,1-.84-2.87V84.11h-1.19V82.2h1.19V80.44Z" transform="translate(0 0)"/></g><g class="cls-2"><path class="cls-4" d="M17.29,82.2l.76,4.49c.14.88.29,1.78.43,2.79h0c.12-1,.25-1.87.39-2.79l.78-4.49h2.65l-2.69,10H17.19l-2.75-10Z" transform="translate(0 0)"/></g></g></g></svg>