<svg xmlns="http://www.w3.org/2000/svg" viewBox="0 0 192.69 93.59"><defs><style>.cls-1{fill:#00a370;}.cls-2{fill:#6cc7dd;}.cls-3{fill:#024a34;}</style></defs><g id="Layer_2" data-name="Layer 2"><g id="Layer_1-2" data-name="Layer 1"><path class="cls-1" d="M113.64,0c-12,0-19.26,7-19.35,18.66v5.19A29.47,29.47,0,0,1,103.16,45V18.66c0-6.16,3.49-9.83,9.37-9.83h9.11a19,19,0,0,1-15.28,11.49v8.87A29.14,29.14,0,0,0,132.48,0Z"/><path class="cls-2" d="M73.59,15.39v8.87A20.7,20.7,0,0,1,94.29,45h8.87A29.57,29.57,0,0,0,73.59,15.39"/><path class="cls-2" d="M73.59,27.46v8.87A8.62,8.62,0,0,1,82.21,45h8.87a17.49,17.49,0,0,0-17.49-17.5"/><polygon class="cls-3" points="0 53.95 12.04 53.95 12.04 58.17 4.48 58.17 4.48 60.77 11.21 60.77 11.21 65 4.48 65 4.48 67.71 12.17 67.71 12.17 71.93 0 71.93 0 53.95"/><polygon class="cls-3" points="20.93 53.95 25.41 53.95 32.16 64.11 32.16 53.95 36.64 53.95 36.64 71.93 32.16 71.93 25.41 61.77 25.41 71.93 20.93 71.93 20.93 53.95"/><polygon class="cls-3" points="45.81 53.95 57.46 53.95 57.46 58.17 50.3 58.17 50.3 60.98 56.47 60.98 56.47 65.21 50.3 65.21 50.3 71.93 45.81 71.93 45.81 53.95"/><polygon class="cls-3" points="65.91 53.95 70.39 53.95 70.39 67.71 77.3 67.71 77.3 71.93 65.91 71.93 65.91 53.95"/><path class="cls-3" d="M83.16,62.94a9.54,9.54,0,1,1,9.54,9.3,9.22,9.22,0,0,1-9.54-9.3m14.46,0a4.94,4.94,0,1,0-4.92,5,4.85,4.85,0,0,0,4.92-5"/><polygon class="cls-3" points="110.03 53.95 114.51 53.95 121.26 64.11 121.26 53.95 125.74 53.95 125.74 71.93 121.26 71.93 114.51 61.77 114.51 71.93 110.03 71.93 110.03 53.95"/><path class="cls-3" d="M134.11,66.46h4.61c0,1,1.07,1.8,2.4,1.8s2.19-.63,2.19-1.44c0-2.42-8.92-1.41-8.92-7.5,0-3.42,2.87-5.69,6.6-5.69s6.64,2.38,6.64,5.56h-4.58c0-.89-.92-1.57-2.11-1.57s-2,.52-2,1.36c0,2.47,8.94,1.07,8.94,7.32,0,3.6-3,5.94-6.85,5.94s-7-2.53-7-5.78"/><rect class="cls-3" x="156.34" y="53.95" width="4.48" height="17.98"/><path class="cls-3" d="M174.42,54h5.29l6.62,18h-4.9l-1-2.84h-6.91l-.93,2.84H167.8Zm4.67,11L177,58.9,175,65Z"/><path class="cls-3" d="M185.5,54.6h-1.24v-.66h3.17v.66H186.2v3.55h-.7Zm2.75-.66h.94l1.29,3.19,1.29-3.19h.92v4.21H192V55.07l-1.25,3.08h-.53L189,55.07v3.08h-.7Z"/><path class="cls-3" d="M126.38,78.43a1.69,1.69,0,0,1-1.1.42V78a1.68,1.68,0,0,0,1.37-.75h.65v5.3h-.92Z"/><path class="cls-3" d="M128.15,79.89c0-1.62.85-2.74,2.06-2.74s2.07,1.12,2.07,2.74-.86,2.74-2.07,2.74-2.06-1.12-2.06-2.74m3.19,0c0-1.1-.47-1.86-1.13-1.86s-1.13.76-1.13,1.86.47,1.86,1.13,1.86,1.13-.76,1.13-1.86"/><path class="cls-3" d="M133,81.08H134a.91.91,0,0,0,.94.67.88.88,0,1,0,0-1.76,1.16,1.16,0,0,0-.86.38h-.9l.27-3.13h3v.86h-2.19l-.13,1.34a1.66,1.66,0,0,1,.92-.26,1.72,1.72,0,0,1,1.77,1.72,1.91,1.91,0,0,1-3.78.18"/><path class="cls-3" d="M144.73,82.54V80.25a.82.82,0,0,0-.87-.89.87.87,0,0,0-.93.91v2.27h-.86V80.25a.82.82,0,0,0-.87-.89.86.86,0,0,0-.92.91v2.27h-.86V78.62h.86v.46a1.48,1.48,0,0,1,1.21-.55,1.36,1.36,0,0,1,1.27.71,1.58,1.58,0,0,1,1.39-.71A1.37,1.37,0,0,1,145.59,80v2.54Z"/><path class="cls-3" d="M146.38,80.49a1.91,1.91,0,0,1,1.93-2,1.78,1.78,0,0,1,1.38.62v-.53h.86v3.5a1.87,1.87,0,0,1-2,2,1.81,1.81,0,0,1-1.93-1.38h.89a1,1,0,0,0,1.05.6,1.07,1.07,0,0,0,1.14-1.16v-.33a1.75,1.75,0,0,1-1.38.62,1.9,1.9,0,0,1-1.93-2m3.31,0a1.21,1.21,0,1,0-1.21,1.13,1.15,1.15,0,0,0,1.21-1.13"/><path class="cls-3" d="M125.63,85.34a.55.55,0,0,1,1.1,0,.55.55,0,1,1-1.1,0m.11,1.17h.86v3.92h-.86Z"/><path class="cls-3" d="M130.4,90.43V88.25a.93.93,0,0,0-1-1,1,1,0,0,0-1,1v2.16h-.86V86.51h.86V87a1.66,1.66,0,0,1,1.32-.59A1.46,1.46,0,0,1,131.26,88v2.46Z"/><path class="cls-3" d="M131.43,91.11h.21a.58.58,0,0,0,.65-.62v-4h.86v4.07c0,.89-.48,1.35-1.47,1.35h-.25Zm.73-5.77a.55.55,0,1,1,.56.55.54.54,0,0,1-.56-.55"/><path class="cls-3" d="M133.89,88.47a2.09,2.09,0,0,1,4.18,0c0,.11,0,.22,0,.32h-3.24a1.19,1.19,0,0,0,1.2,1,1.25,1.25,0,0,0,1.05-.5H138a2.12,2.12,0,0,1-2,1.27,2,2,0,0,1-2.11-2m.93-.37h2.33a1.2,1.2,0,0,0-2.33,0"/><path class="cls-3" d="M138.6,88.47a2,2,0,0,1,2.1-2,1.94,1.94,0,0,1,2,1.57h-.91a1.11,1.11,0,0,0-1.08-.74,1.22,1.22,0,0,0,0,2.44,1.11,1.11,0,0,0,1.08-.73h.91a1.93,1.93,0,0,1-2,1.56,2,2,0,0,1-2.1-2"/><path class="cls-3" d="M143.74,89.29v-2h-.66v-.78h.4a.27.27,0,0,0,.3-.31v-.75h.82v1.06h1.28v.78H144.6v1.91a.41.41,0,0,0,.44.43.44.44,0,0,0,.45-.49h.77A1.19,1.19,0,0,1,145,90.43a1.13,1.13,0,0,1-1.24-1.14"/><path class="cls-3" d="M146.68,85.34a.55.55,0,0,1,1.1,0,.55.55,0,1,1-1.1,0m.12,1.17h.86v3.92h-.86Z"/><path class="cls-3" d="M148.42,88.47a2.1,2.1,0,1,1,2.09,2,2,2,0,0,1-2.09-2m3.3,0a1.21,1.21,0,1,0-1.21,1.22,1.19,1.19,0,0,0,1.21-1.22"/><path class="cls-3" d="M156.25,90.43V88.25a.93.93,0,0,0-1-1,1,1,0,0,0-1,1v2.16h-.86V86.51h.86V87a1.65,1.65,0,0,1,1.32-.59A1.46,1.46,0,0,1,157.11,88v2.46Z"/><path class="cls-3" d="M31.55,85.66c0-3.08,1.17-5,3.68-5,1.9,0,2.91,1,3.2,3.18l-1.68.26c-.19-1.32-.65-2-1.52-2-1.13,0-1.82,1-1.82,3.53s.69,3.55,1.81,3.55c.87,0,1.36-.71,1.55-2l1.66.26c-.29,2.12-1.35,3.14-3.19,3.14-2.54,0-3.69-1.91-3.69-5m8.18,2.89V77.24h1.79V88.33c0,.7.33.87,1.12.72l0,1.33a3,3,0,0,1-1,.17c-1.1,0-1.88-.56-1.88-2m9.44-.67,1,.85a3.08,3.08,0,0,1-3,1.91c-2.57,0-3.77-2-3.77-5s1.25-4.92,3.65-4.92c2.15,0,3.2,1.55,3.2,4.25a6.91,6.91,0,0,1-.1,1.19h-5c.08,1.95.76,3,2.15,3a2,2,0,0,0,1.91-1.27m-4-3h3.34c0-1.66-.39-2.78-1.5-2.78s-1.73,1-1.84,2.78m6.17,2.93,1.55-.18c0,1.14.56,1.77,1.63,1.77S56,88.89,56,88.05s-.5-1.25-1.52-1.63l-.84-.31a2.81,2.81,0,0,1-2.16-2.79c0-1.57,1.13-2.61,3.1-2.61s3,1,2.94,2.84L56,83.69c0-1.08-.51-1.71-1.45-1.71s-1.4.47-1.4,1.25.39,1.17,1.42,1.58l.86.34c1.36.54,2.25,1.19,2.25,2.76,0,1.72-1.1,2.73-3.23,2.73s-3.17-1.07-3.11-2.88m12.19-7,0,1.87a2.36,2.36,0,0,0-2.62,1.78v6H59.06V80.92h1.43l.12,1.67a2.54,2.54,0,0,1,2.88-1.84m.66,4.92c0-3.16,1.25-5,3.71-5s3.7,1.8,3.7,5-1.25,5-3.7,5-3.71-1.81-3.71-5m5.55,0c0-2.56-.68-3.54-1.84-3.54S66,83.11,66,85.67s.68,3.54,1.86,3.54,1.84-1,1.84-3.54m2.37-4.75h1.87l1.19,5.16c.23,1,.44,2,.66,3.07h0c.22-1.08.44-2.07.66-3.07l1.19-5.16h1.87l-2.45,9.51H74.53Zm8.47-2.5a1.06,1.06,0,0,1,1.13-1.07,1.06,1.06,0,1,1-1.13,1.07m.24,2.5h1.78v9.51H80.78Zm15.28,2.69v6.82H94.28V83.79c0-1-.37-1.53-1.18-1.53s-1.52.55-1.93,1.9v6.27H89.38V83.79c0-1-.36-1.53-1.17-1.53s-1.52.55-1.94,1.9v6.27H84.49V80.92H86l.11,1.74a2.67,2.67,0,0,1,2.68-2,2.14,2.14,0,0,1,2.3,1.81,2.62,2.62,0,0,1,2.59-1.81c1.55,0,2.41,1,2.41,2.9m8.75,6.78a2.87,2.87,0,0,1-1,.16,1.33,1.33,0,0,1-1.5-1,2.63,2.63,0,0,1-2.32,1.1,2.53,2.53,0,0,1-2.68-2.81c0-1.75,1-2.79,2.94-2.79a3,3,0,0,1,1.91.55V84c0-1.28-.42-1.84-1.44-1.84s-1.38.51-1.43,1.71l-1.66-.33c0-1.82,1.21-2.8,3.17-2.8s3,1,3,3.2v4.3c0,.72.23,1,.91.87Zm-2.6-2V86.78a2.14,2.14,0,0,0-1.49-.52c-1.07,0-1.55.52-1.55,1.52s.47,1.5,1.39,1.5a1.91,1.91,0,0,0,1.65-.89M113,85.57c0,3.06-1.13,5.07-3.2,5.07a2.35,2.35,0,0,1-2.29-1.56l-.13,1.35h-1.43V77.24h1.79V82.1A2.32,2.32,0,0,1,110,80.71c2.08,0,3,1.88,3,4.86m-1.87.07c0-2.31-.52-3.47-1.71-3.47-.78,0-1.38.51-1.68,1.57v4c.32,1,.88,1.45,1.62,1.45,1.16,0,1.77-1.18,1.77-3.54m5.67-.65a14.64,14.64,0,0,0-2.46-8.59l-1.19.61a14.46,14.46,0,0,1,2.11,8,14.4,14.4,0,0,1-2.11,8l1.19.63a14.86,14.86,0,0,0,2.46-8.6m-86.53,8.6L31.42,93a14.47,14.47,0,0,1-2.1-8,14.52,14.52,0,0,1,2.1-8l-1.18-.61A14.64,14.64,0,0,0,27.78,85a14.86,14.86,0,0,0,2.46,8.6"/></g></g></svg>