<svg xmlns="http://www.w3.org/2000/svg" viewBox="0 0 223.37 82.21"><defs><style>.cls-1{fill:#009996;}</style></defs><g id="Layer_2" data-name="Layer 2"><g id="Layer_1-2" data-name="Layer 1"><path class="cls-1" d="M37.72,82C28.37,80,22.19,73,20.91,63.26l-.19-1.43H62.57l-.18,1.92a22.37,22.37,0,0,1-3.21,9,21.63,21.63,0,0,1-12.77,9,35.81,35.81,0,0,1-8.69.25Z"/><path d="M164.86,62.74A16.44,16.44,0,0,1,156,59.28c-2.34-1.91-4.05-5.87-4.05-9.37V48.32h8.28l.33,2c.43,2.48,1.28,3.85,3.05,4.88,1.21.72,1.71.82,3.8.81,4.88,0,8.23-2.81,7.48-6.24-.51-2.35-2.43-3.6-7.64-4.95a24.65,24.65,0,0,1-8.64-3.61,13,13,0,0,1-4.89-5.75,12.26,12.26,0,0,1,.4-8.49c1.57-3.37,5.61-6.35,10.14-7.46a22.4,22.4,0,0,1,9.75.32,12.69,12.69,0,0,1,8.75,10.69l.19,1.64h-4.07c-4.46,0-4.09.16-4.56-1.95-.53-2.38-2.33-3.84-5.18-4.22-5.68-.75-9.46,4.89-5.7,8.5,1.13,1.08,2,1.43,7.42,3.09,7.22,2.2,10.23,4,12,7.33.74,1.39.8,1.79.8,5.12s0,3.69-1,5.59c-2.15,4.38-6.76,6.86-13.43,7.25a30.83,30.83,0,0,1-4.35-.08Z"/><path d="M120.31,47.41c-3.43-8-6.36-14.68-6.51-14.83s-.28,5.39-.28,14.34V61.55l-4.43-.09-4.42-.08-.08-20.78-.08-20.77,6.63-.09c4.17-.06,6.73,0,6.88.21s2.1,4.94,4.37,10.6,4.17,10.24,4.24,10.17,2-4.77,4.26-10.45L135,20l6.81-.08,6.82-.08V61.53h-9V47c0-8-.1-14.55-.23-14.55s-2.77,6-5.88,13.29-6,13.94-6.32,14.76L126.55,62Z"/><path class="cls-1" d="M18.06,61.24A19.37,19.37,0,0,1,6.2,55.41C1.41,50.56-.37,45.74.06,38.87A18.63,18.63,0,0,1,5.59,26.33,19.77,19.77,0,0,1,18.47,20l2.29-.22v1.49c0,3.52,1.92,8.41,4.66,11.85a22.21,22.21,0,0,0,11.48,7.1l2.32.54-1.49.23a22.28,22.28,0,0,0-12.6,7.67,19.2,19.2,0,0,0-4.32,10.52C20.58,61.64,20.66,61.59,18.06,61.24Z"/><path class="cls-1" d="M62.78,60.41a20.68,20.68,0,0,0-2.26-8.13,21.64,21.64,0,0,0-7.44-8.36c-2.39-1.58-6.32-3.08-8.16-3.12-1.12,0-1.08-.06.63-.43a30.24,30.24,0,0,0,7.53-2.95,22.06,22.06,0,0,0,9.5-15.13l.34-2.49h1.24c3.44,0,8.44,2.09,12,5A20.74,20.74,0,0,1,65.28,61.21c-1.19.18-2.23.32-2.33.32S62.78,61,62.78,60.41Z"/><path d="M220.76,30.06a17.73,17.73,0,0,0-7.9-7.56c-4.77-2.45-6.46-2.74-16.56-2.92l-8.63-.14V61.6l8.78-.14c7.9-.13,9-.21,11.32-.82a37.29,37.29,0,0,0,3.88-1.26,20.42,20.42,0,0,0,9.64-9.11A23,23,0,0,0,220.76,30.06ZM214,41.23c-.16,4.1-.81,6-2.89,8.31a11.94,11.94,0,0,1-6.21,3.73,23.73,23.73,0,0,1-5,.46h-3.24V27.31h2.78c6.13,0,10,1.69,12.53,5.41C213.71,35.25,214.18,37.21,214,41.23Z"/><path class="cls-1" d="M21.19,17.65A20.31,20.31,0,0,1,28.71,4.51,26.22,26.22,0,0,1,36.83.45,27,27,0,0,1,45.64.28,21.62,21.62,0,0,1,60.05,11c1.36,2.69,2.44,6,2.44,7.44v1H21Z"/></g></g></svg>