<svg xmlns="http://www.w3.org/2000/svg" viewBox="0 0 448.01 107.48"><defs><style>.cls-1{fill:#0c2340;}.cls-2{fill:#fff;}.cls-3{fill:#d0647a;}</style></defs><g id="Layer_2" data-name="Layer 2"><g id="Layer_1-2" data-name="Layer 1"><rect class="cls-1" width="448.01" height="107.48" rx="53.74"/><path class="cls-2" d="M394.27,0A53.74,53.74,0,1,0,448,53.74,53.73,53.73,0,0,0,394.27,0Z"/><path class="cls-3" d="M429.53,55.37l-9.8-13a1.2,1.2,0,0,0-1.9,0l-10.13,13a1.19,1.19,0,0,0,.94,1.93h6.55a21.44,21.44,0,1,1-4.53-17.1,3.51,3.51,0,0,0,5.43-4.44,28.46,28.46,0,1,0,6.19,21.54h6.29A1.2,1.2,0,0,0,429.53,55.37Z"/><path class="cls-2" d="M61.52,30.92a25.94,25.94,0,0,1,8.63,1.22,14,14,0,0,1,5.33,3.17,10.8,10.8,0,0,1,2.68,4.36,15.74,15.74,0,0,1,.75,4.71,15.28,15.28,0,0,1-1.56,7.23,12.31,12.31,0,0,1-5.24,4.92l9,18.88h-10l-7.48-16.7H54.92v16.7H45.76V30.92Zm4.24,19.6A5.74,5.74,0,0,0,68,49.21a4.35,4.35,0,0,0,1.16-2,10.61,10.61,0,0,0,.31-2.61,7,7,0,0,0-.38-2.28,4.75,4.75,0,0,0-1.27-1.93,6.22,6.22,0,0,0-2.5-1.31,14.45,14.45,0,0,0-4-.47H54.92V51h7.23A11.92,11.92,0,0,0,65.76,50.52Z"/><path class="cls-2" d="M116.78,30.92v7.91h-21v9.72h19.81v8H95.73v11h22.36l-.93,7.92H86.44V30.92Z"/><path class="cls-2" d="M133.32,66.87q2.34,1.88,6.89,1.87a12.45,12.45,0,0,0,3.67-.47A7.1,7.1,0,0,0,146.31,67a4.42,4.42,0,0,0,1.34-1.84,6.45,6.45,0,0,0,.41-2.31,5,5,0,0,0-1.31-3.27c-.87-1-2.47-1.75-4.8-2.21l-5.79-1.06a33.43,33.43,0,0,1-6-1.62,14.15,14.15,0,0,1-4.39-2.58,10.38,10.38,0,0,1-2.71-3.9,14.62,14.62,0,0,1-.93-5.48,11.9,11.9,0,0,1,1.27-5.61,11.43,11.43,0,0,1,3.56-4,16.55,16.55,0,0,1,5.45-2.46,27.18,27.18,0,0,1,7-.84,25,25,0,0,1,8.1,1.12,14.87,14.87,0,0,1,5.24,3,11.67,11.67,0,0,1,3,4.27,20.23,20.23,0,0,1,1.27,5.05l-8.78,1.12a8.69,8.69,0,0,0-2.65-5.3q-2-1.62-5.95-1.62a15.49,15.49,0,0,0-3.89.41,7.61,7.61,0,0,0-2.46,1.06,3.54,3.54,0,0,0-1.31,1.52,4.56,4.56,0,0,0-.38,1.81,4.73,4.73,0,0,0,1.41,3.74,10.44,10.44,0,0,0,4.76,1.93l6.11,1.18q7.23,1.44,10.59,4.64T157.71,63a13.07,13.07,0,0,1-1.09,5.38,11.83,11.83,0,0,1-3.24,4.3A15.28,15.28,0,0,1,148,75.5a25.31,25.31,0,0,1-7.6,1q-9.09,0-13.92-3.9t-5.2-11.74h9.41C130.88,63.63,131.77,65.62,133.32,66.87Z"/><path class="cls-2" d="M160.33,39v-8h36.13v8H183.07V75.41h-9.35V39Z"/><path class="cls-2" d="M218,30.92l16.69,44.49h-10l-3.56-10.28H205.56L202,75.41h-9.6l16.7-44.49Zm-4.68,10.59-5.35,16H218.7Z"/><path class="cls-2" d="M255.59,30.92a25.92,25.92,0,0,1,8.62,1.22,14,14,0,0,1,5.33,3.17,10.8,10.8,0,0,1,2.68,4.36,15.74,15.74,0,0,1,.75,4.71,15.28,15.28,0,0,1-1.56,7.23,12.34,12.34,0,0,1-5.23,4.92l9,18.88h-10l-7.48-16.7H249v16.7h-9.16V30.92Zm4.23,19.6a5.78,5.78,0,0,0,2.28-1.31,4.42,4.42,0,0,0,1.15-2,10.15,10.15,0,0,0,.31-2.61,7,7,0,0,0-.37-2.28,4.77,4.77,0,0,0-1.28-1.93,6.11,6.11,0,0,0-2.49-1.31,14.58,14.58,0,0,0-4-.47H249V51h7.23A11.87,11.87,0,0,0,259.82,50.52Z"/><path class="cls-2" d="M276.58,39v-8h36.13v8H299.32V75.41H290V39Z"/></g></g></svg>