<svg xmlns="http://www.w3.org/2000/svg" viewBox="0 0 397.22 107.48"><defs><style>.cls-1{fill:#0c2340;}.cls-2{fill:#fff;}.cls-3{fill:#00867c;}</style></defs><g id="Layer_2" data-name="Layer 2"><g id="Layer_1-2" data-name="Layer 1"><rect class="cls-1" width="397.22" height="107.48" rx="53.74"/><path class="cls-2" d="M343.48,0a53.74,53.74,0,1,0,53.74,53.74A53.74,53.74,0,0,0,343.48,0Z"/><polygon class="cls-3" points="335.08 33.59 335.08 73.89 361.95 53.74 335.08 33.59"/><path class="cls-2" d="M71.15,68.61C72.71,69.85,75,70.48,78,70.48A12.45,12.45,0,0,0,81.71,70a6.94,6.94,0,0,0,2.43-1.25,4.36,4.36,0,0,0,1.34-1.84,6.35,6.35,0,0,0,.41-2.3,5,5,0,0,0-1.31-3.27q-1.31-1.53-4.8-2.21L74,58.08a35.16,35.16,0,0,1-6-1.62,14.17,14.17,0,0,1-4.39-2.59A10.54,10.54,0,0,1,60.84,50a14.65,14.65,0,0,1-.93-5.48,11.78,11.78,0,0,1,1.28-5.61,11.41,11.41,0,0,1,3.55-4,16.55,16.55,0,0,1,5.45-2.46,27.23,27.23,0,0,1,7-.84,25,25,0,0,1,8.1,1.12,14.72,14.72,0,0,1,5.24,3,11.63,11.63,0,0,1,3,4.26,20,20,0,0,1,1.27,5L86,46.05a8.66,8.66,0,0,0-2.65-5.29q-2-1.62-6-1.62a15.54,15.54,0,0,0-3.89.4A7.84,7.84,0,0,0,71,40.6a3.62,3.62,0,0,0-1.31,1.53,4.5,4.5,0,0,0-.37,1.8,4.71,4.71,0,0,0,1.4,3.74,10.33,10.33,0,0,0,4.76,1.93l6.11,1.19q7.23,1.43,10.59,4.64t3.36,9.25a13.11,13.11,0,0,1-1.09,5.39,11.91,11.91,0,0,1-3.24,4.3,15.36,15.36,0,0,1-5.39,2.87,25.33,25.33,0,0,1-7.6,1q-9.09,0-13.92-3.89T59.1,62.63h9.41C68.71,65.37,69.6,67.36,71.15,68.61Z"/><path class="cls-2" d="M98.16,40.7v-8h36.13v8H120.9V77.14h-9.35V40.7Z"/><path class="cls-2" d="M155.79,32.66l16.69,44.48h-10L159,66.86H143.39l-3.55,10.28h-9.6l16.7-44.48Zm-4.68,10.59-5.35,16h10.77Z"/><path class="cls-2" d="M193.42,32.66a26,26,0,0,1,8.63,1.21,13.92,13.92,0,0,1,5.32,3.18,10.73,10.73,0,0,1,2.68,4.36,15.74,15.74,0,0,1,.75,4.71,15.21,15.21,0,0,1-1.56,7.22A12.22,12.22,0,0,1,204,58.26l9,18.88H203l-7.48-16.7h-8.72v16.7h-9.16V32.66Zm4.23,19.59a5.49,5.49,0,0,0,2.28-1.31,4.39,4.39,0,0,0,1.15-2,10.18,10.18,0,0,0,.31-2.62A6.92,6.92,0,0,0,201,44a4.71,4.71,0,0,0-1.28-1.93,6.11,6.11,0,0,0-2.49-1.31,14.58,14.58,0,0,0-4-.47h-6.42v12.4H194A11.84,11.84,0,0,0,197.65,52.25Z"/><path class="cls-2" d="M214.41,40.7v-8h36.14v8h-13.4V77.14h-9.34V40.7Z"/></g></g></svg>